<svg version="1.1" xmlns="http://www.w3.org/2000/svg" xmlns:xlink="http://www.w3.org/1999/xlink" width="59.32625" height="43.5" viewBox="0,0,59.32625,43.5"><defs><linearGradient x1="331.92314" y1="164.43463" x2="337.85775" y2="178.00841" gradientUnits="userSpaceOnUse" id="color-1"><stop offset="0" stop-color="#efff00"/><stop offset="1" stop-color="#ffc800"/></linearGradient><linearGradient x1="306.95918" y1="175.14684" x2="313.34039" y2="189.74209" gradientUnits="userSpaceOnUse" id="color-2"><stop offset="0" stop-color="#efff00"/><stop offset="1" stop-color="#ffc800"/></linearGradient></defs><g transform="translate(-290.33687,-158.25004)"><g data-paper-data="{&quot;isPaintingLayer&quot;:true}" fill-rule="nonzero" stroke-linecap="butt" stroke-linejoin="miter" stroke-miterlimit="10" stroke-dasharray="" stroke-dashoffset="0" style="mix-blend-mode: normal"><path d="M291.58687,200.50004v-41h56.82625v41z" fill="#8cff95" stroke="#cccccc" stroke-width="2.5"/><path d="M301.72059,196.94805l-0.9565,0.03481c-1.77301,-0.43414 -3.82887,-1.5819 -5.01509,-3.01143c-0.10651,-0.12835 -0.83314,-1.81433 -0.94837,-2.07789c-1.01848,-2.32949 -2.10709,-4.55553 -2.17001,-7.14435c-0.03493,-1.43742 0.54203,-2.99301 0.8691,-4.38156c0,0 0.15595,-0.66208 0.7556,-0.77004c0.00395,-0.00184 0.00604,-0.00276 0.00604,-0.00276l0.18461,-0.08071c3.39508,-1.48437 6.60329,-3.32684 9.99232,-4.80857c2.64873,-1.15806 5.50942,-2.13862 8.04825,-3.51504c2.93136,-1.58923 5.79322,-3.1557 8.84143,-4.52542c0.08678,-0.16911 0.24287,-0.3297 0.51038,-0.44666c0.29899,-0.13072 0.54348,-0.12226 0.7374,-0.05106c0.10067,-0.01226 0.16796,-0.00879 0.16796,-0.00879l-0.0046,0.08923c0.00523,0.00327 0.01039,0.00658 0.01552,0.00993c1.29266,-0.55476 2.64417,-0.71101 3.93023,-1.2733c1.07826,-0.23521 2.01551,-0.7402 3.11747,-0.88296c1.09897,-0.14236 2.17497,-0.41723 3.27668,-0.55299c1.12189,-0.13825 2.30492,-0.01754 3.42201,-0.18164c0.43048,-0.06324 0.83426,-0.28068 1.26853,-0.30767c2.92825,-0.182 5.97346,0.24581 8.8165,0.91549c0,0 0.9806,0.23098 0.74962,1.21158c-0.06059,0.25725 -0.17277,0.43111 -0.30531,0.54764c-1.3964,5.00289 -5.68683,8.38738 -9.46561,11.59526c-1.09821,0.93229 -2.00784,1.89199 -3.20798,2.72199c-1.27997,1.30983 -2.73897,2.40104 -4.00586,3.69748l-0.49857,0.29662c0,0 -0.31582,0.13808 -0.65876,0.06798c-1.7908,0.7737 -3.5619,1.78517 -5.26378,2.73598c-3.72035,2.07849 -7.99789,3.50212 -11.90427,5.21004c-3.18035,1.39049 -6.28787,2.96749 -9.48533,4.36699c-0.00513,0.01014 -0.01041,0.02008 -0.01585,0.02983l0.06367,0.05309c0,0 -0.20901,0.25069 -0.53179,0.34772c-0.18176,0.07723 -0.33563,0.09118 -0.33563,0.09118zM294.6436,184.66206c0.08362,2.01746 0.80042,3.67341 1.59958,5.50126c0.2946,0.67381 0.58861,1.98996 1.06951,2.53745c0.93137,1.06036 2.53889,2.01407 3.91336,2.32089l0.03102,-0.00796l0.44211,-0.4188c3.20998,-1.40344 6.32661,-2.98597 9.5192,-4.38181c3.83774,-1.6779 8.08249,-3.06207 11.72629,-5.12152c1.47098,-0.83139 2.99932,-1.67657 4.54194,-2.41034c-0.73215,-0.39158 -1.47821,-0.80817 -2.05229,-1.36568c-1.65849,-1.61062 -2.34324,-3.63888 -3.03359,-5.77561c-0.30608,-0.94736 -0.83075,-1.94101 -1.04357,-2.91007c-0.263,-1.19756 0.24439,-2.63599 0.23084,-3.86912c-2.79319,1.28863 -5.43298,2.74287 -8.14479,4.20302c-2.59489,1.39718 -5.49532,2.40637 -8.19776,3.5879c-3.36201,1.46991 -6.54717,3.29551 -9.91337,4.77397c-0.29768,1.06892 -0.73203,2.28552 -0.68847,3.33641zM323.30875,172.12887c0.67912,2.60488 1.62079,5.82283 3.55644,7.76813c0.64116,0.64436 1.7111,1.06422 2.49169,1.50612l0.37893,0.1422c1.09726,-1.01552 2.25703,-1.96172 3.32122,-3.03379c1.2001,-0.84474 2.10103,-1.78312 3.20798,-2.72199c3.30914,-2.80667 7.2833,-5.79931 8.68256,-10.11353c-2.3087,-0.47474 -4.72717,-0.75714 -7.05844,-0.6055c-2.60357,0.16935 -5.2445,0.74102 -7.83916,1.03057c-0.95233,0.10627 -1.8042,0.59508 -2.7438,0.80005c-1.19617,0.52298 -2.45564,0.65759 -3.64945,1.16162c0.09589,1.31456 -0.69304,2.74259 -0.34797,4.06613z" fill="#000000" stroke="none" stroke-width="0.5"/><path d="M323.63733,168.05729c1.19381,-0.50403 2.45517,-0.64316 3.65134,-1.16614c0.93961,-0.20496 1.79514,-0.69844 2.74747,-0.80471c2.59467,-0.28954 5.25827,-0.86469 7.86183,-1.03404c2.33126,-0.15163 4.75855,0.13914 7.06725,0.61388c-1.39926,4.31422 -5.38525,7.33588 -8.6944,10.14255c-1.10695,0.93887 -2.01861,1.8775 -3.2187,2.72224c-1.06418,1.07207 -2.22805,2.01676 -3.3253,3.03227l-0.37955,-0.14253c-0.7806,-0.4419 -1.85459,-0.86467 -2.49575,-1.50903c-1.93565,-1.94529 -2.88372,-5.17647 -3.56285,-7.78135c-0.34507,-1.32354 0.44456,-2.75859 0.34867,-4.07316z" data-paper-data="{&quot;noHover&quot;:false,&quot;origItem&quot;:[&quot;Path&quot;,{&quot;applyMatrix&quot;:true,&quot;segments&quot;:[[[329.08446,162.38477],[0.71278,-3.31853],[-1.40284,6.53124]],[[328.29451,183.57122],[-2.11829,-6.47215],[0.70166,2.14383]],[[332.1354,189.69079],[-1.23669,-1.85079],[0,0]],[[332.81646,190.42896],[0,0],[3.56548,-1.02573]],[[343.56392,187.41293],[-3.55532,1.18799],[3.60275,-0.53243]],[[353.71235,184.96153],[-3.50141,0.84504],[10.46715,-2.52616]],[[384.24543,172.24006],[-7.91732,7.99938],[-4.5867,-3.62947]],[[369.27803,163.01842],[5.33597,2.26645],[-5.95924,-2.53118]],[[350.75391,156.55117],[6.07369,2.25486],[-2.22926,-0.82761]],[[343.77979,155.26123],[2.31123,0.59468],[-3.23486,-0.17629]],[[334.39489,153.76162],[3.20846,0.21565],[-1.25499,3.02047]]],&quot;closed&quot;:true}]}" fill="url(#color-1)" stroke="none" stroke-width="0.5"/><path d="M295.31198,181.32413c3.3662,-1.47846 6.55856,-3.31803 9.92057,-4.78794c2.70244,-1.18154 5.62238,-2.19427 8.21727,-3.59145c2.71181,-1.46014 5.35791,-2.91082 8.1511,-4.19944c0.01354,1.23313 -0.4916,2.67374 -0.2286,3.87131c0.21282,0.96906 0.73988,1.96609 1.04596,2.91345c0.69035,2.13673 1.37764,4.17339 3.03613,5.78401c0.57408,0.55751 1.32019,0.97586 2.05234,1.36744c-1.54262,0.73377 -3.07138,1.58276 -4.54236,2.41415c-3.64379,2.05945 -7.90553,3.45949 -11.74327,5.13739c-3.19259,1.39583 -6.32347,2.97495 -9.53345,4.37839l-0.44224,0.4187l-0.03104,0.00795c-1.37447,-0.30682 -2.98607,-1.26439 -3.91744,-2.32475c-0.4809,-0.54749 -0.77678,-1.86644 -1.07138,-2.54025c-0.79916,-1.82785 -1.51829,-3.49073 -1.60191,-5.50819c-0.04356,-1.05089 0.39064,-2.27186 0.68833,-3.34078z" data-paper-data="{&quot;noHover&quot;:false,&quot;origItem&quot;:[&quot;Path&quot;,{&quot;applyMatrix&quot;:true,&quot;segments&quot;:[[[251.56351,158.16125],[1.07663,-2.37767],[-2.06688,4.56458]],[[248.96725,172.13919],[0.26938,-4.94315],[-0.0993,1.82222]],[[248.50487,178.9568],[-0.4546,-1.75024],[0.88044,3.38977]],[[254.58698,188.46918],[-2.70367,-2.21438],[0,0]],[254.66461,188.48616],[[256.11197,188.05154],[0,0],[8.68088,0.47307]],[[282.10065,188.96707],[-8.63385,-0.47051],[10.37858,0.56559]],[[313.8066,190.70709],[-10.37466,0.49653],[4.1882,-0.20044]],[[326.56353,190.43555],[-4.238,-0.09588],[-1.18549,-1.68517]],[[323.53971,185.11777],[0.64993,1.87645],[-1.87763,-5.42102]],[[323.26407,168.93095],[-0.85535,5.50622],[0.37923,-2.44129]],[[324.19991,161.31648],[-0.61015,2.38527],[0.75402,-2.94771]],[[329.03081,152.99919],[-1.34659,2.74806],[-7.62901,-0.26225]],[[306.28777,153.22174],[7.64012,-0.20872],[-7.3107,0.19972]],[[284.11401,152.02189],[7.30834,0.39827],[-9.09202,-0.49548]],[[256.81395,151.53546],[9.11087,0.48121],[-1.85303,2.03668]]],&quot;closed&quot;:true}]}" fill="url(#color-2)" stroke="none" stroke-width="0.5"/></g></g></svg>