<svg version="1.1" xmlns="http://www.w3.org/2000/svg" xmlns:xlink="http://www.w3.org/1999/xlink" width="119.25" height="119.25" viewBox="0,0,119.25,119.25"><defs><linearGradient x1="333.39462" y1="161.06227" x2="316.99814" y2="145.96666" gradientUnits="userSpaceOnUse" id="color-1"><stop offset="0" stop-color="#efff00"/><stop offset="1" stop-color="#ffc800"/></linearGradient><linearGradient x1="305.91955" y1="191.3167" x2="288.28917" y2="175.0851" gradientUnits="userSpaceOnUse" id="color-2"><stop offset="0" stop-color="#efff00"/><stop offset="1" stop-color="#ffc800"/></linearGradient><linearGradient x1="347.00768" y1="168.24694" x2="330.61119" y2="153.15134" gradientUnits="userSpaceOnUse" id="color-3"><stop offset="0" stop-color="#efff00"/><stop offset="1" stop-color="#ffc800"/></linearGradient><linearGradient x1="319.53257" y1="198.50137" x2="301.90223" y2="182.26977" gradientUnits="userSpaceOnUse" id="color-4"><stop offset="0" stop-color="#efff00"/><stop offset="1" stop-color="#ffc800"/></linearGradient><linearGradient x1="358.35189" y1="176.56604" x2="341.9554" y2="161.4704" gradientUnits="userSpaceOnUse" id="color-5"><stop offset="0" stop-color="#efff00"/><stop offset="1" stop-color="#ffc800"/></linearGradient><linearGradient x1="330.87681" y1="206.82047" x2="313.24647" y2="190.58883" gradientUnits="userSpaceOnUse" id="color-6"><stop offset="0" stop-color="#efff00"/><stop offset="1" stop-color="#ffc800"/></linearGradient></defs><g transform="translate(-260.375,-120.375)"><g data-paper-data="{&quot;isPaintingLayer&quot;:true}" fill-rule="nonzero" stroke-linecap="butt" stroke-linejoin="miter" stroke-miterlimit="10" stroke-dasharray="" stroke-dashoffset="0" style="mix-blend-mode: normal"><path d="M378.375,180c0,32.23962 -26.13538,58.375 -58.375,58.375c-32.23962,0 -58.375,-26.13538 -58.375,-58.375c0,-32.23962 26.13538,-58.375 58.375,-58.375c32.23962,0 58.375,26.13538 58.375,58.375z" fill="#bbbbbb" stroke="#000000" stroke-width="2.5"/><path d="M272.34321,188.07917c0,0 0.09528,-0.21202 0.29423,-0.43267c0.29624,-0.41151 0.75528,-0.58589 0.75528,-0.58589l0.04429,0.11658c0.01655,-0.00298 0.03327,-0.00562 0.05022,-0.00793c3.55813,-3.86163 7.32461,-7.50832 10.86156,-11.35002c4.34434,-4.71874 8.46633,-10.1047 13.24655,-14.37717c2.18674,-1.95443 4.49368,-3.97756 6.47208,-6.14532c0.06844,-0.52217 0.41967,-0.90365 0.41967,-0.90365l0.66632,-0.56369c2.46503,-1.16632 4.73238,-2.70643 7.22289,-3.88479c1.76889,-1.30005 3.57983,-2.1233 5.44426,-3.22821c6.41521,-3.80185 13.33244,-8.24481 21.13268,-7.77815c0.23071,-0.13138 0.53299,-0.2057 0.92859,-0.16575c1.50795,0.15224 1.35571,1.6602 1.35571,1.6602c-0.44136,4.37199 -1.32589,8.91294 -3.02036,12.98856c-0.25131,0.60441 -0.75852,1.07212 -1.0595,1.65339c-0.78106,1.50839 -1.18939,3.2502 -1.93605,4.77808c-0.73325,1.5004 -1.65171,2.89603 -2.39298,4.38931c-0.74328,1.49733 -1.92107,2.58281 -2.78424,4.0011c-1.43026,1.55352 -2.31512,3.39917 -3.73789,4.96573c0.00224,0.00892 0.00445,0.01792 0.00652,0.02694l0.12918,0.03721c0,0 -0.02805,0.09742 -0.09485,0.23459c0.00619,0.31071 -0.10163,0.66261 -0.43414,1.02377c-0.29751,0.32312 -0.60244,0.4664 -0.8855,0.50692c-3.44259,3.66394 -7.07368,6.9664 -10.77119,10.3565c-3.20239,2.93615 -5.99956,6.52417 -8.94526,9.72372c-3.76898,4.09377 -7.96242,7.75351 -11.73816,11.8546l-0.2053,0.22302c0,0 -0.00234,0.00254 -0.00689,0.00726c-0.44754,0.79994 -1.46569,0.69714 -1.46569,0.69714c-2.13529,-0.2156 -4.63069,-0.15763 -6.658,-0.91204c-3.65124,-1.35869 -6.28363,-3.99839 -9.09755,-6.58906c-0.31836,-0.29312 -2.36009,-2.15321 -2.49043,-2.36761c-1.45166,-2.388 -2.07619,-5.87476 -1.82441,-8.60938l0.51845,-1.34337zM286.34811,204.16819c1.47332,0.57716 3.41665,0.55586 5.08291,0.65652c3.75317,-4.06292 7.91134,-7.69815 11.65027,-11.75929c3.00541,-3.26444 5.86277,-6.89495 9.12219,-9.90067c3.40629,-3.14114 6.76889,-6.18273 9.97111,-9.52373c-1.74726,-0.62386 -4.04189,-0.60742 -5.61624,-1.5686c-1.27397,-0.77782 -2.42999,-2.0112 -3.62737,-2.911c-2.70062,-2.02945 -5.2497,-3.99779 -6.7274,-7.14629c-0.5115,-1.08983 -0.73826,-2.35521 -0.93624,-3.58853c-1.79995,1.83435 -3.75137,3.59374 -5.65502,5.27832c-4.7156,4.1729 -8.76538,9.53162 -13.03339,14.16741c-3.55054,3.85648 -7.32936,7.5134 -10.89923,11.39091l-0.81242,0.42351l-0.02654,0.04022c-0.23749,2.10531 0.33087,4.85928 1.38238,6.70382c0.54292,0.95243 2.27076,2.01585 3.08468,2.76521c2.20798,2.03279 4.21179,3.86417 7.04025,4.97219zM324.18157,171.04087c1.30219,-1.45085 2.11112,-3.17621 3.44139,-4.62112c0.75218,-1.23589 1.86507,-2.20784 2.48311,-3.51026c1.6839,-3.54844 3.79176,-7.02437 5.30908,-10.64442c1.35862,-3.24141 2.14265,-6.81967 2.59932,-10.33608c-6.82214,-0.12493 -13.02701,4.06031 -18.6413,7.39088c-1.87808,1.1141 -3.65442,1.93544 -5.44427,3.2282c-2.04657,0.98797 -3.96095,2.17364 -5.94326,3.23639l0.01649,0.60869c0.24582,1.32689 0.31843,3.05453 0.92056,4.28236c1.81783,3.70681 5.93307,6.6238 9.30502,8.86681c1.71329,1.13967 4.13119,0.71767 5.95387,1.49856z" fill="#000000" stroke="none" stroke-width="0.5"/><path d="M324.1798,171.07119c-1.82268,-0.78089 -4.2509,-0.36136 -5.96419,-1.50103c-3.37196,-2.24301 -7.50287,-5.17561 -9.32067,-8.88242c-0.60213,-1.22784 -0.67689,-2.96266 -0.92271,-4.28955l-0.01665,-0.60973c1.98232,-1.06275 3.89657,-2.25494 5.9431,-3.24294c1.78985,-1.29276 3.5718,-2.12921 5.44988,-3.24335c5.6143,-3.33057 11.86624,-7.51845 18.68838,-7.39348c-0.45668,3.51641 -1.23311,7.11132 -2.59173,10.35273c-1.51731,3.62002 -3.64122,7.1265 -5.32512,10.67494c-0.61804,1.30239 -1.73936,2.27728 -2.49154,3.5132c-1.3303,1.44491 -2.1466,3.17074 -3.44875,4.62159z" data-paper-data="{&quot;noHover&quot;:false,&quot;origItem&quot;:[&quot;Path&quot;,{&quot;applyMatrix&quot;:true,&quot;segments&quot;:[[[329.08446,162.38477],[0.71278,-3.31853],[-1.40284,6.53124]],[[328.29451,183.57122],[-2.11829,-6.47215],[0.70166,2.14383]],[[332.1354,189.69079],[-1.23669,-1.85079],[0,0]],[[332.81646,190.42896],[0,0],[3.56548,-1.02573]],[[343.56392,187.41293],[-3.55532,1.18799],[3.60275,-0.53243]],[[353.71235,184.96153],[-3.50141,0.84504],[10.46715,-2.52616]],[[384.24543,172.24006],[-7.91732,7.99938],[-4.5867,-3.62947]],[[369.27803,163.01842],[5.33597,2.26645],[-5.95924,-2.53118]],[[350.75391,156.55117],[6.07369,2.25486],[-2.22926,-0.82761]],[[343.77979,155.26123],[2.31123,0.59468],[-3.23486,-0.17629]],[[334.39489,153.76162],[3.20846,0.21565],[-1.25499,3.02047]]],&quot;closed&quot;:true}]}" fill="url(#color-1)" stroke="none" stroke-width="0.5"/><path d="M291.42316,204.85407c-1.66626,-0.10066 -3.61574,-0.0817 -5.08906,-0.65886c-2.82843,-1.10805 -4.84096,-2.9461 -7.04894,-4.9789c-0.81392,-0.74937 -2.5448,-1.81686 -3.08772,-2.76925c-1.05151,-1.84457 -1.62336,-4.60621 -1.3859,-6.71155l0.02651,-0.04026l0.81235,-0.42374c3.56991,-3.87747 7.35086,-7.55636 10.90137,-11.41284c4.26801,-4.6358 8.34872,-10.0109 13.06431,-14.18376c1.90365,-1.68454 3.86069,-3.44269 5.66064,-5.27701c0.19801,1.23332 0.42722,2.49963 0.93872,3.58946c1.47766,3.1485 4.03747,5.12456 6.73809,7.15401c1.19738,0.8998 2.35704,2.13827 3.63102,2.91606c1.57435,0.96119 3.87099,0.94901 5.61825,1.57285c-3.20222,3.34096 -6.56281,6.39332 -9.96911,9.53447c-3.25939,3.00572 -6.13135,6.66224 -9.1368,9.92665c-3.73893,4.06115 -7.92046,7.69975 -11.67364,11.76266z" data-paper-data="{&quot;noHover&quot;:false,&quot;origItem&quot;:[&quot;Path&quot;,{&quot;applyMatrix&quot;:true,&quot;segments&quot;:[[[251.56351,158.16125],[1.07663,-2.37767],[-2.06688,4.56458]],[[248.96725,172.13919],[0.26938,-4.94315],[-0.0993,1.82222]],[[248.50487,178.9568],[-0.4546,-1.75024],[0.88044,3.38977]],[[254.58698,188.46918],[-2.70367,-2.21438],[0,0]],[254.66461,188.48616],[[256.11197,188.05154],[0,0],[8.68088,0.47307]],[[282.10065,188.96707],[-8.63385,-0.47051],[10.37858,0.56559]],[[313.8066,190.70709],[-10.37466,0.49653],[4.1882,-0.20044]],[[326.56353,190.43555],[-4.238,-0.09588],[-1.18549,-1.68517]],[[323.53971,185.11777],[0.64993,1.87645],[-1.87763,-5.42102]],[[323.26407,168.93095],[-0.85535,5.50622],[0.37923,-2.44129]],[[324.19991,161.31648],[-0.61015,2.38527],[0.75402,-2.94771]],[[329.03081,152.99919],[-1.34659,2.74806],[-7.62901,-0.26225]],[[306.28777,153.22174],[7.64012,-0.20872],[-7.3107,0.19972]],[[284.11401,152.02189],[7.30834,0.39827],[-9.09202,-0.49548]],[[256.81395,151.53546],[9.11087,0.48121],[-1.85303,2.03668]]],&quot;closed&quot;:true}]}" fill="url(#color-2)" stroke="none" stroke-width="0.5"/><path d="M285.95623,195.26381c0,0 0.09528,-0.21202 0.29423,-0.43266c0.29623,-0.41154 0.75528,-0.58589 0.75528,-0.58589l0.04429,0.11658c0.01652,-0.00297 0.03327,-0.00562 0.05022,-0.00793c3.55813,-3.86163 7.32461,-7.50832 10.86156,-11.35002c4.34434,-4.71874 8.46633,-10.1047 13.24655,-14.37716c2.18674,-1.95443 4.49368,-3.97756 6.47208,-6.14532c0.06844,-0.52213 0.41966,-0.90361 0.41966,-0.90361l0.66632,-0.56369c2.46503,-1.16632 4.73238,-2.70644 7.22288,-3.88479c1.76889,-1.30008 3.57987,-2.12333 5.44427,-3.22823c6.41518,-3.80185 13.33243,-8.24482 21.13268,-7.77815c0.23071,-0.13138 0.53299,-0.20567 0.92859,-0.16575c1.50792,0.15224 1.35571,1.6602 1.35571,1.6602c-0.44136,4.37196 -1.32585,8.91294 -3.02036,12.98856c-0.25131,0.60444 -0.75849,1.07211 -1.05951,1.65338c-0.78105,1.50839 -1.18939,3.2502 -1.93604,4.77808c-0.73321,1.5004 -1.65168,2.89602 -2.39296,4.3893c-0.74328,1.49732 -1.92106,2.58281 -2.78423,4.0011c-1.43026,1.55349 -2.31509,3.39917 -3.73789,4.96573c0.00227,0.00893 0.00441,0.01792 0.00651,0.02695l0.12918,0.03721c0,0 -0.02805,0.09741 -0.09485,0.23459c0.00619,0.31071 -0.10163,0.66261 -0.43414,1.02377c-0.29751,0.32315 -0.60243,0.4664 -0.88549,0.50692c-3.44259,3.66395 -7.07364,6.9664 -10.77119,10.35651c-3.20239,2.93618 -5.99957,6.52417 -8.94527,9.72372c-3.76898,4.09377 -7.96245,7.75351 -11.73816,11.8546l-0.20531,0.22302c0,0 -0.00234,0.00254 -0.00689,0.00725c-0.44754,0.79995 -1.4657,0.69718 -1.4657,0.69718c-2.1353,-0.21556 -4.63068,-0.15763 -6.65799,-0.91204c-3.65124,-1.35869 -6.28366,-3.99839 -9.09755,-6.58906c-0.31836,-0.29309 -2.36009,-2.15318 -2.49044,-2.36757c-1.45166,-2.38804 -2.07618,-5.8748 -1.82441,-8.60942l0.51846,-1.34337zM299.96114,211.35289c1.47332,0.57716 3.41665,0.55587 5.08291,0.65653c3.75318,-4.06292 7.91134,-7.69815 11.65027,-11.75929c3.00542,-3.26441 5.86276,-6.89492 9.12219,-9.90064c3.40629,-3.14118 6.76889,-6.18277 9.97111,-9.52376c-1.74726,-0.62386 -4.04189,-0.60741 -5.61624,-1.5686c-1.27397,-0.77782 -2.43,-2.0112 -3.62738,-2.91101c-2.70062,-2.02945 -5.24969,-3.99776 -6.7274,-7.14629c-0.5115,-1.08983 -0.73827,-2.35521 -0.93624,-3.58853c-1.79994,1.83432 -3.75137,3.59371 -5.65502,5.27828c-4.7156,4.17291 -8.76538,9.53162 -13.03339,14.16742c-3.55052,3.85648 -7.32936,7.5134 -10.89923,11.39091l-0.81241,0.42347l-0.02652,0.04021c-0.2375,2.10531 0.33087,4.85926 1.38239,6.70383c0.54293,0.95243 2.27076,2.01585 3.08468,2.76521c2.20794,2.03279 4.21179,3.86417 7.04024,4.97218zM331.8407,176.72698c1.71329,1.13968 4.13115,0.71767 5.95386,1.49856c1.30219,-1.45085 2.11112,-3.17617 3.44139,-4.62111c0.75218,-1.23593 1.86508,-2.20785 2.48312,-3.51027c1.6839,-3.54844 3.79179,-7.02436 5.3091,-10.64442c1.35862,-3.24141 2.14265,-6.81967 2.59932,-10.33608c-6.82214,-0.12496 -13.027,4.06031 -18.6413,7.39088c-1.87804,1.1141 -3.65442,1.93544 -5.44427,3.2282c-2.04654,0.98797 -3.96095,2.17364 -5.94326,3.23639l0.01648,0.60869c0.24582,1.32689 0.31844,3.05453 0.92057,4.28236c1.8178,3.70681 5.93303,6.6238 9.30502,8.8668z" fill="#000000" stroke="none" stroke-width="0.5"/><path d="M337.79286,178.25583c-1.82268,-0.78089 -4.2509,-0.36136 -5.96419,-1.50104c-3.37199,-2.24301 -7.50287,-5.17561 -9.32067,-8.88241c-0.60213,-1.22784 -0.67688,-2.96266 -0.9227,-4.28955l-0.01665,-0.60972c1.98232,-1.06275 3.89656,-2.25495 5.9431,-3.24295c1.78985,-1.29276 3.57181,-2.12924 5.44988,-3.24334c5.6143,-3.3306 11.86624,-7.51845 18.68838,-7.39348c-0.45664,3.51641 -1.23312,7.11132 -2.59174,10.35273c-1.51731,3.62001 -3.64121,7.1265 -5.32511,10.67494c-0.61804,1.30238 -1.73937,2.27728 -2.49155,3.5132c-1.3303,1.44491 -2.14656,3.17073 -3.44874,4.62159z" data-paper-data="{&quot;noHover&quot;:false,&quot;origItem&quot;:[&quot;Path&quot;,{&quot;applyMatrix&quot;:true,&quot;segments&quot;:[[[329.08446,162.38477],[0.71278,-3.31853],[-1.40284,6.53124]],[[328.29451,183.57122],[-2.11829,-6.47215],[0.70166,2.14383]],[[332.1354,189.69079],[-1.23669,-1.85079],[0,0]],[[332.81646,190.42896],[0,0],[3.56548,-1.02573]],[[343.56392,187.41293],[-3.55532,1.18799],[3.60275,-0.53243]],[[353.71235,184.96153],[-3.50141,0.84504],[10.46715,-2.52616]],[[384.24543,172.24006],[-7.91732,7.99938],[-4.5867,-3.62947]],[[369.27803,163.01842],[5.33597,2.26645],[-5.95924,-2.53118]],[[350.75391,156.55117],[6.07369,2.25486],[-2.22926,-0.82761]],[[343.77979,155.26123],[2.31123,0.59468],[-3.23486,-0.17629]],[[334.39489,153.76162],[3.20846,0.21565],[-1.25499,3.02047]]],&quot;closed&quot;:true}]}" fill="url(#color-3)" stroke="none" stroke-width="0.5"/><path d="M305.03626,212.03867c-1.66625,-0.10066 -3.61574,-0.0817 -5.08906,-0.65886c-2.82843,-1.10805 -4.841,-2.94611 -7.04894,-4.9789c-0.81392,-0.74937 -2.5448,-1.81683 -3.08772,-2.76923c-1.05151,-1.84457 -1.62336,-4.60621 -1.3859,-6.71155l0.02651,-0.04025l0.81235,-0.42374c3.56987,-3.87751 7.35086,-7.5564 10.90137,-11.41287c4.26805,-4.6358 8.34872,-10.0109 13.06432,-14.18376c1.90368,-1.68454 3.86069,-3.44267 5.66063,-5.27701c0.19801,1.23332 0.42722,2.49963 0.93872,3.58946c1.47767,3.1485 4.03747,5.12456 6.73809,7.15401c1.19738,0.8998 2.35708,2.13827 3.63101,2.91606c1.57435,0.96122 3.87099,0.94902 5.61825,1.57285c-3.20222,3.341 -6.56281,6.39335 -9.96911,9.53449c-3.25943,3.00572 -6.13138,6.66224 -9.13683,9.92665c-3.73893,4.06115 -7.92046,7.69975 -11.67363,11.76266z" data-paper-data="{&quot;noHover&quot;:false,&quot;origItem&quot;:[&quot;Path&quot;,{&quot;applyMatrix&quot;:true,&quot;segments&quot;:[[[251.56351,158.16125],[1.07663,-2.37767],[-2.06688,4.56458]],[[248.96725,172.13919],[0.26938,-4.94315],[-0.0993,1.82222]],[[248.50487,178.9568],[-0.4546,-1.75024],[0.88044,3.38977]],[[254.58698,188.46918],[-2.70367,-2.21438],[0,0]],[254.66461,188.48616],[[256.11197,188.05154],[0,0],[8.68088,0.47307]],[[282.10065,188.96707],[-8.63385,-0.47051],[10.37858,0.56559]],[[313.8066,190.70709],[-10.37466,0.49653],[4.1882,-0.20044]],[[326.56353,190.43555],[-4.238,-0.09588],[-1.18549,-1.68517]],[[323.53971,185.11777],[0.64993,1.87645],[-1.87763,-5.42102]],[[323.26407,168.93095],[-0.85535,5.50622],[0.37923,-2.44129]],[[324.19991,161.31648],[-0.61015,2.38527],[0.75402,-2.94771]],[[329.03081,152.99919],[-1.34659,2.74806],[-7.62901,-0.26225]],[[306.28777,153.22174],[7.64012,-0.20872],[-7.3107,0.19972]],[[284.11401,152.02189],[7.30834,0.39827],[-9.09202,-0.49548]],[[256.81395,151.53546],[9.11087,0.48121],[-1.85303,2.03668]]],&quot;closed&quot;:true}]}" fill="url(#color-4)" stroke="none" stroke-width="0.5"/><path d="M297.30043,203.58291c0,0 0.09528,-0.21203 0.29423,-0.43267c0.29623,-0.41154 0.75529,-0.58589 0.75529,-0.58589l0.04429,0.11658c0.01651,-0.00297 0.03326,-0.00562 0.05022,-0.00792c3.55813,-3.86163 7.32461,-7.50832 10.86155,-11.35002c4.34434,-4.71874 8.46633,-10.1047 13.24655,-14.37716c2.18674,-1.95443 4.49368,-3.97756 6.47208,-6.14532c0.06844,-0.52213 0.41967,-0.90362 0.41967,-0.90362l0.66632,-0.56368c2.46503,-1.16632 4.73237,-2.70644 7.22288,-3.88479c1.76889,-1.30008 3.57987,-2.12333 5.44427,-3.22824c6.41518,-3.80185 13.33243,-8.24481 21.13268,-7.77814c0.23071,-0.13138 0.53299,-0.20567 0.92859,-0.16575c1.50792,0.15224 1.35571,1.66021 1.35571,1.66021c-0.44136,4.37195 -1.32585,8.91293 -3.02035,12.98855c-0.25131,0.60444 -0.75849,1.07211 -1.05951,1.65339c-0.78105,1.50839 -1.18939,3.2502 -1.93604,4.77808c-0.73321,1.5004 -1.65168,2.89603 -2.39295,4.38931c-0.74328,1.49732 -1.92106,2.5828 -2.78423,4.0011c-1.43026,1.55349 -2.31509,3.39917 -3.7379,4.96573c0.00227,0.00893 0.00441,0.01792 0.00652,0.02694l0.12918,0.03721c0,0 -0.02805,0.09742 -0.09485,0.23459c0.00619,0.31071 -0.10163,0.66261 -0.43414,1.02377c-0.29751,0.32315 -0.60243,0.4664 -0.88549,0.50692c-3.44259,3.66395 -7.07364,6.9664 -10.77119,10.3565c-3.20239,2.93618 -5.99957,6.52417 -8.94527,9.72372c-3.76898,4.09377 -7.96245,7.75351 -11.73816,11.8546l-0.2053,0.22302c0,0 -0.00234,0.00254 -0.00689,0.00725c-0.44754,0.79995 -1.4657,0.69718 -1.4657,0.69718c-2.13529,-0.21556 -4.63069,-0.15763 -6.658,-0.91204c-3.65124,-1.35869 -6.28366,-3.99839 -9.09754,-6.58905c-0.31836,-0.29309 -2.36009,-2.15319 -2.49044,-2.36758c-1.45165,-2.38804 -2.07619,-5.8748 -1.82441,-8.60942l0.51845,-1.34338zM311.30534,219.67199c1.47332,0.57716 3.41665,0.55587 5.08291,0.65653c3.75317,-4.06292 7.91134,-7.69814 11.65027,-11.75929c3.00542,-3.26441 5.86276,-6.89493 9.12219,-9.90064c3.40629,-3.14118 6.76889,-6.18276 9.97111,-9.52376c-1.74726,-0.62386 -4.04189,-0.60742 -5.61624,-1.5686c-1.27397,-0.77782 -2.42999,-2.0112 -3.62737,-2.911c-2.70062,-2.02945 -5.24969,-3.99776 -6.7274,-7.1463c-0.5115,-1.08983 -0.73827,-2.35521 -0.93625,-3.58853c-1.79994,1.83432 -3.75137,3.59371 -5.65502,5.27828c-4.7156,4.17291 -8.76538,9.53162 -13.03339,14.16742c-3.55052,3.85647 -7.32936,7.5134 -10.89923,11.39091l-0.81241,0.42347l-0.02651,0.04022c-0.23749,2.10531 0.33087,4.85925 1.38239,6.70382c0.54292,0.95243 2.27076,2.01584 3.08468,2.76521c2.20794,2.03279 4.21179,3.86417 7.04025,4.97218zM343.18494,185.04608c1.71329,1.13968 4.13115,0.71767 5.95386,1.49856c1.30219,-1.45086 2.11113,-3.17618 3.4414,-4.62112c0.75218,-1.23592 1.86507,-2.20784 2.48311,-3.51026c1.6839,-3.54844 3.79179,-7.02437 5.3091,-10.64442c1.35862,-3.2414 2.14265,-6.81966 2.59932,-10.33608c-6.82214,-0.12497 -13.027,4.0603 -18.6413,7.39087c-1.87804,1.1141 -3.65442,1.93544 -5.44427,3.22821c-2.04654,0.98796 -3.96095,2.17364 -5.94326,3.23639l0.01648,0.60869c0.24582,1.32689 0.31843,3.05453 0.92057,4.28236c1.8178,3.70681 5.93304,6.6238 9.30503,8.8668z" fill="#000000" stroke="none" stroke-width="0.5"/><path d="M349.13706,186.57493c-1.82268,-0.78089 -4.25091,-0.36136 -5.9642,-1.50104c-3.37199,-2.24301 -7.50287,-5.17561 -9.32067,-8.88242c-0.60213,-1.22784 -0.67688,-2.96266 -0.9227,-4.28955l-0.01665,-0.60972c1.98232,-1.06275 3.89657,-2.25494 5.9431,-3.24294c1.78985,-1.29276 3.5718,-2.12925 5.44988,-3.24335c5.6143,-3.3306 11.86624,-7.51845 18.68838,-7.39348c-0.45664,3.51641 -1.23312,7.11132 -2.59174,10.35273c-1.51731,3.62002 -3.64121,7.1265 -5.32512,10.67494c-0.61804,1.30239 -1.73937,2.27728 -2.49154,3.51321c-1.3303,1.4449 -2.14656,3.17073 -3.44874,4.62158z" data-paper-data="{&quot;noHover&quot;:false,&quot;origItem&quot;:[&quot;Path&quot;,{&quot;applyMatrix&quot;:true,&quot;segments&quot;:[[[329.08446,162.38477],[0.71278,-3.31853],[-1.40284,6.53124]],[[328.29451,183.57122],[-2.11829,-6.47215],[0.70166,2.14383]],[[332.1354,189.69079],[-1.23669,-1.85079],[0,0]],[[332.81646,190.42896],[0,0],[3.56548,-1.02573]],[[343.56392,187.41293],[-3.55532,1.18799],[3.60275,-0.53243]],[[353.71235,184.96153],[-3.50141,0.84504],[10.46715,-2.52616]],[[384.24543,172.24006],[-7.91732,7.99938],[-4.5867,-3.62947]],[[369.27803,163.01842],[5.33597,2.26645],[-5.95924,-2.53118]],[[350.75391,156.55117],[6.07369,2.25486],[-2.22926,-0.82761]],[[343.77979,155.26123],[2.31123,0.59468],[-3.23486,-0.17629]],[[334.39489,153.76162],[3.20846,0.21565],[-1.25499,3.02047]]],&quot;closed&quot;:true}]}" fill="url(#color-5)" stroke="none" stroke-width="0.5"/><path d="M316.38049,220.35777c-1.66625,-0.10066 -3.61574,-0.0817 -5.08906,-0.65886c-2.82843,-1.10805 -4.841,-2.94611 -7.04894,-4.9789c-0.81392,-0.74937 -2.5448,-1.81682 -3.08772,-2.76922c-1.05151,-1.84457 -1.62337,-4.60621 -1.3859,-6.71155l0.02651,-0.04025l0.81234,-0.42374c3.56987,-3.87751 7.35086,-7.5564 10.90138,-11.41287c4.26805,-4.6358 8.34872,-10.0109 13.06431,-14.18376c1.90368,-1.68454 3.86069,-3.44267 5.66064,-5.27701c0.19801,1.23332 0.42722,2.49963 0.93872,3.58946c1.47767,3.1485 4.03747,5.12456 6.73809,7.15402c1.19738,0.8998 2.35709,2.13827 3.63102,2.91605c1.57435,0.96122 3.87098,0.94902 5.61824,1.57285c-3.20222,3.341 -6.56281,6.39336 -9.9691,9.5345c-3.25943,3.00572 -6.13138,6.66224 -9.13683,9.92664c-3.73893,4.06115 -7.92046,7.69975 -11.67364,11.76266z" data-paper-data="{&quot;noHover&quot;:false,&quot;origItem&quot;:[&quot;Path&quot;,{&quot;applyMatrix&quot;:true,&quot;segments&quot;:[[[251.56351,158.16125],[1.07663,-2.37767],[-2.06688,4.56458]],[[248.96725,172.13919],[0.26938,-4.94315],[-0.0993,1.82222]],[[248.50487,178.9568],[-0.4546,-1.75024],[0.88044,3.38977]],[[254.58698,188.46918],[-2.70367,-2.21438],[0,0]],[254.66461,188.48616],[[256.11197,188.05154],[0,0],[8.68088,0.47307]],[[282.10065,188.96707],[-8.63385,-0.47051],[10.37858,0.56559]],[[313.8066,190.70709],[-10.37466,0.49653],[4.1882,-0.20044]],[[326.56353,190.43555],[-4.238,-0.09588],[-1.18549,-1.68517]],[[323.53971,185.11777],[0.64993,1.87645],[-1.87763,-5.42102]],[[323.26407,168.93095],[-0.85535,5.50622],[0.37923,-2.44129]],[[324.19991,161.31648],[-0.61015,2.38527],[0.75402,-2.94771]],[[329.03081,152.99919],[-1.34659,2.74806],[-7.62901,-0.26225]],[[306.28777,153.22174],[7.64012,-0.20872],[-7.3107,0.19972]],[[284.11401,152.02189],[7.30834,0.39827],[-9.09202,-0.49548]],[[256.81395,151.53546],[9.11087,0.48121],[-1.85303,2.03668]]],&quot;closed&quot;:true}]}" fill="url(#color-6)" stroke="none" stroke-width="0.5"/></g></g></svg>