<svg version="1.1" xmlns="http://www.w3.org/2000/svg" xmlns:xlink="http://www.w3.org/1999/xlink" width="115.18438" height="81.6641" viewBox="0,0,115.18438,81.6641"><g transform="translate(-336.16926,-137.46136)"><g data-paper-data="{&quot;isPaintingLayer&quot;:true}" fill-rule="nonzero" stroke="none" stroke-width="0.5" stroke-linecap="butt" stroke-linejoin="miter" stroke-miterlimit="10" stroke-dasharray="" stroke-dashoffset="0" style="mix-blend-mode: normal"><path d="M350.66839,170.40141c-0.29738,0.52646 -0.80459,0.94285 -1.38395,1.19924c-0.13036,0.3949 -0.25029,0.75157 -0.35704,1.04127c-0.11802,0.00726 -0.23612,0.01346 -0.35424,0.01857c-0.71279,1.86483 -1.6467,3.63168 -2.95323,5.22681l-0.89627,0.78816c0.04111,7.5984 -1.76784,15.22404 -0.96201,22.75624c0.40249,3.76218 0.18959,8.29947 2.36653,11.49636l1.34413,1.63231c0.50453,-0.30861 0.99192,-0.39133 0.99192,-0.39133l0.35478,-0.04063c4.18901,-1.25364 8.66958,-2.13218 13.08972,-2.90856c-0.29389,-1.06836 -0.3236,-2.37616 -0.12364,-4.00946c0.1612,-1.31673 1.58204,-2.6855 0.9664,-3.86056c-0.35979,-0.68671 -1.48017,-0.7331 -1.84356,-1.41791c-1.01882,-1.92002 -1.75859,-7.65956 -1.26245,-9.77309c0.25201,-1.07359 0.96608,-1.98989 1.5747,-2.9095c0.24806,-0.37481 1.02482,-0.49001 0.97045,-0.93618c-0.07689,-0.631 -1.06917,-0.82564 -1.25908,-1.43227c-1.92966,-6.1638 0.39138,-12.74201 4.58709,-17.17808c-0.13303,-1.13328 -0.23358,-2.28078 -0.281,-3.4198l-0.15488,0.02224c-1.65494,-0.13034 -3.32079,-0.16437 -4.97955,-0.09478c-3.19443,0.97036 -6.18895,2.38659 -9.23988,3.73492c-0.05368,0.16724 -0.11823,0.3202 -0.19496,0.45603zM336.72046,166.36797l-0.00002,-0.00004c-0.45129,-1.00619 -0.34288,-2.17872 -0.51432,-3.26808c0,0 -0.01936,-0.15326 -0.01033,-0.3884c-0.01231,-0.0982 -0.02052,-0.20098 -0.02429,-0.30856c-0.08725,-2.49847 2.41121,-2.58573 2.41121,-2.58573c2.88188,-0.09793 6.25421,-0.04188 9.09405,-0.96175c0.034,-0.10056 0.06681,-0.20189 0.09826,-0.30406c0.57398,-1.97369 1.8667,-3.67483 2.4819,-5.69563c0.25386,-0.8478 0.39014,-1.72763 0.52974,-2.60303c0.51313,-0.72509 1.05131,-1.52457 1.75095,-2.1143c3.10463,-1.08044 5.87249,-1.38369 9.48885,-1.11093l2.08976,0.42716c0,0 1.39039,0.29981 1.84754,1.4959c2.40575,-0.50681 4.83011,-0.77869 6.74356,-1.10683c0,0 0.01767,-0.00301 0.05027,-0.007c8.69649,-1.4209 17.64423,-1.52824 26.40038,-2.44901c6.96926,-0.73287 13.96743,-2.37561 20.87856,-3.54865c7.99674,-1.3573 15.99348,-2.7146 23.99022,-4.0719l1.64317,-0.2789c0,0 2.46475,-0.41835 2.88309,2.0464c0.03185,0.18767 0.04699,0.36346 0.04778,0.52811c2.0683,3.34188 3.00402,5.7422 2.69516,10.10246l-0.27799,0.38936c0.08673,0.20249 0.15538,0.43423 0.20038,0.69931c0.41835,2.46475 -2.0464,2.88309 -2.0464,2.88309l-1.9718,0.33468c-3.37381,0.57264 -6.67787,1.26319 -9.96634,2.00531c0.30551,1.82166 0.67304,4.2829 0.46149,4.76888c-1.521,3.49422 -3.69096,3.03142 -6.47745,3.70993c-7.84104,1.90927 -15.84861,2.69491 -23.81393,4.04688l-0.47232,0.08017c-0.01261,1.46127 -0.27878,2.81182 -0.92635,3.94485c-1.85704,3.2492 -5.31234,4.10434 -8.57386,5.08627c-5.78907,1.74289 -11.95064,2.63 -18.02453,3.12533c-0.67397,1.44203 -2.43889,1.30613 -2.43889,1.30613l-1.76477,-0.16787c-1.96042,-0.48012 -4.29696,0.03793 -5.95077,-1.11909c-1.74263,-1.21917 -2.30529,-2.83494 -2.64097,-4.5671c-1.32873,2.64317 -1.82207,5.72143 -0.91579,8.67189c0.31354,1.02075 1.51913,1.76641 1.49362,2.83392c-0.04631,1.9381 -2.21212,3.27796 -2.6888,5.1571c-0.26742,1.05418 0.21958,5.21562 0.75769,6.11286c0.49492,0.82524 1.80212,1.05693 2.11213,1.9679c0.93235,2.73974 -2.31453,7.4631 -0.01985,8.85238c0.02099,-0.00359 0.04197,-0.00719 0.06294,-0.01078c0,0 1.51283,-0.25678 2.36922,0.81724c0.65452,0.35065 1.73049,1.21022 1.20957,2.9213c-0.72809,2.39163 -3.11972,1.66355 -3.11972,1.66355l-0.57135,-0.17845c-0.09744,-0.02889 -0.1935,-0.05806 -0.28819,-0.0875c-5.54283,0.92324 -11.42201,1.88721 -16.75227,3.50336l-0.95975,0.18249c0,0 -1.22914,0.20863 -2.09877,-0.53677c-1.84196,1.30522 -3.32128,-0.49714 -3.32128,-0.49714l-1.79239,-2.19024c-6.91733,-11.0759 -1.99044,-25.75667 -2.3751,-37.99616c-0.02728,-0.17133 -0.03161,-0.33665 -0.01854,-0.49454c-0.00111,-0.0255 -0.00224,-0.05099 -0.00341,-0.07647c0,0 -0.09791,-2.23531 2.0062,-2.5692l0.12373,-0.10208c0.68268,-0.74452 1.24251,-1.59226 1.70936,-2.51194c-2.88691,-0.81793 -5.39606,-2.60287 -6.81029,-5.75605zM341.72893,164.68902c0.69077,1.41548 1.93613,2.24915 3.4172,2.66588c0.06317,-0.95237 0.29248,-2.1353 0.38672,-3.00023c-0.00054,-0.00656 -0.00108,-0.0131 -0.00162,-0.01964c-1.25047,0.17979 -2.52261,0.28329 -3.80231,0.35398zM365.68456,160.03934c0,0 0.35037,-1.45209 1.63188,-1.84055c0.49833,-0.91399 1.55337,-1.23169 1.55337,-1.23169c9.23098,-2.76254 19.98106,-4.24662 29.58693,-4.68373l1.55054,0.32305c0,0 1.0546,0.32106 1.55,1.23708c1.54044,0.1463 2.0378,1.79799 2.0378,1.79799c0.13357,0.44355 0.2878,0.91966 0.4552,1.42201c7.06815,-1.15397 14.26414,-1.27743 21.29565,-2.93484c6.83409,-1.61088 13.50558,-3.28168 20.44151,-4.48759c0.14775,-0.38888 0.38388,-0.70134 0.58224,-0.91598c0.05823,-2.56112 -0.61516,-3.85316 -1.95769,-5.95187c-7.5458,1.28076 -16.2288,2.75454 -23.53875,3.99527c-8.81243,1.49575 -17.62648,3.21338 -26.5004,4.15495c-6.95753,0.73824 -14.02481,0.70758 -20.93464,1.86765c-2.62148,0.44941 -5.09348,1.22771 -7.7256,1.6494c-1.46377,0.2345 -3.88579,0.53724 -4.56341,2.29168c-0.32313,0.83664 0.28639,3.41318 0.38995,3.99535l0.07671,0.45194c1.27891,-0.00364 2.55851,0.04349 3.83291,0.13915c0.06414,-0.434 0.14227,-0.86095 0.2358,-1.27928zM398.67551,157.27858c-9.11867,0.38199 -19.48491,1.79864 -28.25256,4.44246c-0.76683,3.59629 0.16043,8.30614 0.74459,11.91057c0.151,0.93171 -0.14536,2.26837 0.30695,2.99984c0.77784,-0.46601 1.68197,-0.366 1.68197,-0.366l1.99352,0.25578c6.94137,-0.39925 14.15757,-1.18245 20.83971,-3.19498c1.79557,-0.54079 4.55607,-0.93303 5.65079,-2.73772c0.57963,-0.95554 0.12513,-2.41223 -0.10242,-3.3066c-0.38649,-1.51906 -0.7666,-3.03053 -1.15915,-4.53835c-0.61484,0.79372 -1.64919,0.96929 -1.64919,0.96929l-0.32863,0.05578c-6.97434,1.17149 -14.93749,2.12463 -21.97748,1.62595c0,0 -2.49263,-0.19193 -2.30069,-2.68456c0.19194,-2.49262 2.68455,-2.30069 2.68455,-2.30069c6.55604,0.55541 14.25301,-0.45341 20.75693,-1.57021l0.32863,-0.05578c0,0 0.72618,-0.12326 1.45711,0.1582c-0.13969,-0.49248 -0.28241,-0.98492 -0.4288,-1.47748c-0.22485,-0.03051 -0.3675,-0.07358 -0.37025,-0.07441zM406.56722,164.07311c6.92993,-1.17623 14.1049,-1.60034 20.93596,-3.21049c0.10612,-0.02501 5.48632,-1.18765 5.5086,-1.3674c0.08272,-0.66772 -0.10764,-1.31402 -0.34923,-1.95895c-2.05032,0.48405 -4.10434,0.97622 -6.17525,1.46038c-6.8871,1.61012 -13.92973,1.79313 -20.85331,2.87491c0.22398,0.74279 0.43531,1.49832 0.61983,2.25475zM351.7796,159.00303c0,0 0.17511,1.0317 -0.36875,1.87342c-0.11021,0.4973 -0.21512,0.9978 -0.31724,1.50028c0.20868,0.55016 0.39944,1.14667 0.55345,1.75488c1.66625,-0.73083 3.33696,-1.43706 5.04996,-2.05246l-0.0874,-0.51495c-0.36078,-2.20994 -0.99942,-4.50542 -0.08045,-6.74403c0.47735,-1.16284 1.23031,-2.10559 2.16967,-2.87729c-0.72918,0.03424 -1.4204,0.11376 -2.10766,0.24435c-0.00191,0.01326 -0.0039,0.02659 -0.00597,0.03997c-0.38254,2.47056 -2.8531,2.08802 -2.8531,2.08802l-0.32398,-0.053c-0.49573,1.62104 -1.06725,3.2025 -1.65675,4.81379c-0.00001,0.00121 -0.00002,0.00243 -0.00002,0.00363z" fill="#000000"/><path d="M348.85538,163.60991c0.46294,1.27173 0.87183,2.61028 1.27704,3.91591c-3.29631,0.53331 -7.05558,0.0179 -8.45281,-2.84518c2.42135,-0.13376 4.90417,-0.4076 7.17576,-1.07074z" data-paper-data="{&quot;noHover&quot;:false,&quot;origItem&quot;:[&quot;Path&quot;,{&quot;applyMatrix&quot;:true,&quot;segments&quot;:[[[257.68372,168.61774],[1.74917,1.67964],[-1.14103,2.97448]],[[261.32809,176.64986],[-2.6381,-2.04707],[0.67853,-1.18678]],[[263.28373,173.08621],[-0.61437,1.20589],[-2.0342,-1.20909]]],&quot;closed&quot;:true}]}" fill="#777777"/><path d="" fill="#000000"/><path d="M398.55105,157.38966c0,0 0.00002,0 0.00004,0.00001l-0.00002,0.00001z" fill="#000000"/><path d="M351.79923,159.06522c0.00001,-0.00121 -0.09573,0.02642 -0.09572,0.02521c0.5895,-1.6113 1.19364,-3.25475 1.68936,-4.87581l0.32751,0.05201c0,0 2.49757,0.38354 2.88011,-2.08702c0.00207,-0.01339 0.004,-0.02673 0.00591,-0.03998c0.68727,-0.13058 1.39033,-0.20452 2.11951,-0.23876c-0.93936,0.7717 -1.69529,1.71269 -2.17264,2.87552c-0.91897,2.23861 -0.27947,4.62122 0.08131,6.83116l0.08558,0.51594c-2.05115,0.73688 -4.09144,1.60196 -6.08627,2.48561c0.24259,-1.23747 0.46865,-2.48402 0.73832,-3.7009c0.54387,-0.84172 0.35921,-1.89176 0.35921,-1.89176z" data-paper-data="{&quot;noHover&quot;:false,&quot;origItem&quot;:[&quot;Path&quot;,{&quot;applyMatrix&quot;:true,&quot;segments&quot;:[[265.5,179.42857],[[264.82295,181.21388],[0.67705,-0.73884],[-0.46949,1.1546]],[[263.4657,184.72662],[0.44625,-1.17943],[2.11457,-0.53737]],[[269.83333,183.28421],[-2.14554,0.38325],[0,0]],[[269.83333,182.7619],[0,0],[0.01411,-2.23915]],[[270.88255,176.09951],[-1.28062,2.05327],[0.66521,-1.06656]],[[273.50311,173.62585],[-1.05525,0.60363],[-0.72463,-0.08826]],[[271.38428,173.51406],[0.69943,-0.01373],[-0.0041,0.01275]],[[271.37171,173.55247],[0.00428,-0.01285],[-0.79057,2.37171]],[268.20943,175.13361],[[267.89889,175.02714],[0,0],[-0.76,1.51523]],[[265.45997,179.49582],[0.85082,-1.48993],[-0.00021,0.00119]],[[265.45933,179.49941],[0.00021,-0.00119],[0,0]]],&quot;closed&quot;:true}]}" fill="#777777"/><path d="M398.96198,157.43494c0.1464,0.49256 0.29159,0.98883 0.43128,1.48131c-0.73092,-0.28146 -1.54173,-0.10502 -1.54173,-0.10502l-0.32837,0.05617c-6.50391,1.1168 -14.11951,2.12723 -20.67555,1.57182c0,0 -2.48586,-0.20437 -2.67779,2.28824c-0.19194,2.49262 2.20455,2.65861 2.20455,2.65861c7.03999,0.49867 15.10088,-0.4582 22.07521,-1.62969l0.23167,-0.03135c0,0 1.13089,-0.20159 1.74573,-0.99532c0.39253,1.50783 0.77462,3.03406 1.16109,4.55312c0.22755,0.89436 0.68085,2.36112 0.10121,3.31666c-1.09472,1.80469 -3.86137,2.21208 -5.65694,2.75287c-6.68214,2.01254 -13.97801,2.80322 -20.91938,3.20246l-1.99664,-0.25959c0,0 -0.90533,-0.1017 -1.68317,0.36432c-0.45231,-0.73147 -0.16006,-2.07541 -0.31106,-3.00712c-0.58417,-3.60442 -1.51321,-8.35146 -0.74638,-11.94776c8.76764,-2.64383 19.22122,-4.07401 28.33989,-4.456l-0.12442,0.11114c0,0 0.14375,0.0443 0.3708,0.07512z" data-paper-data="{&quot;noHover&quot;:false,&quot;origItem&quot;:[&quot;Path&quot;,{&quot;applyMatrix&quot;:true,&quot;segments&quot;:[[623.76393,371.32927],[[624.04649,371.15186],[0,0],[-18.10801,-2.2986]],[[566.85133,370.45603],[18.17287,-2.27877],[-2.71562,6.83453]],[[564.33333,394.19047],[0.05445,-7.30271],[-0.01408,1.88768]],[[563.9346,400.20828],[-0.64707,-1.59369],[1.6897,-0.65856]],[567.37361,400.04952],[[571.21882,401.22105],[0,0],[13.82059,1.53589]],[[613.37983,401.89575],[-13.84938,1.73196],[3.72149,-0.4654]],[[625.43831,398.38871],[-2.76255,3.1921],[1.46271,-1.69014]],[[626.343,391.83449],[0.14935,1.83965],[-0.25367,-3.12462]],[[625.57628,382.49784],[0.26937,3.1045],[-1.47799,1.35929]],[622,383.85714],[[621.33333,383.85714],[0,0],[-14.14407,-0.02421]],[[577.45399,379.70785],[13.71455,3.33941],[0,0]],[[573.81595,373.64446],[-1.21268,4.85071],[1.21268,-4.85071]],[[579.87934,370.00642],[0,0],[12.74131,3.28931]],[[621.33333,373.85714],[-13.19818,0.02539],[0,0]],[622,373.85714],[[624.82018,374.65675],[-1.34705,-0.79961],[-0.11062,-1.01782]],[[624.46916,371.59995],[0.12381,1.02021],[-0.43738,-0.13675]]],&quot;closed&quot;:true}]}" fill="#777777"/><path d="M406.20521,164.13802c-0.18452,-0.75644 -0.39714,-1.52034 -0.62112,-2.26313c6.92358,-1.08178 14.06429,-1.28147 20.95139,-2.89159c2.0709,-0.48416 4.12515,-0.97547 6.17547,-1.45952c0.24158,0.64494 0.43325,1.2984 0.35053,1.96612c-0.02226,0.17975 -5.40219,1.34716 -5.50831,1.37217c-6.83105,1.61016 -14.10462,2.04661 -21.03454,3.22284z" data-paper-data="{&quot;noHover&quot;:false,&quot;origItem&quot;:[&quot;Path&quot;,{&quot;applyMatrix&quot;:true,&quot;segments&quot;:[[[637.33333,387.19047],[0,0],[14.05809,0]],[[679.68931,387.8668],[-14.00835,0.88872],[0.21761,-0.01381]],[[691.00878,387.01417],[-0.10407,0.34698],[0.38658,-1.28892]],[[690.97579,383.03463],[0.26051,1.35254],[-4.20482,0.26827]],[[678.31069,383.84748],[4.24544,-0.26157],[-14.11884,0.86988]],[[636.22999,382.53711],[14.01395,0.18411],[0.19304,1.53961]],[[636.69756,387.19047],[-0.11069,-1.55329],[0,0]]],&quot;closed&quot;:true}]}" fill="#a2a2a2"/><path d="M399.97574,168.06575c0.41835,2.46475 -2.0464,2.88309 -2.0464,2.88309l-0.9859,0.16734c-7.08347,1.20229 -14.69356,2.79128 -21.86592,2.28322c0,0 -2.49263,-0.19193 -2.30069,-2.68455c0.19194,-2.49262 2.68456,-2.30069 2.68456,-2.30069c6.69867,0.56749 14.02042,-1.10302 20.64536,-2.22748l0.9859,-0.16734c0,0 2.46475,-0.41835 2.88309,2.0464z" fill="#000000"/><path d="M365.49753,161.30774c-1.2744,-0.09566 -2.65183,-0.12213 -3.93074,-0.11848l-0.07681,-0.45247c-0.10357,-0.58217 -0.71375,-3.16336 -0.39061,-3.99999c0.67762,-1.75444 3.09947,-2.05961 4.56324,-2.29411c2.63212,-0.42169 5.10408,-1.20215 7.72556,-1.65156c6.90983,-1.16008 13.97808,-1.1392 20.9356,-1.87744c8.87392,-0.94157 17.78418,-2.66597 26.59662,-4.16172c7.30995,-1.24073 15.99431,-2.70991 23.54011,-3.99068c1.34254,2.09872 2.01714,3.39797 1.95892,5.95908c-0.19836,0.21465 -0.4344,0.52811 -0.58215,0.91699c-6.93593,1.2059 -13.60738,2.88353 -20.44147,4.49441c-7.03151,1.65741 -14.2734,1.82761 -21.34155,2.98158c-0.16739,-0.50235 -0.32758,-0.97833 -0.46115,-1.42189c0,0 -0.54025,-1.67957 -2.08068,-1.82586c-0.4954,-0.91603 -1.55509,-1.26157 -1.55509,-1.26157l-1.45083,-0.31589c-9.60587,0.43711 -20.35607,1.91049 -29.58706,4.67302c0,0 -1.05523,0.3163 -1.55356,1.23029c-1.28151,0.38846 -1.63222,1.83854 -1.63222,1.83854c-0.09354,0.41833 -0.17199,0.84377 -0.23613,1.27777z" data-paper-data="{&quot;noHover&quot;:false,&quot;origItem&quot;:[&quot;Path&quot;,{&quot;applyMatrix&quot;:true,&quot;segments&quot;:[[[558.07094,365.55421],[-0.32445,0.79357],[0,0]],[[561.90466,362.47117],[-2.65689,0.33709],[1.2885,-1.63542]],[[565.37983,360.56241],[0,0],[19.1262,-2.35777]],[[625.28684,361.22908],[-19.08713,-2.35296],[0,0]],[628.23607,362.385],[[630.87834,365.34302],[-0.67026,-1.97201],[2.98847,0.80401]],[[634.29472,369.5703],[0,0],[0.11491,0.91931]],[[634.71635,372.52656],[-0.16194,-1.04657],[14.32318,0.09014]],[[677.68931,373.8668],[-14.41942,0.9148],[14.01457,-0.88911]],[[719.49775,371.85949],[-14.07984,0.0565],[0.42149,-0.71733]],[[720.95236,370.24823],[-0.46296,0.35685],[0.97196,-5.03052]],[[719.08414,357.85714],[1.94482,4.58755],[-15.30744,0]],[[671.33333,357.85714],[14.829,0],[-17.87695,0]],[[617.68931,357.18081],[17.8127,1.11329],[-13.96592,-0.87287]],[[575.78535,353.85711],[14.01304,0.02512],[-5.31943,0.0088]],[[560,354.5238],[5.33114,0.04942],[-2.96473,-0.02749]],[[550.2349,357.51526],[1.9233,-3.23262],[-0.91716,1.54153]],[[549.66667,365.5238],[-0.00938,-1.18258],[0,0]],[[549.66667,366.44061],[0,0],[2.52298,0.42083]],[[557.17783,367.99778],[-2.48084,-0.61514],[0.27172,-0.8343]]],&quot;closed&quot;:true}]}" fill="#cacaca"/><path d="M365.25687,166.2368c0.04742,1.13902 0.15112,2.28795 0.28414,3.42123c-4.19571,4.43605 -6.49581,11.034 -4.56614,17.19779c0.18992,0.60663 1.18724,0.81353 1.26413,1.44453c0.05438,0.44616 -0.72128,0.56676 -0.96933,0.94158c-0.60862,0.91961 -1.32687,1.86448 -1.57888,2.93807c-0.49612,2.11353 0.21979,7.87703 1.23861,9.79706c0.36339,0.68481 1.48686,0.72959 1.84665,1.4163c0.61564,1.17505 -0.81198,2.54702 -0.97319,3.86374c-0.19997,1.63329 -0.17305,2.94206 0.12084,4.01043c-4.42014,0.7764 -8.9287,1.65548 -13.1177,2.90912l-0.35542,0.04046c0,0 -0.48897,0.08225 -0.99349,0.39086l-1.34754,-1.63355c-2.17695,-3.19689 -1.9811,-7.74558 -2.38359,-11.50776c-0.80583,-7.53219 1.00492,-15.22954 0.96381,-22.82794l0.89916,-0.79064c1.78342,-2.17736 2.88882,-4.68325 3.66902,-7.31296l1.1286,-0.43365c3.21245,-1.40812 6.37002,-2.92045 9.72654,-3.94005c1.65876,-0.06959 3.33377,-0.0328 4.98871,0.09754z" data-paper-data="{&quot;noHover&quot;:false,&quot;origItem&quot;:[&quot;Path&quot;,{&quot;applyMatrix&quot;:true,&quot;segments&quot;:[[[554.78732,377.70785],[0,0],[-3.21958,-0.81088]],[[545.00036,375.85443],[3.29404,0.41793],[-6.95963,0.8871]],[[524.54601,380.37452],[6.80558,-1.7014],[0,0]],[[522.18134,380.85128],[0,0],[-2.4185,4.92416]],[[512.53426,394.03158],[4.24526,-3.69644],[0,0]],[[510.50323,395.28572],[0,0],[-2.46194,14.99628]],[[500.99034,439.83449],[0.93192,-15.12166],[-0.46548,7.55296]],[[501.80911,463.29502],[-3.22257,-7.0322],[0,0]],[[503.91317,466.96347],[0,0],[1.09811,-0.43967]],[506,466.5238],[[506.71316,466.56241],[0,0],[8.67943,-1.06995]],[[533.49689,465.20812],[-8.97547,0.05157],[-0.22193,-2.20496]],[[534.59498,457.2609],[-0.94091,3.1536],[0.75854,-2.54237]],[[537.79256,449.97208],[0.82066,2.52301],[-0.4796,-1.47447]],[[534.63198,446.55926],[0.48733,1.47193],[-1.36633,-4.12687]],[[535.41349,426.86617],[-1.68561,4.00141],[0.85622,-2.03256]],[[539.49223,421.65622],[-1.50785,1.6096],[0.61457,-0.65604]],[[541.71908,420.13505],[-0.04211,0.89795],[0.05956,-1.26995]],[[539.71577,416.88951],[0.17145,1.25973],[-1.74203,-12.79958]],[[554.50969,384.55299],[-9.75773,7.34281],[0.11699,-2.27912]],[[555.10014,377.71579],[-0.2877,2.26177],[0,0]]],&quot;closed&quot;:true}]}" fill="#9e493b"/><path d="M348.78046,158.47952c1.51755,0.16995 2.29297,0.72055 2.63397,1.50116c0.67853,1.55326 -0.36293,4.01723 -0.70024,6.20534c-0.11146,0.72299 -0.38307,3.09242 -1.06777,3.52988c-5.11681,3.26923 -1.81006,-5.4965 -1.62574,-6.90288c0.06142,-0.46861 -0.24079,-3.10418 0.03862,-3.37291z" fill="#000000"/><path d="M374.56963,178.40547c2.39163,0.72808 1.66354,3.11971 1.66354,3.11971l-0.87395,2.43024c-2.93628,4.11241 -5.29601,5.98654 -10.46781,6.14142c0,0 -2.4997,0.0387 -2.53839,-2.461c-0.03869,-2.4997 2.461,-2.5384 2.461,-2.5384c3.54187,0.01875 4.48163,-1.21827 6.4679,-4.03607l0.16801,-0.99238c0,0 0.72809,-2.39162 3.11972,-1.66354z" fill="#000000"/></g></g></svg>