<svg version="1.1" xmlns="http://www.w3.org/2000/svg" xmlns:xlink="http://www.w3.org/1999/xlink" width="177.38083" height="205.04936" viewBox="0,0,177.38083,205.04936"><g transform="translate(-274.34638,-107.08497)"><g data-paper-data="{&quot;isPaintingLayer&quot;:true}" fill-rule="nonzero" stroke="none" stroke-width="0.5" stroke-linecap="butt" stroke-linejoin="miter" stroke-miterlimit="10" stroke-dasharray="" stroke-dashoffset="0" style="mix-blend-mode: normal"><path d="M317.00971,243.1914c0.40751,0.06123 0.89964,0.43972 1.22253,0.18369c0.26198,-0.20773 -0.19611,-0.6451 -0.22007,-0.97858c-0.05383,-0.7493 -0.01042,-1.50242 -0.01216,-2.25365c-0.0084,-3.62562 1.01354,-9.01445 -0.28226,-12.47958c-0.21928,-0.58638 -0.85992,-1.10585 -1.6365,-1.57661c-0.08301,1.78564 -0.08123,3.52728 -0.08123,5.05618c0,4.03295 0.16673,8.1026 0.49621,12.17622zM322.28227,225.62243c1.52377,3.20352 0.71774,8.07968 0.71774,11.52042c0,1.91545 0.33095,3.86187 -0.01216,5.74634c-0.25092,1.37815 -0.2499,3.01096 -1.22007,4.02143c-0.91388,0.95184 -2.51831,0.78913 -3.77747,1.18369l-1.005,0.2528c1.026,9.02686 2.84409,18.00695 5.41107,26.58337c1.09639,3.6631 3.03513,6.83633 4.4511,10.35248c1.96967,6.13317 6.61566,10.92985 8.97373,16.93142c0.85467,2.17523 2.5725,5.34811 0.44657,7.69624c-1.24975,1.38036 -7.35985,0.73224 -9.26776,0.73224c-8.60287,0 -16.81032,0.10043 -25.2938,1.49148c-10.59541,0 -21.92778,-8.14136 -24.16109,-19.01872c-0.665,-3.23888 -0.71134,-6.92722 -1.03294,-10.22643c-0.55066,-5.64892 -1.51217,-10.99791 -1.51217,-16.74634c0.06858,-15.52065 -1.09714,-31.36233 -0.46518,-47.01233c-0.02265,-0.15095 -0.03482,-0.31322 -0.03482,-0.48767c0,-0.28314 0.03207,-0.53421 0.08894,-0.75686c0.33223,-7.12335 1.05408,-14.20412 2.45202,-21.19385c0.81588,-4.6609 3.02493,-8.22796 5.27963,-12.27411c1.53076,-2.74703 3.01592,-5.80955 5.99976,-7.47938c2.27388,-1.27251 6.00128,-1.52023 8.53797,-2.21206c6.38505,-1.74138 12.82473,-2.89068 19.43456,-3.06161c1.76346,-2.04466 3.75797,-3.56344 5.93935,-5.28991c4.44592,-5.54119 10.88451,-9.45731 16.12262,-14.11465c0.75617,-0.67234 1.16083,-1.67093 1.87738,-2.38535c3.03228,-3.02324 6.90816,-5.53826 10.29971,-8.14638c8.78039,-6.75215 18.15292,-12.25781 28.44392,-16.36645c8.23484,-4.11742 16.52495,-6.55706 25.17918,-9.2617c4.83157,-1.50997 9.74203,-2.82802 14.57808,-4.33718c3.59899,-1.12312 7.09733,-3.32947 10.82083,-4.08041c1.81899,-0.36685 3.72402,-0.12884 5.55361,-0.41866c0.31568,-0.13665 0.68651,-0.2125 1.10723,-0.15884c1.36271,-0.19263 2.28523,1.03738 2.28523,1.03738c2.8723,3.89125 4.0321,8.73195 5.39636,13.28763c2.19638,7.33438 5.43324,14.74295 6.09148,22.46603c0.39285,4.60925 0.20567,9.28389 0.98276,13.86404c0.94808,6.71502 0.5294,13.6054 0.5294,20.38231c0,5.83183 0.51916,11.94418 -0.01216,17.74634c-0.39562,4.32031 -1.07342,8.63991 -1.49635,12.95986c-0.29109,2.97321 -1.54794,5.07394 -1.5,8c-1.06059,6.46285 -1.98728,13.18143 -4.0652,19.39643l-0.04586,0.27983c0.57864,0.33265 1.11958,0.95462 1.11958,2.11754c0,2.5 -2.5,2.5 -2.5,2.5h-1c-0.03994,0 -0.07984,-0.00002 -0.11972,-0.00007c-0.16938,0.01646 -0.35206,0.01687 -0.54903,-0.00201c-4.30644,-0.02776 -8.24507,-0.35247 -12.30402,-2.04304c-5.43165,0.08899 -10.83291,-1.4689 -16.23343,-1.96341c-4.61773,-0.42283 -9.34669,0.38125 -13.97102,0.00223c-3.84513,-0.31515 -7.69745,-0.64929 -11.52898,-1.00223c-6.64173,-0.6118 -13.06781,-2.70613 -19.65441,-3.51763c-9.31752,-1.57372 -18.33568,-4.36663 -27.35175,-7.07749c-4.85057,-1.45843 -10.18752,-2.15462 -14.60197,-4.76973c-2.85235,-1.68974 -4.57125,-3.9971 -6.54,-6.28541c-0.47813,0.88899 -0.94796,1.77389 -1.36341,2.67921c-0.51438,1.1209 -0.88031,2.40022 -1.14063,3.75444c2.20725,1.3387 4.289,1.86309 5.64063,4.70472zM287.3891,209.40324c1.31396,-0.65454 3.20584,-0.26896 4.18892,-1.35913c0.30191,-0.3348 -0.08474,-0.90366 -0.03705,-1.35196c0.10724,-1.00811 0.31858,-2.00257 0.5,-3c0.49361,-2.71381 0.72646,-5.02647 0.96756,-7.7555c0.47468,-5.37295 2.29913,-10.97868 4.2802,-16.17639c-2.13396,0.44119 -4.90561,0.65195 -6.60908,1.58678c-2.07148,1.13678 -2.97344,3.66645 -4.00024,5.52062c-1.95852,3.53669 -4.08065,6.63212 -4.72037,10.72589c-1.07201,5.36007 -1.74775,10.78566 -2.15437,16.24915c2.42404,-1.67551 4.88193,-3.09325 7.58443,-4.43947zM297.99148,196.34906c-0.29484,3.79519 -0.66593,7.49669 -1.53244,11.2445c-0.28477,1.2317 -0.22189,2.68176 -1.03705,3.64804c-0.79631,0.94394 -4.48976,1.97757 -5.81108,2.64088c-3.113,1.56273 -5.82397,3.17018 -8.61091,5.26038c-0.5194,0.38955 -1.0388,0.7791 -1.5582,1.16866c-0.59639,15.26645 0.50165,30.74178 0.5582,45.83135c0,5.58516 0.92646,10.76534 1.48783,16.25365c0.47419,4.63591 0.3721,9.83943 2.69158,14.02153c3.44585,6.213 10.04066,10.73333 17.11439,10.73333c7.77808,-1.32038 15.31585,-1.50851 23.2062,-1.50851c0.86539,0 5.32845,-0.47579 7.29829,0.04026c-0.25003,-0.51394 -0.40234,-1.08109 -0.61948,-1.61179c-0.63907,-1.56187 -1.31174,-3.13312 -2.25343,-4.5335c-2.66701,-3.96611 -5.22388,-8.02308 -6.77285,-12.53508c-1.43352,-3.6137 -3.41561,-6.87788 -4.5489,-10.64753c-4.35295,-14.47913 -6.60364,-30.11617 -6.60364,-45.21236c0,-2.7301 0.05743,-5.87777 0.44308,-8.93389c-0.00639,-0.2123 0.01985,-0.43786 0.09079,-0.6745c0.32693,-2.28187 0.85004,-4.491 1.68387,-6.41204c1.00923,-2.32515 2.4803,-4.45611 3.46107,-6.90806l0.58512,-1.18955c0,0 1.11804,-2.23607 3.35411,-1.11803c2.23607,1.11803 1.11803,3.3541 1.11803,3.3541l-0.21223,0.41458c2.22289,2.45235 3.79934,5.01568 6.79049,6.84076c3.9253,2.39505 9.04434,2.92699 13.39803,4.23027c8.78166,2.62881 17.56538,5.43253 26.64825,6.92251c6.47958,0.82081 12.81206,2.8969 19.34559,3.48237c3.81793,0.34213 7.64133,0.67305 11.47102,0.99777c4.64125,0.39353 9.38819,-0.41703 14.02898,0.00223c5.61341,0.50713 11.1189,1.9619 16.76657,2.03659c2.66568,1.02998 5.12674,1.54824 7.72129,1.784c-0.459,-0.9349 -0.81435,-1.91958 -1.02587,-2.92761c-3.23474,-5.39124 -4.30444,-11.77407 -5.61322,-17.8801c-1.17127,-5.46448 -2.78735,-11.14427 -3.53081,-16.67464c-0.87285,-6.49286 -0.52416,-13.27404 -0.52416,-19.84675c0,-4.73707 -0.41904,-9.59035 0.51216,-14.24634c-0.05486,-10.16207 0.27882,-20.40345 1,-30.5c0.51593,-7.22304 0.70736,-14.71792 3.3695,-21.47953c-0.48217,0.03599 -0.96155,0.09188 -1.4356,0.18576c-3.4565,0.68452 -6.83547,2.8733 -10.17917,3.91959c-4.87723,1.52615 -9.83407,2.85414 -14.7067,4.37673c-8.43759,2.63657 -16.50319,5.00797 -24.53605,9.0244c-9.9375,3.98219 -18.96646,9.2455 -27.4496,15.77295c-3.21252,2.47191 -6.94346,4.84205 -9.80677,7.71421c-0.79257,0.79502 -1.28349,1.86894 -2.12262,2.61465c-5.15922,4.58486 -11.5181,8.41991 -15.87738,13.88535c-1.87822,1.51618 -3.71706,2.8057 -5.28006,4.52769c-0.18877,2.20454 -2.48771,2.20455 -2.48771,2.20455c-5.02476,0 -9.92282,0.62411 -14.77567,1.67067c-2.23109,5.57996 -4.76641,12.03147 -5.23285,18.03553zM443.50852,216.43665c0.03927,-2.96883 1.2588,-5.08471 1.5,-8c0.3616,-4.37053 1.11104,-8.68347 1.50365,-13.04014c0.50795,-5.63672 -0.01216,-11.58734 -0.01216,-17.25366c0,-6.50645 0.46204,-13.17393 -0.4706,-19.6177c-0.7683,-4.68468 -0.63441,-9.42737 -1.01724,-14.13596c-0.6001,-7.38106 -3.80197,-14.52443 -5.90852,-21.53397c-0.8183,-2.72289 -1.5037,-5.73244 -2.69806,-8.4238c-2.46969,6.2265 -2.44917,13.39776 -2.91774,19.95777c-0.72183,10.10552 -0.95493,20.32688 -1,30.5c-0.89961,4.49802 -0.48784,9.17562 -0.48784,13.75366c0,6.34282 -0.35191,12.88912 0.47584,19.15324c0.71481,5.40946 2.3231,10.97552 3.46919,16.32537c1.19551,5.58057 2.17568,11.33595 4.93885,16.34166c1.13612,-4.61133 1.83576,-9.37723 2.62465,-14.02647z" fill="#000000"/><path d="M316.49218,243.36891c-0.32948,-4.07362 -0.50772,-8.24062 -0.50772,-12.27357c0,-1.52891 0.00744,-3.27262 0.09045,-5.05826c0.77659,0.47075 1.42726,0.98997 1.64654,1.57635c1.2958,3.46513 0.27763,8.95326 0.28603,12.57888c0.00174,0.75123 -0.05453,1.40521 -0.0007,2.15451c0.02396,0.33348 0.49346,0.87019 0.23148,1.07792c-0.32289,0.25603 -0.8221,-0.1221 -1.22961,-0.18333z" data-paper-data="{&quot;noHover&quot;:false,&quot;origItem&quot;:[&quot;Path&quot;,{&quot;applyMatrix&quot;:true,&quot;segments&quot;:[[[546.01942,522.3828],[0,0],[0.81502,0.12246]],[[548.46447,522.75017],[-0.64578,0.51207],[0.52395,-0.41546]],[[548.02433,520.79302],[0.04792,0.66696],[-0.10767,-1.4986]],[[548,516.28571],[0.00348,1.50246],[-0.01679,-7.25123]],[[547.43547,491.32655],[2.59161,6.93026],[-0.43856,-1.17275]],[[544.16246,488.17334],[1.55317,0.9415],[-0.16602,3.57127]],[[544,498.28571],[0,-3.05782],[0,8.0659]],[[544.99242,522.63814],[-0.65897,-8.14723],[0,0]]],&quot;closed&quot;:true}]}" fill="#9966ff"/><path d="M279.78185,213.8872c0.40662,-5.46348 1.05553,-10.9276 2.12754,-16.28767c0.63972,-4.09377 2.80227,-7.24431 4.76078,-10.781c1.02679,-1.85417 1.94482,-4.38424 4.0163,-5.52102c1.70347,-0.93483 4.49111,-1.14055 6.62507,-1.58174c-1.98108,5.19771 -3.77926,10.83841 -4.25394,16.21137c-0.2411,2.72903 -0.50042,5.09581 -0.99403,7.80961c-0.18142,0.99743 -0.40088,1.99515 -0.50812,3.00326c-0.04769,0.4483 0.33749,1.01758 0.03558,1.35238c-0.98308,1.09017 -2.89254,0.7061 -4.20651,1.36064c-2.70249,1.34622 -5.17864,2.75866 -7.60267,4.43417z" data-paper-data="{&quot;noHover&quot;:false,&quot;origItem&quot;:[&quot;Path&quot;,{&quot;applyMatrix&quot;:true,&quot;segments&quot;:[[[486.77819,454.80647],[-5.40499,2.69244],[2.62793,-1.30908]],[[495.15603,452.08822],[-1.96616,2.18034],[0.60382,-0.6696]],[[495.08192,449.3843],[-0.09538,0.89659],[0.21448,-2.01621]],[[496.08192,443.3843],[-0.36284,1.99486],[0.98722,-5.42761]],[[498.01704,427.8733],[-0.4822,5.45806],[0.94936,-10.74591]],[[506.57745,395.52051],[-3.96215,10.39542],[-4.26792,0.88238]],[[493.35929,398.69408],[3.40695,-1.86966],[-4.14296,2.27356]],[[485.35882,409.73533],[2.05358,-3.70835],[-3.91703,7.07338]],[[475.91808,431.18711],[1.27944,-8.18754],[-2.14403,10.72014]],[[471.60934,463.68541],[0.81324,-10.92697],[4.84807,-3.35102]]],&quot;closed&quot;:true}]}" fill="#002dff"/><path d="M440.88522,230.5131c-2.76317,-5.00571 -3.74872,-10.76123 -4.94423,-16.3418c-1.14609,-5.34984 -2.76337,-10.91747 -3.47819,-16.32693c-0.82775,-6.26413 -0.50097,-12.8264 -0.50097,-19.16922c0,-4.57803 -0.40714,-9.32503 0.49247,-13.82305c0.04507,-10.17312 0.30413,-20.40681 1.02596,-30.51234c0.46857,-6.56001 0.45312,-13.73179 2.92281,-19.95828c1.19437,2.69136 1.88205,5.70084 2.70036,8.42373c2.10655,7.00955 5.31858,14.15392 5.91868,21.53498c0.38283,4.70859 0.26071,9.45524 1.029,14.13992c0.93263,6.44377 0.48806,13.18737 0.48806,19.69382c0,5.66631 0.4959,11.63357 -0.01206,17.27029c-0.3926,4.35666 -1.14918,8.67128 -1.51079,13.04181c-0.2412,2.91529 -1.4638,5.03156 -1.50306,8.00039c-0.78889,4.64924 -1.49193,9.41534 -2.62804,14.02668z" data-paper-data="{&quot;noHover&quot;:false,&quot;origItem&quot;:[&quot;Path&quot;,{&quot;applyMatrix&quot;:true,&quot;segments&quot;:[[[799.01704,468.8733],[-1.57778,9.29848],[0.07853,-5.93766]],[[802.01704,452.8733],[-0.4824,5.83059],[0.72321,-8.74106]],[[805.02433,426.79302],[-0.7852,8.71333],[1.01591,-11.27343]],[[805,392.28571],[0,11.33262],[0,-13.01291]],[[804.05881,353.05031],[1.86526,12.88754],[-1.53659,-9.36936]],[[802.02433,324.77839],[0.76565,9.41718],[-1.20021,-14.76212]],[[790.20728,281.71044],[4.2131,14.01909],[-1.6366,-5.44579]],[[784.81115,264.86284],[2.38873,5.38272],[-4.93937,12.45299]],[[778.97567,304.77839],[0.93714,-13.12003],[-1.44365,20.21104]],[[776.97567,365.77839],[0.09014,-20.34624],[-1.79921,8.99603]],[[776,393.28571],[0,-9.15607],[0,12.68563]],[[776.95167,431.5922],[-1.6555,-12.52826],[1.42963,10.81892]],[[783.89005,464.24293],[-2.29217,-10.69969],[2.39102,11.16113]],[[793.76774,496.92624],[-5.52633,-10.01141],[2.27223,-9.22267]]],&quot;closed&quot;:true}]}" fill="#dbea00"/><path d="M303.18089,178.28878c4.85285,-1.04656 9.75567,-1.6776 14.78043,-1.6776c0,0 2.30102,-0.00239 2.48978,-2.20693c1.563,-1.72198 3.40673,-3.01611 5.28495,-4.53229c4.35929,-5.46544 10.73494,-9.30955 15.89416,-13.89441c0.83913,-0.74571 1.33237,-1.8203 2.12493,-2.61531c2.86332,-2.87216 6.60306,-5.24378 9.81558,-7.71569c8.48314,-6.52746 17.52951,-11.78902 27.46701,-15.77121c8.03286,-4.01643 16.10828,-6.38389 24.54587,-9.02047c4.87263,-1.52259 9.83367,-2.84808 14.71091,-4.37422c3.34371,-1.04629 6.72481,-3.23358 10.18131,-3.91809c0.47405,-0.09388 0.95378,-0.14952 1.43595,-0.18551c-2.66213,6.76162 -2.84976,14.25968 -3.36569,21.48272c-0.72118,10.09655 -1.04699,20.34721 -0.99213,30.50928c-0.9312,4.65599 -0.50842,9.51606 -0.50842,14.25312c0,6.57271 -0.34486,13.36651 0.52799,19.85937c0.74346,5.53036 2.36006,11.22192 3.53133,16.6864c1.30879,6.10603 2.37653,12.49942 5.61128,17.89066c0.21152,1.00804 0.56642,1.99415 1.02542,2.92905c-2.59456,-0.23576 -5.05577,-0.75357 -7.72145,-1.78354c-5.64767,-0.07469 -11.1542,-1.52669 -16.76761,-2.03382c-4.64078,-0.41926 -9.39019,0.39646 -14.03144,0.00293c-3.8297,-0.32472 -7.65656,-0.65021 -11.47448,-0.99234c-6.53352,-0.58547 -12.88219,-2.64731 -19.36177,-3.46812c-9.08288,-1.48997 -17.93261,-4.3101 -26.71428,-6.93891c-4.35369,-1.30328 -9.47968,-1.85169 -13.40499,-4.24674c-2.99115,-1.82507 -4.56881,-4.39944 -6.7917,-6.85179l0.21224,-0.41515c0,0 1.11829,-2.24045 -1.11778,-3.35849c-2.23607,-1.11803 -3.25447,1.12647 -3.25447,1.12647l-0.58505,1.18809c-0.98078,2.45195 -2.45216,4.57517 -3.46139,6.90032c-0.83383,1.92104 -1.35809,4.1239 -1.68502,6.40577c-0.07094,0.23664 -0.09734,0.46157 -0.09096,0.67387c-0.38564,3.05612 -0.44582,6.19604 -0.44582,8.92614c0,15.0962 2.23125,30.71114 6.5842,45.19027c1.13329,3.76965 3.11049,7.03119 4.54402,10.6449c1.54897,4.512 4.10019,8.56672 6.7672,12.53283c0.94169,1.40038 1.61264,2.97109 2.2517,4.53296c0.21715,0.5307 0.34215,1.19405 0.59218,1.70799c-1.96985,-0.51605 -6.43622,-0.04131 -7.3016,-0.04131c-7.89035,0 -15.43674,0.18413 -23.21482,1.5045c-7.07372,0 -13.67577,-4.52549 -17.12162,-10.73849c-2.31948,-4.1821 -2.22121,-9.38927 -2.6954,-14.02518c-0.56137,-5.48831 -1.49207,-10.67364 -1.49207,-16.2588c-0.05656,-15.08956 -1.16354,-30.58746 -0.56715,-45.85391c0.5194,-0.38955 1.03873,-0.77971 1.55813,-1.16926c2.78694,-2.0902 5.49764,-3.70068 8.61064,-5.26341c1.32132,-0.66331 5.0147,-1.69875 5.81101,-2.64269c0.81516,-0.96628 0.7523,-2.41926 1.03707,-3.65096c0.86651,-3.74782 1.23876,-7.45839 1.5336,-11.25358c0.46644,-6.00406 3.00713,-12.46947 5.23821,-18.04943z" data-paper-data="{&quot;noHover&quot;:false,&quot;origItem&quot;:[&quot;Path&quot;,{&quot;applyMatrix&quot;:true,&quot;segments&quot;:[[[507.98296,428.69811],[0.93288,-12.00812],[-0.58968,7.59038]],[[504.91808,451.18711],[1.73302,-7.49563],[-0.56955,2.4634]],[[502.84397,458.48319],[1.63032,-1.93256],[-1.59262,1.88788]],[[491.22181,463.76494],[2.64264,-1.32661],[-6.226,3.12546]],[[474,474.28571],[5.57387,-4.1804],[-1.0388,0.7791]],[[470.88359,476.62302],[1.0388,-0.7791],[-1.19278,30.5329]],[[472,568.28571],[-0.11311,-30.17912],[0,11.17032]],[[474.97567,600.79302],[-1.12275,-10.97663],[0.94838,9.27182]],[[480.35882,628.83608],[-4.63895,-8.36421],[6.8917,12.426]],[[514.5876,650.30274],[-14.14745,0],[15.55615,-2.64075]],[[561,647.28571],[-15.78071,0],[1.73077,0]],[[575.59659,647.36624],[-3.93969,-1.03211],[-0.50006,-1.02787]],[[574.35762,644.14266],[0.43429,1.0614],[-1.27813,-3.12374]],[[569.85076,635.07565],[1.88337,2.80077],[-5.33401,-7.93221]],[[556.30507,610.00549],[3.09793,9.02401],[-2.86705,-7.22741]],[[547.20728,588.71044],[2.26658,7.53929],[-8.7059,-28.95827]],[[534,498.28571],[0,30.19239],[0,-5.46019]],[[534.88615,480.41794],[-0.77128,6.11224],[-0.01277,-0.4246]],[[535.06773,479.06895],[-0.14188,0.47327],[0.65385,-4.56374]],[[538.43547,466.24486],[-1.66766,3.84209],[2.01846,-4.6503]],[[545.35762,452.42875],[-1.96156,4.9039],[0,0]],[546.52786,450.04964],[[553.23607,447.81357],[-4.47214,-2.23607],[4.47214,2.23607]],[555.47214,454.52177],[[555.04767,455.35094],[0,0],[4.44577,4.9047]],[[568.62866,469.03245],[-5.9823,-3.65014],[7.85061,4.7901]],[[595.42473,477.49299],[-8.70738,-2.60657],[17.56333,5.25761]],[[648.72123,491.338],[-18.16575,-2.97995],[12.95915,1.64161]],[[687.4124,498.30274],[-13.06705,-1.17094],[7.63585,0.68425]],[[710.35445,500.29828],[-7.65939,-0.64944],[9.2825,0.78706]],[[738.4124,500.30274],[-9.28156,-0.83852],[11.22682,1.01426]],[[771.94554,504.37592],[-11.29535,-0.14939],[5.33136,2.05995]],[[787.38813,507.94391],[-5.18911,-0.47151],[-0.91799,-1.86981]],[[785.33639,502.08869],[0.42304,2.01607],[-6.46949,-10.78248]],[[774.10995,466.32849],[2.61757,12.21206],[-2.34255,-10.92896]],[[767.04833,432.97921],[1.48692,11.06073],[-1.7457,-12.98572]],[[766,393.28571],[0,13.14542],[0,-9.47413]],[[767.02433,364.79302],[-1.8624,9.31199],[-0.10972,-20.32413]],[[769.02433,303.79302],[-1.44236,20.19311],[1.03186,-14.44607]],[[775.76332,260.83395],[-5.32427,13.52323],[-0.96434,0.07198]],[[772.89212,261.20547],[0.9481,-0.18776],[-6.913,1.36903]],[[752.53377,269.04465],[6.68741,-2.09257],[-9.75447,3.05229]],[[723.12038,277.79811],[9.74525,-3.04518],[-16.87518,5.27314]],[[674.04828,295.84691],[16.06572,-8.03286],[-19.87499,7.96438]],[[619.14907,327.39281],[16.96628,-13.05491],[-6.42504,4.94382]],[[599.53553,342.82124],[5.72663,-5.74433],[-1.58513,1.59003]],[[595.29029,348.05054],[1.67825,-1.49142],[-10.31844,9.16972]],[[563.53553,375.82124],[8.71857,-10.93088],[-3.75645,3.03235]],[[552.97541,384.87661],[3.12599,-3.44397],[-0.37754,4.40909]],[[548,389.28571],[0,0],[-10.04952,0]],[[518.44866,392.62705],[9.7057,-2.09313],[-4.46217,11.15992]]],&quot;closed&quot;:true}]}" fill="#efff00"/><path d="M336.5,209.14286c2.13246,1.6327 4.2262,2.07246 6.61091,3.26038c5.44321,2.71148 11.25626,5.03826 17.10146,6.84326c1.4499,0.44772 3.02441,0.25411 4.53398,0.40852c4.29715,0.43954 8.76277,1.13027 13,2c3.75707,0 7.04178,0.91461 10.65411,1.52012c3.37786,0.56619 6.93376,0.14678 10.34589,0.47988c4.0734,0.39766 8.14976,1.49834 12.25365,1.48783c3.49984,-0.00896 7.00016,-0.00741 10.5,0c0.86598,0.00183 2.18258,-0.09054 3.33343,0.07522c-1.23701,-2.76973 -3.00225,-5.73343 -4.80394,-8.03669c-0.55456,-0.70894 -1.37531,-1.18256 -1.91812,-1.90053c-0.28075,-0.37135 -0.06403,-1.1494 -0.50362,-1.30265c-0.47518,-0.16565 -0.86464,0.5721 -1.3614,0.65248c-0.90371,0.14622 -1.83089,0.01004 -2.74635,0.01217c-3.49986,0.00812 -7.00013,0.00812 -10.5,0c-7.76243,-0.018 -15.78662,-2.26362 -23.4507,-3.54096c-5.78672,-1.15659 -12.39745,-0.95191 -17.95079,-3.12723c-0.90488,-0.35446 -1.60075,-1.13151 -2.5,-1.5c-3.1153,-1.27656 -7.05688,-1.4537 -10.31087,-2.43545c-3.90779,-1.179 -7.4729,-2.90719 -10.95182,-4.85226c-0.69176,3.21028 -1.69123,6.18924 -2.12353,9.36512zM332.85627,193.35662c1.28624,-2.14373 3.42997,-0.8575 3.42997,-0.8575c4.45932,2.68221 8.85538,5.23586 13.92612,6.74738c3.40675,1.01551 7.39305,1.27343 10.68913,2.56455c0.90488,0.35446 1.60075,1.13151 2.5,1.5c5.1379,2.10536 11.65205,1.79261 17.04921,2.87277c6.74953,1.12492 13.50734,2.79165 20.29565,3.4712c4.7864,0.47915 10.2052,0.27331 15.00731,0c1.21642,-0.06923 2.50082,-0.78332 3.6386,-0.34752c1.14404,0.4382 1.65054,1.81113 2.49638,2.69735c3.16451,3.31557 6.08264,7.64285 7.79077,11.91319c0.57592,1.29994 2.29979,2.59817 1.72774,3.89982c-1.86078,4.23401 -9.43897,2.325 -12.90715,2.325c-6.94113,0 -13.41152,-0.81076 -20.24635,-1.51217c-3.51092,-0.3603 -7.16607,0.05807 -10.65411,-0.52012c-3.52756,-0.58473 -6.67064,-1.47988 -10.34589,-1.47988c-5.14389,-1.00581 -10.32531,-1.44005 -15.5,-2c-3.79543,-0.4107 -6.887,-2.5255 -10.46602,-3.59148c-5.43691,-1.61933 -11.41339,-3.68915 -16.27509,-6.84939c-0.35317,0.51176 -0.96222,0.95304 -2.01255,0.95304c-2.5,0 -2.5,-2.5 -2.5,-2.5v-1c0.00171,-0.45747 0.01665,-0.90857 0.04311,-1.35433c-0.14734,-0.46526 -0.16177,-1.02853 0.15056,-1.65454c0.4534,-3.73692 1.60168,-7.17554 2.35488,-10.98143c0,0 0.10236,-0.51181 0.4474,-1.02094c-0.51031,-0.40169 -1.66521,-1.56579 -0.63968,-3.275z" fill="#000000"/><path d="M335.66245,208.54799c0.4323,-3.17588 1.43381,-6.16542 2.12556,-9.37571c3.47892,1.94508 7.14023,3.70048 11.04802,4.87948c3.25399,0.98174 7.19544,1.1594 10.31074,2.43596c0.89925,0.36849 1.59562,1.14353 2.5005,1.49799c5.55334,2.17532 12.08783,1.91782 17.87456,3.07441c7.66408,1.27734 15.66603,3.5594 23.42845,3.5774c3.49987,0.00812 6.99998,0.00979 10.49985,0.00168c0.91546,-0.00213 1.84262,0.13435 2.74633,-0.01187c0.49676,-0.08038 0.98604,-0.81239 1.46123,-0.64674c0.43959,0.15325 0.22276,0.93298 0.50351,1.30433c0.54282,0.71797 1.36334,1.19374 1.9179,1.90268c1.80169,2.30326 3.56531,5.27476 4.80232,8.0445c-1.15085,-0.16576 -2.46774,-0.07243 -3.33372,-0.07426c-3.49984,-0.00741 -7.00178,-0.00453 -10.50162,0.00444c-4.1039,0.0105 -8.18384,-1.08324 -12.25724,-1.4809c-3.41213,-0.3331 -6.98077,0.10014 -10.35863,-0.46606c-3.61233,-0.6055 -6.93971,-1.51198 -10.69678,-1.51198c-4.23723,-0.86973 -8.73501,-1.58713 -13.03216,-2.02667c-1.50957,-0.15441 -3.08619,0.03413 -4.53608,-0.4136c-5.8452,-1.805 -11.66107,-4.14808 -17.10428,-6.85955c-2.38471,-1.18792 -4.47833,-1.63144 -6.61079,-3.26414z" data-paper-data="{&quot;noHover&quot;:false,&quot;origItem&quot;:[&quot;Path&quot;,{&quot;applyMatrix&quot;:true,&quot;segments&quot;:[[[607,545.28571],[0,0],[4.26492,3.2654]],[[620.22181,551.80647],[-4.76942,-2.37584],[10.88642,5.42296]],[[654.42473,565.49299],[-11.6904,-3.61],[2.89979,0.89545]],[[663.49269,566.31004],[-3.01914,-0.30882],[8.5943,0.87908]],[[689.49269,570.31004],[-8.47447,-1.73947],[7.51415,0]],[[710.80091,573.35027],[-7.22467,-1.211],[6.75572,1.13239]],[[731.49269,574.31004],[-6.82425,-0.66621],[8.1468,0.79532]],[[756,577.28571],[-8.20779,0.02101],[6.99969,-0.01792]],[[777,577.28571],[-6.99969,-0.01482],[1.73196,0.00367]],[[783.66686,577.43614],[-2.30171,-0.33152],[-2.47403,-5.53947]],[[774.05897,561.36277],[3.60338,4.60651],[-1.10912,-1.41788]],[[770.22273,557.56171],[1.08563,1.43594],[-0.56151,-0.7427]],[[769.21549,554.95641],[0.87918,0.3065],[-0.95036,-0.33131]],[[766.49269,556.26137],[0.99353,-0.16076],[-1.80741,0.29244]],[[761,556.28571],[1.83091,-0.00425],[-6.99973,0.01623]],[[740,556.28571],[6.99974,0.01623],[-15.52485,-0.036]],[[693.0986,549.20378],[15.32816,2.55469],[-11.57345,-2.31318]],[[657.19702,542.94931],[11.10669,4.35065],[-1.80976,-0.70891]],[[652.19702,539.94931],[1.79851,0.73698],[-6.23061,-2.55312]],[[631.57527,535.07842],[6.50798,1.96349],[-7.81558,-2.358]],[[609.67163,525.37389],[6.95784,3.89015],[-1.38352,6.42057]],[[605.42457,544.10413],[0.86461,-6.35176],[0,0]]],&quot;closed&quot;:true}]}" fill="#002dff"/><path d="M286.5069,230.63866c-0.1687,0.00219 -0.33765,0.00357 -0.50689,0.0042c0,0 -2.5,0 -2.5,-2.5c0,-2.5 2.5,-2.5 2.5,-2.5c0.70239,0.00311 1.38442,-0.03328 2.05176,-0.10019c0.44196,-0.32763 1.06603,-0.52577 1.93853,-0.35127c0.0603,0.01206 0.11884,0.02531 0.17563,0.03968c2.787,-0.53074 5.4132,-1.45449 8.34379,-2.03968c1.82374,-0.36417 5.48781,-1.35981 7.07526,0.0181c2.61834,2.27273 1.14703,4.73804 0.90287,7.1797c-0.72929,7.29294 0.13034,14.94242 -0.03295,22.28089c1.13065,2.82661 0.7403,4.80309 1.03295,7.72643c0.59945,5.9881 2.83339,11.31796 4.85963,16.88645c0.21178,0.58202 1.36347,4.29502 1.83195,5.13508c2.94241,5.2763 7.75113,8.55182 11.32059,13.22481l1.48485,1.9798c0.32311,0.42124 0.51515,0.94829 0.51515,1.5202c0,1.38071 -1.11929,2.5 -2.5,2.5h-2.5v-0.07892c-0.15681,0.01673 -0.31436,0.02826 -0.47277,0.03381c-0.97839,0.03426 -1.80379,-0.77093 -2.73959,-1.05853c-2.24147,-0.68887 -5.17945,-0.69 -7.49384,-0.90488c-3.36525,-0.31243 -6.91349,0.01717 -10.2938,0.00852c-3.34063,-0.00855 -6.83403,1.70337 -9.57017,-1.59843c-1.27116,-1.53396 -0.49058,-3.95776 -0.88128,-5.91128c-1.03345,-5.16723 -1.67913,-10.53812 -2.54003,-15.78409c0.00395,-2.66297 -0.73446,-4.83864 -0.99635,-7.45986c-0.49779,-4.98233 -0.51365,-10.0181 -1,-15c-0.73998,-7.57993 -0.07917,-15.60955 -0.00527,-23.25054zM291.51545,230.25482l-0.02761,0.13438c0.04069,7.53752 -0.76915,15.5124 0,23.00731c0.51165,4.98576 0.50105,10.01576 1,15c0.26064,2.60355 0.99983,4.8804 1.00365,7.54014c0.58682,3.45835 1.64002,6.97618 1.99635,10.45986c0.24131,2.35912 0.93197,5.15697 1,7.5c0.01362,0.46918 -0.50597,0.88377 -0.41766,1.34477c0.04165,0.21747 0.44208,-0.0407 0.6584,-0.08796c0.67915,-0.14837 1.33387,-0.42435 2.02509,-0.49831c0.91027,-0.09738 1.83089,-0.01004 2.74634,-0.01216c5.43559,-0.01261 10.86147,-0.06985 16.24635,0.51216c0.27666,0.0299 0.57633,0.05725 0.88693,0.08835c-3.08373,-3.28911 -6.5184,-6.23415 -8.81269,-10.3757c-3.50289,-6.32326 -5.38474,-14.21498 -6.77204,-21.23452c-0.69273,-3.50513 -0.17661,-6.70047 -1.50344,-10.01753c-0.09342,-6.15643 -0.04511,-12.31567 -0.04511,-18.47276c0,-0.30127 -0.00369,-5.08776 0.01216,-5.24634c0.07648,-0.7648 0.2535,-1.52164 0.48784,-2.25366c0.07138,-0.22298 0.64889,-0.55543 0.41503,-0.56664c-0.28922,-0.01388 -0.39522,0.45928 -0.66868,0.55447c-2.21243,0.77015 -4.78007,1.23732 -7.03398,1.90852c-1.0627,0.31646 -2.1271,0.54842 -3.19692,0.71561z" fill="#000000"/><path d="M294.69706,229.49161c2.25392,-0.6712 4.83218,-1.14056 7.04461,-1.91071c0.27346,-0.09519 0.38051,-0.56844 0.66973,-0.55456c0.23386,0.01121 -0.33573,0.44335 -0.40711,0.66633c-0.23434,0.73202 -0.41028,1.48875 -0.48676,2.25355c-0.01586,0.15858 -0.01108,4.94494 -0.01108,5.24621c0,6.1571 -0.03458,12.3125 0.05884,18.46893c1.32682,3.31706 0.82075,6.42683 1.51348,9.93195c1.3873,7.01954 3.22874,14.90214 6.73163,21.2254c2.29429,4.14155 5.72044,7.08917 8.80417,10.37829c-0.31061,-0.03109 -0.57386,0.03468 -0.85053,0.00478c-5.38488,-0.58202 -10.8335,-0.52179 -16.26909,-0.50919c-0.91546,0.00212 -1.84006,-0.08578 -2.75032,0.01161c-0.69122,0.07395 -1.34861,0.34936 -2.02776,0.49773c-0.21632,0.04726 -0.6176,0.30521 -0.65926,0.08774c-0.0883,-0.461 0.43139,-0.87556 0.41777,-1.34474c-0.06803,-2.34303 -0.76373,-5.14246 -1.00504,-7.50158c-0.35633,-3.48368 -1.42265,-7.0088 -2.00947,-10.46715c-0.00382,-2.65974 -0.75566,-4.95104 -1.0163,-7.5546c-0.49895,-4.98424 -0.4883,-10.06448 -0.99995,-15.05025c-0.76915,-7.49491 0.06395,-15.49048 0.02326,-23.028l0.02773,-0.13443c1.06982,-0.16718 2.13875,-0.40085 3.20145,-0.71731z" data-paper-data="{&quot;noHover&quot;:false,&quot;origItem&quot;:[&quot;Path&quot;,{&quot;applyMatrix&quot;:true,&quot;segments&quot;:[[[495.0309,496.50963],[2.13963,-0.33437],[0,0]],[[494.97567,496.77839],[0,0],[0.08138,15.07504]],[[494.97567,542.79302],[-1.5383,-14.98983],[1.0233,9.97152]],[[496.97567,572.79302],[-0.99791,-9.96849],[0.52127,5.20711]],[[498.98296,587.8733],[-0.00764,-5.31949],[1.17364,6.91671]],[[502.97567,608.79302],[-0.71266,-6.96737],[0.48261,4.71824]],[[504.97567,623.79302],[-0.13606,-4.68607],[0.02725,0.93836]],[[504.14034,626.48256],[-0.1766,-0.922],[0.08331,0.43493]],[[505.45714,626.30665],[-0.43263,0.09452],[1.35829,-0.29675]],[[509.50731,625.31004],[-1.38244,0.1479],[1.82053,-0.19477]],[[515,625.28571],[-1.83091,0.00425],[10.87119,-0.02521]],[[547.49269,626.31004],[-10.76975,-1.16403],[0.55333,0.05981]],[[549.26656,626.48673],[-0.62121,-0.06219],[-6.16745,-6.57823]],[[531.64118,605.73533],[4.58859,8.28311],[-7.00578,-12.64651]],[[518.0971,563.26629],[2.7746,14.03908],[-1.38546,-7.01025]],[[515.09022,543.23124],[2.65365,6.63412],[-0.18684,-12.31285]],[[515,506.28571],[0,12.31419],[0,-0.60254]],[[515.02433,495.79302],[-0.03172,0.31717],[0.15296,-1.5296]],[[516,491.28571],[-0.46868,1.46404],[0.14276,-0.44596]],[[516.83006,490.15242],[0.46771,0.02243],[-0.57845,-0.02775]],[[515.49269,491.26137],[0.54692,-0.19038],[-4.42487,1.54029]],[[501.42473,495.07842],[4.50783,-1.3424],[-2.1254,0.63293]]],&quot;closed&quot;:true}]}" fill="#002dff"/></g></g></svg>