<svg version="1.1" xmlns="http://www.w3.org/2000/svg" xmlns:xlink="http://www.w3.org/1999/xlink" width="4.96688" height="14.78667" viewBox="0,0,4.96688,14.78667"><g transform="translate(-317.51656,-172.60666)"><g data-paper-data="{&quot;isPaintingLayer&quot;:true}" fill="#e34d4d" fill-rule="nonzero" stroke="none" stroke-width="0.5" stroke-linecap="butt" stroke-linejoin="miter" stroke-miterlimit="10" stroke-dasharray="" stroke-dashoffset="0" style="mix-blend-mode: normal"><path d="M318.77921,186.86901c-0.63439,-0.95157 0.31719,-1.58596 0.31719,-1.58596l0.63439,-0.42081c0.77073,-0.01563 -1.27781,-1.54539 -1.46786,-2.65215c-0.35924,-2.09197 0.90574,-2.1456 1.7313,-3.46007c0.52994,-0.84379 -1.62962,-1.26161 -2.07232,-2.15427c-0.74894,-1.51015 -0.3222,-1.88937 0.17521,-3.25169c0,0 0.42474,-1.06186 1.48659,-0.63712c1.06186,0.42474 0.63712,1.48659 0.63712,1.48659c-0.87088,1.88498 0.72616,1.50062 1.5211,3.10596c0.3053,0.61654 0.6072,1.33548 0.47021,2.00969c-0.13027,0.6411 -1.95375,1.568 -1.69966,2.48692c0.36587,1.32315 2.24115,1.85022 1.93795,3.53337c-0.11323,0.62861 -0.89816,0.9084 -1.34723,1.36259l-0.73799,0.49411c0,0 -0.95157,0.63439 -1.58596,-0.31719z"/></g></g></svg>