<svg version="1.1" xmlns="http://www.w3.org/2000/svg" xmlns:xlink="http://www.w3.org/1999/xlink" width="120.90595" height="76.06904" viewBox="0,0,120.90595,76.06904"><g transform="translate(-340.45824,-141.96548)"><g data-paper-data="{&quot;isPaintingLayer&quot;:true}" fill-rule="nonzero" stroke="none" stroke-width="0.5" stroke-linecap="butt" stroke-linejoin="miter" stroke-miterlimit="10" stroke-dasharray="" stroke-dashoffset="0" style="mix-blend-mode: normal"><path d="M373.12568,168.61093c-1.60979,-0.40544 -3.24646,-0.71775 -4.89348,-0.92671c-3.47981,0.44355 -6.82439,1.40935 -10.22717,2.26005l-1.18234,0.23838c-1.20925,2.46208 -2.70091,4.74193 -4.82354,6.59015l-1.01552,0.62707c-1.23097,7.49814 -4.29048,14.71355 -4.75644,22.27438c-0.23274,3.77648 -1.2019,8.21417 0.40938,11.73027l1.05203,1.83422c0.54906,-0.21983 1.04342,-0.21983 1.04342,-0.21983l0.35658,0.01931c4.33972,-0.53498 8.90413,-0.65136 13.39186,-0.67714c-0.11097,-1.10248 0.07859,-2.39681 0.54904,-3.97361c0.37927,-1.27119 2.00912,-2.3829 1.59879,-3.64441c-0.2398,-0.73723 -1.33662,-0.97045 -1.58029,-1.70641c-0.68316,-2.06343 -0.45205,-7.84584 0.39076,-9.84654c0.42811,-1.01628 1.28544,-1.80017 2.03937,-2.60497c0.30728,-0.32802 1.09237,-0.31161 1.11343,-0.76059c0.02978,-0.63497 -0.91593,-0.99291 -1.00165,-1.62277c-0.87101,-6.39979 2.51809,-12.49685 7.39696,-16.16826c0.05849,-1.13956 0.15138,-2.28771 0.29523,-3.4186zM374.76749,162.53411c0,0 0.58842,-1.37298 1.91686,-1.54152c0.64425,-0.81771 1.73758,-0.95438 1.73758,-0.95438c9.5631,-1.17889 20.40994,-0.84314 29.95351,0.33334l1.47462,0.57796c0,0 0.986,0.49301 1.32113,1.47901c1.49424,0.40201 1.70819,2.11364 1.70819,2.11364c0.05746,0.45965 0.12985,0.95485 0.21082,1.47813c7.16159,0.04507 14.27677,1.12752 21.48648,0.67012c7.00729,-0.44456 13.8643,-0.9754 20.90422,-1.00366c0.21074,-0.35867 0.49583,-0.62721 0.72731,-0.80563c0.48598,-2.51526 0.0383,-3.90177 -0.93411,-6.19554c-7.65372,0 -16.46091,0 -23.8754,0c-8.93847,0 -17.91566,0.21848 -26.82201,-0.33817c-6.98296,-0.43643 -13.94546,-1.64929 -20.95198,-1.66185c-2.65972,0.0044 -5.2271,0.35806 -7.89267,0.33335c-1.48237,-0.01375 -3.9209,-0.12058 -4.88255,1.49573c-0.45858,0.77077 -0.28881,3.41298 -0.28412,4.00427v0.4584c1.26149,0.21042 2.51516,0.47101 3.75558,0.77858c0.13586,-0.41715 0.28433,-0.825 0.44655,-1.22178zM361.23202,159.18557c0,0 0,1.04646 -0.67705,1.7853c-0.46949,1.1546 -0.91101,2.33331 -1.35726,3.51274c2.11457,-0.53737 4.2221,-1.05916 6.36764,-1.44241v-0.52231c0.01411,-2.23915 -0.2314,-4.60913 1.04922,-6.6624c0.66521,-1.06656 1.56531,-1.87002 2.62056,-2.47365c-0.72463,-0.08826 -1.41941,-0.12553 -2.11883,-0.11179c-0.0041,0.01275 -0.00829,0.02556 -0.01257,0.03841c-0.79057,2.37171 -3.16228,1.58114 -3.16228,1.58114l-0.31054,-0.10647c-0.76,1.51523 -1.5881,2.97875 -2.43892,4.46868c-0.00021,0.00119 -0.00043,0.00239 -0.00063,0.00358zM348.79823,172.93168c3.37642,-2.62351 4.89207,-7.43902 6.38352,-11.72755c-4.927,-3.3311 -9.04845,-9.08321 -6.40965,-15.34737c0.42811,-1.01628 1.35958,-1.73665 2.03937,-2.60497c0,0 0.09889,-0.11868 0.27702,-0.27244c0.06343,-0.07597 0.13299,-0.15208 0.2091,-0.2282c1.76776,-1.76776 3.53553,0 3.53553,0c2.13101,2.13504 4.50485,4.77754 7.26886,6.18881c4.01536,-0.91994 7.1196,-0.86874 11.23638,0.1536l1.98881,0.77083c0,0 1.32061,0.52825 1.57117,1.78397c2.45664,-0.09709 4.89231,0.04055 6.83369,0.03723c0,0 0.01792,-0.00001 0.05073,0.00151c8.81164,0.05439 17.65117,1.44587 26.43794,2.00332c6.99363,0.44369 14.16801,-0.00483 21.17799,-0.00483c8.11111,0 16.22222,0 24.33333,0h1.66667c0,0 2.5,0 2.5,2.5c0,0.19035 -0.01449,0.3662 -0.04127,0.52866c1.47991,3.64086 2.00077,6.16392 0.96663,10.41101l-0.33922,0.33735c0.05162,0.21415 0.08053,0.45411 0.08053,0.72298c0,2.5 -2.5,2.5 -2.5,2.5h-2c-3.42206,0 -6.79509,0.12791 -10.16137,0.30928c-0.00363,1.8471 -0.05314,4.33514 -0.34303,4.77886c-2.08427,3.19043 -4.14619,2.37104 -7.00693,2.57369c-8.04997,0.57024 -16.0761,0.00483 -24.15534,0.00483h-0.47908c-0.25696,1.43855 -0.74537,2.72552 -1.57341,3.73421c-2.37457,2.89263 -5.92425,3.15751 -9.30409,3.57982c-5.99909,0.74958 -12.22223,0.59311 -18.29336,0.06507c-0.90577,1.30892 -2.62307,0.87959 -2.62307,0.87959l-1.71179,-0.46082c-1.85244,-0.8014 -4.24272,-0.68165 -5.67959,-2.0991c-1.51404,-1.49359 -1.79839,-3.18073 -1.83948,-4.94464c-1.7523,2.38355 -2.75379,5.33585 -2.35402,8.39636c0.13831,1.05882 1.20212,1.99571 0.99834,3.0439c-0.36998,1.90302 -2.72946,2.86157 -3.51387,4.63444c-0.44005,0.99457 -0.65629,5.17882 -0.27591,6.15346c0.34985,0.89642 1.59984,1.34359 1.75304,2.29359c0.46074,2.85713 -3.53076,6.97056 -1.50091,8.72424c0.0213,-0.00003 0.04258,-0.00007 0.06386,-0.0001c0,0 1.53447,0 2.19906,1.20218c0.58661,0.45523 1.50357,1.48273 0.70367,3.08252c-1.11804,2.23607 -3.35411,1.11804 -3.35411,1.11804l-0.53343,-0.27154c-0.09123,-0.04479 -0.18106,-0.08962 -0.26948,-0.13449c-5.61917,-0.01731 -11.57676,-0.05074 -17.1023,0.65066l-0.97675,0.01931c0,0 -1.24672,0.00001 -1.97935,-0.88041c-2.0344,0.97859 -3.19126,-1.04591 -3.19126,-1.04591l-1.40061,-2.45929c-4.96637,-12.07726 2.34771,-25.72657 4.01661,-37.85784c0.00177,-0.17348 0.02517,-0.33719 0.06448,-0.49067c0.00317,-0.02533 0.00632,-0.05065 0.00943,-0.07596c0,0 0.27752,-2.22018 2.40784,-2.19726zM353.41573,148.37474c-1.14103,2.97448 1.00626,5.98505 3.64436,8.03212c0.67853,-1.18678 1.34127,-2.35775 1.95565,-3.56365c-2.0342,-1.20909 -3.85084,-2.78883 -5.60001,-4.46847zM407.61397,165.42164l0.14128,-0.08871c-9.05401,-1.1493 -19.51114,-1.4873 -28.59758,-0.34792c-1.35781,3.41726 -1.23177,8.21587 -1.259,11.86722c-0.00704,0.94384 -0.5229,2.21206 -0.19937,3.0089c0.84485,-0.32928 1.7195,-0.07938 1.7195,-0.07938l1.92261,0.58577c6.9103,0.76794 14.15581,1.20333 21.0805,0.33735c1.86075,-0.2327 4.64796,-0.15747 6.02924,-1.75352c0.73136,-0.84507 0.52702,-2.35728 0.45234,-3.27711c-0.12684,-1.56231 -0.24867,-3.11608 -0.38336,-4.66833c-0.73899,0.67964 -1.78814,0.67965 -1.78814,0.67965h-0.33333c-7.07203,-0.0121 -15.0824,-0.40494 -21.93967,-2.07465c0,0 -2.42536,-0.60634 -1.81902,-3.0317c0.60634,-2.42535 3.03169,-1.81902 3.03169,-1.81902c6.37065,1.64466 14.12791,1.93806 20.727,1.92536h0.33333c0,0 0.73657,0 1.41009,0.3998c-0.05531,-0.50891 -0.11361,-1.01829 -0.17551,-1.5284c-0.21869,-0.06838 -0.35262,-0.13534 -0.35262,-0.13534zM414.39869,173.35224c7.02904,0 14.17381,0.78252 21.17799,0.33817c0.10881,-0.0069 5.6077,-0.25283 5.65974,-0.42632c0.19329,-0.64446 0.11376,-1.3135 -0.0165,-1.98977c-2.10241,0.13413 -4.20983,0.27564 -6.33255,0.40643c-7.05942,0.43494 -14.03337,-0.56313 -21.04035,-0.65519c0.09652,0.7698 0.17844,1.55004 0.23378,2.32668z" fill="#000000"/><path d="M359.06516,152.85077c-0.61437,1.20589 -1.31445,2.41782 -1.99298,3.6046c-2.6381,-2.04707 -4.82497,-5.14793 -3.68394,-8.12241c1.74917,1.67964 3.64272,3.30871 5.67692,4.5178z" data-paper-data="{&quot;noHover&quot;:false,&quot;origItem&quot;:[&quot;Path&quot;,{&quot;applyMatrix&quot;:true,&quot;segments&quot;:[[[257.68372,168.61774],[1.74917,1.67964],[-1.14103,2.97448]],[[261.32809,176.64986],[-2.6381,-2.04707],[0.67853,-1.18678]],[[263.28373,173.08621],[-0.61437,1.20589],[-2.0342,-1.20909]]],&quot;closed&quot;:true}]}" fill="#777777"/><path d="M361.24096,159.25017c0.00021,-0.00119 -0.0988,0.01003 -0.09859,0.00884c0.85082,-1.48993 1.72145,-3.00912 2.48145,-4.52436l0.31419,0.10608c0,0 2.39817,0.79607 3.18874,-1.57564c0.00428,-0.01285 0.00842,-0.02568 0.01252,-0.03843c0.69943,-0.01373 1.40495,0.03102 2.12958,0.11928c-1.05525,0.60363 -1.95798,1.40485 -2.62319,2.47141c-1.28062,2.05327 -1.04884,4.50929 -1.06295,6.74844l-0.00196,0.52299c-2.14554,0.38325 -4.30182,0.89472 -6.41639,1.43209c0.44625,-1.17943 0.87771,-2.37057 1.34721,-3.52517c0.67705,-0.73884 0.67071,-1.80498 0.67071,-1.80498z" data-paper-data="{&quot;noHover&quot;:false,&quot;origItem&quot;:[&quot;Path&quot;,{&quot;applyMatrix&quot;:true,&quot;segments&quot;:[[265.5,179.42857],[[264.82295,181.21388],[0.67705,-0.73884],[-0.46949,1.1546]],[[263.4657,184.72662],[0.44625,-1.17943],[2.11457,-0.53737]],[[269.83333,183.28421],[-2.14554,0.38325],[0,0]],[[269.83333,182.7619],[0,0],[0.01411,-2.23915]],[[270.88255,176.09951],[-1.28062,2.05327],[0.66521,-1.06656]],[[273.50311,173.62585],[-1.05525,0.60363],[-0.72463,-0.08826]],[[271.38428,173.51406],[0.69943,-0.01373],[-0.0041,0.01275]],[[271.37171,173.55247],[0.00428,-0.01285],[-0.79057,2.37171]],[268.20943,175.13361],[[267.89889,175.02714],[0,0],[-0.76,1.51523]],[[265.45997,179.49582],[0.85082,-1.48993],[-0.00021,0.00119]],[[265.45933,179.49941],[0.00021,-0.00119],[0,0]]],&quot;closed&quot;:true}]}" fill="#777777"/><path d="M408.01151,165.53502c0.06191,0.51011 0.12201,1.02368 0.17732,1.53259c-0.67352,-0.3998 -1.50242,-0.36153 -1.50242,-0.36153l-0.33314,0.00043c-6.59909,0.0127 -14.27639,-0.2655 -20.64704,-1.91016c0,0 -2.41661,-0.61747 -3.02294,1.80788c-0.60634,2.42535 1.72858,2.99003 1.72858,2.99003c6.85728,1.6697 14.96462,2.07522 22.03665,2.08732l0.23365,0.00786c0,0 1.14868,-0.00951 1.88767,-0.68916c0.13468,1.55225 0.25598,3.1209 0.38281,4.68321c0.07468,0.91983 0.27614,2.44176 -0.45522,3.28683c-1.38128,1.59605 -4.17709,1.53473 -6.03784,1.76743c-6.92469,0.86598 -14.25,0.42463 -21.1603,-0.34331l-1.92505,-0.59004c0,0 -0.87555,-0.25176 -1.7204,0.07752c-0.32353,-0.79684 0.18949,-2.07293 0.19653,-3.01677c0.02722,-3.65135 -0.09435,-8.48692 1.26346,-11.90419c9.08643,-1.13939 19.63193,-0.80012 28.68594,0.34918l-0.14126,0.08875c0,0 0.13431,0.06773 0.353,0.13611z" data-paper-data="{&quot;noHover&quot;:false,&quot;origItem&quot;:[&quot;Path&quot;,{&quot;applyMatrix&quot;:true,&quot;segments&quot;:[[623.76393,371.32927],[[624.04649,371.15186],[0,0],[-18.10801,-2.2986]],[[566.85133,370.45603],[18.17287,-2.27877],[-2.71562,6.83453]],[[564.33333,394.19047],[0.05445,-7.30271],[-0.01408,1.88768]],[[563.9346,400.20828],[-0.64707,-1.59369],[1.6897,-0.65856]],[567.37361,400.04952],[[571.21882,401.22105],[0,0],[13.82059,1.53589]],[[613.37983,401.89575],[-13.84938,1.73196],[3.72149,-0.4654]],[[625.43831,398.38871],[-2.76255,3.1921],[1.46271,-1.69014]],[[626.343,391.83449],[0.14935,1.83965],[-0.25367,-3.12462]],[[625.57628,382.49784],[0.26937,3.1045],[-1.47799,1.35929]],[622,383.85714],[[621.33333,383.85714],[0,0],[-14.14407,-0.02421]],[[577.45399,379.70785],[13.71455,3.33941],[0,0]],[[573.81595,373.64446],[-1.21268,4.85071],[1.21268,-4.85071]],[[579.87934,370.00642],[0,0],[12.74131,3.28931]],[[621.33333,373.85714],[-13.19818,0.02539],[0,0]],[622,373.85714],[[624.82018,374.65675],[-1.34705,-0.79961],[-0.11062,-1.01782]],[[624.46916,371.59995],[0.12381,1.02021],[-0.43738,-0.13675]]],&quot;closed&quot;:true}]}" fill="#777777"/><path d="M414.03092,173.35565c-0.05534,-0.77665 -0.13713,-1.56536 -0.23365,-2.33516c7.00698,0.09205 14.08042,1.0901 21.13984,0.65516c2.12272,-0.13079 4.23022,-0.27142 6.33263,-0.40555c0.13025,0.67627 0.20987,1.35259 0.01658,1.99705c-0.05203,0.17349 -5.55145,0.42417 -5.66026,0.43107c-7.00417,0.44436 -14.24821,-0.34249 -21.27725,-0.34249z" data-paper-data="{&quot;noHover&quot;:false,&quot;origItem&quot;:[&quot;Path&quot;,{&quot;applyMatrix&quot;:true,&quot;segments&quot;:[[[637.33333,387.19047],[0,0],[14.05809,0]],[[679.68931,387.8668],[-14.00835,0.88872],[0.21761,-0.01381]],[[691.00878,387.01417],[-0.10407,0.34698],[0.38658,-1.28892]],[[690.97579,383.03463],[0.26051,1.35254],[-4.20482,0.26827]],[[678.31069,383.84748],[4.24544,-0.26157],[-14.11884,0.86988]],[[636.22999,382.53711],[14.01395,0.18411],[0.19304,1.53961]],[[636.69756,387.19047],[-0.11069,-1.55329],[0,0]]],&quot;closed&quot;:true}]}" fill="#a2a2a2"/><path d="M407.23202,176.18557c0,2.5 -2.5,2.5 -2.5,2.5h-1c-7.18478,0 -14.95346,0.29312 -21.93967,-1.40798c0,0 -2.42536,-0.60634 -1.81902,-3.03169c0.60634,-2.42535 3.0317,-1.81902 3.0317,-1.81902c6.50925,1.68043 14.0073,1.25869 20.72699,1.25869h1c0,0 2.5,0 2.5,2.5z" fill="#000000"/><path d="M374.37086,163.75332c-1.24042,-0.30757 -2.594,-0.56416 -3.85549,-0.77457l-0.00001,-0.45894c-0.00469,-0.59129 -0.17433,-3.23819 0.28425,-4.00895c0.96165,-1.61631 3.40042,-1.51191 4.88279,-1.49816c2.66557,0.02471 5.23328,-0.33109 7.893,-0.33549c7.00652,0.01256 13.97161,1.21593 20.95457,1.65236c8.90635,0.55665 17.97953,0.3476 26.91801,0.3476c7.4145,0 16.22226,0.00476 23.87598,0.00476c0.97241,2.29378 1.42009,3.6876 0.93411,6.20286c-0.23148,0.17843 -0.51665,0.44797 -0.72739,0.80664c-7.03992,0.02825 -13.89803,0.56583 -20.90532,1.01039c-7.20971,0.4574 -14.37797,-0.58665 -21.53956,-0.63172c-0.08097,-0.52328 -0.15925,-1.01935 -0.21671,-1.47901c0,0 -0.25158,-1.74629 -1.74581,-2.14829c-0.33513,-0.98601 -1.32205,-1.50401 -1.32205,-1.50401l-1.37751,-0.55422c-9.54357,-1.17648 -20.38874,-1.5228 -29.95184,-0.34392c0,0 -1.09328,0.13526 -1.73753,0.95297c-1.32844,0.16854 -1.91686,1.53948 -1.91686,1.53948c-0.16222,0.39678 -0.31076,0.80309 -0.44662,1.22024z" data-paper-data="{&quot;noHover&quot;:false,&quot;origItem&quot;:[&quot;Path&quot;,{&quot;applyMatrix&quot;:true,&quot;segments&quot;:[[[558.07094,365.55421],[-0.32445,0.79357],[0,0]],[[561.90466,362.47117],[-2.65689,0.33709],[1.2885,-1.63542]],[[565.37983,360.56241],[0,0],[19.1262,-2.35777]],[[625.28684,361.22908],[-19.08713,-2.35296],[0,0]],[628.23607,362.385],[[630.87834,365.34302],[-0.67026,-1.97201],[2.98847,0.80401]],[[634.29472,369.5703],[0,0],[0.11491,0.91931]],[[634.71635,372.52656],[-0.16194,-1.04657],[14.32318,0.09014]],[[677.68931,373.8668],[-14.41942,0.9148],[14.01457,-0.88911]],[[719.49775,371.85949],[-14.07984,0.0565],[0.42149,-0.71733]],[[720.95236,370.24823],[-0.46296,0.35685],[0.97196,-5.03052]],[[719.08414,357.85714],[1.94482,4.58755],[-15.30744,0]],[[671.33333,357.85714],[14.829,0],[-17.87695,0]],[[617.68931,357.18081],[17.8127,1.11329],[-13.96592,-0.87287]],[[575.78535,353.85711],[14.01304,0.02512],[-5.31943,0.0088]],[[560,354.5238],[5.33114,0.04942],[-2.96473,-0.02749]],[[550.2349,357.51526],[1.9233,-3.23262],[-0.91716,1.54153]],[[549.66667,365.5238],[-0.00938,-1.18258],[0,0]],[[549.66667,366.44061],[0,0],[2.52298,0.42083]],[[557.17783,367.99778],[-2.48084,-0.61514],[0.27172,-0.8343]]],&quot;closed&quot;:true}]}" fill="#cacaca"/><path d="M373.30876,168.57261c-0.14385,1.13089 -0.23387,2.28098 -0.29237,3.42054c-4.87887,3.6714 -8.25063,9.79142 -7.37961,16.1912c0.08573,0.62986 1.03436,1.00073 1.00458,1.6357c-0.02105,0.44897 -0.80595,0.43807 -1.11323,0.7661c-0.75392,0.8048 -1.62016,1.61615 -2.04827,2.63243c-0.8428,2.00071 -1.10144,7.80274 -0.41828,9.86618c0.24367,0.73596 1.34381,0.96811 1.58361,1.70534c0.41033,1.2615 -1.22675,2.37523 -1.60602,3.64641c-0.47046,1.5768 -0.66293,2.87162 -0.55196,3.9741c-4.48773,0.02579 -9.07983,0.13802 -13.41954,0.673l-0.35718,-0.01959c0,0 -0.49584,-0.00073 -1.04489,0.2191l-1.05518,-1.83601c-1.61129,-3.5161 -0.65703,-7.96788 -0.42429,-11.74436c0.46596,-7.56083 3.53924,-14.84663 4.77021,-22.34477l1.01879,-0.62903c2.12263,-1.84822 3.63177,-4.1338 4.84102,-6.59588l1.18525,-0.23868c3.40279,-0.8507 6.7689,-1.81332 10.24871,-2.25687c1.64702,0.20897 3.29225,0.52553 4.90204,0.93097z" data-paper-data="{&quot;noHover&quot;:false,&quot;origItem&quot;:[&quot;Path&quot;,{&quot;applyMatrix&quot;:true,&quot;segments&quot;:[[[554.78732,377.70785],[0,0],[-3.21958,-0.81088]],[[545.00036,375.85443],[3.29404,0.41793],[-6.95963,0.8871]],[[524.54601,380.37452],[6.80558,-1.7014],[0,0]],[[522.18134,380.85128],[0,0],[-2.4185,4.92416]],[[512.53426,394.03158],[4.24526,-3.69644],[0,0]],[[510.50323,395.28572],[0,0],[-2.46194,14.99628]],[[500.99034,439.83449],[0.93192,-15.12166],[-0.46548,7.55296]],[[501.80911,463.29502],[-3.22257,-7.0322],[0,0]],[[503.91317,466.96347],[0,0],[1.09811,-0.43967]],[506,466.5238],[[506.71316,466.56241],[0,0],[8.67943,-1.06995]],[[533.49689,465.20812],[-8.97547,0.05157],[-0.22193,-2.20496]],[[534.59498,457.2609],[-0.94091,3.1536],[0.75854,-2.54237]],[[537.79256,449.97208],[0.82066,2.52301],[-0.4796,-1.47447]],[[534.63198,446.55926],[0.48733,1.47193],[-1.36633,-4.12687]],[[535.41349,426.86617],[-1.68561,4.00141],[0.85622,-2.03256]],[[539.49223,421.65622],[-1.50785,1.6096],[0.61457,-0.65604]],[[541.71908,420.13505],[-0.04211,0.89795],[0.05956,-1.26995]],[[539.71577,416.88951],[0.17145,1.25973],[-1.74203,-12.79958]],[[554.50969,384.55299],[-9.75773,7.34281],[0.11699,-2.27912]],[[555.10014,377.71579],[-0.2877,2.26177],[0,0]]],&quot;closed&quot;:true}]}" fill="#9e493b"/><path d="M380.45392,182.12807c2.23607,1.11803 1.11803,3.3541 1.11803,3.3541l-1.2683,2.24973c-3.58304,3.56307 -6.22311,5.0159 -11.34791,4.30316c0,0 -2.47093,-0.38014 -2.09079,-2.85107c0.38014,-2.47093 2.85107,-2.09079 2.85107,-2.09079c3.48879,0.61118 4.62229,-0.45115 7.05209,-2.89684l0.3317,-0.95027c0,0 1.11803,-2.23607 3.3541,-1.11803z" fill="#000000"/></g></g></svg>