<svg version="1.1" xmlns="http://www.w3.org/2000/svg" xmlns:xlink="http://www.w3.org/1999/xlink" width="82.56825" height="6.93633" viewBox="0,0,82.56825,6.93633"><defs><linearGradient x1="275.69182" y1="179.64887" x2="325.66089" y2="179.64887" gradientUnits="userSpaceOnUse" id="color-1"><stop offset="0" stop-color="#ffffff" stop-opacity="0"/><stop offset="1" stop-color="#ffffff"/></linearGradient><linearGradient x1="275.69182" y1="179.64887" x2="325.66089" y2="179.64887" gradientUnits="userSpaceOnUse" id="color-2"><stop offset="0" stop-color="#ffffff" stop-opacity="0"/><stop offset="1" stop-color="#ffffff"/></linearGradient><linearGradient x1="275.69182" y1="179.64887" x2="325.66089" y2="179.64887" gradientUnits="userSpaceOnUse" id="color-3"><stop offset="0" stop-color="#ffffff" stop-opacity="0"/><stop offset="1" stop-color="#ffffff"/></linearGradient><linearGradient x1="249.71588" y1="180.00001" x2="332.95179" y2="180.00001" gradientUnits="userSpaceOnUse" id="color-4"><stop offset="0" stop-color="#ffffff" stop-opacity="0"/><stop offset="1" stop-color="#ffffff"/></linearGradient><linearGradient x1="317.89452" y1="179.99" x2="330.86931" y2="179.99" gradientUnits="userSpaceOnUse" id="color-5"><stop offset="0" stop-color="#f8ff21"/><stop offset="1" stop-color="#fffabd"/></linearGradient></defs><g transform="translate(-249.71588,-176.53184)"><g data-paper-data="{&quot;isPaintingLayer&quot;:true}" fill-rule="nonzero" stroke-linejoin="miter" stroke-miterlimit="10" stroke-dasharray="" stroke-dashoffset="0" style="mix-blend-mode: normal"><path d="" data-paper-data="{&quot;origPos&quot;:null}" fill="url(#color-1)" stroke="none" stroke-width="0" stroke-linecap="butt"/><path d="" data-paper-data="{&quot;origPos&quot;:null}" fill="url(#color-2)" stroke="none" stroke-width="0" stroke-linecap="butt"/><path d="" data-paper-data="{&quot;origPos&quot;:null}" fill="url(#color-3)" stroke="none" stroke-width="0" stroke-linecap="butt"/><path d="M249.71588,183.46816v-6.93633h71.80183c1.13139,0.49541 2.27964,0.92208 3.5722,1.00558c1.17765,0.46484 2.36548,0.94163 3.66798,1.21715c0.97809,0.19563 1.96417,0.33545 2.95131,0.47647l0.09991,-0.00508c1.06615,0.52093 0.38929,1.00974 -2.55614,1.45227c-2.80589,0.46764 -5.84378,1.46851 -8.56253,2.37476l-0.31579,0.41519z" fill="url(#color-4)" stroke="none" stroke-width="0" stroke-linecap="butt"/><path d="M330.66109,179.81508c0,0 0.35329,3.01757 -6.67099,3.01567c-2.08325,-0.00057 -5.92102,-0.07414 -5.92102,-0.07414l-0.17455,-5.325c0,0 4.46994,-0.10491 6.47398,-0.07692c5.84799,0.08169 6.29258,2.46039 6.29258,2.46039z" fill="url(#color-5)" stroke="#000000" stroke-width="0.5" stroke-linecap="round"/></g></g></svg>