<svg version="1.1" xmlns="http://www.w3.org/2000/svg" xmlns:xlink="http://www.w3.org/1999/xlink" width="39.5" height="39.5" viewBox="0,0,39.5,39.5"><defs><linearGradient x1="323.70562" y1="173.02315" x2="318.8011" y2="168.50775" gradientUnits="userSpaceOnUse" id="color-1"><stop offset="0" stop-color="#efff00"/><stop offset="1" stop-color="#ffc800"/></linearGradient><linearGradient x1="315.48727" y1="182.07286" x2="310.21367" y2="177.21766" gradientUnits="userSpaceOnUse" id="color-2"><stop offset="0" stop-color="#efff00"/><stop offset="1" stop-color="#ffc800"/></linearGradient><linearGradient x1="327.77756" y1="175.17223" x2="322.87304" y2="170.65683" gradientUnits="userSpaceOnUse" id="color-3"><stop offset="0" stop-color="#efff00"/><stop offset="1" stop-color="#ffc800"/></linearGradient><linearGradient x1="319.5592" y1="184.22194" x2="314.28561" y2="179.36674" gradientUnits="userSpaceOnUse" id="color-4"><stop offset="0" stop-color="#efff00"/><stop offset="1" stop-color="#ffc800"/></linearGradient><linearGradient x1="331.17084" y1="177.66064" x2="326.26632" y2="173.14523" gradientUnits="userSpaceOnUse" id="color-5"><stop offset="0" stop-color="#efff00"/><stop offset="1" stop-color="#ffc800"/></linearGradient><linearGradient x1="322.95249" y1="186.71035" x2="317.6789" y2="181.85514" gradientUnits="userSpaceOnUse" id="color-6"><stop offset="0" stop-color="#efff00"/><stop offset="1" stop-color="#ffc800"/></linearGradient></defs><g transform="translate(-300.10416,-160.2244)"><g data-paper-data="{&quot;isPaintingLayer&quot;:true}" fill-rule="nonzero" stroke-linecap="butt" stroke-linejoin="miter" stroke-miterlimit="10" stroke-dasharray="" stroke-dashoffset="0" style="mix-blend-mode: normal"><path d="M301.35416,198.4744v-37h37v37z" fill="#ffb935" stroke="#ffea00" stroke-width="2.5"/><path d="M305.44393,181.10443l-0.15508,0.40183c-0.07531,0.81798 0.1115,1.86094 0.54572,2.57524c0.03899,0.06413 0.64971,0.62052 0.74494,0.7082c0.8417,0.77492 1.6291,1.56451 2.72126,1.97092c0.60641,0.22566 1.35283,0.20832 1.99154,0.27281c0,0 0.30455,0.03075 0.43842,-0.20853c0.00136,-0.00141 0.00206,-0.00217 0.00206,-0.00217l0.06141,-0.06671c1.1294,-1.22672 2.38374,-2.32142 3.51112,-3.54595c0.88112,-0.95705 1.71781,-2.0303 2.67571,-2.90856c1.106,-1.01405 2.19213,-2.00188 3.22188,-3.09784c0.08467,-0.01212 0.17588,-0.05498 0.26487,-0.15163c0.09946,-0.10803 0.13171,-0.21329 0.12986,-0.30623c0.01998,-0.04103 0.02837,-0.07017 0.02837,-0.07017l-0.03864,-0.01113c-0.00062,-0.0027 -0.00128,-0.00539 -0.00195,-0.00806c0.42558,-0.46859 0.69026,-1.02066 1.11808,-1.48535c0.25819,-0.42424 0.61049,-0.74893 0.83282,-1.19681c0.22173,-0.44667 0.49646,-0.86413 0.71579,-1.31293c0.22334,-0.45702 0.34548,-0.97803 0.57911,-1.42922c0.09003,-0.17387 0.24175,-0.31377 0.31692,-0.49456c0.50685,-1.2191 0.77143,-2.57739 0.90345,-3.88514c0,0 0.04554,-0.45106 -0.40552,-0.4966c-0.11833,-0.01195 -0.20875,0.01028 -0.27776,0.04958c-2.33321,-0.13959 -4.40229,1.18939 -6.32121,2.3266c-0.55769,0.3305 -1.09938,0.57675 -1.62849,0.96562c-0.74496,0.35247 -1.42317,0.81315 -2.16051,1.16202l-0.19931,0.16861c0,0 -0.10506,0.11411 -0.12553,0.2703c-0.59178,0.64842 -1.28183,1.25358 -1.93593,1.83819c-1.42986,1.27798 -2.66283,2.88903 -3.96231,4.3005c-1.05797,1.14913 -2.1846,2.23993 -3.24891,3.39502c-0.00507,0.00069 -0.01007,0.00148 -0.01502,0.00237l-0.01325,-0.03487c0,0 -0.13731,0.05216 -0.22592,0.17525c-0.05951,0.066 -0.08801,0.12942 -0.08801,0.12942zM309.63304,185.917c-0.84605,-0.33143 -1.44543,-0.87923 -2.10588,-1.48728c-0.24346,-0.22415 -0.76029,-0.54224 -0.92269,-0.82713c-0.31453,-0.55174 -0.48454,-1.37551 -0.4135,-2.00525l0.00794,-0.01203l0.24301,-0.12668c1.06782,-1.15984 2.19814,-2.2537 3.26018,-3.40725c1.27665,-1.38666 2.48802,-2.98956 3.89855,-4.23776c0.56942,-0.50389 1.15313,-1.03016 1.69153,-1.57885c0.05922,0.36891 0.12705,0.74741 0.28005,1.0734c0.44201,0.94178 1.20449,1.53055 2.0123,2.1376c0.35816,0.26915 0.70395,0.63808 1.08502,0.87074c0.47092,0.28751 1.15729,0.28259 1.67993,0.4692c-0.95785,0.99936 -1.96367,1.90916 -2.98256,2.84874c-0.97496,0.89907 -1.82965,1.98503 -2.72863,2.96149c-1.11839,1.21477 -2.36218,2.30214 -3.48483,3.51744c-0.49841,-0.03011 -1.0797,-0.02374 -1.5204,-0.19638zM319.16889,175.5597c-1.00862,-0.67093 -2.23957,-1.54346 -2.78332,-2.65224c-0.18011,-0.36727 -0.20183,-0.88404 -0.27536,-1.28094l-0.00493,-0.18207c0.59295,-0.31789 1.16558,-0.67255 1.77775,-0.96807c0.53538,-0.38669 1.06672,-0.63237 1.62849,-0.96562c1.67935,-0.99624 3.53535,-2.24813 5.57599,-2.21076c-0.1366,1.05183 -0.37112,2.12216 -0.77751,3.09173c-0.45386,1.08283 -1.08436,2.12255 -1.58805,3.18396c-0.18487,0.38958 -0.51776,0.68031 -0.74275,1.04999c-0.39791,0.4322 -0.63988,0.94829 -1.02939,1.38227c-0.5452,-0.23358 -1.26844,-0.10735 -1.78092,-0.44825z" fill="#000000" stroke="none" stroke-width="0.5"/><path d="M320.94928,176.01701c0.3895,-0.43398 0.63367,-0.95021 1.03159,-1.38241c0.22499,-0.36969 0.5604,-0.6613 0.74527,-1.05087c0.50369,-1.06141 1.13899,-2.11027 1.59285,-3.19309c0.40639,-0.96957 0.63864,-2.04488 0.77524,-3.09671c-2.04064,-0.03738 -3.91072,1.2153 -5.59007,2.21154c-0.56177,0.33326 -1.09479,0.58346 -1.63017,0.97015c-0.61216,0.29553 -1.18475,0.65214 -1.7777,0.97003l0.00498,0.18238c0.07353,0.3969 0.09589,0.91582 0.276,1.28309c0.54374,1.10878 1.77938,1.98598 2.788,2.65691c0.51248,0.3409 1.23881,0.21541 1.78401,0.44899z" data-paper-data="{&quot;noHover&quot;:false,&quot;origItem&quot;:[&quot;Path&quot;,{&quot;applyMatrix&quot;:true,&quot;segments&quot;:[[[329.08446,162.38477],[0.71278,-3.31853],[-1.40284,6.53124]],[[328.29451,183.57122],[-2.11829,-6.47215],[0.70166,2.14383]],[[332.1354,189.69079],[-1.23669,-1.85079],[0,0]],[[332.81646,190.42896],[0,0],[3.56548,-1.02573]],[[343.56392,187.41293],[-3.55532,1.18799],[3.60275,-0.53243]],[[353.71235,184.96153],[-3.50141,0.84504],[10.46715,-2.52616]],[[384.24543,172.24006],[-7.91732,7.99938],[-4.5867,-3.62947]],[[369.27803,163.01842],[5.33597,2.26645],[-5.95924,-2.53118]],[[350.75391,156.55117],[6.07369,2.25486],[-2.22926,-0.82761]],[[343.77979,155.26123],[2.31123,0.59468],[-3.23486,-0.17629]],[[334.39489,153.76162],[3.20846,0.21565],[-1.25499,3.02047]]],&quot;closed&quot;:true}]}" fill="url(#color-1)" stroke="none" stroke-width="0.5"/><path d="M311.15114,186.12215c1.12265,-1.2153 2.37343,-2.30368 3.49182,-3.51845c0.89899,-0.97645 1.75805,-2.07019 2.733,-2.96926c1.01889,-0.93958 2.02411,-1.8526 2.98196,-2.85195c-0.52264,-0.1866 -1.20961,-0.18296 -1.68053,-0.47047c-0.38107,-0.23265 -0.72795,-0.6031 -1.08611,-0.87225c-0.80781,-0.60705 -1.5735,-1.19813 -2.0155,-2.13991c-0.153,-0.32599 -0.22156,-0.70477 -0.28079,-1.07368c-0.5384,0.54868 -1.12379,1.07458 -1.69321,1.57846c-1.41053,1.24819 -2.63115,2.85599 -3.9078,4.24265c-1.06203,1.15355 -2.19299,2.25398 -3.26082,3.41381l-0.24299,0.12675l-0.00793,0.01204c-0.07103,0.62975 0.10002,1.45581 0.41455,2.00756c0.1624,0.28488 0.68014,0.60419 0.9236,0.82834c0.66045,0.60805 1.26244,1.15785 2.10848,1.48929c0.4407,0.17264 1.02383,0.16697 1.52224,0.19708z" data-paper-data="{&quot;noHover&quot;:false,&quot;origItem&quot;:[&quot;Path&quot;,{&quot;applyMatrix&quot;:true,&quot;segments&quot;:[[[251.56351,158.16125],[1.07663,-2.37767],[-2.06688,4.56458]],[[248.96725,172.13919],[0.26938,-4.94315],[-0.0993,1.82222]],[[248.50487,178.9568],[-0.4546,-1.75024],[0.88044,3.38977]],[[254.58698,188.46918],[-2.70367,-2.21438],[0,0]],[254.66461,188.48616],[[256.11197,188.05154],[0,0],[8.68088,0.47307]],[[282.10065,188.96707],[-8.63385,-0.47051],[10.37858,0.56559]],[[313.8066,190.70709],[-10.37466,0.49653],[4.1882,-0.20044]],[[326.56353,190.43555],[-4.238,-0.09588],[-1.18549,-1.68517]],[[323.53971,185.11777],[0.64993,1.87645],[-1.87763,-5.42102]],[[323.26407,168.93095],[-0.85535,5.50622],[0.37923,-2.44129]],[[324.19991,161.31648],[-0.61015,2.38527],[0.75402,-2.94771]],[[329.03081,152.99919],[-1.34659,2.74806],[-7.62901,-0.26225]],[[306.28777,153.22174],[7.64012,-0.20872],[-7.3107,0.19972]],[[284.11401,152.02189],[7.30834,0.39827],[-9.09202,-0.49548]],[[256.81395,151.53546],[9.11087,0.48121],[-1.85303,2.03668]]],&quot;closed&quot;:true}]}" fill="url(#color-2)" stroke="none" stroke-width="0.5"/><path d="M309.51587,183.25351l-0.15508,0.40183c-0.07531,0.81798 0.1115,1.86094 0.54572,2.57525c0.03899,0.06413 0.64971,0.62052 0.74494,0.70819c0.84169,0.77492 1.6291,1.56451 2.72126,1.97092c0.60641,0.22566 1.35283,0.20833 1.99154,0.27281c0,0 0.30455,0.03074 0.43842,-0.20854c0.00136,-0.00141 0.00206,-0.00217 0.00206,-0.00217l0.06141,-0.06671c1.12939,-1.22672 2.38374,-2.32142 3.51112,-3.54595c0.88112,-0.95705 1.71781,-2.03029 2.67571,-2.90856c1.10601,-1.01405 2.19213,-2.00188 3.22188,-3.09784c0.08467,-0.01212 0.17588,-0.05497 0.26487,-0.15163c0.09946,-0.10803 0.13171,-0.21329 0.12986,-0.30623c0.01998,-0.04103 0.02837,-0.07017 0.02837,-0.07017l-0.03864,-0.01113c-0.00063,-0.0027 -0.00127,-0.00539 -0.00195,-0.00806c0.42559,-0.46859 0.69026,-1.02067 1.11808,-1.48535c0.25819,-0.42424 0.61049,-0.74893 0.83282,-1.19681c0.22173,-0.44667 0.49646,-0.86413 0.71578,-1.31293c0.22334,-0.45702 0.34548,-0.97803 0.57911,-1.42922c0.09004,-0.17387 0.24175,-0.31376 0.31692,-0.49456c0.50686,-1.2191 0.77143,-2.5774 0.90345,-3.88514c0,0 0.04553,-0.45106 -0.40552,-0.4966c-0.11833,-0.01194 -0.20875,0.01028 -0.27776,0.04958c-2.33321,-0.13959 -4.4023,1.18939 -6.32121,2.3266c-0.55768,0.3305 -1.09938,0.57675 -1.62849,0.96563c-0.74496,0.35247 -1.42317,0.81315 -2.16051,1.16202l-0.19931,0.16861c0,0 -0.10506,0.11411 -0.12553,0.27029c-0.59178,0.64842 -1.28183,1.25358 -1.93593,1.83819c-1.42986,1.27798 -2.66283,2.88903 -3.96231,4.3005c-1.05797,1.14913 -2.1846,2.23993 -3.24891,3.39502c-0.00507,0.00069 -0.01008,0.00148 -0.01502,0.00237l-0.01325,-0.03487c0,0 -0.13731,0.05215 -0.22592,0.17525c-0.05951,0.066 -0.08801,0.12942 -0.08801,0.12942zM313.70498,188.06607c-0.84605,-0.33143 -1.44544,-0.87923 -2.10588,-1.48728c-0.24346,-0.22415 -0.76029,-0.54224 -0.92269,-0.82713c-0.31453,-0.55175 -0.48454,-1.37551 -0.4135,-2.00525l0.00793,-0.01203l0.24301,-0.12667c1.06782,-1.15984 2.19815,-2.2537 3.26018,-3.40725c1.27665,-1.38666 2.48802,-2.98956 3.89855,-4.23776c0.56942,-0.50389 1.15313,-1.03016 1.69153,-1.57884c0.05922,0.36891 0.12705,0.74741 0.28005,1.0734c0.44201,0.94179 1.20449,1.53055 2.0123,2.1376c0.35816,0.26915 0.70395,0.63808 1.08502,0.87074c0.47092,0.28751 1.15729,0.28259 1.67993,0.4692c-0.95785,0.99936 -1.96367,1.90916 -2.98256,2.84875c-0.97496,0.89907 -1.82965,1.98503 -2.72863,2.96148c-1.11839,1.21477 -2.36218,2.30214 -3.48483,3.51744c-0.49841,-0.03011 -1.0797,-0.02374 -1.5204,-0.19638zM323.24082,177.70878c-1.00863,-0.67093 -2.23958,-1.54346 -2.78332,-2.65224c-0.18011,-0.36727 -0.20183,-0.88404 -0.27536,-1.28094l-0.00493,-0.18207c0.59295,-0.31789 1.16559,-0.67255 1.77775,-0.96807c0.53538,-0.38669 1.06673,-0.63237 1.62849,-0.96562c1.67935,-0.99624 3.53535,-2.24814 5.57599,-2.21076c-0.1366,1.05183 -0.37112,2.12216 -0.77751,3.09173c-0.45386,1.08283 -1.08437,2.12255 -1.58806,3.18396c-0.18487,0.38958 -0.51776,0.6803 -0.74275,1.04999c-0.39791,0.43221 -0.63988,0.94829 -1.02939,1.38227c-0.54521,-0.23358 -1.26844,-0.10735 -1.78092,-0.44825z" fill="#000000" stroke="none" stroke-width="0.5"/><path d="M325.02122,178.16608c0.38951,-0.43398 0.63367,-0.95021 1.03159,-1.38241c0.22499,-0.36969 0.5604,-0.6613 0.74527,-1.05087c0.50369,-1.06141 1.13899,-2.11027 1.59285,-3.19309c0.40639,-0.96957 0.63865,-2.04488 0.77524,-3.09671c-2.04064,-0.03738 -3.91072,1.21529 -5.59007,2.21154c-0.56177,0.33325 -1.09479,0.58346 -1.63017,0.97015c-0.61216,0.29553 -1.18475,0.65214 -1.7777,0.97003l0.00498,0.18238c0.07353,0.3969 0.09589,0.91582 0.276,1.28309c0.54374,1.10878 1.77937,1.98598 2.788,2.65691c0.51248,0.3409 1.23881,0.21541 1.78401,0.44899z" data-paper-data="{&quot;noHover&quot;:false,&quot;origItem&quot;:[&quot;Path&quot;,{&quot;applyMatrix&quot;:true,&quot;segments&quot;:[[[329.08446,162.38477],[0.71278,-3.31853],[-1.40284,6.53124]],[[328.29451,183.57122],[-2.11829,-6.47215],[0.70166,2.14383]],[[332.1354,189.69079],[-1.23669,-1.85079],[0,0]],[[332.81646,190.42896],[0,0],[3.56548,-1.02573]],[[343.56392,187.41293],[-3.55532,1.18799],[3.60275,-0.53243]],[[353.71235,184.96153],[-3.50141,0.84504],[10.46715,-2.52616]],[[384.24543,172.24006],[-7.91732,7.99938],[-4.5867,-3.62947]],[[369.27803,163.01842],[5.33597,2.26645],[-5.95924,-2.53118]],[[350.75391,156.55117],[6.07369,2.25486],[-2.22926,-0.82761]],[[343.77979,155.26123],[2.31123,0.59468],[-3.23486,-0.17629]],[[334.39489,153.76162],[3.20846,0.21565],[-1.25499,3.02047]]],&quot;closed&quot;:true}]}" fill="url(#color-3)" stroke="none" stroke-width="0.5"/><path d="M315.22308,188.27122c1.12265,-1.2153 2.37343,-2.30368 3.49182,-3.51845c0.89899,-0.97645 1.75805,-2.07019 2.73301,-2.96926c1.01889,-0.93958 2.02411,-1.8526 2.98196,-2.85196c-0.52264,-0.1866 -1.20961,-0.18295 -1.68053,-0.47047c-0.38106,-0.23265 -0.72795,-0.6031 -1.08611,-0.87225c-0.80781,-0.60705 -1.5735,-1.19813 -2.0155,-2.13991c-0.153,-0.32599 -0.22156,-0.70477 -0.28079,-1.07368c-0.5384,0.54869 -1.12378,1.07458 -1.69321,1.57846c-1.41053,1.24819 -2.63114,2.85599 -3.9078,4.24265c-1.06203,1.15355 -2.193,2.25398 -3.26082,3.41382l-0.24299,0.12675l-0.00793,0.01204c-0.07103,0.62975 0.10002,1.45581 0.41455,2.00756c0.1624,0.28488 0.68014,0.60418 0.9236,0.82833c0.66044,0.60805 1.26244,1.15785 2.10848,1.48929c0.4407,0.17264 1.02383,0.16697 1.52224,0.19708z" data-paper-data="{&quot;noHover&quot;:false,&quot;origItem&quot;:[&quot;Path&quot;,{&quot;applyMatrix&quot;:true,&quot;segments&quot;:[[[251.56351,158.16125],[1.07663,-2.37767],[-2.06688,4.56458]],[[248.96725,172.13919],[0.26938,-4.94315],[-0.0993,1.82222]],[[248.50487,178.9568],[-0.4546,-1.75024],[0.88044,3.38977]],[[254.58698,188.46918],[-2.70367,-2.21438],[0,0]],[254.66461,188.48616],[[256.11197,188.05154],[0,0],[8.68088,0.47307]],[[282.10065,188.96707],[-8.63385,-0.47051],[10.37858,0.56559]],[[313.8066,190.70709],[-10.37466,0.49653],[4.1882,-0.20044]],[[326.56353,190.43555],[-4.238,-0.09588],[-1.18549,-1.68517]],[[323.53971,185.11777],[0.64993,1.87645],[-1.87763,-5.42102]],[[323.26407,168.93095],[-0.85535,5.50622],[0.37923,-2.44129]],[[324.19991,161.31648],[-0.61015,2.38527],[0.75402,-2.94771]],[[329.03081,152.99919],[-1.34659,2.74806],[-7.62901,-0.26225]],[[306.28777,153.22174],[7.64012,-0.20872],[-7.3107,0.19972]],[[284.11401,152.02189],[7.30834,0.39827],[-9.09202,-0.49548]],[[256.81395,151.53546],[9.11087,0.48121],[-1.85303,2.03668]]],&quot;closed&quot;:true}]}" fill="url(#color-4)" stroke="none" stroke-width="0.5"/><path d="M312.90915,185.74192l-0.15508,0.40183c-0.07531,0.81798 0.1115,1.86094 0.54572,2.57525c0.03899,0.06413 0.64971,0.62052 0.74494,0.70819c0.84169,0.77492 1.6291,1.56451 2.72126,1.97092c0.60641,0.22566 1.35283,0.20833 1.99154,0.27281c0,0 0.30455,0.03074 0.43842,-0.20854c0.00136,-0.00141 0.00206,-0.00217 0.00206,-0.00217l0.06141,-0.06671c1.12939,-1.22672 2.38374,-2.32142 3.51112,-3.54595c0.88112,-0.95705 1.71781,-2.03029 2.67571,-2.90856c1.10601,-1.01405 2.19213,-2.00188 3.22188,-3.09784c0.08467,-0.01212 0.17588,-0.05497 0.26487,-0.15163c0.09946,-0.10803 0.13171,-0.21329 0.12986,-0.30623c0.01998,-0.04103 0.02837,-0.07017 0.02837,-0.07017l-0.03864,-0.01113c-0.00063,-0.0027 -0.00127,-0.00539 -0.00195,-0.00806c0.42559,-0.46859 0.69026,-1.02067 1.11808,-1.48535c0.25819,-0.42424 0.61049,-0.74893 0.83282,-1.19681c0.22173,-0.44667 0.49646,-0.86413 0.71578,-1.31293c0.22334,-0.45702 0.34548,-0.97803 0.57911,-1.42922c0.09004,-0.17387 0.24175,-0.31376 0.31692,-0.49456c0.50686,-1.2191 0.77143,-2.5774 0.90345,-3.88514c0,0 0.04553,-0.45106 -0.40552,-0.4966c-0.11833,-0.01194 -0.20875,0.01028 -0.27776,0.04958c-2.33321,-0.13959 -4.4023,1.18939 -6.32121,2.3266c-0.55768,0.3305 -1.09938,0.57675 -1.62849,0.96563c-0.74496,0.35247 -1.42317,0.81315 -2.16051,1.16202l-0.19931,0.16861c0,0 -0.10506,0.11411 -0.12553,0.27029c-0.59178,0.64842 -1.28183,1.25358 -1.93593,1.83819c-1.42986,1.27798 -2.66283,2.88903 -3.96231,4.3005c-1.05797,1.14913 -2.1846,2.23993 -3.24891,3.39502c-0.00507,0.00069 -0.01008,0.00148 -0.01502,0.00237l-0.01325,-0.03487c0,0 -0.13731,0.05215 -0.22592,0.17525c-0.05951,0.066 -0.08801,0.12942 -0.08801,0.12942zM317.09826,190.55448c-0.84605,-0.33143 -1.44544,-0.87923 -2.10588,-1.48728c-0.24346,-0.22415 -0.76029,-0.54224 -0.92269,-0.82713c-0.31453,-0.55175 -0.48454,-1.37551 -0.4135,-2.00525l0.00793,-0.01203l0.24301,-0.12667c1.06782,-1.15984 2.19815,-2.2537 3.26018,-3.40725c1.27665,-1.38666 2.48802,-2.98956 3.89855,-4.23776c0.56942,-0.50389 1.15313,-1.03016 1.69153,-1.57884c0.05922,0.36891 0.12705,0.74741 0.28005,1.0734c0.44201,0.94179 1.20449,1.53055 2.0123,2.1376c0.35816,0.26915 0.70395,0.63808 1.08502,0.87074c0.47092,0.28751 1.15729,0.28259 1.67993,0.4692c-0.95785,0.99936 -1.96367,1.90916 -2.98256,2.84875c-0.97496,0.89907 -1.82965,1.98503 -2.72863,2.96148c-1.11839,1.21477 -2.36218,2.30214 -3.48483,3.51744c-0.49841,-0.03011 -1.0797,-0.02374 -1.5204,-0.19638zM326.63411,180.19719c-1.00863,-0.67093 -2.23958,-1.54346 -2.78332,-2.65224c-0.18011,-0.36727 -0.20183,-0.88404 -0.27536,-1.28094l-0.00493,-0.18207c0.59295,-0.31789 1.16559,-0.67255 1.77775,-0.96807c0.53538,-0.38669 1.06673,-0.63237 1.62849,-0.96562c1.67935,-0.99624 3.53535,-2.24814 5.57599,-2.21076c-0.1366,1.05183 -0.37112,2.12216 -0.77751,3.09173c-0.45386,1.08283 -1.08437,2.12255 -1.58806,3.18396c-0.18487,0.38958 -0.51776,0.6803 -0.74275,1.04999c-0.39791,0.43221 -0.63988,0.94829 -1.02939,1.38227c-0.54521,-0.23358 -1.26844,-0.10735 -1.78092,-0.44825z" fill="#000000" stroke="none" stroke-width="0.5"/><path d="M328.4145,180.65449c0.38951,-0.43398 0.63367,-0.95021 1.03159,-1.38241c0.22499,-0.36969 0.5604,-0.6613 0.74527,-1.05087c0.50369,-1.06141 1.13899,-2.11027 1.59285,-3.19309c0.40639,-0.96957 0.63865,-2.04488 0.77524,-3.09671c-2.04064,-0.03738 -3.91072,1.21529 -5.59007,2.21154c-0.56177,0.33325 -1.09479,0.58346 -1.63017,0.97015c-0.61216,0.29553 -1.18475,0.65214 -1.7777,0.97003l0.00498,0.18238c0.07353,0.3969 0.09589,0.91582 0.276,1.28309c0.54374,1.10878 1.77937,1.98598 2.788,2.65691c0.51248,0.3409 1.23881,0.21541 1.78401,0.44899z" data-paper-data="{&quot;noHover&quot;:false,&quot;origItem&quot;:[&quot;Path&quot;,{&quot;applyMatrix&quot;:true,&quot;segments&quot;:[[[329.08446,162.38477],[0.71278,-3.31853],[-1.40284,6.53124]],[[328.29451,183.57122],[-2.11829,-6.47215],[0.70166,2.14383]],[[332.1354,189.69079],[-1.23669,-1.85079],[0,0]],[[332.81646,190.42896],[0,0],[3.56548,-1.02573]],[[343.56392,187.41293],[-3.55532,1.18799],[3.60275,-0.53243]],[[353.71235,184.96153],[-3.50141,0.84504],[10.46715,-2.52616]],[[384.24543,172.24006],[-7.91732,7.99938],[-4.5867,-3.62947]],[[369.27803,163.01842],[5.33597,2.26645],[-5.95924,-2.53118]],[[350.75391,156.55117],[6.07369,2.25486],[-2.22926,-0.82761]],[[343.77979,155.26123],[2.31123,0.59468],[-3.23486,-0.17629]],[[334.39489,153.76162],[3.20846,0.21565],[-1.25499,3.02047]]],&quot;closed&quot;:true}]}" fill="url(#color-5)" stroke="none" stroke-width="0.5"/><path d="M318.61637,190.75963c1.12265,-1.2153 2.37343,-2.30368 3.49182,-3.51845c0.89899,-0.97645 1.75805,-2.07019 2.73301,-2.96926c1.01889,-0.93958 2.02411,-1.8526 2.98196,-2.85196c-0.52264,-0.1866 -1.20961,-0.18295 -1.68053,-0.47047c-0.38106,-0.23265 -0.72795,-0.6031 -1.08611,-0.87225c-0.80781,-0.60705 -1.5735,-1.19813 -2.0155,-2.13991c-0.153,-0.32599 -0.22156,-0.70477 -0.28079,-1.07368c-0.5384,0.54869 -1.12378,1.07458 -1.69321,1.57846c-1.41053,1.24819 -2.63114,2.85599 -3.9078,4.24265c-1.06203,1.15355 -2.193,2.25398 -3.26082,3.41382l-0.24299,0.12675l-0.00793,0.01204c-0.07103,0.62975 0.10002,1.45581 0.41455,2.00756c0.1624,0.28488 0.68014,0.60418 0.9236,0.82833c0.66044,0.60805 1.26244,1.15785 2.10848,1.48929c0.4407,0.17264 1.02383,0.16697 1.52224,0.19708z" data-paper-data="{&quot;noHover&quot;:false,&quot;origItem&quot;:[&quot;Path&quot;,{&quot;applyMatrix&quot;:true,&quot;segments&quot;:[[[251.56351,158.16125],[1.07663,-2.37767],[-2.06688,4.56458]],[[248.96725,172.13919],[0.26938,-4.94315],[-0.0993,1.82222]],[[248.50487,178.9568],[-0.4546,-1.75024],[0.88044,3.38977]],[[254.58698,188.46918],[-2.70367,-2.21438],[0,0]],[254.66461,188.48616],[[256.11197,188.05154],[0,0],[8.68088,0.47307]],[[282.10065,188.96707],[-8.63385,-0.47051],[10.37858,0.56559]],[[313.8066,190.70709],[-10.37466,0.49653],[4.1882,-0.20044]],[[326.56353,190.43555],[-4.238,-0.09588],[-1.18549,-1.68517]],[[323.53971,185.11777],[0.64993,1.87645],[-1.87763,-5.42102]],[[323.26407,168.93095],[-0.85535,5.50622],[0.37923,-2.44129]],[[324.19991,161.31648],[-0.61015,2.38527],[0.75402,-2.94771]],[[329.03081,152.99919],[-1.34659,2.74806],[-7.62901,-0.26225]],[[306.28777,153.22174],[7.64012,-0.20872],[-7.3107,0.19972]],[[284.11401,152.02189],[7.30834,0.39827],[-9.09202,-0.49548]],[[256.81395,151.53546],[9.11087,0.48121],[-1.85303,2.03668]]],&quot;closed&quot;:true}]}" fill="url(#color-6)" stroke="none" stroke-width="0.5"/></g></g></svg>