<svg version="1.1" xmlns="http://www.w3.org/2000/svg" xmlns:xlink="http://www.w3.org/1999/xlink" width="59.32625" height="55.94265" viewBox="0,0,59.32625,55.94265"><defs><linearGradient x1="291.58687" y1="180.00004" x2="348.41312" y2="180.00004" gradientUnits="userSpaceOnUse" id="color-1"><stop offset="0" stop-color="#c5c5c5"/><stop offset="1" stop-color="#ffffff"/></linearGradient></defs><g transform="translate(-290.33687,-152.02868)"><g data-paper-data="{&quot;isPaintingLayer&quot;:true}" fill-rule="nonzero" stroke-linecap="butt" stroke-linejoin="miter" stroke-miterlimit="10" stroke-dasharray="" stroke-dashoffset="0" style="mix-blend-mode: normal"><path d="M291.58687,200.50004v-41h56.82625v41z" fill="url(#color-1)" stroke="#cccccc" stroke-width="2.5"/><path d="M307.44265,189.16195c0.11118,0.01671 0.24544,0.11997 0.33354,0.05012c0.07147,-0.05667 -0.0535,-0.176 -0.06004,-0.26698c-0.01469,-0.20443 -0.00284,-0.4099 -0.00332,-0.61485c-0.00229,-0.98916 0.27652,-2.45937 -0.07701,-3.40474c-0.05983,-0.15998 -0.23461,-0.3017 -0.44648,-0.43014c-0.02265,0.48717 -0.02216,0.96233 -0.02216,1.37945c0,1.10029 0.04549,2.21059 0.13538,3.32198zM308.88114,184.36869c0.41572,0.874 0.19582,2.20434 0.19582,3.14306c0,0.52258 0.09029,1.05362 -0.00332,1.56775c-0.06846,0.37599 -0.06818,0.82147 -0.33287,1.09715c-0.24933,0.25969 -0.68706,0.21529 -1.03059,0.32294l-0.27419,0.06897c0.27992,2.46275 0.77594,4.91275 1.47628,7.25261c0.29912,0.99939 0.82806,1.86512 1.21437,2.82442c0.53738,1.67328 1.80492,2.98194 2.44826,4.61932c0.23318,0.59346 0.70184,1.4591 0.12184,2.09973c-0.34096,0.3766 -2.00795,0.19977 -2.52848,0.19977c-2.34708,0 -4.58628,0.0274 -6.90079,0.40691c-2.89069,0 -5.98245,-2.22117 -6.59175,-5.18879c-0.18143,-0.88365 -0.19407,-1.88992 -0.28181,-2.79003c-0.15023,-1.54117 -0.41256,-3.00051 -0.41256,-4.56882c0.01871,-4.23442 -0.29933,-8.55643 -0.12691,-12.82615c-0.00618,-0.04118 -0.0095,-0.08545 -0.0095,-0.13305c0,-0.07725 0.00875,-0.14575 0.02427,-0.20649c0.09064,-1.94343 0.28758,-3.87524 0.66897,-5.78222c0.22259,-1.27161 0.82528,-2.24479 1.44042,-3.34869c0.41763,-0.74946 0.82282,-1.58499 1.63689,-2.04056c0.62037,-0.34717 1.6373,-0.41476 2.32937,-0.60351c1.742,-0.47509 3.49891,-0.78865 5.30224,-0.83528c0.48112,-0.55783 1.02527,-0.9722 1.6204,-1.44322c1.21296,-1.51178 2.96957,-2.58019 4.39866,-3.85083c0.2063,-0.18343 0.3167,-0.45587 0.5122,-0.65078c0.82728,-0.82482 1.88472,-1.51098 2.81002,-2.22254c2.39551,-1.84216 4.95257,-3.34424 7.76022,-4.46518c2.24667,-1.12334 4.50842,-1.78893 6.86951,-2.52683c1.31817,-0.41196 2.65787,-0.77156 3.97727,-1.18329c0.9819,-0.30642 1.93633,-0.90836 2.9522,-1.11324c0.49627,-0.10009 1.01601,-0.03515 1.51516,-0.11422c0.08613,-0.03728 0.1873,-0.05798 0.30208,-0.04334c0.37178,-0.05255 0.62347,0.28302 0.62347,0.28302c0.78364,1.06163 1.10006,2.3823 1.47226,3.6252c0.59923,2.001 1.48232,4.02225 1.66191,6.1293c0.10718,1.25752 0.05611,2.53288 0.26812,3.78246c0.25866,1.83203 0.14443,3.7119 0.14443,5.56081c0,1.59107 0.14164,3.25867 -0.00332,4.84165c-0.10794,1.17869 -0.29286,2.35719 -0.40824,3.53578c-0.07942,0.81117 -0.42232,1.3843 -0.40924,2.1826c-0.28936,1.76323 -0.54218,3.59623 -1.10909,5.29183l-0.01251,0.07634c0.15787,0.09076 0.30545,0.26044 0.30545,0.57772c0,0.68206 -0.68206,0.68206 -0.68206,0.68206h-0.27283c-0.0109,0 -0.02178,-0.00001 -0.03266,-0.00002c-0.04621,0.00449 -0.09605,0.0046 -0.14979,-0.00055c-1.17491,-0.00757 -2.24946,-0.09616 -3.35685,-0.55739c-1.48189,0.02428 -2.95549,-0.40075 -4.42889,-0.53567c-1.25983,-0.11536 -2.55001,0.10401 -3.81165,0.00061c-1.04905,-0.08598 -2.10006,-0.17714 -3.1454,-0.27343c-1.81203,-0.16691 -3.56523,-0.7383 -5.36222,-0.9597c-2.54205,-0.42935 -5.00244,-1.19133 -7.46225,-1.93092c-1.32336,-0.3979 -2.77941,-0.58783 -3.98379,-1.3013c-0.77819,-0.461 -1.24715,-1.09051 -1.78428,-1.71482c-0.13045,0.24254 -0.25863,0.48396 -0.37197,0.73096c-0.14034,0.30581 -0.24017,0.65484 -0.31119,1.02431c0.60219,0.36523 1.17015,0.5083 1.53891,1.28357zM299.3614,179.94368c0.35848,-0.17858 0.87463,-0.07338 1.14284,-0.3708c0.08237,-0.09134 -0.02312,-0.24654 -0.01011,-0.36885c0.02926,-0.27504 0.08692,-0.54635 0.13641,-0.81848c0.13467,-0.7404 0.1982,-1.37135 0.26397,-2.1159c0.1295,-1.46588 0.62726,-2.99526 1.16775,-4.41333c-0.5822,0.12037 -1.33837,0.17787 -1.80312,0.43291c-0.56515,0.31014 -0.81123,1.0003 -1.09137,1.50616c-0.53433,0.9649 -1.1133,1.80941 -1.28784,2.92629c-0.29247,1.46236 -0.47683,2.9426 -0.58777,4.43318c0.66134,-0.45712 1.33191,-0.84392 2.06922,-1.2112zM302.254,176.38217c-0.08044,1.03542 -0.18168,2.04529 -0.41809,3.06778c-0.07769,0.33604 -0.06054,0.73165 -0.28293,0.99528c-0.21725,0.25753 -1.22492,0.53953 -1.58541,0.7205c-0.8493,0.42635 -1.58893,0.8649 -2.34927,1.43516c-0.14171,0.10628 -0.28341,0.21256 -0.42512,0.31884c-0.16271,4.16507 0.13686,8.38713 0.15229,12.50395c0,1.52377 0.25276,2.93706 0.40592,4.43441c0.12937,1.26479 0.10152,2.68444 0.73433,3.82543c0.94011,1.69506 2.73935,2.92832 4.66924,2.92832c2.12206,-0.36023 4.17855,-0.41156 6.33124,-0.41156c0.2361,0 1.45374,-0.12981 1.99116,0.01098c-0.06821,-0.14022 -0.10977,-0.29495 -0.16901,-0.43974c-0.17435,-0.42612 -0.35788,-0.85479 -0.61479,-1.23685c-0.72763,-1.08205 -1.42521,-2.1889 -1.8478,-3.41989c-0.3911,-0.98591 -0.93186,-1.87646 -1.24105,-2.90491c-1.18759,-3.95027 -1.80164,-8.21645 -1.80164,-12.33507c0,-0.74484 0.01567,-1.6036 0.12088,-2.43739c-0.00174,-0.05792 0.00542,-0.11946 0.02477,-0.18402c0.08919,-0.62255 0.23191,-1.22526 0.4594,-1.74937c0.27534,-0.63436 0.67669,-1.21574 0.94427,-1.88469l0.15964,-0.32454c0,0 0.30503,-0.61006 0.91509,-0.30503c0.61006,0.30503 0.30503,0.91508 0.30503,0.91508l-0.0579,0.11311c0.60646,0.66906 1.03656,1.3684 1.85262,1.86633c1.07092,0.65343 2.46752,0.79856 3.65532,1.15412c2.39586,0.71721 4.79228,1.48213 7.27031,1.88864c1.76779,0.22394 3.49545,0.79035 5.27796,0.95008c1.04163,0.09334 2.08475,0.18362 3.12958,0.27222c1.26625,0.10736 2.56133,-0.11378 3.82746,0.00061c1.53148,0.13836 3.03352,0.53526 4.57434,0.55563c0.72726,0.281 1.3987,0.4224 2.10656,0.48672c-0.12523,-0.25506 -0.22218,-0.52371 -0.27988,-0.79873c-0.88252,-1.47087 -1.17436,-3.21226 -1.53143,-4.87814c-0.31955,-1.49085 -0.76046,-3.04044 -0.96329,-4.54926c-0.23814,-1.77142 -0.143,-3.62149 -0.143,-5.41469c0,-1.29239 -0.11432,-2.61649 0.13973,-3.88676c-0.01497,-2.77247 0.07607,-5.56658 0.27283,-8.32117c0.14076,-1.97063 0.19299,-4.01542 0.91928,-5.86016c-0.13155,0.00982 -0.26234,0.02507 -0.39167,0.05068c-0.94302,0.18675 -1.86489,0.78391 -2.77713,1.06936c-1.33063,0.41637 -2.68298,0.77868 -4.01236,1.19408c-2.30199,0.71932 -4.50249,1.3663 -6.69405,2.46208c-2.7112,1.08644 -5.17453,2.52241 -7.48894,4.30326c-0.87646,0.6744 -1.89435,1.32103 -2.67553,2.10463c-0.21623,0.2169 -0.35017,0.50989 -0.5791,0.71334c-1.40757,1.25087 -3.14243,2.29716 -4.33175,3.78827c-0.51243,0.41365 -1.01411,0.76547 -1.44053,1.23527c-0.0515,0.60145 -0.67871,0.60146 -0.67871,0.60146c-1.37088,0 -2.7072,0.17027 -4.03118,0.4558c-0.6087,1.52235 -1.3004,3.28249 -1.42765,4.92055zM341.95471,181.86258c0.01071,-0.80997 0.34343,-1.38724 0.40924,-2.1826c0.09865,-1.19239 0.30312,-2.36907 0.41023,-3.55768c0.13858,-1.53784 -0.00332,-3.16132 -0.00332,-4.70723c0,-1.77512 0.12606,-3.59418 -0.12839,-5.3522c-0.20961,-1.2781 -0.17308,-2.57202 -0.27753,-3.85665c-0.16372,-2.01374 -1.03727,-3.96263 -1.61199,-5.87501c-0.22325,-0.74287 -0.41025,-1.56395 -0.7361,-2.29822c-0.67379,1.69875 -0.6682,3.65525 -0.79603,5.44498c-0.19693,2.75704 -0.26053,5.54568 -0.27283,8.32117c-0.24544,1.22717 -0.1331,2.50334 -0.1331,3.75234c0,1.73048 -0.09601,3.51648 0.12982,5.22549c0.19502,1.47584 0.6338,2.9944 0.94648,4.45397c0.32617,1.52252 0.59358,3.09273 1.34744,4.45842c0.30996,-1.25809 0.50084,-2.55834 0.71607,-3.82677z" fill="#000000" stroke="none" stroke-width="0.5"/><path d="M307.30145,189.21037c-0.08989,-1.11139 -0.13852,-2.24825 -0.13852,-3.34854c0,-0.41713 0.00203,-0.89285 0.02468,-1.38002c0.21187,0.12843 0.38939,0.27009 0.44922,0.43007c0.35353,0.94537 0.07574,2.44267 0.07804,3.43184c0.00047,0.20495 -0.01488,0.38338 -0.00019,0.5878c0.00654,0.09098 0.13463,0.23741 0.06315,0.29408c-0.08809,0.06985 -0.22429,-0.03331 -0.33547,-0.05002z" data-paper-data="{&quot;noHover&quot;:false,&quot;origItem&quot;:[&quot;Path&quot;,{&quot;applyMatrix&quot;:true,&quot;segments&quot;:[[[546.01942,522.3828],[0,0],[0.81502,0.12246]],[[548.46447,522.75017],[-0.64578,0.51207],[0.52395,-0.41546]],[[548.02433,520.79302],[0.04792,0.66696],[-0.10767,-1.4986]],[[548,516.28571],[0.00348,1.50246],[-0.01679,-7.25123]],[[547.43547,491.32655],[2.59161,6.93026],[-0.43856,-1.17275]],[[544.16246,488.17334],[1.55317,0.9415],[-0.16602,3.57127]],[[544,498.28571],[0,-3.05782],[0,8.0659]],[[544.99242,522.63814],[-0.65897,-8.14723],[0,0]]],&quot;closed&quot;:true}]}" fill="#9966ff" stroke="none" stroke-width="0.5"/><path d="M297.28595,181.16702c0.11094,-1.49057 0.28798,-2.98132 0.58045,-4.44369c0.17453,-1.11688 0.76453,-1.97643 1.29886,-2.94133c0.28013,-0.50586 0.5306,-1.19613 1.09575,-1.50627c0.46475,-0.25505 1.22529,-0.31117 1.80749,-0.43154c-0.54049,1.41807 -1.03108,2.95699 -1.16058,4.42287c-0.06578,0.74455 -0.13653,1.39027 -0.2712,2.13066c-0.0495,0.27212 -0.10937,0.54433 -0.13863,0.81936c-0.01301,0.12231 0.09208,0.27762 0.00971,0.36896c-0.26821,0.29743 -0.78916,0.19264 -1.14764,0.37122c-0.73731,0.36728 -1.41286,0.75263 -2.0742,1.20975z" data-paper-data="{&quot;noHover&quot;:false,&quot;origItem&quot;:[&quot;Path&quot;,{&quot;applyMatrix&quot;:true,&quot;segments&quot;:[[[486.77819,454.80647],[-5.40499,2.69244],[2.62793,-1.30908]],[[495.15603,452.08822],[-1.96616,2.18034],[0.60382,-0.6696]],[[495.08192,449.3843],[-0.09538,0.89659],[0.21448,-2.01621]],[[496.08192,443.3843],[-0.36284,1.99486],[0.98722,-5.42761]],[[498.01704,427.8733],[-0.4822,5.45806],[0.94936,-10.74591]],[[506.57745,395.52051],[-3.96215,10.39542],[-4.26792,0.88238]],[[493.35929,398.69408],[3.40695,-1.86966],[-4.14296,2.27356]],[[485.35882,409.73533],[2.05358,-3.70835],[-3.91703,7.07338]],[[475.91808,431.18711],[1.27944,-8.18754],[-2.14403,10.72014]],[[471.60934,463.68541],[0.81324,-10.92697],[4.84807,-3.35102]]],&quot;closed&quot;:true}]}" fill="#002dff" stroke="none" stroke-width="0.5"/><path d="M341.23901,185.70299c-0.75386,-1.36568 -1.02275,-2.93593 -1.34891,-4.45845c-0.31268,-1.45957 -0.75392,-2.97856 -0.94894,-4.4544c-0.22583,-1.70901 -0.13668,-3.49937 -0.13668,-5.22985c0,-1.249 -0.11108,-2.5441 0.13436,-3.77128c0.0123,-2.77548 0.08297,-5.56749 0.27991,-8.32454c0.12784,-1.78974 0.12362,-3.74638 0.79742,-5.44512c0.32585,0.73427 0.51347,1.55533 0.73673,2.29821c0.57472,1.91238 1.45104,3.86155 1.61477,5.87529c0.10445,1.28462 0.07113,2.57963 0.28074,3.85773c0.25444,1.75802 0.13316,3.59785 0.13316,5.37297c0,1.54591 0.13529,3.17393 -0.00329,4.71177c-0.10711,1.18861 -0.31353,2.36574 -0.41218,3.55813c-0.06581,0.79536 -0.39936,1.37274 -0.41007,2.18271c-0.21523,1.26843 -0.40704,2.56874 -0.717,3.82683z" data-paper-data="{&quot;noHover&quot;:false,&quot;origItem&quot;:[&quot;Path&quot;,{&quot;applyMatrix&quot;:true,&quot;segments&quot;:[[[799.01704,468.8733],[-1.57778,9.29848],[0.07853,-5.93766]],[[802.01704,452.8733],[-0.4824,5.83059],[0.72321,-8.74106]],[[805.02433,426.79302],[-0.7852,8.71333],[1.01591,-11.27343]],[[805,392.28571],[0,11.33262],[0,-13.01291]],[[804.05881,353.05031],[1.86526,12.88754],[-1.53659,-9.36936]],[[802.02433,324.77839],[0.76565,9.41718],[-1.20021,-14.76212]],[[790.20728,281.71044],[4.2131,14.01909],[-1.6366,-5.44579]],[[784.81115,264.86284],[2.38873,5.38272],[-4.93937,12.45299]],[[778.97567,304.77839],[0.93714,-13.12003],[-1.44365,20.21104]],[[776.97567,365.77839],[0.09014,-20.34624],[-1.79921,8.99603]],[[776,393.28571],[0,-9.15607],[0,12.68563]],[[776.95167,431.5922],[-1.6555,-12.52826],[1.42963,10.81892]],[[783.89005,464.24293],[-2.29217,-10.69969],[2.39102,11.16113]],[[793.76774,496.92624],[-5.52633,-10.01141],[2.27223,-9.22267]]],&quot;closed&quot;:true}]}" fill="#dbea00" stroke="none" stroke-width="0.5"/><path d="M303.6698,171.45488c1.32398,-0.28553 2.66159,-0.45769 4.03247,-0.45769c0,0 0.62778,-0.00065 0.67927,-0.60211c0.42643,-0.4698 0.92944,-0.82287 1.44187,-1.23652c1.18932,-1.49111 2.92876,-2.53988 4.33633,-3.79075c0.22894,-0.20345 0.3635,-0.49662 0.57973,-0.71352c0.78119,-0.7836 1.80148,-1.43064 2.67794,-2.10503c2.31441,-1.78086 4.78249,-3.21634 7.49369,-4.30278c2.19157,-1.09578 4.39474,-1.74169 6.69673,-2.46101c1.32938,-0.4154 2.68287,-0.77703 4.01351,-1.1934c0.91225,-0.28545 1.8347,-0.8822 2.77772,-1.06895c0.12933,-0.02561 0.26022,-0.04079 0.39176,-0.05061c-0.7263,1.84474 -0.77749,3.8904 -0.91825,5.86103c-0.19676,2.75459 -0.28565,5.55123 -0.27068,8.3237c-0.25405,1.27027 -0.13871,2.59622 -0.13871,3.88861c0,1.7932 -0.09409,3.64672 0.14405,5.41814c0.20283,1.50882 0.64388,3.06162 0.96344,4.55247c0.35707,1.66588 0.64838,3.41016 1.5309,4.88102c0.05771,0.27502 0.15453,0.54405 0.27976,0.79912c-0.70786,-0.06432 -1.37934,-0.20559 -2.10661,-0.48659c-1.54083,-0.02038 -3.04315,-0.41652 -4.57463,-0.55488c-1.26612,-0.11438 -2.56188,0.10816 -3.82813,0.0008c-1.04484,-0.08859 -2.0889,-0.17739 -3.13053,-0.27074c-1.78251,-0.15973 -3.51459,-0.72225 -5.28238,-0.94619c-2.47804,-0.4065 -4.89247,-1.1759 -7.28833,-1.89311c-1.1878,-0.35557 -2.5863,-0.50519 -3.65722,-1.15862c-0.81606,-0.49793 -1.24649,-1.20028 -1.85295,-1.86934l0.0579,-0.11326c0,0 0.3051,-0.61125 -0.30496,-0.91628c-0.61006,-0.30503 -0.8879,0.30733 -0.8879,0.30733l-0.15962,0.32414c-0.26758,0.66895 -0.66901,1.24822 -0.94435,1.88258c-0.22749,0.52411 -0.37052,1.1251 -0.45972,1.74766c-0.01935,0.06456 -0.02656,0.12593 -0.02482,0.18385c-0.10521,0.83379 -0.12163,1.69044 -0.12163,2.43528c0,4.11862 0.60874,8.37877 1.79634,12.32904c0.30919,1.02846 0.84862,1.91829 1.23972,2.9042c0.4226,1.23099 1.11864,2.33722 1.84626,3.41927c0.25692,0.38206 0.43997,0.81059 0.61432,1.23671c0.05924,0.14479 0.09335,0.32577 0.16156,0.46598c-0.53742,-0.14079 -1.75596,-0.01127 -1.99206,-0.01127c-2.15269,0 -4.21153,0.05024 -6.33359,0.41047c-1.92989,0 -3.73109,-1.23467 -4.67121,-2.92973c-0.63281,-1.14098 -0.606,-2.56163 -0.73537,-3.82642c-0.15316,-1.49735 -0.40707,-2.91204 -0.40707,-4.43581c-0.01543,-4.11681 -0.31744,-8.34503 -0.15473,-12.5101c0.14171,-0.10628 0.28339,-0.21272 0.4251,-0.319c0.76035,-0.57026 1.49989,-1.00964 2.3492,-1.43599c0.36049,-0.18097 1.36814,-0.46346 1.58539,-0.72099c0.2224,-0.26363 0.20525,-0.66004 0.28294,-0.99607c0.23641,-1.0225 0.33796,-2.03484 0.4184,-3.07026c0.12726,-1.63806 0.82042,-3.40199 1.42912,-4.92434z" data-paper-data="{&quot;noHover&quot;:false,&quot;origItem&quot;:[&quot;Path&quot;,{&quot;applyMatrix&quot;:true,&quot;segments&quot;:[[[507.98296,428.69811],[0.93288,-12.00812],[-0.58968,7.59038]],[[504.91808,451.18711],[1.73302,-7.49563],[-0.56955,2.4634]],[[502.84397,458.48319],[1.63032,-1.93256],[-1.59262,1.88788]],[[491.22181,463.76494],[2.64264,-1.32661],[-6.226,3.12546]],[[474,474.28571],[5.57387,-4.1804],[-1.0388,0.7791]],[[470.88359,476.62302],[1.0388,-0.7791],[-1.19278,30.5329]],[[472,568.28571],[-0.11311,-30.17912],[0,11.17032]],[[474.97567,600.79302],[-1.12275,-10.97663],[0.94838,9.27182]],[[480.35882,628.83608],[-4.63895,-8.36421],[6.8917,12.426]],[[514.5876,650.30274],[-14.14745,0],[15.55615,-2.64075]],[[561,647.28571],[-15.78071,0],[1.73077,0]],[[575.59659,647.36624],[-3.93969,-1.03211],[-0.50006,-1.02787]],[[574.35762,644.14266],[0.43429,1.0614],[-1.27813,-3.12374]],[[569.85076,635.07565],[1.88337,2.80077],[-5.33401,-7.93221]],[[556.30507,610.00549],[3.09793,9.02401],[-2.86705,-7.22741]],[[547.20728,588.71044],[2.26658,7.53929],[-8.7059,-28.95827]],[[534,498.28571],[0,30.19239],[0,-5.46019]],[[534.88615,480.41794],[-0.77128,6.11224],[-0.01277,-0.4246]],[[535.06773,479.06895],[-0.14188,0.47327],[0.65385,-4.56374]],[[538.43547,466.24486],[-1.66766,3.84209],[2.01846,-4.6503]],[[545.35762,452.42875],[-1.96156,4.9039],[0,0]],[546.52786,450.04964],[[553.23607,447.81357],[-4.47214,-2.23607],[4.47214,2.23607]],[555.47214,454.52177],[[555.04767,455.35094],[0,0],[4.44577,4.9047]],[[568.62866,469.03245],[-5.9823,-3.65014],[7.85061,4.7901]],[[595.42473,477.49299],[-8.70738,-2.60657],[17.56333,5.25761]],[[648.72123,491.338],[-18.16575,-2.97995],[12.95915,1.64161]],[[687.4124,498.30274],[-13.06705,-1.17094],[7.63585,0.68425]],[[710.35445,500.29828],[-7.65939,-0.64944],[9.2825,0.78706]],[[738.4124,500.30274],[-9.28156,-0.83852],[11.22682,1.01426]],[[771.94554,504.37592],[-11.29535,-0.14939],[5.33136,2.05995]],[[787.38813,507.94391],[-5.18911,-0.47151],[-0.91799,-1.86981]],[[785.33639,502.08869],[0.42304,2.01607],[-6.46949,-10.78248]],[[774.10995,466.32849],[2.61757,12.21206],[-2.34255,-10.92896]],[[767.04833,432.97921],[1.48692,11.06073],[-1.7457,-12.98572]],[[766,393.28571],[0,13.14542],[0,-9.47413]],[[767.02433,364.79302],[-1.8624,9.31199],[-0.10972,-20.32413]],[[769.02433,303.79302],[-1.44236,20.19311],[1.03186,-14.44607]],[[775.76332,260.83395],[-5.32427,13.52323],[-0.96434,0.07198]],[[772.89212,261.20547],[0.9481,-0.18776],[-6.913,1.36903]],[[752.53377,269.04465],[6.68741,-2.09257],[-9.75447,3.05229]],[[723.12038,277.79811],[9.74525,-3.04518],[-16.87518,5.27314]],[[674.04828,295.84691],[16.06572,-8.03286],[-19.87499,7.96438]],[[619.14907,327.39281],[16.96628,-13.05491],[-6.42504,4.94382]],[[599.53553,342.82124],[5.72663,-5.74433],[-1.58513,1.59003]],[[595.29029,348.05054],[1.67825,-1.49142],[-10.31844,9.16972]],[[563.53553,375.82124],[8.71857,-10.93088],[-3.75645,3.03235]],[[552.97541,384.87661],[3.12599,-3.44397],[-0.37754,4.40909]],[[548,389.28571],[0,0],[-10.04952,0]],[[518.44866,392.62705],[9.7057,-2.09313],[-4.46217,11.15992]]],&quot;closed&quot;:true}]}" fill="#efff00" stroke="none" stroke-width="0.5"/><path d="M312.76009,179.87265c0.58179,0.44544 1.15301,0.56542 1.80362,0.88951c1.48504,0.73976 3.07099,1.37456 4.66571,1.86701c0.39557,0.12215 0.82514,0.06933 1.23698,0.11145c1.17237,0.11992 2.3907,0.30837 3.54673,0.54565c1.02502,0 1.92117,0.24953 2.90671,0.41473c0.92157,0.15447 1.8917,0.04005 2.82262,0.13092c1.11133,0.10849 2.22346,0.40878 3.3431,0.40592c0.95484,-0.00244 1.90982,-0.00202 2.86466,0c0.23626,0.0005 0.59546,-0.0247 0.90944,0.02052c-0.33749,-0.75565 -0.81909,-1.56422 -1.31064,-2.19261c-0.1513,-0.19342 -0.37522,-0.32263 -0.52331,-0.51851c-0.0766,-0.10131 -0.01747,-0.31359 -0.1374,-0.3554c-0.12964,-0.04519 -0.2359,0.15608 -0.37142,0.17801c-0.24655,0.03989 -0.49951,0.00274 -0.74927,0.00332c-0.95485,0.00222 -1.90981,0.00222 -2.86466,0c-2.11779,-0.00491 -4.30699,-0.61757 -6.39794,-0.96606c-1.57876,-0.31555 -3.38234,-0.25971 -4.89743,-0.85319c-0.24687,-0.09671 -0.43672,-0.3087 -0.68206,-0.40924c-0.84993,-0.34828 -1.92529,-0.39661 -2.81307,-0.66445c-1.06614,-0.32166 -2.0388,-0.79315 -2.98793,-1.32382c-0.18873,0.87585 -0.46141,1.68858 -0.57935,2.55504zM311.76599,175.56576c0.35092,-0.58486 0.93578,-0.23395 0.93578,-0.23395c1.21661,0.73177 2.41597,1.42847 3.7994,1.84086c0.92945,0.27706 2.01701,0.34742 2.91626,0.69967c0.24687,0.09671 0.43672,0.3087 0.68206,0.40924c1.40175,0.5744 3.17897,0.48907 4.65145,0.78376c1.84144,0.30691 3.68514,0.76163 5.53716,0.94703c1.30585,0.13072 2.78424,0.07457 4.09437,0c0.33187,-0.01889 0.68229,-0.21371 0.9927,-0.09481c0.31212,0.11955 0.45031,0.49412 0.68108,0.73591c0.86336,0.90457 1.6595,2.08516 2.12552,3.25022c0.15713,0.35466 0.62744,0.70885 0.47137,1.06397c-0.50767,1.15514 -2.57519,0.63432 -3.5214,0.63432c-1.89372,0 -3.659,-0.2212 -5.52371,-0.41256c-0.95787,-0.0983 -1.95508,0.01584 -2.90671,-0.1419c-0.96241,-0.15953 -1.81992,-0.40375 -2.82262,-0.40375c-1.40338,-0.27441 -2.817,-0.39288 -4.22879,-0.54565c-1.03549,-0.11205 -1.87895,-0.68902 -2.85539,-0.97985c-1.48333,-0.44179 -3.11386,-1.00649 -4.44025,-1.86869c-0.09635,0.13962 -0.26252,0.26001 -0.54907,0.26001c-0.68206,0 -0.68206,-0.68206 -0.68206,-0.68206v-0.27283c0.00047,-0.12481 0.00454,-0.24788 0.01176,-0.3695c-0.0402,-0.12693 -0.04413,-0.28061 0.04108,-0.4514c0.1237,-1.01953 0.43698,-1.95767 0.64247,-2.99601c0,0 0.02793,-0.13963 0.12206,-0.27854c-0.13923,-0.10959 -0.45431,-0.42719 -0.17452,-0.8935z" fill="#000000" stroke="none" stroke-width="0.5"/><path d="M312.53159,179.71035c0.11794,-0.86646 0.39118,-1.68208 0.57991,-2.55793c0.94914,0.53067 1.94803,1.00958 3.01418,1.33125c0.88777,0.26784 1.9631,0.31631 2.81303,0.66459c0.24534,0.10053 0.43533,0.31198 0.6822,0.40869c1.51509,0.59348 3.29786,0.52323 4.87663,0.83878c2.09095,0.34849 4.27409,0.97109 6.39187,0.976c0.95485,0.00222 1.90977,0.00267 2.86462,0.00046c0.24976,-0.00058 0.50271,0.03665 0.74927,-0.00324c0.13553,-0.02193 0.26902,-0.22164 0.39866,-0.17645c0.11993,0.04181 0.06077,0.25454 0.13737,0.35585c0.14809,0.19588 0.37195,0.32568 0.52325,0.5191c0.49155,0.62839 0.97271,1.43909 1.31019,2.19474c-0.31398,-0.04522 -0.67326,-0.01976 -0.90952,-0.02026c-0.95484,-0.00202 -1.91026,-0.00124 -2.86511,0.00121c-1.11965,0.00286 -2.23276,-0.29554 -3.34408,-0.40403c-0.93092,-0.09088 -1.90453,0.02732 -2.8261,-0.12715c-0.98553,-0.1652 -1.89333,-0.41251 -2.91835,-0.41251c-1.15602,-0.23728 -2.38313,-0.43301 -3.5555,-0.55293c-0.41185,-0.04213 -0.84199,0.00931 -1.23756,-0.11284c-1.59472,-0.49245 -3.18143,-1.1317 -4.66648,-1.87146c-0.65061,-0.32409 -1.2218,-0.4451 -1.80359,-0.89054z" data-paper-data="{&quot;noHover&quot;:false,&quot;origItem&quot;:[&quot;Path&quot;,{&quot;applyMatrix&quot;:true,&quot;segments&quot;:[[[607,545.28571],[0,0],[4.26492,3.2654]],[[620.22181,551.80647],[-4.76942,-2.37584],[10.88642,5.42296]],[[654.42473,565.49299],[-11.6904,-3.61],[2.89979,0.89545]],[[663.49269,566.31004],[-3.01914,-0.30882],[8.5943,0.87908]],[[689.49269,570.31004],[-8.47447,-1.73947],[7.51415,0]],[[710.80091,573.35027],[-7.22467,-1.211],[6.75572,1.13239]],[[731.49269,574.31004],[-6.82425,-0.66621],[8.1468,0.79532]],[[756,577.28571],[-8.20779,0.02101],[6.99969,-0.01792]],[[777,577.28571],[-6.99969,-0.01482],[1.73196,0.00367]],[[783.66686,577.43614],[-2.30171,-0.33152],[-2.47403,-5.53947]],[[774.05897,561.36277],[3.60338,4.60651],[-1.10912,-1.41788]],[[770.22273,557.56171],[1.08563,1.43594],[-0.56151,-0.7427]],[[769.21549,554.95641],[0.87918,0.3065],[-0.95036,-0.33131]],[[766.49269,556.26137],[0.99353,-0.16076],[-1.80741,0.29244]],[[761,556.28571],[1.83091,-0.00425],[-6.99973,0.01623]],[[740,556.28571],[6.99974,0.01623],[-15.52485,-0.036]],[[693.0986,549.20378],[15.32816,2.55469],[-11.57345,-2.31318]],[[657.19702,542.94931],[11.10669,4.35065],[-1.80976,-0.70891]],[[652.19702,539.94931],[1.79851,0.73698],[-6.23061,-2.55312]],[[631.57527,535.07842],[6.50798,1.96349],[-7.81558,-2.358]],[[609.67163,525.37389],[6.95784,3.89015],[-1.38352,6.42057]],[[605.42457,544.10413],[0.86461,-6.35176],[0,0]]],&quot;closed&quot;:true}]}" fill="#002dff" stroke="none" stroke-width="0.5"/><path d="M299.12071,185.73724c-0.04603,0.0006 -0.09212,0.00097 -0.13829,0.00115c0,0 -0.68206,0 -0.68206,-0.68206c0,-0.68206 0.68206,-0.68206 0.68206,-0.68206c0.19163,0.00085 0.3777,-0.00908 0.55977,-0.02733c0.12058,-0.08939 0.29084,-0.14344 0.52888,-0.09584c0.01645,0.00329 0.03242,0.00691 0.04792,0.01083c0.76036,-0.1448 1.47686,-0.39682 2.2764,-0.55648c0.49756,-0.09935 1.49721,-0.37099 1.93031,0.00494c0.71435,0.62006 0.31294,1.29266 0.24633,1.9588c-0.19897,1.9897 0.03556,4.07667 -0.00899,6.07879c0.30847,0.77117 0.20197,1.3104 0.28181,2.10796c0.16355,1.6337 0.77302,3.08782 1.32583,4.60705c0.05778,0.15879 0.37199,1.17179 0.4998,1.40098c0.80276,1.43951 2.1147,2.33315 3.08854,3.60806l0.4051,0.54014c0.08815,0.11492 0.14055,0.25872 0.14055,0.41475c0,0.37669 -0.30537,0.68206 -0.68206,0.68206h-0.68206v-0.02153c-0.04278,0.00456 -0.08577,0.00771 -0.12898,0.00922c-0.26693,0.00935 -0.49212,-0.21033 -0.74743,-0.28879c-0.61153,-0.18794 -1.41308,-0.18825 -2.04451,-0.24687c-0.91812,-0.08524 -1.88617,0.00468 -2.80841,0.00232c-0.91141,-0.00233 -1.8645,0.46472 -2.61098,-0.43609c-0.3468,-0.4185 -0.13384,-1.07978 -0.24044,-1.61275c-0.28195,-1.40975 -0.45811,-2.87506 -0.69298,-4.3063c0.00108,-0.72653 -0.20038,-1.3201 -0.27183,-2.03524c-0.13581,-1.35931 -0.14014,-2.73319 -0.27283,-4.09238c-0.20189,-2.068 -0.0216,-4.25868 -0.00144,-6.34333zM300.48717,185.63252l-0.00753,0.03666c0.0111,2.05643 -0.20984,4.23217 0,6.27697c0.13959,1.36024 0.1367,2.73255 0.27283,4.09238c0.07111,0.71031 0.27278,1.3315 0.27382,2.05714c0.1601,0.94353 0.44744,1.90328 0.54465,2.85371c0.06584,0.64363 0.25426,1.40695 0.27283,2.04619c0.00372,0.128 -0.13804,0.24111 -0.11395,0.36689c0.01136,0.05933 0.12061,-0.0111 0.17963,-0.024c0.18529,-0.04048 0.36391,-0.11577 0.5525,-0.13595c0.24834,-0.02657 0.49951,-0.00274 0.74927,-0.00332c1.48297,-0.00344 2.96328,-0.01906 4.43241,0.13973c0.07548,0.00816 0.15724,0.01562 0.24198,0.0241c-0.84132,-0.89735 -1.77838,-1.70083 -2.40432,-2.83075c-0.95568,-1.72514 -1.46909,-3.8782 -1.84758,-5.79331c-0.18899,-0.95629 -0.04818,-1.82806 -0.41018,-2.73303c-0.02549,-1.67963 -0.01231,-3.36003 -0.01231,-5.03983c0,-0.08219 -0.00101,-1.38807 0.00332,-1.43133c0.02087,-0.20866 0.06916,-0.41514 0.1331,-0.61486c0.01947,-0.06083 0.17703,-0.15154 0.11323,-0.15459c-0.07891,-0.00379 -0.10783,0.1253 -0.18243,0.15127c-0.60361,0.21012 -1.30412,0.33757 -1.91905,0.52069c-0.28993,0.08634 -0.58033,0.14962 -0.8722,0.19524z" fill="#000000" stroke="none" stroke-width="0.5"/><path d="M301.3552,185.4243c0.61493,-0.18312 1.31834,-0.31117 1.92195,-0.52129c0.07461,-0.02597 0.10381,-0.15508 0.18272,-0.1513c0.0638,0.00306 -0.0916,0.12096 -0.11107,0.18179c-0.06393,0.19971 -0.11193,0.40617 -0.1328,0.61483c-0.00433,0.04326 -0.00302,1.3491 -0.00302,1.4313c0,1.67981 -0.00943,3.35916 0.01605,5.03879c0.36199,0.90498 0.22392,1.7534 0.41292,2.70969c0.37849,1.91511 0.88088,4.06568 1.83656,5.79082c0.62594,1.12992 1.56068,1.9341 2.402,2.83146c-0.08474,-0.00848 -0.15656,0.00946 -0.23205,0.0013c-1.46913,-0.15879 -2.95565,-0.14236 -4.43862,-0.13892c-0.24976,0.00058 -0.50201,-0.0234 -0.75036,0.00317c-0.18858,0.02018 -0.36793,0.09531 -0.55322,0.13579c-0.05902,0.01289 -0.1685,0.08327 -0.17986,0.02394c-0.02409,-0.12577 0.11769,-0.23887 0.11398,-0.36688c-0.01856,-0.63924 -0.20836,-1.40299 -0.2742,-2.04662c-0.09722,-0.95044 -0.38813,-1.91218 -0.54823,-2.8557c-0.00104,-0.72564 -0.20616,-1.35077 -0.27727,-2.06109c-0.13613,-1.35983 -0.13322,-2.74584 -0.27281,-4.10609c-0.20984,-2.0448 0.01745,-4.22619 0.00635,-6.28262l0.00757,-0.03668c0.29187,-0.04561 0.5835,-0.10936 0.87344,-0.1957z" data-paper-data="{&quot;noHover&quot;:false,&quot;origItem&quot;:[&quot;Path&quot;,{&quot;applyMatrix&quot;:true,&quot;segments&quot;:[[[495.0309,496.50963],[2.13963,-0.33437],[0,0]],[[494.97567,496.77839],[0,0],[0.08138,15.07504]],[[494.97567,542.79302],[-1.5383,-14.98983],[1.0233,9.97152]],[[496.97567,572.79302],[-0.99791,-9.96849],[0.52127,5.20711]],[[498.98296,587.8733],[-0.00764,-5.31949],[1.17364,6.91671]],[[502.97567,608.79302],[-0.71266,-6.96737],[0.48261,4.71824]],[[504.97567,623.79302],[-0.13606,-4.68607],[0.02725,0.93836]],[[504.14034,626.48256],[-0.1766,-0.922],[0.08331,0.43493]],[[505.45714,626.30665],[-0.43263,0.09452],[1.35829,-0.29675]],[[509.50731,625.31004],[-1.38244,0.1479],[1.82053,-0.19477]],[[515,625.28571],[-1.83091,0.00425],[10.87119,-0.02521]],[[547.49269,626.31004],[-10.76975,-1.16403],[0.55333,0.05981]],[[549.26656,626.48673],[-0.62121,-0.06219],[-6.16745,-6.57823]],[[531.64118,605.73533],[4.58859,8.28311],[-7.00578,-12.64651]],[[518.0971,563.26629],[2.7746,14.03908],[-1.38546,-7.01025]],[[515.09022,543.23124],[2.65365,6.63412],[-0.18684,-12.31285]],[[515,506.28571],[0,12.31419],[0,-0.60254]],[[515.02433,495.79302],[-0.03172,0.31717],[0.15296,-1.5296]],[[516,491.28571],[-0.46868,1.46404],[0.14276,-0.44596]],[[516.83006,490.15242],[0.46771,0.02243],[-0.57845,-0.02775]],[[515.49269,491.26137],[0.54692,-0.19038],[-4.42487,1.54029]],[[501.42473,495.07842],[4.50783,-1.3424],[-2.1254,0.63293]]],&quot;closed&quot;:true}]}" fill="#002dff" stroke="none" stroke-width="0.5"/></g></g></svg>