<svg version="1.1" xmlns="http://www.w3.org/2000/svg" xmlns:xlink="http://www.w3.org/1999/xlink" width="147.12515" height="49.68359" viewBox="0,0,147.12515,49.68359"><defs><linearGradient x1="412.7657" y1="162.949" x2="410.76526" y2="199.65717" gradientUnits="userSpaceOnUse" id="color-1"><stop offset="0" stop-color="#efff00"/><stop offset="1" stop-color="#ffc800"/></linearGradient><linearGradient x1="345.48041" y1="158.82153" x2="343.32943" y2="198.29212" gradientUnits="userSpaceOnUse" id="color-2"><stop offset="0" stop-color="#efff00"/><stop offset="1" stop-color="#ffc800"/></linearGradient></defs><g transform="translate(-299.60164,-154.41595)"><g data-paper-data="{&quot;isPaintingLayer&quot;:true}" fill-rule="nonzero" stroke="none" stroke-width="0.5" stroke-linecap="butt" stroke-linejoin="miter" stroke-miterlimit="10" stroke-dasharray="" stroke-dashoffset="0" style="mix-blend-mode: normal"><path d="M309.53249,201.29065l-2.15872,-0.99064c-3.44481,-2.94148 -6.71984,-7.78027 -7.75295,-12.27273c-0.09276,-0.40336 0.17897,-4.95112 0.21781,-5.66387c0.34331,-6.29973 0.4157,-12.44851 3.1663,-18.25625c1.52725,-3.22469 4.54253,-6.02821 6.81752,-8.74048c0,0 1.08475,-1.29325 2.53424,-0.86311c0.01081,0.00032 0.01647,0.00063 0.01647,0.00063l0.49926,0.02721c9.18147,0.50035 18.34856,-0.00157 27.51367,0.49789c7.16309,0.39036 14.59778,1.4107 21.76105,1.19441c8.2708,-0.24973 16.36216,-0.52659 24.64689,-0.15938c0.38112,-0.27791 0.90633,-0.45957 1.62977,-0.42015c0.80857,0.04406 1.34097,0.33576 1.69127,0.71004c0.2368,0.08521 0.38206,0.16801 0.38206,0.16801l-0.1098,0.19263c0.00793,0.01308 0.01569,0.02619 0.02331,0.03933c3.48418,0.21357 6.65392,1.37603 10.13188,1.56556c2.65228,0.68243 5.29323,0.60953 7.89483,1.52333c2.59453,0.91132 5.28607,1.50334 7.87932,2.43236c2.64073,0.94603 5.12789,2.53423 7.78684,3.41761c1.02466,0.34042 2.16228,0.30928 3.15486,0.73425c6.69294,2.8656 12.96436,7.21326 18.51768,11.87127c0,0 1.91541,1.60661 0.30881,3.52202c-0.42147,0.50248 -0.86418,0.76257 -1.288,0.87288c-8.67978,9.52885 -21.96677,12.24015 -33.92266,15.1312c-3.47469,0.84021 -6.56202,1.9517 -10.14843,2.45141c-4.29898,1.47402 -8.75068,2.2637 -13.00573,3.72264l-1.43609,0.10081c0,0 -0.85409,-0.04654 -1.53588,-0.58476c-4.83261,-0.28445 -9.88698,-0.01992 -14.72024,0.18743c-10.56561,0.45326 -21.63502,-1.16683 -32.19923,-1.74253c-8.60077,-0.4687 -17.24833,-0.44273 -25.89709,-0.91056c-0.02268,0.01675 -0.04549,0.03289 -0.06843,0.04843l0.08185,0.18874c0,0 -0.74309,0.32227 -1.56677,0.17697c-0.48905,-0.03174 -0.84564,-0.1726 -0.84564,-0.1726zM307.56351,166.16125c-2.06688,4.56458 -2.32688,9.03479 -2.59626,13.97794c-0.0993,1.82222 -0.91698,5.06736 -0.46238,6.81761c0.88044,3.38977 3.37844,7.298 6.08211,9.51238l0.07763,0.01698l1.44736,-0.43461c8.68088,0.47307 17.35483,0.44502 25.98869,0.91553c10.37858,0.56559 21.33128,2.23655 31.70595,1.74002c4.1882,-0.20044 8.51893,-0.36742 12.75693,-0.27155c-1.18549,-1.68517 -2.3739,-3.44133 -3.02383,-5.31778c-1.87763,-5.42102 -1.13098,-10.6806 -0.27563,-16.18682c0.37923,-2.44129 0.32569,-5.2292 0.93584,-7.61447c0.75402,-2.94771 3.48431,-5.56922 4.83089,-8.31729c-7.62901,-0.26225 -15.10292,0.01382 -22.74304,0.22255c-7.3107,0.19972 -14.86543,-0.80157 -22.17376,-1.19984c-9.09202,-0.49548 -18.18919,-0.00522 -27.30006,-0.48643c-1.85303,2.03668 -4.17381,4.24812 -5.25044,6.62579zM385.08446,170.38477c-1.40284,6.53124 -2.90823,14.7143 -0.78995,21.18645c0.70166,2.14383 2.6042,4.26878 3.84089,6.11956l0.68106,0.73818c3.56548,-1.02573 7.19214,-1.82804 10.74746,-3.01603c3.60275,-0.53243 6.64702,-1.60637 10.14843,-2.45141c10.46715,-2.52616 22.61577,-4.72209 30.53309,-12.72146c-4.5867,-3.62947 -9.63143,-6.9552 -14.9674,-9.22165c-5.95924,-2.53118 -12.45043,-4.2124 -18.52412,-6.46725c-2.22926,-0.82761 -4.66289,-0.69526 -6.97412,-1.28993c-3.23486,-0.17629 -6.17645,-1.28397 -9.38491,-1.49962c-1.25499,3.02047 -4.59765,5.30462 -5.31043,8.62315z" fill="#000000"/><path d="M390.35799,161.72788c3.20846,0.21565 6.15929,1.31542 9.39414,1.49171c2.31123,0.59468 4.7582,0.45607 6.98745,1.28368c6.07369,2.25486 12.619,3.9537 18.57824,6.48487c5.33597,2.26645 10.39088,5.62059 14.97758,9.25006c-7.91732,7.99938 -20.12456,10.24641 -30.59172,12.77257c-3.50141,0.84504 -6.56971,1.90755 -10.17247,2.43999c-3.55532,1.18799 -7.18935,1.98238 -10.75483,3.00811l-0.68207,-0.73959c-1.23669,-1.85079 -3.14498,-3.98672 -3.84664,-6.13055c-2.11829,-6.47215 -0.61234,-14.69166 0.7905,-21.2229c0.71278,-3.31853 4.06482,-5.61748 5.31981,-8.63795z" data-paper-data="{&quot;noHover&quot;:false,&quot;origItem&quot;:[&quot;Path&quot;,{&quot;applyMatrix&quot;:true,&quot;selected&quot;:true,&quot;segments&quot;:[[[329.08446,162.38477],[0.71278,-3.31853],[-1.40284,6.53124],7],[[328.29451,183.57122],[-2.11829,-6.47215],[0.70166,2.14383],7],[[332.1354,189.69079],[-1.23669,-1.85079],[0,0],7],[[332.81646,190.42896],[0,0],[3.56548,-1.02573],7],[[343.56392,187.41293],[-3.55532,1.18799],[3.60275,-0.53243],7],[[353.71235,184.96153],[-3.50141,0.84504],[10.46715,-2.52616],7],[[384.24543,172.24006],[-7.91732,7.99938],[-4.5867,-3.62947],7],[[369.27803,163.01842],[5.33597,2.26645],[-5.95924,-2.53118],7],[[350.75391,156.55117],[6.07369,2.25486],[-2.22926,-0.82761],7],[[343.77979,155.26123],[2.31123,0.59468],[-3.23486,-0.17629],7],[[334.39489,153.76162],[3.20846,0.21565],[-1.25499,3.02047],7]],&quot;closed&quot;:true}]}" fill="url(#color-1)"/><path d="M312.77111,159.50967c9.11087,0.48121 18.23959,-0.03197 27.33161,0.46351c7.30834,0.39827 14.91025,1.41348 22.22095,1.21375c7.64012,-0.20872 15.12403,-0.46983 22.75304,-0.20758c-1.34659,2.74806 -4.07436,5.37692 -4.82838,8.32463c-0.61015,2.38527 -0.55508,5.18335 -0.93431,7.62464c-0.85535,5.50622 -1.60576,10.78727 0.27188,16.20829c0.64993,1.87645 1.83649,3.63657 3.02198,5.32174c-4.238,-0.09588 -8.57391,0.07908 -12.7621,0.27952c-10.37466,0.49653 -21.38274,-1.15821 -31.76132,-1.7238c-8.63385,-0.47051 -17.33556,-0.46594 -26.01645,-0.93901l-1.44755,0.43426l-0.07766,-0.01704c-2.70367,-2.21438 -5.20641,-6.13572 -6.08685,-9.52549c-0.4546,-1.75024 0.36204,-5.00368 0.46134,-6.8259c0.26938,-4.94315 0.53195,-9.43131 2.59883,-13.99589c1.07663,-2.37767 3.40196,-4.59895 5.25499,-6.63563z" data-paper-data="{&quot;noHover&quot;:false,&quot;origItem&quot;:[&quot;Path&quot;,{&quot;applyMatrix&quot;:true,&quot;selected&quot;:true,&quot;segments&quot;:[[[251.56351,158.16125],[1.07663,-2.37767],[-2.06688,4.56458],7],[[248.96725,172.13919],[0.26938,-4.94315],[-0.0993,1.82222],7],[[248.50487,178.9568],[-0.4546,-1.75024],[0.88044,3.38977],7],[[254.58698,188.46918],[-2.70367,-2.21438],[0,0],7],[[254.66461,188.48616],[0,0],[0,0],7],[[256.11197,188.05154],[0,0],[8.68088,0.47307],7],[[282.10065,188.96707],[-8.63385,-0.47051],[10.37858,0.56559],7],[[313.8066,190.70709],[-10.37466,0.49653],[4.1882,-0.20044],7],[[326.56353,190.43555],[-4.238,-0.09588],[-1.18549,-1.68517],7],[[323.53971,185.11777],[0.64993,1.87645],[-1.87763,-5.42102],7],[[323.26407,168.93095],[-0.85535,5.50622],[0.37923,-2.44129],7],[[324.19991,161.31648],[-0.61015,2.38527],[0.75402,-2.94771],7],[[329.03081,152.99919],[-1.34659,2.74806],[-7.62901,-0.26225],7],[[306.28777,153.22174],[7.64012,-0.20872],[-7.3107,0.19972],7],[[284.11401,152.02189],[7.30834,0.39827],[-9.09202,-0.49548],7],[[256.81395,151.53546],[9.11087,0.48121],[-1.85303,2.03668],7]],&quot;closed&quot;:true}]}" fill="url(#color-2)"/></g></g></svg>