<svg version="1.1" xmlns="http://www.w3.org/2000/svg" xmlns:xlink="http://www.w3.org/1999/xlink" width="112.03305" height="43.5" viewBox="0,0,112.03305,43.5"><defs><linearGradient x1="291.58687" y1="180.00003" x2="348.41312" y2="180.00003" gradientUnits="userSpaceOnUse" id="color-1"><stop offset="0" stop-color="#ffc500"/><stop offset="1" stop-color="#d6ff00"/></linearGradient></defs><g transform="translate(-263.98348,-158.25002)"><g data-paper-data="{&quot;isPaintingLayer&quot;:true}" fill-rule="nonzero" stroke-linecap="butt" stroke-linejoin="miter" stroke-miterlimit="10" stroke-dasharray="" stroke-dashoffset="0" style="mix-blend-mode: normal"><path d="M291.58687,200.50003v-41h56.82625v41z" fill="url(#color-1)" stroke="#cccccc" stroke-width="2.5"/><path d="M308.19578,184.36851c0.09435,-0.20686 0.27545,-0.36181 0.41317,-0.54271c0.40245,-0.52863 0.81164,-1.25776 1.3034,-1.70074c0.10559,-0.09511 0.30157,-0.05796 0.39203,-0.16757c0.13498,-0.16356 -0.23232,-0.35995 -0.38719,-0.50481c-0.34957,-0.32699 -0.67064,-0.67342 -1.02413,-0.98818c-0.29515,0.39752 -0.59801,0.77284 -0.9495,1.03734c0,0 -0.06563,0.04849 -0.16827,0.08923c-0.37466,0.50756 -0.7477,1.07121 -1.02968,1.66746c0.4777,0.33503 1.10232,0.69477 1.45016,1.11zM311.57519,182.45354c-0.0927,0.30432 -0.48641,0.41211 -0.70518,0.64307c-0.29061,0.30679 -0.50648,0.6766 -0.76245,1.01283c-0.33071,0.43439 -1.16009,1.81898 -1.69063,1.89088c-0.39024,0.05289 -0.71031,-0.34291 -1.04748,-0.54637c-0.36933,-0.22286 -0.72234,-0.50901 -1.06932,-0.79255c-0.00826,0.05649 -0.01525,0.1131 -0.0209,0.1698c-0.08651,0.86765 -0.00955,1.78852 -0.01583,2.66111c-0.01061,1.47442 0.11095,3.11779 0.83548,4.4466c0.29875,0.54791 0.79639,1.06801 1.16755,1.57038c0.36855,0.49884 0.71816,1.13104 1.15312,1.5723c0.4487,0.4552 1.26089,0.71704 1.62814,1.23952c0.25789,0.36689 0.70174,0.78616 0.57497,1.21632c-0.24882,0.84428 -1.76258,0.72973 -2.37666,1.07548c-1.53568,0.86463 -3.10821,1.34499 -4.85082,1.67638c-0.52791,0.10039 -1.17666,0.27774 -1.71443,0.10232c-0.1558,-0.05082 -1.18535,-0.86472 -1.35085,-0.99303c-0.90188,-1.19848 -1.8931,-2.39105 -2.55739,-3.7446c-1.6452,-3.35226 -1.53325,-7.11578 -1.49101,-10.74912c0.18377,-0.88564 0.31153,-1.82489 0.42888,-2.72535c0.03155,-0.24213 0.25055,-0.62973 0.0288,-0.73197c-0.09742,-0.04491 -0.19392,0.10316 -0.30053,0.11512c-0.45189,0.05068 -0.90943,-0.00655 -1.36415,-0.00982c-1.99139,-0.01433 -3.94955,0.21694 -5.92249,0.22832l-0.62837,0.13381c-1.13694,-0.01432 -2.30019,0.29545 -3.41685,0.50785c-0.50154,0.0954 -1.02183,0.05007 -1.52609,0.12988c-1.01193,0.16015 -2.08397,0.52056 -3.07752,0.78234c-1.40546,0.37032 -2.8238,0.68948 -4.22798,1.05857c-0.78162,0.20545 -1.4958,0.204 -2.25328,0.50591c-0.91439,0.35437 -1.85751,0.54553 -2.7933,0.81894c-1.3942,0.40735 -2.82699,0.95949 -4.29388,0.95233c-0.22585,-0.0011 -1.45039,-0.00227 -1.57959,-0.04637c-0.10815,-0.03692 -1.11485,-0.79738 -1.27825,-0.92915c-0.24044,-0.19389 -0.54711,-0.33345 -0.7092,-0.59638c-0.16444,-0.26676 -0.1549,-0.60743 -0.22164,-0.91361c-0.26052,-1.19505 -0.13194,-2.46399 -0.12317,-3.68163c0.02023,-2.81105 0.01332,-5.81074 0.76851,-8.50001c0.46285,-1.64824 0.70739,-3.02885 1.78022,-4.44174c0,0 0.26167,-0.34371 0.64205,-0.27584c1.19861,-0.51488 2.62906,-0.23674 3.92977,-0.09721c0.67891,0.07283 1.36656,0.07678 2.04524,0.15114c0.91785,0.10056 1.80712,0.46921 2.72437,0.56529c1.12957,0.11832 2.29202,0.06573 3.40841,0.29737c4.65451,0.02659 9.31737,0.33658 13.98158,0.37015l0.68208,0.00491c0,0 0.2244,0.00161 0.41485,0.13171c3.68369,-0.01783 7.35131,-0.21223 11.04498,-0.18565c1.78733,0.01286 3.57396,-0.05536 5.36037,-0.14219c0.45595,-0.29961 0.90114,-0.54028 1.40627,-0.81302c1.32376,-0.71476 2.5524,-1.89308 3.7648,-2.78882c1.46002,-1.07868 3.0481,-2.49142 4.73612,-3.15257c0.73603,-0.55518 1.51688,-1.02465 2.2554,-1.57188l0.20128,-0.20804c0,0 0.41419,-0.40827 0.85466,-0.08836c0.86711,-0.17251 1.76874,-0.09254 2.76662,-0.08536c2.7283,0.01964 5.45659,0.03927 8.18489,0.0589c4.82887,0.03475 9.62603,-0.06715 14.46096,-0.03235c2.78805,0.02007 5.54252,-0.09653 8.32229,-0.07653c1.97063,0.01418 4.1375,0.28312 6.07241,-0.0894c2.296,0.00635 4.59203,0.02973 6.88798,0.04625l0.40924,0.00295c0,0 0.57299,0.00412 0.66484,0.52999c1.08445,1.13175 1.99176,2.35746 2.91132,3.63277l0.47757,0.36358c0.16838,0.12533 0.27685,0.32644 0.27522,0.55243c-0.00241,0.33528 -0.24632,0.61231 -0.56553,0.66727l-0.67065,0.12912l-0.00223,-0.01157c-0.02134,0.00733 -0.0428,0.01434 -0.0644,0.02101c-0.10243,0.03164 -0.20709,0.04933 -0.31328,0.05625l-0.03158,0.14822c-0.00532,0.73936 -0.03762,2.0472 -0.72392,2.53874c-0.41849,0.29974 -1.89076,0.10367 -2.42946,0.09979c-1.82943,-0.01316 -3.62343,0.11035 -5.45758,0.09715c-2.51386,-0.01809 -4.95225,0.12774 -7.43853,0.35242c-2.24972,0.20329 -4.62789,-0.02998 -6.88798,-0.04625c-4.77452,-0.03436 -9.54904,-0.06872 -14.32356,-0.10308c-2.51325,-0.01809 -5.00055,-0.17241 -7.50184,-0.19041c-1.05033,-0.00756 -2.57544,0.19266 -3.19531,-0.94575c-0.14582,-0.2678 -0.14499,-0.81063 -0.11636,-1.33176c-0.74389,0.42729 -1.46828,0.92937 -2.21349,1.33174c-0.41817,0.22579 -0.71975,0.64341 -1.15317,0.8383c-0.21147,0.09509 -0.47028,0.03936 -0.68306,0.13151c-0.52069,0.2255 -1.02492,0.53516 -1.56083,0.78676c0.22054,1.63355 0.12666,3.28603 0.28304,4.92597c0.08939,0.9375 0.25865,1.84959 0.25603,2.79749l-0.00393,0.54566c0,0 -0.00101,0.13996 -0.06551,0.29262c0.22229,0.11519 0.45256,0.21844 0.66794,0.34488c0.43111,0.25306 0.69722,0.71775 1.07005,1.05076c0.37545,0.33535 0.8907,0.49624 1.24715,0.85172c0.02312,0.02306 0.48324,0.73751 0.68261,0.79508c0.38946,0.11247 0.81274,-0.06522 1.2159,-0.02293c0.07029,0.00737 0.1406,0.01441 0.21093,0.02113l0.00895,-0.16194c-0.09272,-0.49316 -0.14027,-0.99719 -0.13888,-1.49899c0,0 0.00015,-0.02034 0.0039,-0.05396c-0.00212,-0.02632 -0.00313,-0.05378 -0.00292,-0.08245c0.00491,-0.68208 0.68698,-0.67716 0.68698,-0.67716c4.10655,0.02955 8.18084,-0.07755 12.27832,-0.04806c2.04622,0.01473 4.09245,0.02945 6.13867,0.04418c1.09331,0.00787 2.25578,0.13107 3.34314,0.02738c1.62806,-0.15524 3.34214,-0.24696 4.98013,-0.24033c2.01408,0.01449 4.07221,-0.18131 6.07438,-0.36223c0.90157,-0.08147 1.82823,0.10546 2.7283,0.01964c1.83113,-0.17461 3.67648,-0.11328 5.52482,-0.09998c1.12214,0.00808 2.29364,-0.07965 3.41037,0.02454c0.37345,0.03484 0.83166,-0.08499 1.11339,0.16262c0.51961,0.45669 0.36483,1.80303 0.49167,2.4436l0.00573,0.46599c0.78787,0.05962 1.5669,0.15942 2.32099,0.32664l0.00069,-0.09642l0.68208,0.00491c0.3767,0.00271 0.67988,0.31028 0.67716,0.68698c-0.00163,0.22599 -0.11297,0.42552 -0.28314,0.54842l-0.54222,0.4006l-0.00766,-0.01037l-0.02114,0.03052c-1.09244,0.64481 -2.42282,1.45031 -3.32573,2.34794c-0.67273,0.66879 -0.95268,1.12259 -1.87687,1.50171c0,0 -0.51273,0.20082 -0.79726,-0.2191c-0.67801,0.10572 -1.29791,0.04311 -1.98008,0.10816c-2.75099,0.26232 -5.47452,0.37319 -8.25507,0.35318c-4.09245,-0.02945 -8.18489,-0.0589 -12.27734,-0.08836c0,0 -0.21436,-0.00154 -0.40187,-0.12307c-1.25655,0.0276 -2.51849,0.11396 -3.76074,0.22621c-2.29329,0.20723 -4.72006,-0.03065 -7.02439,-0.04723c-3.67208,-0.02643 -7.30422,0.45819 -10.98136,0.05407c-1.29742,-0.14259 -2.43596,-0.02406 -3.67378,-0.51986c-0.78384,-0.58734 -1.61123,-0.98413 -2.38298,-1.56674c-2.62398,-1.98091 -5.12708,-4.07991 -7.73245,-6.05822c0,0 -0.01693,-0.01289 -0.04252,-0.03709c-0.34875,0.16597 -0.64735,0.43635 -0.92295,0.75235c0.92523,0.74492 2.1988,1.93049 1.84818,3.08151zM370.99033,180.5887c-0.10735,-0.57098 -0.21039,-0.85501 -0.13604,-1.43176c0.01055,-0.08184 0.18561,-0.18472 0.11151,-0.22101c-0.0879,-0.04306 -0.15408,0.13747 -0.25076,0.1528c-0.22456,0.0356 -0.45472,-0.00327 -0.68208,-0.00491c-0.90943,-0.00655 -1.81886,-0.01309 -2.7283,-0.01964c-2.94199,-0.02117 -5.88605,-0.05729 -8.8017,0.20618c-0.67617,0.0611 -1.37137,-0.07908 -2.04622,-0.01473c-1.17247,0.1118 -2.29083,0.25968 -3.47957,0.25112c-1.59182,-0.01737 -3.26209,0.09155 -4.84566,0.23465c-3.1405,0.28379 -6.4612,-0.04318 -9.61628,-0.06588c-3.86273,-0.0278 -7.70542,0.0658 -11.57358,0.05184c0.01865,0.23066 0.05075,0.46033 0.09558,0.68673l0.00884,0.51402c1.26857,0.05885 2.5434,0.04739 3.82012,0.05657c4.81999,0.03469 9.63999,0.06938 14.45998,0.10407c4.86637,0.03502 9.74586,-0.31763 14.59934,-0.3042c1.37028,0.01726 2.79911,-0.11626 4.16359,-0.23956c1.58146,-0.1429 3.25306,0.02009 4.84176,0.03152l0.46754,0.13187c0.52545,0.00126 1.05586,0.00541 1.58642,0.0206zM327.0759,166.87375c0.10031,0.33988 1.76121,0.1813 1.9806,0.18288c2.50207,0.018 4.98819,0.17232 7.50184,0.19041c4.77452,0.03436 9.54904,0.06872 14.32356,0.10308c2.21044,0.01591 4.55501,0.26156 6.75351,0.05192c2.52784,-0.24104 5.01643,-0.37648 7.573,-0.35808c1.83422,0.0132 3.62705,-0.11032 5.45758,-0.09715c0.45472,0.00327 0.91303,-0.04736 1.36415,0.00982c0.10642,0.01349 0.20829,0.17695 0.29884,0.11943c0.08768,-0.05571 -0.0105,-0.20871 0.00366,-0.31162c0.05643,-0.41015 0.11738,-0.8222 0.12036,-1.2362l0.04941,-0.24346c-0.18059,-0.04691 -0.35729,-0.08716 -0.5267,-0.10535c-0.05363,-0.00576 -0.10733,-0.01012 -0.1611,-0.01336c-0.25713,0.22063 -0.62005,0.12712 -0.62005,0.12712l-0.3794,-0.11878c-3.66067,-0.02635 -7.3219,-0.03625 -10.98237,-0.08236c-2.47373,0.47626 -5.01282,-0.01879 -7.50478,0.21883c-2.28994,0.21836 -4.72674,0.23196 -7.02636,0.2256c-4.78261,-0.03442 -9.52787,0.20427 -14.32552,0.16975c-1.13678,-0.00818 -2.27362,-0.01345 -3.41037,-0.02454c-0.09702,-0.00094 -0.26871,-0.00989 -0.45196,-0.01017c-0.05083,0.43358 -0.11522,0.94021 -0.03789,1.20224zM370.87901,184.06445c0.62397,-0.61084 1.41339,-1.18499 2.20775,-1.70037c-1.76218,-0.18121 -3.46748,-0.28197 -5.25804,-0.29485l-0.54566,-0.00393c0,0 -0.29158,-0.0021 -0.49209,-0.1942c-0.86834,-0.03217 -1.73826,-0.04763 -2.57724,0.03237c-1.41006,0.13446 -2.88035,0.24915 -4.29806,0.24523c-1.80888,-0.02279 -3.72397,0.06675 -5.52774,0.22974c-1.40434,0.1269 -2.88496,-0.01744 -4.2961,-0.0276c-1.59541,-0.01148 -3.17013,0.11361 -4.7755,0.10205c-4.81999,-0.03469 -9.63999,-0.06938 -14.45998,-0.10407c-1.84833,-0.0133 -3.69438,0.02146 -5.5228,-0.17949c-0.35969,-0.03953 -1.22064,0.06371 -1.5124,-0.04257c-0.88603,-0.32276 -0.68439,-0.58041 -1.21345,-1.12847c-0.32082,-0.33234 -0.86785,-0.5126 -1.19653,-0.80293c-0.17907,-0.15817 -0.2664,-0.39946 -0.43063,-0.573c-0.44182,-0.46684 -1.17061,-0.6488 -1.69294,-1.04019c-0.27163,-0.00196 -0.55804,-0.00402 -0.68208,-0.00491c-1.81886,-0.01309 -3.63773,-0.02618 -5.45659,-0.03927c-0.12528,-0.0009 -0.26429,-0.00897 -0.41179,-0.01986c1.63003,1.28585 3.2252,2.6075 4.88599,3.87187c0.67353,0.51276 1.35853,1.19111 2.09613,1.60319c0.63819,0.35654 1.17754,0.64714 1.76554,1.10408c0.98425,0.41629 2.09214,0.23769 3.14108,0.34772c3.63444,0.38123 7.21711,-0.0878 10.84699,-0.06168c2.25454,0.01623 4.64801,0.26668 6.88992,0.0529c1.64169,-0.15655 3.32594,-0.25223 4.98013,-0.24033l0.68208,0.00491c0,0 0.23327,0.00168 0.42599,0.13949c3.49541,0.02516 6.99081,0.05031 10.48622,0.07547c2.7376,0.0197 5.41205,-0.10275 8.1206,-0.3475c0.6915,-0.06249 1.29267,0.02397 1.98058,-0.11224l0.67952,-0.00835c0,0 0.12441,0.0009 0.26658,0.05506c0.3364,-0.24043 0.48394,-0.53636 0.89452,-0.93829zM373.26514,164.07912c-0.81178,-1.08819 -1.61045,-2.15447 -2.56599,-3.13463c-2.24777,-0.01615 -4.49582,-0.02354 -6.74347,-0.05185c-1.76871,0.34052 -3.724,0.11294 -5.52482,0.09998c-3.01039,-0.02167 -5.98838,0.09333 -9.00436,0.07162c-4.83498,-0.03479 -9.63191,0.0671 -14.46096,0.03235c-2.7283,-0.01964 -5.45659,-0.03927 -8.18489,-0.0589c-1.27257,-0.00916 -2.49516,-0.27606 -3.55072,0.52014c0,0 -0.04493,0.0332 -0.11858,0.06773c-0.57901,0.39818 -1.16788,0.78034 -1.73908,1.19565c-1.63946,0.64214 -3.16653,2.00757 -4.58525,3.05576c-1.00115,0.73967 -2.004,1.63699 -3.06063,2.35617c1.78783,-0.08863 3.57567,-0.16179 5.36398,-0.15684l0.13642,0.00098c0,0 0.02174,0.00016 0.05743,0.00429c0.03237,-0.00432 0.06338,-0.00671 0.09309,-0.00734c1.48427,-0.59314 2.77026,-1.30618 4.16849,-2.06115c0.81589,-0.44054 1.52287,-1.15521 2.38582,-1.51154c1.39535,-0.57616 3.56425,-0.17018 5.05433,-0.15946c4.79778,0.03453 9.54241,-0.20417 14.32552,-0.16975c2.24815,0.02832 4.65092,-0.01742 6.89189,-0.21993c2.49438,-0.2254 5.03248,0.25715 7.50478,-0.21883c3.7056,0.01025 7.41132,0.05002 11.11684,0.07668l0.00536,0.00122c0.84793,0.02019 1.60705,0.16245 2.43478,0.26764zM319.29939,176.94522c0.01133,-0.89913 -0.1699,-1.77262 -0.25036,-2.66303c-0.14537,-1.60873 -0.03729,-3.24401 -0.26734,-4.84467c-2.49934,-0.01746 -4.99888,0.13704 -7.49887,0.27007c-0.03868,0.0276 -0.07774,0.05595 -0.11727,0.08516c0,0 -0.46883,0.34637 -0.85989,-0.03468c-1.62328,0.08061 -3.24676,0.14155 -4.87052,0.12986c-4.10591,-0.02955 -8.17956,0.21398 -12.27931,0.18447c0,0 -0.2347,-0.00169 -0.42776,-0.14076c-4.52113,-0.05241 -9.03826,-0.33347 -13.5508,-0.37243c-1.11734,-0.23185 -2.2782,-0.17354 -3.40841,-0.29737c-0.91785,-0.10056 -1.80712,-0.46921 -2.72437,-0.56529c-0.67962,-0.07119 -1.36586,-0.07826 -2.04524,-0.15114c-0.97641,-0.10474 -2.70278,-0.55549 -3.48058,0.11469c0,0 -0.0356,0.0263 -0.09536,0.05643c-0.76484,1.15521 -0.94191,2.31137 -1.32087,3.66414c-0.71788,2.56262 -0.69608,5.44761 -0.71541,8.13279c-0.00659,0.91552 -0.10807,1.88606 -0.02345,2.79748c0.03332,0.35891 -0.02471,0.76147 0.16343,1.06893c0.07672,0.12537 0.25581,0.14569 0.37623,0.22997c0.31379,0.21961 0.53014,0.59981 0.8926,0.72354c0.36247,0.12373 0.76572,-0.03047 1.14871,-0.02674c0.75562,0.00737 1.13823,-0.15991 1.85461,-0.36764c1.57136,-0.45565 3.1973,-0.70375 4.72523,-1.30971c0.80604,-0.31117 1.57293,-0.33281 2.39268,-0.55203c1.4089,-0.37677 2.8354,-0.68724 4.24546,-1.0632c1.35032,-0.36003 2.68939,-0.69535 4.06992,-0.80877c1.44521,-0.11874 2.82216,-0.65417 4.28313,-0.6545c0.19471,-0.13513 0.4281,-0.13344 0.4281,-0.13344c2.04042,0.0257 4.07959,-0.24349 6.14064,-0.22865c0.52604,0.00379 2.03157,-0.17099 2.42777,0.13475c1.09645,0.8461 0.38044,2.32891 0.27218,3.36244c-0.04761,0.45451 -0.05339,0.9157 -0.14623,1.36317c-0.00608,3.37897 -0.17326,6.88515 1.3609,10.00755c0.60127,1.22374 1.50961,2.28443 2.3025,3.38432c0.28158,0.20921 0.49162,0.53626 0.82001,0.65965c0.13347,0.05015 1.01365,-0.15044 1.01583,-0.15087c1.26891,-0.2476 2.75528,-0.49392 3.90035,-1.1255c0.4994,-0.27545 0.99176,-0.69055 1.57106,-0.82416c-0.1852,-0.15512 -0.35584,-0.33804 -0.54535,-0.48373c-0.79698,-0.61267 -1.30065,-1.39314 -1.8941,-2.19638c-0.40717,-0.5511 -0.93615,-1.12111 -1.26436,-1.72125c-0.83949,-1.53501 -1.0179,-3.4074 -1.00561,-5.11619c0.00658,-0.91367 -0.07905,-1.88817 0.02344,-2.79548c0.17204,-1.52308 1.03351,-2.9619 1.93644,-4.14793l0.20128,-0.20804c0,0 0.16913,-0.16672 0.40617,-0.2036c0.92907,-0.87599 1.45095,-2.24595 2.68406,-2.77939c0.87867,-0.38011 2.07545,-0.18089 3.00811,-0.17418c1.81886,0.01309 3.63773,0.02618 5.45659,0.03927c0.22736,0.00164 0.45472,0.00327 0.68208,0.00491z" fill="#000000" stroke="none" stroke-width="0.5"/><path d="M308.19341,184.38195c-0.34784,-0.41523 -0.98244,-0.7826 -1.46014,-1.11764c0.28199,-0.59624 0.6581,-1.1757 1.03276,-1.68326c0.10264,-0.04073 0.17008,-0.09065 0.17008,-0.09065c0.35149,-0.2645 0.66423,-0.64183 0.95938,-1.03934c0.35348,0.31476 0.68331,0.66679 1.03288,0.99378c0.15487,0.14487 0.5242,0.34564 0.38922,0.5092c-0.09046,0.10961 -0.2863,0.07305 -0.39189,0.16817c-0.49176,0.44298 -0.91364,1.18857 -1.31609,1.71721c-0.13772,0.1809 -0.32185,0.33566 -0.4162,0.54253z" data-paper-data="{&quot;noHover&quot;:false,&quot;origItem&quot;:[&quot;Path&quot;,{&quot;applyMatrix&quot;:true,&quot;segments&quot;:[[[617.00001,418.28572],[0,0],[0.6807,-1.52132]],[[620.00001,414.28572],[-1,1.33332],[2.92216,-3.8962]],[[629.46449,401.75018],[-3.58134,3.27308],[0.76898,-0.70278]],[[632.32931,400.5012],[-0.65728,0.80822],[0.98082,-1.20606]],[[629.46449,396.82124],[1.1429,1.05376],[-2.57966,-2.37846]],[[621.90529,389.6317],[2.60772,2.2886],[-2.14256,2.92942]],[[615.00001,397.28572],[2.56252,-1.95738],[0,0]],[[613.77129,397.94864],[0.75018,-0.30402],[-2.71958,3.74026]],[[606.31147,410.22576],[2.03556,-4.38546],[3.5193,2.43066]],[[617.00001,418.28574],[-2.57166,-3.02536],[0,0]]],&quot;closed&quot;:true,&quot;fillColor&quot;:[0,0,0,1],&quot;strokeWidth&quot;:0.5}]}" fill="#ff6666" stroke="none" stroke-width="0.25"/><path d="M370.99844,180.7295c-0.53056,-0.0152 -1.08824,-0.02034 -1.61368,-0.0216l-0.46755,-0.13179c-1.58869,-0.01143 -3.23304,-0.17346 -4.81449,-0.03055c-1.36448,0.1233 -2.79334,0.25732 -4.16362,0.24006c-4.85348,-0.01343 -9.75958,0.34227 -14.62595,0.30724c-4.81999,-0.03469 -9.64059,-0.07268 -14.46058,-0.10737c-1.27672,-0.00919 -2.55155,0.0021 -3.82013,-0.05674l-0.00885,-0.51434c-0.04483,-0.22641 -0.07693,-0.45651 -0.09558,-0.68716c3.86817,0.01396 7.71087,-0.07986 11.57359,-0.05206c3.15507,0.02271 6.47616,0.34679 9.61666,0.06301c1.58358,-0.1431 3.28066,-0.25027 4.87248,-0.2329c1.18874,0.00856 2.30712,-0.13909 3.47959,-0.25089c0.67485,-0.06435 1.37007,0.07612 2.04624,0.01501c2.91565,-0.26347 5.85973,-0.22704 8.80172,-0.20587c0.90943,0.00655 1.81887,0.01319 2.7283,0.01973c0.22736,0.00164 0.43025,0.0416 0.65481,0.006c0.09667,-0.01533 0.19012,-0.19702 0.27802,-0.15396c0.07411,0.0363 -0.10095,0.13931 -0.1115,0.22115c-0.07435,0.57675 0.02869,0.86167 0.13605,1.43265z" data-paper-data="{&quot;noHover&quot;:false,&quot;origItem&quot;:[&quot;Path&quot;,{&quot;applyMatrix&quot;:true,&quot;segments&quot;:[[[917.0971,387.26629],[0,0],[-0.81705,-4.17973]],[[916.02433,376.77839],[-0.51456,4.23159],[0.07302,-0.60046]],[[916.83006,375.15242],[0.54511,0.26219],[-0.64661,-0.31101]],[[915,376.28571],[0.70784,-0.11745],[-1.64419,0.27281]],[[910,376.28571],[1.66667,0],[-6.66667,0]],[[890,376.28571],[6.66667,0],[-21.56649,0]],[[825.49269,378.26137],[21.35838,-2.08508],[-4.95327,0.48356]],[[810.49269,378.26137],[4.94339,-0.5073],[-8.58852,0.88138]],[[785,380.28571],[8.71417,0],[-11.66928,-0.04334]],[[749.49269,382.26137],[11.60039,-1.13247],[-23.00549,2.24588]],[[679,382.28571],[23.12852,0],[-28.31601,0]],[[594.16606,383.27625],[28.35516,-0.10173],[0.14891,1.68977]],[[594.9029,388.30512],[-0.34056,-1.65722],[0,0]],[[594.9948,392.07253],[0,0],[9.302,0.36445]],[[623,392.28571],[-9.35906,0],[35.33333,0]],[[729,392.28571],[-35.33333,0],[35.67333,0]],[[836,389.28571],[-35.57768,0.15761],[10.04531,0.05423]],[[866.50731,387.31004],[-9.9954,0.97579],[11.58484,-1.13095]],[[902,387.28571],[-11.64605,0],[0,0]],[[905.43415,388.22768],[0,0],[3.85171,-0.01848]],[[917.06401,388.29505],[-3.88988,-0.08343],[0,0]]],&quot;closed&quot;:true}]}" fill="#ff6666" stroke="none" stroke-width="0.5"/><path d="M327.10016,165.67118c0.18325,0.00028 0.35494,0.00922 0.45196,0.01017c1.13676,0.01109 2.2736,0.01632 3.41038,0.0245c4.79766,0.03453 9.54308,-0.20587 14.32568,-0.17145c2.29962,0.00636 4.76275,-0.00975 7.05269,-0.22811c2.49196,-0.23762 5.03176,0.26049 7.5055,-0.21577c3.66047,0.04611 7.32177,0.05686 10.98244,0.0832l0.3794,0.11888c0,0 0.33567,0.09476 0.5928,-0.12587c0.05377,0.00324 0.13472,0.00631 0.18835,0.01206c0.16941,0.01819 0.34612,0.05851 0.5267,0.10543l-0.04941,0.2436c-0.00298,0.41401 -0.06393,0.82679 -0.12036,1.23695c-0.01416,0.10291 0.08401,0.2561 -0.00367,0.3118c-0.09055,0.05752 -0.21969,-0.1069 -0.32611,-0.12039c-0.45112,-0.05718 -0.88217,-0.00563 -1.33688,-0.0089c-1.83053,-0.01318 -3.62337,0.1106 -5.45759,0.0974c-2.55657,-0.0184 -5.04529,0.11833 -7.57313,0.35938c-2.1985,0.20964 -4.54696,-0.02833 -6.7574,-0.04424c-4.77452,-0.03436 -9.57224,-0.07737 -14.34677,-0.11173c-2.51364,-0.01809 -4.99979,-0.17291 -7.50186,-0.19091c-0.21939,-0.00158 -1.8803,0.15685 -1.98061,-0.18304c-0.07733,-0.26203 -0.01294,-0.76938 0.03789,-1.20296z" data-paper-data="{&quot;noHover&quot;:false,&quot;origItem&quot;:[&quot;Path&quot;,{&quot;applyMatrix&quot;:true,&quot;segments&quot;:[[[594.47214,289.04964],[-0.58069,-1.91666],[0.75322,2.48612]],[[609,290.28571],[-1.60827,0],[18.34166,0]],[[664,291.28571],[-18.42646,0],[35,0]],[[769,291.28571],[-35,0],[16.20379,0]],[[818.50731,291.31004],[-16.10437,1.65267],[18.51689,-1.90025]],[[874,288.28571],[-18.74113,0],[13.44588,0]],[[914,287.28571],[-13.41885,0],[3.33333,0]],[[924,287.28571],[-3.3098,-0.39536],[0.78081,0.09327]],[[926.19686,288.14537],[-0.66068,0.42645],[0.63977,-0.41295]],[[926.20728,285.86097],[-0.09836,0.75509],[0.39202,-3.00947]],[[927.02433,276.79302],[0,3.0349],[0,0]],[[927.37369,275.00583],[0,0],[-1.32622,-0.33438]],[[923.50731,274.26137],[1.24281,0.12441],[-0.3934,-0.03938]],[[922.32574,274.17191],[0.39428,0.02091],[-1.87316,1.63083]],[917.78732,275.13642],[[915,274.28571],[0,0],[-26.83484,0]],[[834.49269,274.26137],[26.83441,0.14487],[-18.10781,3.62156]],[[779.49269,276.26137],[18.25405,-1.87328],[-16.77416,1.72141]],[[728,278.28571],[16.85702,-0.07468],[-35.05925,0]],[[623,280.28571],[35.16962,0],[-8.33324,0]],[[598,280.28571],[8.33321,0.02133],[-0.71124,-0.00182]],[[594.68648,280.235],[1.34331,-0.00765],[-0.34973,3.18089]]],&quot;closed&quot;:true}]}" fill="#ff6666" stroke="none" stroke-width="0.5"/><path d="M319.31068,177.21484c-0.22736,-0.00164 -0.48122,0.00322 -0.70858,0.00159c-1.81886,-0.01309 -3.6375,-0.02537 -5.45637,-0.03846c-0.93266,-0.00671 -2.10359,-0.21463 -2.98225,0.16548c-1.23311,0.53344 -1.75456,1.90485 -2.68364,2.78083c-0.23704,0.03689 -0.40615,0.20369 -0.40615,0.20369l-0.20125,0.20817c-0.90293,1.18603 -1.76412,2.62879 -1.93616,4.15188c-0.10249,0.90732 -0.01739,1.88468 -0.02396,2.79835c-0.0123,1.70879 0.16448,3.58474 1.00396,5.11975c0.32821,0.60014 0.85688,1.17061 1.26404,1.72171c0.59345,0.80325 1.09685,1.58407 1.89384,2.19675c0.18951,0.14569 0.36014,0.32863 0.54534,0.48375c-0.5793,0.13361 -1.07232,0.54951 -1.57173,0.82496c-1.14507,0.63158 -2.63323,0.87957 -3.90213,1.12717c-0.00218,0.00043 -0.88289,0.20141 -1.01635,0.15126c-0.32838,-0.1234 -0.5386,-0.45031 -0.82019,-0.65952c-0.79288,-1.09989 -1.7166,-2.18313 -2.31787,-3.40686c-1.53416,-3.12239 -1.37265,-6.62004 -1.36657,-9.99901c0.09285,-0.44747 0.09835,-0.90579 0.14596,-1.3603c0.10826,-1.03354 0.82596,-2.5099 -0.27049,-3.356c-0.3962,-0.30574 -1.89973,-0.12821 -2.42577,-0.132c-2.06104,-0.01483 -4.08242,0.25618 -6.12284,0.23048c0,0 -0.2323,-0.00253 -0.42701,0.1326c-1.46097,0.00034 -2.83402,0.53008 -4.27923,0.64882c-1.38053,0.11343 -2.71896,0.44621 -4.06928,0.80625c-1.41005,0.37596 -2.8364,0.68493 -4.2453,1.06169c-0.81975,0.21921 -1.58663,0.24035 -2.39266,0.55153c-1.52793,0.60595 -3.15389,0.85324 -4.72525,1.30889c-0.71638,0.20773 -1.09899,0.37486 -1.85462,0.36749c-0.38299,-0.00374 -0.81347,0.15219 -1.17594,0.02846c-0.36247,-0.12373 -0.57883,-0.50433 -0.89262,-0.72394c-0.12042,-0.08428 -0.29952,-0.10472 -0.37623,-0.23009c-0.18813,-0.30746 -0.13011,-0.71057 -0.16343,-1.06947c-0.08462,-0.91142 0.01696,-1.88336 0.02355,-2.79888c0.01933,-2.68519 -0.00144,-5.57397 0.71644,-8.1366c0.37896,-1.35277 0.55687,-2.51056 1.32171,-3.66577c0.05976,-0.03013 0.09538,-0.05647 0.09538,-0.05647c0.7778,-0.67018 2.50471,-0.22027 3.48113,-0.11552c0.67938,0.07288 1.36598,0.07947 2.0456,0.15066c0.91725,0.09608 1.80701,0.46414 2.72486,0.56471c1.13022,0.12383 2.29206,0.06451 3.40941,0.29635c4.51254,0.03896 9.03937,0.3164 13.5605,0.36881c0.19306,0.13907 0.42819,0.14078 0.42819,0.14078c4.09974,0.0295 8.18192,-0.21031 12.28783,-0.18075c1.62376,0.01169 3.24863,-0.04772 4.87191,-0.12833c0.39106,0.38105 0.86008,0.03494 0.86008,0.03494c0.03953,-0.0292 0.07859,-0.05755 0.11727,-0.08516c2.5,-0.13304 5.00057,-0.28591 7.49991,-0.26844c0.23006,1.60067 0.12283,3.23788 0.2682,4.84661c0.08046,0.89041 0.26205,1.76511 0.25073,2.66424z" data-paper-data="{&quot;noHover&quot;:false,&quot;origItem&quot;:[&quot;Path&quot;,{&quot;applyMatrix&quot;:true,&quot;segments&quot;:[[[538,363.28571],[0,0],[0.03558,-6.59141]],[[536.02433,343.77839],[0.63677,6.52266],[-1.15046,-11.78463]],[[533.80907,308.28007],[1.77079,11.72109],[-18.32155,0.00383]],[[478.85507,310.65533],[18.31848,-1.10704],[-0.28204,0.20433]],[[478,311.28571],[0.28818,-0.21614],[0,0]],[[471.69503,311.07687],[2.88663,2.77259],[-11.89467,0.67653]],[[436,312.28571],[11.90312,0],[-30.09865,0]],[[346,314.28571],[30.0535,0],[0,0]],[[342.85702,313.27648],[1.4225,1.00923],[-33.14353,-0.14568]],[[243.50731,311.26137],[33.07985,0.04751],[-8.20257,-1.64051]],[[218.50731,309.26137],[8.29121,0.84807],[-6.73334,-0.68873]],[[198.50731,305.26137],[6.72872,0.65591],[-4.98551,-0.48599]],[[183.50731,304.26137],[4.98381,0.49838],[-7.16287,-0.71629]],[[158,305.28571],[5.66607,-4.95361],[0,0]],[[157.304,305.7044],[0.43645,-0.22404],[-5.54547,8.50823]],[[147.81506,332.63298],[2.70647,-9.93608],[-5.12701,18.82241]],[[143,392.28571],[0,-19.68396],[0,6.71133]],[[142.97567,412.79302],[-0.66835,-6.67643],[0.26319,2.6291]],[[144.23003,420.61985],[-1.39527,-2.2438],[0.56896,0.91496]],[[147,422.28571],[-0.88715,-0.61142],[2.31174,1.59325]],[[153.58114,427.54229],[-2.66351,-0.88784],[2.66351,0.88784]],[[162,427.28571],[-2.80758,-0.00719],[5.53927,0.01418]],[[175.57527,424.49299],[-5.24022,1.5605],[11.49432,-3.42292]],[[210.14305,414.64332],[-11.16804,4.52236],[5.892,-2.32345]],[[227.65272,410.47064],[-5.99735,1.65014],[10.30764,-2.83609]],[[258.71666,402.45321],[-10.31612,2.83023],[9.87912,-2.71033]],[[288.50731,396.31004],[-10.11358,0.90427],[10.58739,-0.94664]],[[319.86897,391.28648],[-10.70916,0.07953],[1.42017,-1.00078]],[[323,390.28571],[0,0],[14.95801,0.08075]],[[368,388.28571],[-15.10863,0],[3.85616,0]],[[385.80314,389.14537],[-2.92036,-2.22021],[8.08183,6.14424]],[[387.97567,413.77839],[0.73907,-7.58175],[-0.32501,3.33415]],[[386.97567,423.77839],[0.65698,-3.2849],[0.13372,24.76884]],[[397.47923,497.06389],[-11.4104,-22.80682],[4.472,8.93853]],[[414.53553,521.75017],[-5.87003,-8.02061],[2.07512,1.51872]],[[420.58114,526.54229],[-2.41362,-0.88718],[0.98097,0.36058]],[[428.01942,525.3828],[-0.01599,0.00324],[9.28828,-1.88189]],[[456.55037,516.92688],[-8.36027,4.69004],[3.64616,-2.04547]],[[468.02308,510.80273],[-4.23932,1.00993],[-1.36573,-1.12731]],[[464,507.28571],[1.39686,1.05792],[-5.87435,-4.44899]],[[450,491.28571],[4.39248,5.85664],[-3.01366,-4.01821]],[[440.64118,478.73533],[2.43754,4.38185],[-6.23459,-11.20764]],[[433,441.28571],[0,12.5264],[0,-6.69773]],[[433.02433,420.79302],[-0.70338,6.65622],[1.18074,-11.17358]],[[447,390.28571],[-6.55611,8.74148],[0,0]],[448.46447,388.75017],[[451.43107,387.23629],[-1.73561,0.28289],[6.76405,-6.47017]],[[470.95915,366.72118],[-9.01083,3.97527],[6.42075,-2.83262]],[[493,365.28571],[-6.83695,0],[13.33333,0]],[[533,365.28571],[-13.33333,0],[1.66667,0]],[[538,365.28571],[-1.66667,0],[0,0]]],&quot;closed&quot;:true}]}" fill="#82a0cc" stroke="none" stroke-width="0.5"/><path d="M369.99806,185.00414c-0.14217,-0.05416 -0.26658,-0.05507 -0.26658,-0.05507l-0.67952,0.00839c-0.68791,0.13621 -1.28909,0.04993 -1.9806,0.11242c-2.70856,0.24475 -5.38317,0.36828 -8.12077,0.34857c-3.49541,-0.02516 -6.9923,-0.04629 -10.48771,-0.07145c-0.19272,-0.13781 -0.42609,-0.13931 -0.42609,-0.13931l-0.68253,-0.00418c-1.65419,-0.0119 -3.35202,0.08964 -4.99371,0.24619c-2.24192,0.21378 -4.64569,-0.04479 -6.90023,-0.06101c-3.62988,-0.02612 -7.21344,0.43993 -10.84787,0.0587c-1.04893,-0.11002 -2.15692,0.06801 -3.14117,-0.34828c-0.588,-0.45694 -1.12743,-0.74831 -1.76562,-1.10486c-0.7376,-0.41208 -1.42264,-1.09138 -2.09617,-1.60414c-1.66079,-1.26437 -3.25587,-2.58777 -4.88589,-3.87363c0.14751,0.01089 0.28651,0.01894 0.41179,0.01984c1.81886,0.01309 3.63778,0.02583 5.45664,0.03892c0.12403,0.00089 0.43742,0.00706 0.70905,0.00901c0.52233,0.39139 1.25118,0.57288 1.693,1.03972c0.16423,0.17353 0.2516,0.4145 0.43067,0.57267c0.32868,0.29033 0.87575,0.47014 1.19657,0.80247c0.52907,0.54806 0.32745,0.80496 1.21348,1.12771c0.29176,0.10628 1.15271,0.00301 1.5124,0.04254c1.82842,0.20094 3.67447,0.166 5.5228,0.1793c4.81999,0.03469 9.61276,0.06821 14.43276,0.1029c1.60537,0.01155 3.18004,-0.11248 4.77544,-0.10099c1.41114,0.01015 2.89175,0.15456 4.29609,0.02766c1.80377,-0.16299 3.71886,-0.25228 5.52774,-0.2295c1.41771,0.00392 2.888,-0.11063 4.29806,-0.24509c0.83898,-0.08 1.73618,-0.06495 2.60452,-0.03277c0.2005,0.1921 0.49209,0.19431 0.49209,0.19431l0.54566,0.00393c1.79055,0.01289 3.49586,0.11379 5.25804,0.295c-0.79436,0.51538 -1.58381,1.09036 -2.20778,1.7012c-0.41057,0.40193 -0.55815,0.69835 -0.89456,0.93879z" data-paper-data="{&quot;noHover&quot;:false,&quot;origItem&quot;:[&quot;Path&quot;,{&quot;applyMatrix&quot;:true,&quot;segments&quot;:[[[916.46447,412.75017],[-2.98837,2.9679],[4.54159,-4.51048]],[[932.558,400.16967],[-5.7956,3.81975],[-12.92668,-1.23535]],[[894,398.28571],[13.12579,0],[0,0]],[890,398.28571],[[886.38266,396.88815],[1.47986,1.39756],[-6.36683,-0.19004]],[[867.49269,397.26137],[6.14568,-0.63069],[-10.3289,1.05998]],[[836,399.28571],[10.39231,-0.04604],[-13.26066,-0.07159]],[[795.49269,401.26137],[13.2134,-1.28994],[-10.28741,1.00429]],[[764,401.28571],[10.34446,0],[-11.69524,0]],[[729,402.28571],[11.76828,0],[-35.33333,0]],[[623,402.28571],[35.33333,0],[-13.54935,0]],[[582.50731,401.26137],[13.41332,1.37651],[-2.63872,-0.27079]],[[571.41886,401.02912],[2.14427,0.76367],[-6.5118,-2.31914]],[[562.46447,392.82124],[3.90709,3.98947],[-2.3692,-2.41915]],[[553.6513,386.99869],[2.42464,2.11084],[-1.32096,-1.15]],[[550.46447,382.82124],[1.21301,1.26335],[-3.26328,-3.39872]],[[538,375.28571],[3.84943,2.84143],[-1.99121,0]],[[533,375.28571],[0.90921,0],[-13.33333,0]],[[493,375.28571],[13.33333,0],[-0.9184,0]],[[489.98044,375.16187],[1.08181,0.07205],[12.01624,9.33956]],[[526,403.28571],[-12.24062,-9.18046],[4.96417,3.72313]],[[541.44963,414.92688],[-5.4285,-2.98175],[4.69686,2.57987]],[[554.44963,422.92688],[-4.33423,-3.31847],[7.23667,2.99957]],[[577.49269,425.31004],[-7.6947,-0.75118],[26.66123,2.60276]],[[657,424.28571],[-26.60911,0],[16.52711,0]],[[707.50731,424.31004],[-16.42241,1.68531],[12.02568,-1.23411]],[[744,422.28571],[-12.12617,0],[0,0]],[749,422.28571],[[752.12993,423.28571],[-1.41995,-1],[25.62336,0]],[[829,423.28571],[-25.62336,0],[20.06823,0]],[[888.50731,420.31004],[-19.84137,1.93698],[5.06557,-0.49452]],[[903.01942,419.3828],[-5.03536,1.03477],[0,0]],[908,419.28571],[[909.95698,419.6752],[-1.04499,-0.38949],[2.45323,-1.78018]]],&quot;closed&quot;:true}]}" fill="#4e81cc" stroke="none" stroke-width="0.5"/><path d="M370.81672,163.81187l-0.00536,-0.00122c-3.70552,-0.02667 -7.41122,-0.0661 -11.11682,-0.07635c-2.4723,0.47598 -5.01038,-0.00629 -7.50477,0.21912c-2.24097,0.2025 -4.64342,0.25036 -6.89156,0.22204c-4.78311,-0.03442 -9.50083,0.20143 -14.29861,0.1669c-1.49008,-0.01073 -3.65898,-0.41691 -5.05433,0.15925c-0.86295,0.35632 -1.56996,1.06996 -2.38585,1.5105c-1.39823,0.75497 -2.68433,1.46703 -4.1686,2.06017c-0.02971,0.00064 -0.08773,0.00691 -0.1201,0.01123c-0.03569,-0.00414 -0.05743,-0.0043 -0.05743,-0.0043l-0.13642,-0.00099c-1.78831,-0.00495 -3.57619,0.06794 -5.36402,0.15657c1.05663,-0.71918 2.0594,-1.61751 3.06055,-2.35717c1.41873,-1.04818 2.94582,-2.41536 4.58528,-3.0575c0.5712,-0.41531 1.16017,-0.79835 1.73918,-1.19652c0.07365,-0.03453 0.11859,-0.06778 0.11859,-0.06778c1.05555,-0.7962 2.27829,-0.53011 3.55086,-0.52095c2.7283,0.01964 5.45732,0.03694 8.18562,0.05657c4.82905,0.03475 9.65032,-0.06896 14.4853,-0.03417c3.01598,0.0217 5.99552,-0.0895 9.00591,-0.06783c1.80081,0.01296 3.75627,0.24131 5.52497,-0.09921c2.24765,0.02831 4.49579,0.03631 6.74356,0.05247c0.95553,0.98016 1.75433,2.04802 2.56611,3.13621c-0.82773,-0.10519 -1.61413,-0.24682 -2.46206,-0.26701z" data-paper-data="{&quot;noHover&quot;:false,&quot;origItem&quot;:[&quot;Path&quot;,{&quot;applyMatrix&quot;:true,&quot;segments&quot;:[[[932.90093,266.12781],[-6.07297,-0.72738],[-6.00791,-7.93383]],[[913.92637,243.28571],[7.05595,7.13438],[-16.47746,0.00019]],[[864.49269,243.26137],[16.47721,0.08895],[-12.94701,2.5894]],[[824,244.28571],[13.20098,0],[-22.06793,0]],[[758,245.28571],[22.10889,0],[-35.44319,0]],[[652,246.28571],[35.39974,0],[-20,0]],[[592,246.28571],[20,0],[-9.3287,0]],[[566,250.28571],[7.69541,-5.89193],[0,0]],[[565.13436,250.78844],[0.53803,-0.25702],[-4.22323,2.94924]],[[552.44963,259.64453],[4.16508,-3.07442],[-11.9837,4.79348]],[[519,282.28571],[10.34426,-7.7582],[-7.29962,5.47472]],[[496.68924,299.71836],[7.70738,-5.32746],[13.10044,-0.74399]],[[536,298.28571],[-13.10896,0.05807],[0,0]],[537,298.28571],[[537.42122,298.31416],[-0.26184,-0.02845],[0.23703,-0.0334]],[[538.10322,298.25542],[-0.21776,0.00623],[10.84872,-4.42611]],[[568.55037,282.92688],[-10.20947,5.60782],[5.95741,-3.27226]],[[585.95915,271.72118],[-6.30679,2.65744],[10.19783,-4.29699]],[[623,270.28571],[-10.92316,0],[35.17049,0]],[[728,268.28571],[-35.06301,0],[16.48086,0.08897]],[[778.50731,266.31004],[-16.41607,1.6026],[18.27241,-1.78382]],[[833.50731,264.31004],[-18.09735,3.61947],[27.16336,-0.12034]],[[915,264.28571],[-27.16365,0],[0,0]],[[915.03938,264.29439],[0,0],[6.21659,0.10328]]],&quot;closed&quot;:true}]}" fill="#4e81cc" stroke="none" stroke-width="0.5"/><path d="M271.13168,171.55096c-0.2827,0.32163 -0.17718,0.61447 -0.4142,1.19794c-0.09979,0.24565 -0.31185,0.43451 -0.41415,0.67913c-0.17197,0.41121 -0.13438,0.88446 -0.26467,1.31071c-0.34303,1.12233 -0.41661,2.11378 -0.54433,3.27948c-0.10056,0.91785 -0.46921,1.80712 -0.56529,2.72437c-0.06056,0.57815 0.00888,1.05241 -0.26186,1.59482c0.67555,-0.14959 1.32634,-0.41843 2.03375,-0.54466c0.24407,-0.04355 0.64946,-0.02099 0.82222,-0.28583c0.57758,-0.88538 0.82982,-2.18632 1.13827,-3.1818c0.23094,-0.74534 0.69472,-1.31618 1.00038,-1.98676c0.37627,-0.82548 0.45589,-1.89488 0.83812,-2.72241c0.27899,-0.60401 0.91223,-1.22614 1.31747,-1.75843c0.04684,-0.06041 0.0877,-0.12786 0.12786,-0.19613c-0.30728,-0.02349 -0.61081,-0.08034 -0.67156,-0.08063c-1.36415,-0.00632 -2.72831,-0.01964 -4.09245,-0.02945zM271.47227,170.18759c1.50134,-0.00568 3.07985,-0.12951 4.56051,0.03774c0.56766,0.06412 1.8168,0.35233 1.96594,1.01276c0.13321,0.58987 -0.73524,0.96036 -1.09589,1.44577c-0.33586,0.44116 -0.93893,0.99248 -1.16156,1.49785c-0.3673,0.83376 -0.46192,1.8881 -0.83812,2.72241c-0.28578,0.63377 -0.7231,1.11969 -0.93691,1.81912c-0.32718,1.07027 -0.64121,2.73185 -1.36629,3.62127c-0.74354,0.91207 -1.92947,0.75726 -2.94651,1.03624c-0.29791,0.08172 -0.57247,0.33617 -0.8786,0.2948c-0.45324,-0.06125 -0.8285,-0.38766 -1.24276,-0.58149c-0.17228,-1.84398 0.41638,-3.41248 0.60572,-5.22003c0.13077,-1.24841 0.22173,-2.32695 0.59608,-3.53341c0.3828,-1.23368 0.57442,-2.61793 1.37285,-3.62086c0.05972,-0.3537 0.3311,-0.47381 0.51108,-0.51459c0.00915,-0.00734 0.01836,-0.01465 0.02762,-0.02193c0,0 0.44294,-0.32725 0.82686,0.00435z" fill="#000000" stroke="none" stroke-width="0.5"/><path d="M271.17848,171.53796c1.36413,0.00982 2.73766,0.02454 4.10181,0.03086c0.06074,0.00028 0.36541,0.05783 0.67268,0.08132c-0.04016,0.06827 -0.09647,0.1582 -0.14331,0.21862c-0.40524,0.53229 -1.02326,1.13177 -1.30225,1.73579c-0.38223,0.82752 -0.45694,1.90264 -0.83321,2.72812c-0.30566,0.67058 -0.7784,1.26032 -1.00934,2.00566c-0.30845,0.99548 -0.56644,2.29666 -1.14402,3.18205c-0.17276,0.26483 -0.58014,0.24177 -0.82421,0.28533c-0.70742,0.12623 -1.36155,0.39343 -2.0371,0.54301c0.27073,-0.54241 0.19985,-1.01779 0.26042,-1.59594c0.09608,-0.91725 0.46105,-1.81189 0.56162,-2.72974c0.12771,-1.1657 0.20432,-2.1715 0.54735,-3.29383c0.13028,-0.42626 0.09571,-0.90182 0.26768,-1.31304c0.1023,-0.24462 0.31627,-0.43437 0.41606,-0.68002c0.23702,-0.58347 0.13342,-0.87688 0.41612,-1.19851z" data-paper-data="{&quot;noHover&quot;:false,&quot;origItem&quot;:[&quot;Path&quot;,{&quot;applyMatrix&quot;:true,&quot;segments&quot;:[[[344.63659,326.28572],[0,0],[-2.0553,2.37248]],[[341.66363,335.0887],[1.70662,-4.28946],[-0.71852,1.80596]],[[338.66363,340.0887],[0.73698,-1.79852],[-1.23886,3.02334]],[[336.79273,349.71046],[0.93252,-3.13142],[-2.45528,8.24498]],[[332.97569,373.7784],[0.87468,-8.55152],[-0.68872,6.73334]],[[328.97569,393.7784],[0.65592,-6.72872],[-0.41342,4.24112]],[[327.14037,405.48256],[1.9559,-3.99026],[4.944,-1.13214]],[[342.01945,401.3828],[-5.17884,0.96258],[1.78678,-0.33212]],[[348.03143,399.24426],[-1.2524,1.95038],[4.18706,-6.5205]],[[356.20731,375.86096],[-2.2085,7.31334],[1.65354,-5.47564]],[[363.43551,361.24486],[-2.2052,4.93158],[2.71458,-6.07078]],[[369.43551,341.24486],[-2.7582,6.08606],[2.01322,-4.44226]],[[379.00003,328.2857],[-2.94238,3.92318],[0.34016,-0.44532]],[[379.92691,326.84128],[-0.2908,0.50254],[-2.25364,-0.156]],[[375.00003,326.2857],[0.44526,-0.00116],[-9.99986,0.0256]],[[345.00003,326.2857],[9.99988,0],[0,0]]],&quot;closed&quot;:true,&quot;fillColor&quot;:[0,0,0,1],&quot;strokeWidth&quot;:0.5}]}" fill="#ff6666" stroke="none" stroke-width="0.25"/><path d="M275.81942,180.78404c0.95497,-0.14388 1.95091,-0.10675 2.93981,-0.29751c0.39637,-0.07647 0.77641,-0.22148 1.16616,-0.32665c0.0718,-0.01937 0.21689,0.07692 0.22308,0.00281c0.0074,-0.08864 -0.15049,-0.09873 -0.20952,-0.16527c-0.084,-0.09469 -0.79761,-1.07338 -0.81064,-1.09721c-0.59435,-1.08676 -0.94997,-2.40491 -1.39779,-3.56043c-0.00826,-0.04899 -0.02246,-0.10823 -0.03792,-0.17167c-0.01462,0.03441 -0.02794,0.06615 -0.03858,0.09366c-0.15637,0.40397 -0.29466,0.81777 -0.38266,1.24191c-0.31453,1.51586 -0.72234,2.95967 -1.45193,4.28035zM273.72198,181.64118c0.02279,-0.08777 0.05173,-0.14461 0.05173,-0.14461l0.20354,-0.3756c1.02105,-1.34117 1.34052,-2.68821 1.83252,-4.27384c0.26336,-0.84875 0.26682,-2.2819 0.95214,-2.94214c1.34616,-1.2969 2.00193,-0.2567 2.27902,1.05549c0.42095,1.06145 0.7359,2.27945 1.28142,3.27995c0.3715,0.68135 1.39164,1.36265 1.13696,2.30002c-0.15812,0.58196 -1.19615,0.98829 -1.69841,1.13955c-1.58942,0.47865 -3.76187,-0.11933 -5.11237,0.94644c0,0 -0.5486,0.40532 -0.95392,-0.14329c-0.27795,-0.37621 -0.10731,-0.68503 0.02738,-0.84198z" fill="#000000" stroke="none" stroke-width="0.5"/><path d="M275.81103,180.7948c0.72959,-1.32069 1.13975,-2.78748 1.45429,-4.30334c0.08801,-0.42414 0.2306,-0.83924 0.38697,-1.24321c0.01064,-0.0275 0.02421,-0.05928 0.03883,-0.09369c0.01546,0.06344 0.02975,0.12267 0.03802,0.17166c0.44782,1.15552 0.81542,2.49584 1.40977,3.5826c0.01303,0.02383 0.7255,1.00375 0.80951,1.09844c0.05903,0.06654 0.21703,0.07651 0.20963,0.16515c-0.00619,0.07411 -0.15182,-0.02168 -0.22361,-0.00231c-0.38974,0.10517 -0.77487,0.25302 -1.17124,0.32949c-0.98891,0.19076 -1.99718,0.15134 -2.95215,0.29521z" data-paper-data="{&quot;noHover&quot;:false,&quot;origItem&quot;:[&quot;Path&quot;,{&quot;applyMatrix&quot;:true,&quot;segments&quot;:[[[379.48575,393.71872],[0,0],[6.99254,-1.10504]],[[401.01945,391.3828],[-7.2388,1.45052],[2.90146,-0.5814]],[[409.55039,388.92688],[-2.85134,0.79146],[0.52526,-0.1458]],[[411.18573,388.9357],[-0.04142,0.54354],[0.04956,-0.65016]],[[409.64121,387.73532],[0.43622,0.48462],[-0.62076,-0.68962]],[[403.64121,379.73532],[0.09678,0.17396],[-4.414,-7.93482]],[[393.20731,353.71044],[3.34354,8.44652],[-0.06314,-0.35864]],[[392.92031,352.4541],[0.11666,0.4642],[-0.10532,0.253]],[[392.64241,353.14266],[0.07658,-0.20216],[-1.1249,2.9694]],[[389.90293,362.2663],[0.62274,-3.11368],[-2.22562,11.12814]],[[379.48577,393.71872],[5.2784,-9.71938],[0,0]]],&quot;closed&quot;:true,&quot;fillColor&quot;:[0,0,0,1],&quot;strokeWidth&quot;:0.5}]}" fill="#ffb866" stroke="none" stroke-width="0.25"/><path d="M281.83563,172.53447c0.14289,0.17192 0.27684,0.35109 0.3921,0.54578c0.01784,0.03014 0.28044,0.87048 0.58363,0.9435c0.8529,0.2054 2.21449,0.01291 3.07287,-0.13814c1.88264,-0.33129 3.81258,-0.65739 5.72097,-0.65211c1.81873,0.01309 3.72655,0.1971 5.53674,0.04217c3.40636,-0.29154 6.80963,-0.76953 10.23701,-0.74486c1.85203,-0.29499 3.77378,-0.24801 5.65125,-0.2345c0.72542,0.00522 1.75782,-0.14186 2.40815,0.2588c0.14165,0.08726 0.76978,0.79766 1.13062,1.37747c0.00609,-0.10547 0.01175,-0.2109 0.00202,-0.31577c-0.06281,-0.67653 -0.26898,-1.38145 -0.39452,-2.04917c0.02396,-0.14792 0.09471,-0.29566 0.07188,-0.44376c-0.0314,-0.20377 -0.41132,-0.04145 -0.61744,-0.03665c-0.65098,0.01515 -1.33114,-0.07771 -1.97899,-0.01756c-0.91855,0.08528 -1.81283,0.43866 -2.73222,0.52602c-0.90454,0.08595 -1.82539,0.03059 -2.72928,0.11678c-1.67848,0.16005 -3.28089,0.38897 -4.98111,0.37674c-2.77377,-0.01996 -5.54754,-0.03992 -8.32131,-0.05988c-1.28383,-0.00924 -2.62108,-0.12959 -3.89976,-0.03039c-0.98175,0.07617 -1.93538,0.25686 -2.92295,0.25413c-1.95479,-0.02462 -4.20066,0.49438 -6.22965,0.2814zM279.60009,171.77317c-0.1228,-0.10273 -0.45896,-0.4461 -0.14121,-0.91538c0.38243,-0.5648 0.94723,-0.18237 0.94723,-0.18237l0.28273,0.2091c1.16958,0.50559 2.67105,0.23082 3.90768,0.11908c1.12111,-0.10131 2.35826,-0.11781 3.47859,-0.11471c0.94527,0.01191 1.86925,-0.18 2.8104,-0.2503c1.31816,-0.09846 2.68949,0.01703 4.01231,0.02655c2.77377,0.01996 5.54754,0.03992 8.32131,0.05988c2.51966,0.01813 5.07364,-0.26209 7.57592,-0.48785c1.18408,-0.10683 2.27893,-0.52982 3.48153,-0.52395c1.07602,0.00525 2.52535,-0.32054 3.19629,0.80933c0.157,0.26439 0.04138,0.61359 0.06206,0.92039c0.18371,0.92779 0.43696,1.84664 0.39245,2.79848c-0.03847,0.82268 0.0831,1.7889 -1.33691,1.75701c-0.86372,-0.0194 -1.29675,-1.89045 -1.88777,-2.29452c-0.3058,-0.20907 -1.34245,-0.04104 -1.68233,-0.04349c-1.84204,-0.01326 -3.72155,-0.05877 -5.5387,0.23066c-3.42999,-0.02469 -6.82763,0.46574 -10.23701,0.74486c-1.85139,0.15157 -3.7903,-0.02496 -5.64929,-0.03834c-2.343,-0.02952 -4.63073,0.7798 -6.96305,0.76842c-0.60607,-0.00295 -1.70657,0.16065 -2.26166,-0.05128c-0.94658,-0.36141 -0.85602,-0.75676 -1.30851,-1.52571c-0.34729,-0.59018 -0.90911,-1.04492 -1.31819,-1.59589c0,0 -0.13687,-0.18526 -0.14388,-0.42z" fill="#000000" stroke="none" stroke-width="0.5"/><path d="M288.05164,172.25268c0.98757,0.00273 1.94123,-0.17852 2.92298,-0.25469c1.27868,-0.09921 2.616,0.02042 3.89983,0.02965c2.77377,0.01996 5.57463,0.03999 8.34839,0.05995c1.70022,0.01224 3.30267,-0.21637 4.98115,-0.37642c0.90389,-0.08619 1.79756,-0.02842 2.7021,-0.11437c0.91939,-0.08736 1.8137,-0.44046 2.73225,-0.52574c0.64785,-0.06015 1.35516,0.03009 2.00614,0.01494c0.20612,-0.0048 0.58604,-0.16704 0.61744,0.03672c0.02283,0.1481 -0.0479,0.29619 -0.07186,0.44411c0.12554,0.66772 0.33171,1.37426 0.39452,2.05079c0.00973,0.10487 -0.02314,0.2084 -0.02923,0.31387c-0.36085,-0.57982 -0.98902,-1.28913 -1.13067,-1.37639c-0.65033,-0.40065 -1.68273,-0.25332 -2.40815,-0.25853c-1.87746,-0.01351 -3.77194,-0.06081 -5.62397,0.23418c-3.42738,-0.02467 -6.85718,0.45782 -10.26355,0.74936c-1.81019,0.15493 -3.71869,-0.03233 -5.53743,-0.04542c-1.90838,-0.00528 -3.81117,0.31828 -5.6938,0.64957c-0.85838,0.15105 -2.24713,0.3461 -3.10003,0.14069c-0.30319,-0.07301 -0.56583,-0.91415 -0.58368,-0.94429c-0.11526,-0.19469 -0.24923,-0.3743 -0.39211,-0.54621c2.02899,0.21298 4.27486,-0.30638 6.22966,-0.28176z" data-paper-data="{&quot;noHover&quot;:false,&quot;origItem&quot;:[&quot;Path&quot;,{&quot;applyMatrix&quot;:true,&quot;segments&quot;:[[[423.15057,332.93033],[14.88415,1.45411],[1.05646,1.25266]],[[426.05358,336.91031],[-0.85516,-1.42101],[0.13238,0.21998]],[[430.38146,343.79555],[-2.22629,-0.51923],[6.2628,1.46065]],[[452.89892,342.62089],[-6.28412,1.15249],[13.78262,-2.52769]],[[494.80032,337.53896],[-13.98908,0.06197],[13.33237,0]],[[535.38792,337.556],[-13.26084,1.23115],[24.95393,-2.31675]],[[610.38792,331.556],[-25.1247,0],[13.56022,-2.26004]],[[651.80032,329.53896],[-13.7629,0],[5.31774,0]],[[669.46618,331.30893],[-4.78817,-2.90256],[1.04288,0.63219]],[[677.82653,341.34645],[-2.67566,-4.23114],[0.03906,-0.77349]],[[677.82466,339.03165],[0.0769,0.76822],[-0.49611,-4.95583]],[[674.82466,324.03165],[0.95547,4.88786],[0.16784,-1.08554]],[[675.32819,320.77503],[0.17512,1.08439],[-0.24095,-1.49201]],[[670.80032,320.53896],[1.51064,-0.04604],[-4.77103,0.14541]],[[656.29301,320.51463],[4.74571,-0.47508],[-6.72868,0.67358]],[[636.29301,324.51463],[6.73472,-0.68887],[-6.62592,0.67774]],[[616.29301,325.51463],[6.62111,-0.67948],[-12.29515,1.26176]],[[579.80032,328.53896],[12.46363,0],[-20.33333,0]],[[518.80032,328.53896],[20.33333,0],[-9.41122,0]],[[490.21272,328.52193],[9.36775,-0.79466],[-7.19242,0.61013]],[[468.80032,330.53896],[7.23927,-0.03207],[-14.33029,-0.07736]]],&quot;closed&quot;:true}]}" fill="#ff8800" stroke="none" stroke-width="0.5"/></g></g></svg>