<svg version="1.1" xmlns="http://www.w3.org/2000/svg" xmlns:xlink="http://www.w3.org/1999/xlink" width="410.62308" height="150.02265" viewBox="0,0,410.62308,150.02265"><g transform="translate(-146.22352,-129.87345)"><g data-paper-data="{&quot;isPaintingLayer&quot;:true}" fill-rule="nonzero" stroke="none" stroke-linecap="butt" stroke-linejoin="miter" stroke-miterlimit="10" stroke-dasharray="" stroke-dashoffset="0" style="mix-blend-mode: normal"><path d="M308.27015,220.89622c0.34582,-0.75819 1.00957,-1.32611 1.51436,-1.98915c1.47506,-1.93753 2.97482,-4.60995 4.77722,-6.23355c0.38701,-0.34861 1.10532,-0.21243 1.43687,-0.61417c0.49474,-0.59948 -0.85149,-1.31927 -1.41913,-1.85024c-1.28124,-1.19848 -2.45804,-2.46822 -3.75363,-3.62187c-1.08179,1.45697 -2.19182,2.83262 -3.48009,3.80207c0,0 -0.24055,0.17772 -0.61673,0.32703c-1.37321,1.8603 -2.74045,3.92621 -3.77399,6.11156c1.75086,1.22796 4.04022,2.54646 5.31513,4.06835zM320.65633,213.87743c-0.33976,1.11538 -1.78277,1.51047 -2.58462,2.35697c-1.06514,1.12444 -1.85635,2.47988 -2.79454,3.71222c-1.2121,1.59214 -4.25195,6.66693 -6.19648,6.93046c-1.4303,0.19384 -2.60342,-1.25685 -3.83923,-2.00255c-1.35367,-0.81683 -2.64753,-1.86563 -3.91926,-2.90484c-0.03026,0.20705 -0.05588,0.41452 -0.07659,0.62236c-0.31707,3.1801 -0.035,6.55528 -0.05802,9.75349c-0.03889,5.40402 0.40667,11.42732 3.0622,16.29764c1.09498,2.00821 2.91891,3.91448 4.27928,5.75576c1.35081,1.82834 2.63221,4.14549 4.2264,5.7628c1.64456,1.6684 4.62142,2.62808 5.96746,4.54307c0.94521,1.34473 2.57201,2.88142 2.10736,4.45805c-0.91196,3.09444 -6.4602,2.6746 -8.71092,3.94183c-5.62856,3.16904 -11.39219,4.92965 -17.77921,6.14425c-1.9349,0.36796 -4.31269,1.01796 -6.28372,0.37504c-0.57104,-0.18626 -4.34453,-3.16935 -4.95112,-3.63966c-3.30556,-4.39266 -6.93858,-8.76365 -9.37332,-13.72467c-6.02998,-12.28669 -5.61967,-26.08073 -5.46483,-39.3976c0.67354,-3.24606 1.14183,-6.68859 1.57193,-9.98895c0.11565,-0.88745 0.9183,-2.30809 0.10557,-2.6828c-0.35706,-0.16462 -0.71077,0.37809 -1.1015,0.42192c-1.65628,0.18577 -3.33325,-0.02399 -4.99987,-0.03599c-7.29883,-0.05253 -14.47588,0.79513 -21.70707,0.83682l-2.3031,0.49043c-4.16711,-0.05249 -8.43064,1.08288 -12.52343,1.86137c-1.83825,0.34966 -3.74521,0.18351 -5.5934,0.47603c-3.70893,0.58699 -7.63814,1.90794 -11.27971,2.86743c-5.15129,1.35728 -10.34979,2.52708 -15.49635,3.87987c-2.8648,0.75302 -5.4824,0.74769 -8.25872,1.85427c-3.3514,1.29882 -6.80814,1.99947 -10.23797,3.00156c-5.11002,1.493 -10.36148,3.5167 -15.7379,3.49048c-0.82778,-0.00403 -5.31597,-0.00832 -5.7895,-0.16997c-0.39638,-0.13531 -4.08613,-2.92254 -4.68505,-3.4055c-0.88125,-0.71064 -2.00528,-1.22215 -2.59935,-2.18584c-0.60272,-0.97771 -0.56773,-2.22635 -0.81236,-3.34856c-0.95484,-4.3801 -0.48357,-9.031 -0.45145,-13.49388c0.07415,-10.30304 0.04882,-21.29749 2.81675,-31.15418c1.69644,-6.04112 2.59274,-11.10132 6.52486,-16.27983c0,0 0.95906,-1.25977 2.35325,-1.01099c4.39315,-1.88715 9.63601,-0.86771 14.40336,-0.3563c2.48833,0.26693 5.00871,0.28142 7.49621,0.55396c3.3641,0.36859 6.62343,1.71975 9.98535,2.07191c4.14009,0.43368 8.4007,0.2409 12.49248,1.08993c17.05967,0.09746 34.14998,1.23362 51.24521,1.35666l2.49994,0.01799c0,0 0.82248,0.00591 1.52051,0.48273c13.50145,-0.06536 26.94398,-0.77788 40.482,-0.68046c6.5509,0.04714 13.09927,-0.20291 19.64678,-0.52115c1.67113,-1.09813 3.30285,-1.98023 5.15425,-2.97988c4.85185,-2.61973 9.35505,-6.93849 13.79874,-10.22155c5.35124,-3.95358 11.17188,-9.13153 17.35879,-11.55479c2.69768,-2.03483 5.55967,-3.75554 8.26648,-5.76125l0.73774,-0.76249c0,0 1.5181,-1.4964 3.13248,-0.32387c3.17814,-0.63228 6.48278,-0.33918 10.14021,-0.31287c9.99974,0.07197 19.99948,0.14393 29.99922,0.21589c17.69875,0.12738 35.28126,-0.2461 53.00223,-0.11857c10.21875,0.07355 20.3144,-0.35381 30.50281,-0.2805c7.22274,0.05198 15.16475,1.03769 22.25658,-0.32768c8.41529,0.02328 16.83068,0.10896 25.24578,0.16953l1.49996,0.0108c0,0 2.10013,0.0151 2.43677,1.94252c3.97471,4.14808 7.30018,8.64056 10.67057,13.3148l1.75039,1.33258c0.61716,0.45937 1.0147,1.19647 1.00874,2.02477c-0.00885,1.22885 -0.90282,2.24422 -2.07277,2.44568l-2.45806,0.47324l-0.00816,-0.04239c-0.07821,0.02685 -0.15686,0.05256 -0.23604,0.07702c-0.37541,0.11598 -0.75902,0.18082 -1.14822,0.20617l-0.11573,0.54326c-0.0195,2.70989 -0.13787,7.50337 -2.6533,9.30497c-1.53386,1.09859 -6.93001,0.37996 -8.90443,0.36575c-6.70522,-0.04825 -13.28057,0.40444 -20.00308,0.35606c-9.21378,-0.0663 -18.15097,0.46821 -27.26365,1.29167c-8.24565,0.74511 -16.96211,-0.1099 -25.24578,-0.16952c-17.49955,-0.12594 -34.99909,-0.25188 -52.49864,-0.37782c-9.21155,-0.06629 -18.32797,-0.63191 -27.49569,-0.69789c-3.84968,-0.02771 -9.43948,0.70615 -11.71143,-3.46634c-0.53446,-0.98155 -0.5314,-2.97112 -0.42647,-4.88117c-2.7265,1.5661 -5.38152,3.40633 -8.11286,4.8811c-1.53266,0.82755 -2.63802,2.35822 -4.22661,3.07252c-0.77509,0.34851 -1.72368,0.14427 -2.50354,0.482c-1.90844,0.8265 -3.75652,1.96148 -5.72076,2.88361c0.80833,5.98726 0.46422,12.04392 1.03738,18.05464c0.32765,3.43613 0.94801,6.77909 0.9384,10.25336l-0.0144,1.99995c0,0 -0.0037,0.51297 -0.24009,1.0725c0.81474,0.42221 1.65873,0.80064 2.44814,1.26404c1.58012,0.92753 2.55543,2.6307 3.92193,3.85125c1.3761,1.22913 3.26458,1.81883 4.57106,3.12171c0.08474,0.08451 1.77116,2.70312 2.50191,2.91414c1.42743,0.41222 2.97884,-0.23905 4.4565,-0.08405c0.25762,0.02702 0.51532,0.05281 0.77311,0.07745l0.03282,-0.59353c-0.33985,-1.80754 -0.51411,-3.6549 -0.50902,-5.49409c0,0 0.00054,-0.07455 0.0143,-0.19779c-0.00777,-0.09647 -0.01147,-0.19713 -0.0107,-0.30219c0.01799,-2.49994 2.51793,-2.48194 2.51793,-2.48194c15.0513,0.10832 29.98436,-0.28422 45.00244,-0.17614c7.49981,0.05397 14.99961,0.10795 22.49942,0.16192c4.00721,0.02884 8.26787,0.48038 12.25325,0.10036c5.96714,-0.569 12.24958,-0.90514 18.25316,-0.88084c7.38201,0.05312 14.92543,-0.66453 22.26378,-1.32764c3.30444,-0.2986 6.70081,0.38653 9.99974,0.07197c6.71144,-0.63997 13.475,-0.41521 20.24952,-0.36645c4.11285,0.0296 8.40663,-0.29195 12.49967,0.08996c1.36875,0.12771 3.04821,-0.3115 4.08079,0.59602c1.90448,1.67384 1.33718,6.60847 1.80207,8.95626l0.021,1.70795c2.88771,0.21853 5.74298,0.58432 8.50687,1.19721l0.00254,-0.3534l2.49994,0.01799c1.38067,0.00994 2.49188,1.13725 2.48194,2.51793c-0.00596,0.8283 -0.41407,1.5596 -1.03777,2.01005l-1.98734,1.46828l-0.02808,-0.03801l-0.07748,0.11188c-4.00399,2.36337 -8.88012,5.31567 -12.18946,8.60564c-2.46569,2.45126 -3.49174,4.1145 -6.87908,5.50407c0,0 -1.87927,0.73606 -2.9221,-0.80305c-2.48505,0.3875 -4.75711,0.15801 -7.25737,0.39642c-10.08291,0.96146 -20.06517,1.36781 -30.25645,1.29446c-14.99961,-0.10795 -29.99922,-0.21589 -44.99884,-0.32385c0,0 -0.78567,-0.00565 -1.47293,-0.45107c-4.60549,0.10117 -9.23077,0.41768 -13.78383,0.82911c-8.40537,0.75954 -17.29992,-0.11234 -25.74577,-0.17312c-13.4589,-0.09686 -26.77137,1.67936 -40.24882,0.19819c-4.75528,-0.52261 -8.92826,-0.0882 -13.46511,-1.90537c-2.87292,-2.15273 -5.90548,-3.60702 -8.73409,-5.74242c-9.61738,-7.26042 -18.79173,-14.95368 -28.34094,-22.20454c0,0 -0.06205,-0.04723 -0.15586,-0.13596c-1.27822,0.6083 -2.37266,1.59929 -3.38279,2.75752c3.39116,2.73028 8.05902,7.07562 6.77394,11.29433zM538.42436,207.04246c-0.39347,-2.09276 -0.77113,-3.13379 -0.49863,-5.24768c0.03867,-0.29996 0.68031,-0.67702 0.40871,-0.81006c-0.32218,-0.15783 -0.56475,0.50387 -0.91909,0.56004c-0.82305,0.13048 -1.66663,-0.012 -2.49994,-0.01799c-3.33324,-0.02399 -6.66649,-0.04798 -9.99974,-0.07197c-10.78297,-0.0776 -21.57351,-0.20997 -32.25993,0.75569c-2.47831,0.22395 -5.02635,-0.28983 -7.49981,-0.05397c-4.29732,0.40978 -8.39633,0.95177 -12.7533,0.92041c-5.83433,-0.06366 -11.95618,0.33555 -17.7603,0.86004c-11.51054,1.04013 -23.68156,-0.15826 -35.24553,-0.24148c-14.15765,-0.10189 -28.24186,0.24117 -42.41943,0.19c0.06837,0.84541 0.18601,1.6872 0.35031,2.51701l0.03239,1.88399c4.64956,0.21569 9.32206,0.17368 14.00147,0.20735c17.66621,0.12714 35.33242,0.25428 52.99863,0.38142c17.8362,0.12837 35.72046,-1.16416 53.50941,-1.11495c5.02233,0.06326 10.25928,-0.42612 15.26036,-0.87803c5.79634,-0.52377 11.9231,0.07363 17.74598,0.11554l1.71364,0.48334c1.92587,0.00462 3.86994,0.01982 5.81454,0.07552zM377.46946,156.77452c0.36766,1.24574 6.45519,0.6645 7.25929,0.67029c9.17059,0.06599 18.2827,0.63159 27.49569,0.69789c17.49955,0.12594 34.99909,0.25188 52.49864,0.37782c8.10169,0.05831 16.695,0.95867 24.75292,0.19031c9.26504,-0.88347 18.38618,-1.37989 27.75651,-1.31245c6.72277,0.04839 13.29383,-0.40434 20.00308,-0.35606c1.66663,0.012 3.34644,-0.1736 4.99987,0.03599c0.39005,0.04945 0.76344,0.64857 1.09531,0.43773c0.32136,-0.20418 -0.03847,-0.76496 0.01343,-1.14214c0.20684,-1.50329 0.43022,-3.01352 0.44114,-4.53091l0.1811,-0.89232c-0.66189,-0.17195 -1.30953,-0.31945 -1.93046,-0.38614c-0.19656,-0.02111 -0.39338,-0.0371 -0.59045,-0.04898c-0.94243,0.80866 -2.27262,0.46591 -2.27262,0.46591l-1.39057,-0.43537c-13.41707,-0.09656 -26.83619,-0.13286 -40.25252,-0.30186c-9.06669,1.74557 -18.37295,-0.06886 -27.50648,0.80207c-8.39306,0.80032 -17.32441,0.85017 -25.75297,0.82686c-17.52918,-0.12615 -34.92148,0.7487 -52.50583,0.62215c-4.16651,-0.02999 -8.33325,-0.04931 -12.49967,-0.08996c-0.35561,-0.00346 -0.98487,-0.03626 -1.65653,-0.03727c-0.18631,1.58914 -0.42232,3.44604 -0.13888,4.40644zM538.01636,219.78179c2.28697,-2.23884 5.18035,-4.34321 8.09182,-6.23218c-6.45873,-0.66417 -12.70899,-1.03346 -19.27172,-1.0807l-1.99995,-0.0144c0,0 -1.06871,-0.00769 -1.80359,-0.71178c-3.18265,-0.11792 -6.37105,-0.17459 -9.44608,0.11863c-5.16813,0.49281 -10.55704,0.9132 -15.75322,0.89883c-6.6299,-0.08352 -13.64906,0.24464 -20.26024,0.84205c-5.14719,0.46512 -10.57394,-0.06393 -15.74603,-0.10115c-5.84747,-0.04209 -11.61916,0.4164 -17.50314,0.37405c-17.66621,-0.12714 -35.33242,-0.25428 -52.99863,-0.38142c-6.7745,-0.04876 -13.54061,0.07865 -20.24214,-0.65786c-1.31835,-0.14488 -4.47389,0.23352 -5.54324,-0.15603c-3.24747,-1.18297 -2.50841,-2.12732 -4.44754,-4.13606c-1.17586,-1.21808 -3.18083,-1.87879 -4.38553,-2.94291c-0.65632,-0.57974 -0.9764,-1.46411 -1.57834,-2.10014c-1.61937,-1.71106 -4.29052,-2.37799 -6.20496,-3.81251c-0.99558,-0.00717 -2.04533,-0.01472 -2.49994,-0.01799c-6.66649,-0.04798 -13.333,-0.09595 -19.99948,-0.14393c-0.45919,-0.00331 -0.96866,-0.03286 -1.50929,-0.07278c5.97436,4.7129 11.821,9.55701 17.90811,14.19116c2.46862,1.87938 4.97927,4.36566 7.68273,5.87602c2.33909,1.3068 4.31592,2.37189 6.47105,4.04667c3.60745,1.52579 7.66811,0.87119 11.51266,1.27447c13.32091,1.39728 26.4521,-0.32182 39.75631,-0.22607c8.26333,0.05947 17.03586,0.97744 25.25291,0.1939c6.01712,-0.57377 12.19023,-0.92447 18.25316,-0.88084l2.49994,0.01799c0,0 0.85497,0.00615 1.56132,0.51125c12.81135,0.0922 25.62269,0.1844 38.43404,0.2766c10.03385,0.07221 19.8362,-0.3766 29.76359,-1.27367c2.53449,-0.22903 4.73787,0.08786 7.25921,-0.41139l2.49058,-0.03061c0,0 0.45599,0.00329 0.97706,0.20179c1.23298,-0.88124 1.77375,-1.96585 3.27858,-3.43901zM546.76196,146.53166c-2.97534,-3.98842 -5.90262,-7.89654 -9.40484,-11.48903c-8.23852,-0.05919 -16.47804,-0.08628 -24.71611,-0.19004c-6.48265,1.24808 -13.64919,0.41395 -20.24952,0.36645c-11.03368,-0.07941 -21.94859,0.34206 -33.00274,0.2625c-17.72113,-0.12753 -35.30281,0.24595 -53.00223,0.11857c-9.99974,-0.07197 -19.99948,-0.14393 -29.99922,-0.21589c-4.66423,-0.03357 -9.14525,-1.01181 -13.01406,1.9064c0,0 -0.16468,0.12168 -0.43462,0.24825c-2.12217,1.45939 -4.28052,2.8601 -6.37407,4.38228c-6.00894,2.35356 -11.60593,7.35815 -16.80584,11.19994c-3.66942,2.71103 -7.34506,5.9999 -11.21782,8.63582c6.55273,-0.32484 13.10551,-0.593 19.66003,-0.57486l0.49999,0.0036c0,0 0.07969,0.00058 0.2105,0.01574c0.11863,-0.01585 0.2323,-0.02458 0.3412,-0.02692c5.44014,-2.17396 10.15355,-4.78741 15.27834,-7.55451c2.99039,-1.61465 5.58161,-4.23407 8.74449,-5.54007c5.11424,-2.11174 13.06366,-0.62374 18.5251,-0.58444c17.58479,0.12656 34.97479,-0.74832 52.50583,-0.62215c8.2399,0.10379 17.04652,-0.06385 25.26011,-0.80607c9.14239,-0.82614 18.44502,0.9425 27.50648,-0.80207c13.58176,0.03758 27.16391,0.18332 40.74538,0.28106l0.01966,0.00448c3.10784,0.07401 5.89015,0.59542 8.92395,0.98096zM348.96701,193.6884c0.04151,-3.29548 -0.62271,-6.49698 -0.91762,-9.76052c-0.53281,-5.8963 -0.13667,-11.88991 -0.97987,-17.75667c-9.16056,-0.06401 -18.32185,0.50227 -27.48483,0.98986c-0.14176,0.10116 -0.28493,0.20508 -0.4298,0.31211c0,0 -1.71835,1.26953 -3.15165,-0.1271c-5.94962,0.29546 -11.89999,0.51879 -17.8514,0.47597c-15.04894,-0.10831 -29.97967,0.78427 -45.00604,0.67613c0,0 -0.86022,-0.00619 -1.56782,-0.51592c-16.57081,-0.1921 -33.12699,-1.22223 -49.66631,-1.36501c-4.09528,-0.84976 -8.35003,-0.63607 -12.49248,-1.08993c-3.3641,-0.36859 -6.62343,-1.71975 -9.98535,-2.07191c-2.49095,-0.26094 -5.00616,-0.28685 -7.49621,-0.55396c-3.57875,-0.38391 -9.90623,-2.03598 -12.75701,0.42037c0,0 -0.13047,0.09639 -0.3495,0.20684c-2.80327,4.23406 -3.45229,8.47163 -4.84124,13.4298c-2.63117,9.39251 -2.55128,19.96655 -2.62211,29.80827c-0.02415,3.35557 -0.3961,6.91277 -0.08595,10.2533c0.12213,1.31547 -0.09055,2.79093 0.599,3.91783c0.28118,0.45952 0.93759,0.53398 1.37896,0.84288c1.1501,0.80493 1.94305,2.19841 3.27157,2.65191c1.32853,0.4535 2.80651,-0.11168 4.21025,-0.098c2.76951,0.02702 4.17185,-0.5861 6.79751,-1.34748c5.75933,-1.67006 11.71874,-2.57939 17.31889,-4.80033c2.95429,-1.14049 5.76509,-1.21981 8.76963,-2.02328c5.16389,-1.38092 10.3923,-2.51887 15.56042,-3.89683c4.94918,-1.31958 9.85714,-2.54858 14.91705,-2.9643c5.29696,-0.43521 10.34377,-2.39765 15.6985,-2.39887c0.71366,-0.49527 1.56908,-0.4891 1.56908,-0.4891c7.47853,0.09421 14.95249,-0.89242 22.50662,-0.83805c1.92803,0.01388 7.4461,-0.6267 8.89825,0.49388c4.01871,3.10112 1.3944,8.53589 0.99759,12.32401c-0.1745,1.66586 -0.19567,3.35623 -0.53597,4.99627c-0.02227,12.38458 -0.63504,25.23542 4.98795,36.6796c2.20378,4.48525 5.53303,8.37287 8.4391,12.40419c1.03206,0.76681 1.8019,1.96548 3.00549,2.41775c0.48918,0.18381 3.71522,-0.5514 3.72322,-0.55297c4.6508,-0.90749 10.09863,-1.81031 14.29553,-4.12519c1.83039,-1.00959 3.635,-2.53101 5.75824,-3.02071c-0.67878,-0.56856 -1.30423,-1.23897 -1.99883,-1.77295c-2.92109,-2.24557 -4.76713,-5.10612 -6.94225,-8.05017c-1.49234,-2.0199 -3.43116,-4.10907 -4.63413,-6.3087c-3.07689,-5.6261 -3.73081,-12.48878 -3.68574,-18.75182c0.0241,-3.34877 -0.28973,-6.9205 0.08591,-10.24599c0.63056,-5.58239 3.788,-10.85593 7.09742,-15.20297l0.73774,-0.76249c0,0 0.6199,-0.61105 1.48871,-0.74625c3.40521,-3.21066 5.31801,-8.23186 9.83761,-10.18701c3.22048,-1.39317 7.60692,-0.66301 11.0253,-0.63841c6.66648,0.04798 13.33299,0.09595 19.99948,0.14393c0.83331,0.006 1.66663,0.012 2.49994,0.01799z" fill="#000000" stroke-width="0.5"/><path d="M308.26144,220.94547c-1.27491,-1.52189 -3.60084,-2.86839 -5.3517,-4.09635c1.03353,-2.18535 2.41205,-4.30916 3.78527,-6.16946c0.37618,-0.1493 0.62339,-0.33224 0.62339,-0.33224c1.28827,-0.96944 2.43452,-2.35244 3.5163,-3.8094c1.29559,1.15365 2.50448,2.44393 3.78571,3.64241c0.56764,0.53098 1.92129,1.26684 1.42655,1.86632c-0.33154,0.40173 -1.04934,0.26775 -1.43634,0.61636c-1.8024,1.62361 -3.34866,4.35635 -4.82372,6.29389c-0.50478,0.66304 -1.17965,1.23026 -1.52547,1.98846z" data-paper-data="{&quot;noHover&quot;:false,&quot;origItem&quot;:[&quot;Path&quot;,{&quot;applyMatrix&quot;:true,&quot;segments&quot;:[[[617.00001,418.28572],[0,0],[0.6807,-1.52132]],[[620.00001,414.28572],[-1,1.33332],[2.92216,-3.8962]],[[629.46449,401.75018],[-3.58134,3.27308],[0.76898,-0.70278]],[[632.32931,400.5012],[-0.65728,0.80822],[0.98082,-1.20606]],[[629.46449,396.82124],[1.1429,1.05376],[-2.57966,-2.37846]],[[621.90529,389.6317],[2.60772,2.2886],[-2.14256,2.92942]],[[615.00001,397.28572],[2.56252,-1.95738],[0,0]],[[613.77129,397.94864],[0.75018,-0.30402],[-2.71958,3.74026]],[[606.31147,410.22576],[2.03556,-4.38546],[3.5193,2.43066]],[[617.00001,418.28574],[-2.57166,-3.02536],[0,0]]],&quot;closed&quot;:true,&quot;fillColor&quot;:[0,0,0,1],&quot;strokeWidth&quot;:0.5}]}" fill="#ff6666" stroke-width="0.25"/><path d="M538.45409,207.55849c-1.94459,-0.05572 -3.9886,-0.07456 -5.91446,-0.07918l-1.71365,-0.48305c-5.82287,-0.04191 -11.84971,-0.63576 -17.64604,-0.11198c-5.00108,0.45192 -10.23815,0.94314 -15.26047,0.87987c-17.78894,-0.04922 -35.77077,1.25448 -53.60696,1.12611c-17.66621,-0.12714 -35.33463,-0.26639 -53.00084,-0.39353c-4.67941,-0.03368 -9.35193,0.00771 -14.0015,-0.20798l-0.03243,-1.88516c-0.16431,-0.82982 -0.28196,-1.67319 -0.35032,-2.51859c14.17758,0.05117 28.26182,-0.29269 42.41945,-0.1908c11.56396,0.08322 23.7364,1.27106 35.24692,0.23093c5.80412,-0.52449 12.02425,-0.91729 17.85858,-0.85363c4.35697,0.03136 8.45606,-0.50979 12.75339,-0.91957c2.47346,-0.23586 5.02159,0.27898 7.49988,0.05503c10.68642,-0.96566 21.47703,-0.83216 32.26,-0.75456c3.33324,0.02399 6.66651,0.04834 9.99976,0.07232c0.83331,0.006 1.57696,0.15248 2.40002,0.022c0.35433,-0.05619 0.69682,-0.72213 1.01899,-0.5643c0.27161,0.13304 -0.37001,0.5106 -0.40868,0.81056c-0.2725,2.11389 0.10517,3.15818 0.49865,5.25093z" data-paper-data="{&quot;noHover&quot;:false,&quot;origItem&quot;:[&quot;Path&quot;,{&quot;applyMatrix&quot;:true,&quot;segments&quot;:[[[917.0971,387.26629],[0,0],[-0.81705,-4.17973]],[[916.02433,376.77839],[-0.51456,4.23159],[0.07302,-0.60046]],[[916.83006,375.15242],[0.54511,0.26219],[-0.64661,-0.31101]],[[915,376.28571],[0.70784,-0.11745],[-1.64419,0.27281]],[[910,376.28571],[1.66667,0],[-6.66667,0]],[[890,376.28571],[6.66667,0],[-21.56649,0]],[[825.49269,378.26137],[21.35838,-2.08508],[-4.95327,0.48356]],[[810.49269,378.26137],[4.94339,-0.5073],[-8.58852,0.88138]],[[785,380.28571],[8.71417,0],[-11.66928,-0.04334]],[[749.49269,382.26137],[11.60039,-1.13247],[-23.00549,2.24588]],[[679,382.28571],[23.12852,0],[-28.31601,0]],[[594.16606,383.27625],[28.35516,-0.10173],[0.14891,1.68977]],[[594.9029,388.30512],[-0.34056,-1.65722],[0,0]],[[594.9948,392.07253],[0,0],[9.302,0.36445]],[[623,392.28571],[-9.35906,0],[35.33333,0]],[[729,392.28571],[-35.33333,0],[35.67333,0]],[[836,389.28571],[-35.57768,0.15761],[10.04531,0.05423]],[[866.50731,387.31004],[-9.9954,0.97579],[11.58484,-1.13095]],[[902,387.28571],[-11.64605,0],[0,0]],[[905.43415,388.22768],[0,0],[3.85171,-0.01848]],[[917.06401,388.29505],[-3.88988,-0.08343],[0,0]]],&quot;closed&quot;:true}]}" fill="#ff6666" stroke-width="0.5"/><path d="M377.55836,152.36686c0.67166,0.00101 1.30093,0.03381 1.65653,0.03727c4.16643,0.04065 8.33317,0.05981 12.49969,0.0898c17.58435,0.12655 34.97723,-0.75455 52.5064,-0.6284c8.42856,0.02332 17.4564,-0.03575 25.84946,-0.83608c9.13353,-0.87093 18.44239,0.95474 27.5091,-0.79083c13.41634,0.16899 26.83571,0.2084 40.25278,0.30496l1.39058,0.4357c0,0 1.2303,0.34732 2.17273,-0.46133c0.19706,0.01188 0.49377,0.02312 0.69033,0.04422c0.62093,0.06668 1.26858,0.21445 1.93047,0.38642l-0.18108,0.89285c-0.01092,1.51741 -0.23431,3.03036 -0.44114,4.53365c-0.05189,0.37717 0.30791,0.93865 -0.01346,1.14282c-0.33187,0.21084 -0.80519,-0.3918 -1.19525,-0.44125c-1.65344,-0.20959 -3.23331,-0.02062 -4.89993,-0.03261c-6.70925,-0.04829 -13.28035,0.40536 -20.00312,0.35698c-9.37032,-0.06744 -18.49195,0.43372 -27.757,1.3172c-8.05793,0.76837 -16.6655,-0.10385 -24.7672,-0.16216c-17.49955,-0.12594 -35.08413,-0.28357 -52.58368,-0.4095c-9.21299,-0.0663 -18.3252,-0.63374 -27.49579,-0.69974c-0.80411,-0.00579 -6.89166,0.57487 -7.25932,-0.67088c-0.28344,-0.9604 -0.04742,-2.81994 0.13888,-4.40908z" data-paper-data="{&quot;noHover&quot;:false,&quot;origItem&quot;:[&quot;Path&quot;,{&quot;applyMatrix&quot;:true,&quot;segments&quot;:[[[594.47214,289.04964],[-0.58069,-1.91666],[0.75322,2.48612]],[[609,290.28571],[-1.60827,0],[18.34166,0]],[[664,291.28571],[-18.42646,0],[35,0]],[[769,291.28571],[-35,0],[16.20379,0]],[[818.50731,291.31004],[-16.10437,1.65267],[18.51689,-1.90025]],[[874,288.28571],[-18.74113,0],[13.44588,0]],[[914,287.28571],[-13.41885,0],[3.33333,0]],[[924,287.28571],[-3.3098,-0.39536],[0.78081,0.09327]],[[926.19686,288.14537],[-0.66068,0.42645],[0.63977,-0.41295]],[[926.20728,285.86097],[-0.09836,0.75509],[0.39202,-3.00947]],[[927.02433,276.79302],[0,3.0349],[0,0]],[[927.37369,275.00583],[0,0],[-1.32622,-0.33438]],[[923.50731,274.26137],[1.24281,0.12441],[-0.3934,-0.03938]],[[922.32574,274.17191],[0.39428,0.02091],[-1.87316,1.63083]],[917.78732,275.13642],[[915,274.28571],[0,0],[-26.83484,0]],[[834.49269,274.26137],[26.83441,0.14487],[-18.10781,3.62156]],[[779.49269,276.26137],[18.25405,-1.87328],[-16.77416,1.72141]],[[728,278.28571],[16.85702,-0.07468],[-35.05925,0]],[[623,280.28571],[35.16962,0],[-8.33324,0]],[[598,280.28571],[8.33321,0.02133],[-0.71124,-0.00182]],[[594.68648,280.235],[1.34331,-0.00765],[-0.34973,3.18089]]],&quot;closed&quot;:true}]}" fill="#ff6666" stroke-width="0.5"/><path d="M349.00841,194.6766c-0.83331,-0.006 -1.76375,0.01181 -2.59707,0.00581c-6.66649,-0.04798 -13.33214,-0.09298 -19.99864,-0.14095c-3.41839,-0.02461 -7.71006,-0.78665 -10.93054,0.60652c-4.5196,1.95516 -6.43082,6.98163 -9.83605,10.19228c-0.86881,0.1352 -1.48863,0.74658 -1.48863,0.74658l-0.73762,0.76299c-3.30942,4.34704 -6.46584,9.63502 -7.09639,15.21743c-0.37563,3.3255 -0.06373,6.9077 -0.08782,10.25648c-0.04508,6.26304 0.60284,13.13877 3.67971,18.76488c1.20297,2.19963 3.14064,4.29051 4.63297,6.31041c2.1751,2.94405 4.02018,5.80592 6.94128,8.0515c0.6946,0.53397 1.31997,1.20449 1.99877,1.77304c-2.12324,0.4897 -3.93027,2.01406 -5.76068,3.02365c-4.19691,2.31488 -9.65129,3.22381 -14.30207,4.13131c-0.008,0.00156 -3.23595,0.73819 -3.72513,0.55438c-1.20358,-0.45227 -1.97407,-1.65048 -3.00614,-2.41728c-2.90607,-4.03132 -6.29167,-8.00158 -8.49545,-12.48682c-5.62299,-11.44418 -5.03103,-24.26373 -5.00876,-36.64831c0.3403,-1.64005 0.36046,-3.3199 0.53496,-4.98577c0.39681,-3.78811 3.0273,-9.19927 -0.99141,-12.30039c-1.45215,-1.12059 -6.96289,-0.46991 -8.89093,-0.48379c-7.55412,-0.05436 -14.96286,0.93896 -22.44138,0.84476c0,0 -0.85142,-0.00927 -1.56509,0.486c-5.35473,0.00123 -10.38723,1.94283 -15.6842,2.37804c-5.05992,0.41573 -9.9655,1.63546 -14.91469,2.95505c-5.16811,1.37795 -10.39597,2.51039 -15.55986,3.89131c-3.00454,0.80346 -5.81529,0.88094 -8.76958,2.02145c-5.60015,2.22094 -11.55963,3.12729 -17.31895,4.79733c-2.62566,0.76138 -4.02803,1.37395 -6.79754,1.34691c-1.40373,-0.0137 -2.98153,0.55779 -4.31004,0.1043c-1.32853,-0.4535 -2.12153,-1.84845 -3.27164,-2.65338c-0.44136,-0.30889 -1.09779,-0.38381 -1.37896,-0.84333c-0.68955,-1.12689 -0.47688,-2.60436 -0.59901,-3.91982c-0.31015,-3.34053 0.06215,-6.90288 0.08631,-10.25845c0.07083,-9.84173 -0.00528,-20.42968 2.62589,-29.82221c1.38895,-4.95818 2.04104,-9.2017 4.84432,-13.43576c0.21903,-0.11044 0.34958,-0.20699 0.34958,-0.20699c2.85078,-2.45635 9.18026,-0.80732 12.75903,-0.42341c2.49005,0.26712 5.00657,0.29128 7.49751,0.55221c3.36191,0.35216 6.62303,1.70117 9.98713,2.06976c4.14246,0.45386 8.40086,0.23643 12.49615,1.08618c16.53932,0.14278 33.13103,1.15966 49.70185,1.35176c0.7076,0.50973 1.56939,0.51598 1.56939,0.51598c15.02636,0.10814 29.98833,-0.77081 45.03727,-0.6625c5.95141,0.04283 11.90687,-0.17489 17.85649,-0.47035c1.4333,1.39664 3.15236,0.12805 3.15236,0.12805c0.14487,-0.10703 0.28805,-0.21095 0.4298,-0.31211c9.16298,-0.4876 18.32807,-1.04791 27.48862,-0.9839c0.8432,5.86678 0.45021,11.86746 0.98302,17.76376c0.2949,3.26354 0.96047,6.46948 0.91896,9.76497z" data-paper-data="{&quot;noHover&quot;:false,&quot;origItem&quot;:[&quot;Path&quot;,{&quot;applyMatrix&quot;:true,&quot;segments&quot;:[[[538,363.28571],[0,0],[0.03558,-6.59141]],[[536.02433,343.77839],[0.63677,6.52266],[-1.15046,-11.78463]],[[533.80907,308.28007],[1.77079,11.72109],[-18.32155,0.00383]],[[478.85507,310.65533],[18.31848,-1.10704],[-0.28204,0.20433]],[[478,311.28571],[0.28818,-0.21614],[0,0]],[[471.69503,311.07687],[2.88663,2.77259],[-11.89467,0.67653]],[[436,312.28571],[11.90312,0],[-30.09865,0]],[[346,314.28571],[30.0535,0],[0,0]],[[342.85702,313.27648],[1.4225,1.00923],[-33.14353,-0.14568]],[[243.50731,311.26137],[33.07985,0.04751],[-8.20257,-1.64051]],[[218.50731,309.26137],[8.29121,0.84807],[-6.73334,-0.68873]],[[198.50731,305.26137],[6.72872,0.65591],[-4.98551,-0.48599]],[[183.50731,304.26137],[4.98381,0.49838],[-7.16287,-0.71629]],[[158,305.28571],[5.66607,-4.95361],[0,0]],[[157.304,305.7044],[0.43645,-0.22404],[-5.54547,8.50823]],[[147.81506,332.63298],[2.70647,-9.93608],[-5.12701,18.82241]],[[143,392.28571],[0,-19.68396],[0,6.71133]],[[142.97567,412.79302],[-0.66835,-6.67643],[0.26319,2.6291]],[[144.23003,420.61985],[-1.39527,-2.2438],[0.56896,0.91496]],[[147,422.28571],[-0.88715,-0.61142],[2.31174,1.59325]],[[153.58114,427.54229],[-2.66351,-0.88784],[2.66351,0.88784]],[[162,427.28571],[-2.80758,-0.00719],[5.53927,0.01418]],[[175.57527,424.49299],[-5.24022,1.5605],[11.49432,-3.42292]],[[210.14305,414.64332],[-11.16804,4.52236],[5.892,-2.32345]],[[227.65272,410.47064],[-5.99735,1.65014],[10.30764,-2.83609]],[[258.71666,402.45321],[-10.31612,2.83023],[9.87912,-2.71033]],[[288.50731,396.31004],[-10.11358,0.90427],[10.58739,-0.94664]],[[319.86897,391.28648],[-10.70916,0.07953],[1.42017,-1.00078]],[[323,390.28571],[0,0],[14.95801,0.08075]],[[368,388.28571],[-15.10863,0],[3.85616,0]],[[385.80314,389.14537],[-2.92036,-2.22021],[8.08183,6.14424]],[[387.97567,413.77839],[0.73907,-7.58175],[-0.32501,3.33415]],[[386.97567,423.77839],[0.65698,-3.2849],[0.13372,24.76884]],[[397.47923,497.06389],[-11.4104,-22.80682],[4.472,8.93853]],[[414.53553,521.75017],[-5.87003,-8.02061],[2.07512,1.51872]],[[420.58114,526.54229],[-2.41362,-0.88718],[0.98097,0.36058]],[[428.01942,525.3828],[-0.01599,0.00324],[9.28828,-1.88189]],[[456.55037,516.92688],[-8.36027,4.69004],[3.64616,-2.04547]],[[468.02308,510.80273],[-4.23932,1.00993],[-1.36573,-1.12731]],[[464,507.28571],[1.39686,1.05792],[-5.87435,-4.44899]],[[450,491.28571],[4.39248,5.85664],[-3.01366,-4.01821]],[[440.64118,478.73533],[2.43754,4.38185],[-6.23459,-11.20764]],[[433,441.28571],[0,12.5264],[0,-6.69773]],[[433.02433,420.79302],[-0.70338,6.65622],[1.18074,-11.17358]],[[447,390.28571],[-6.55611,8.74148],[0,0]],[448.46447,388.75017],[[451.43107,387.23629],[-1.73561,0.28289],[6.76405,-6.47017]],[[470.95915,366.72118],[-9.01083,3.97527],[6.42075,-2.83262]],[[493,365.28571],[-6.83695,0],[13.33333,0]],[[533,365.28571],[-13.33333,0],[1.66667,0]],[[538,365.28571],[-1.66667,0],[0,0]]],&quot;closed&quot;:true}]}" fill="#82a0cc" stroke-width="0.5"/><path d="M534.78751,223.22591c-0.52107,-0.1985 -0.97705,-0.20183 -0.97705,-0.20183l-2.49059,0.03076c-2.52133,0.49925 -4.72478,0.18302 -7.25928,0.41204c-9.92739,0.89707 -19.73036,1.3498 -29.76421,1.27759c-12.81135,-0.0922 -25.62814,-0.16967 -38.43949,-0.26187c-0.70635,-0.50509 -1.56169,-0.51061 -1.56169,-0.51061l-2.50161,-0.01531c-6.06294,-0.04363 -12.2858,0.32856 -18.30293,0.90233c-8.21707,0.78355 -17.02735,-0.16416 -25.29069,-0.22363c-13.3042,-0.09575 -26.43864,1.61244 -39.75954,0.21515c-3.84454,-0.40326 -7.90552,0.24928 -11.51298,-1.2765c-2.15513,-1.67478 -4.13226,-2.74271 -6.47135,-4.04952c-2.70345,-1.51036 -5.21425,-4.00013 -7.68286,-5.8795c-6.08712,-4.63416 -11.93338,-9.48469 -17.90774,-14.19759c0.54064,0.03991 1.0501,0.06943 1.50929,0.07273c6.66648,0.04798 13.33317,0.09469 19.99965,0.14266c0.4546,0.00327 1.60322,0.02586 2.5988,0.03302c1.91443,1.43453 4.58583,2.09973 6.20519,3.81078c0.60195,0.63603 0.92215,1.51921 1.57848,2.09895c1.20469,1.06412 3.20979,1.72317 4.38565,2.94122c1.93914,2.00874 1.20016,2.95032 4.44763,4.13329c1.06936,0.38953 4.22489,0.01104 5.54324,0.15593c6.70153,0.7365 13.46763,0.60843 20.24212,0.65718c17.66621,0.12714 35.23265,0.25001 52.89886,0.37715c5.88398,0.04234 11.65546,-0.41225 17.50293,-0.37016c5.1721,0.03722 10.59883,0.56649 15.74602,0.10137c6.61117,-0.5974 13.63033,-0.92466 20.26024,-0.84115c5.19618,0.01437 10.58509,-0.40547 15.75322,-0.89829c3.07503,-0.29322 6.36342,-0.23804 9.54607,-0.12011c0.73488,0.70409 1.8036,0.71219 1.8036,0.71219l1.99995,0.01441c6.56273,0.04723 12.81299,0.41707 19.27172,1.08124c-2.91147,1.88896 -5.80497,3.99638 -8.09193,6.23523c-1.50483,1.47316 -2.04574,2.5596 -3.27874,3.44084z" data-paper-data="{&quot;noHover&quot;:false,&quot;origItem&quot;:[&quot;Path&quot;,{&quot;applyMatrix&quot;:true,&quot;segments&quot;:[[[916.46447,412.75017],[-2.98837,2.9679],[4.54159,-4.51048]],[[932.558,400.16967],[-5.7956,3.81975],[-12.92668,-1.23535]],[[894,398.28571],[13.12579,0],[0,0]],[890,398.28571],[[886.38266,396.88815],[1.47986,1.39756],[-6.36683,-0.19004]],[[867.49269,397.26137],[6.14568,-0.63069],[-10.3289,1.05998]],[[836,399.28571],[10.39231,-0.04604],[-13.26066,-0.07159]],[[795.49269,401.26137],[13.2134,-1.28994],[-10.28741,1.00429]],[[764,401.28571],[10.34446,0],[-11.69524,0]],[[729,402.28571],[11.76828,0],[-35.33333,0]],[[623,402.28571],[35.33333,0],[-13.54935,0]],[[582.50731,401.26137],[13.41332,1.37651],[-2.63872,-0.27079]],[[571.41886,401.02912],[2.14427,0.76367],[-6.5118,-2.31914]],[[562.46447,392.82124],[3.90709,3.98947],[-2.3692,-2.41915]],[[553.6513,386.99869],[2.42464,2.11084],[-1.32096,-1.15]],[[550.46447,382.82124],[1.21301,1.26335],[-3.26328,-3.39872]],[[538,375.28571],[3.84943,2.84143],[-1.99121,0]],[[533,375.28571],[0.90921,0],[-13.33333,0]],[[493,375.28571],[13.33333,0],[-0.9184,0]],[[489.98044,375.16187],[1.08181,0.07205],[12.01624,9.33956]],[[526,403.28571],[-12.24062,-9.18046],[4.96417,3.72313]],[[541.44963,414.92688],[-5.4285,-2.98175],[4.69686,2.57987]],[[554.44963,422.92688],[-4.33423,-3.31847],[7.23667,2.99957]],[[577.49269,425.31004],[-7.6947,-0.75118],[26.66123,2.60276]],[[657,424.28571],[-26.60911,0],[16.52711,0]],[[707.50731,424.31004],[-16.42241,1.68531],[12.02568,-1.23411]],[[744,422.28571],[-12.12617,0],[0,0]],[749,422.28571],[[752.12993,423.28571],[-1.41995,-1],[25.62336,0]],[[829,423.28571],[-25.62336,0],[20.06823,0]],[[888.50731,420.31004],[-19.84137,1.93698],[5.06557,-0.49452]],[[903.01942,419.3828],[-5.03536,1.03477],[0,0]],[908,419.28571],[[909.95698,419.6752],[-1.04499,-0.38949],[2.45323,-1.78018]]],&quot;closed&quot;:true}]}" fill="#4e81cc" stroke-width="0.5"/><path d="M537.78803,145.55213l-0.01966,-0.00448c-13.58146,-0.09774 -27.16356,-0.24227 -40.74532,-0.27984c-9.06147,1.74456 -18.36403,-0.02304 -27.50643,0.8031c-8.21359,0.74221 -17.01902,0.91761 -25.25892,0.81381c-17.53104,-0.12617 -34.82238,0.73829 -52.40717,0.61173c-5.46144,-0.03931 -13.41086,-1.52805 -18.52511,0.58369c-3.16287,1.30599 -5.75421,3.9216 -8.74461,5.53626c-5.12478,2.7671 -9.83858,5.37696 -15.27872,7.55091c-0.1089,0.00234 -0.32155,0.02533 -0.44018,0.04117c-0.13081,-0.01517 -0.2105,-0.01576 -0.2105,-0.01576l-0.49999,-0.00364c-6.55452,-0.01814 -13.10743,0.24902 -19.66016,0.57387c3.87276,-2.63592 7.54809,-5.92847 11.2175,-8.6395c5.19991,-3.84178 10.79701,-8.85277 16.80595,-11.20633c2.09355,-1.52218 4.25226,-2.9261 6.37443,-4.38549c0.26993,-0.12657 0.43465,-0.24844 0.43465,-0.24844c3.86881,-2.91821 8.35037,-1.94296 13.0146,-1.90939c9.99974,0.07197 20.00212,0.13538 30.00187,0.20734c17.69941,0.12738 35.3703,-0.25277 53.09143,-0.12524c11.05415,0.07955 21.97473,-0.32803 33.00841,-0.24862c6.60032,0.0475 13.76745,0.88446 20.2501,-0.36361c8.23808,0.10376 16.47795,0.1331 24.71647,0.1923c3.50222,3.59249 6.42995,7.50638 9.40528,11.49482c-3.03379,-0.38554 -5.91609,-0.90465 -9.02392,-0.97865z" data-paper-data="{&quot;noHover&quot;:false,&quot;origItem&quot;:[&quot;Path&quot;,{&quot;applyMatrix&quot;:true,&quot;segments&quot;:[[[932.90093,266.12781],[-6.07297,-0.72738],[-6.00791,-7.93383]],[[913.92637,243.28571],[7.05595,7.13438],[-16.47746,0.00019]],[[864.49269,243.26137],[16.47721,0.08895],[-12.94701,2.5894]],[[824,244.28571],[13.20098,0],[-22.06793,0]],[[758,245.28571],[22.10889,0],[-35.44319,0]],[[652,246.28571],[35.39974,0],[-20,0]],[[592,246.28571],[20,0],[-9.3287,0]],[[566,250.28571],[7.69541,-5.89193],[0,0]],[[565.13436,250.78844],[0.53803,-0.25702],[-4.22323,2.94924]],[[552.44963,259.64453],[4.16508,-3.07442],[-11.9837,4.79348]],[[519,282.28571],[10.34426,-7.7582],[-7.29962,5.47472]],[[496.68924,299.71836],[7.70738,-5.32746],[13.10044,-0.74399]],[[536,298.28571],[-13.10896,0.05807],[0,0]],[537,298.28571],[[537.42122,298.31416],[-0.26184,-0.02845],[0.23703,-0.0334]],[[538.10322,298.25542],[-0.21776,0.00623],[10.84872,-4.42611]],[[568.55037,282.92688],[-10.20947,5.60782],[5.95741,-3.27226]],[[585.95915,271.72118],[-6.30679,2.65744],[10.19783,-4.29699]],[[623,270.28571],[-10.92316,0],[35.17049,0]],[[728,268.28571],[-35.06301,0],[16.48086,0.08897]],[[778.50731,266.31004],[-16.41607,1.6026],[18.27241,-1.78382]],[[833.50731,264.31004],[-18.09735,3.61947],[27.16336,-0.12034]],[[915,264.28571],[-27.16365,0],[0,0]],[[915.03938,264.29439],[0,0],[6.21659,0.10328]]],&quot;closed&quot;:true}]}" fill="#4e81cc" stroke-width="0.5"/><path d="M172.423,173.91738c-1.03616,1.17882 -0.64939,2.25214 -1.51811,4.39067c-0.36575,0.90037 -1.143,1.59255 -1.51795,2.48914c-0.63029,1.50717 -0.49253,3.24171 -0.97005,4.80402c-1.25728,4.11355 -1.52697,7.74742 -1.99507,12.01993c-0.36858,3.3641 -1.71975,6.62343 -2.07191,9.98535c-0.22196,2.11902 0.03253,3.85728 -0.95975,5.84533c2.47601,-0.54827 4.86129,-1.53364 7.4541,-1.99629c0.89456,-0.15963 2.3804,-0.07695 3.01361,-1.04761c2.11694,-3.2451 3.04144,-8.0133 4.17198,-11.66192c0.84645,-2.7318 2.54628,-4.82406 3.6666,-7.28186c1.3791,-3.02554 1.67092,-6.94512 3.07188,-9.97815c1.02257,-2.21383 3.34349,-4.49405 4.82877,-6.445c0.17168,-0.22143 0.32142,-0.46864 0.46862,-0.71886c-1.12623,-0.08611 -2.23874,-0.29448 -2.46138,-0.29551c-4.99989,-0.02318 -9.9998,-0.07197 -14.99961,-0.10795zM173.67134,168.92036c5.50271,-0.02082 11.28823,-0.47467 16.71515,0.13832c2.0806,0.23501 6.65891,1.29135 7.20554,3.71198c0.48824,2.16199 -2.6948,3.51991 -4.01665,5.29904c-1.23098,1.61692 -3.44135,3.63762 -4.25736,5.48992c-1.34624,3.0559 -1.69302,6.92026 -3.07188,9.97815c-1.04744,2.32289 -2.65032,4.10388 -3.43397,6.66741c-1.19916,3.92276 -2.35017,10.01276 -5.0077,13.27265c-2.72523,3.34293 -7.07189,2.77552 -10.79954,3.79802c-1.09189,0.29951 -2.0982,1.23214 -3.22023,1.0805c-1.6612,-0.2245 -3.03663,-1.42085 -4.55495,-2.13127c-0.63144,-6.75856 1.52611,-12.50739 2.22008,-19.13243c0.4793,-4.57566 0.81267,-8.52871 2.18474,-12.95064c1.40302,-4.52169 2.10537,-9.59523 5.03176,-13.27117c0.21889,-1.29639 1.21355,-1.73662 1.8732,-1.88607c0.03353,-0.02692 0.06728,-0.05371 0.10124,-0.08037c0,0 1.62346,-1.19943 3.0306,0.01594z" fill="#000000" stroke-width="0.5"/><path d="M172.59453,173.86973c4.99981,0.03598 10.03405,0.08993 15.03394,0.11311c0.22263,0.00102 1.3393,0.21196 2.46552,0.29807c-0.1472,0.25022 -0.35359,0.57985 -0.52526,0.80129c-1.48527,1.95095 -3.75044,4.14815 -4.77301,6.36199c-1.40096,3.03303 -1.67478,6.97353 -3.05388,9.99908c-1.12032,2.45779 -2.85297,4.61933 -3.69943,7.35112c-1.13053,3.64863 -2.07612,8.41771 -4.19306,11.66282c-0.63321,0.97066 -2.12632,0.88615 -3.02089,1.04578c-2.59282,0.46265 -4.99035,1.44199 -7.46637,1.99025c0.99229,-1.98804 0.7325,-3.73041 0.95448,-5.84944c0.35216,-3.36191 1.68985,-6.64094 2.05843,-10.00504c0.4681,-4.27251 0.74888,-7.95896 2.00616,-12.07251c0.47751,-1.56232 0.35081,-3.30535 0.9811,-4.81253c0.37495,-0.89659 1.1592,-1.59205 1.52495,-2.49242c0.86872,-2.13853 0.489,-3.21394 1.52515,-4.39276z" data-paper-data="{&quot;noHover&quot;:false,&quot;origItem&quot;:[&quot;Path&quot;,{&quot;applyMatrix&quot;:true,&quot;segments&quot;:[[[344.63659,326.28572],[0,0],[-2.0553,2.37248]],[[341.66363,335.0887],[1.70662,-4.28946],[-0.71852,1.80596]],[[338.66363,340.0887],[0.73698,-1.79852],[-1.23886,3.02334]],[[336.79273,349.71046],[0.93252,-3.13142],[-2.45528,8.24498]],[[332.97569,373.7784],[0.87468,-8.55152],[-0.68872,6.73334]],[[328.97569,393.7784],[0.65592,-6.72872],[-0.41342,4.24112]],[[327.14037,405.48256],[1.9559,-3.99026],[4.944,-1.13214]],[[342.01945,401.3828],[-5.17884,0.96258],[1.78678,-0.33212]],[[348.03143,399.24426],[-1.2524,1.95038],[4.18706,-6.5205]],[[356.20731,375.86096],[-2.2085,7.31334],[1.65354,-5.47564]],[[363.43551,361.24486],[-2.2052,4.93158],[2.71458,-6.07078]],[[369.43551,341.24486],[-2.7582,6.08606],[2.01322,-4.44226]],[[379.00003,328.2857],[-2.94238,3.92318],[0.34016,-0.44532]],[[379.92691,326.84128],[-0.2908,0.50254],[-2.25364,-0.156]],[[375.00003,326.2857],[0.44526,-0.00116],[-9.99986,0.0256]],[[345.00003,326.2857],[9.99988,0],[0,0]]],&quot;closed&quot;:true,&quot;fillColor&quot;:[0,0,0,1],&quot;strokeWidth&quot;:0.5}]}" fill="#ff6666" stroke-width="0.25"/><path d="M189.60449,207.7584c3.50015,-0.52734 7.15045,-0.39126 10.77498,-1.09045c1.45278,-0.28026 2.84571,-0.81177 4.27419,-1.19724c0.26315,-0.07101 0.79496,0.28191 0.81762,0.01029c0.02712,-0.32489 -0.55157,-0.36186 -0.76792,-0.60573c-0.30789,-0.34704 -2.92338,-3.93416 -2.97114,-4.02148c-2.17839,-3.98319 -3.48183,-8.81446 -5.12317,-13.04965c-0.03028,-0.17954 -0.08231,-0.39667 -0.13898,-0.62919c-0.05357,0.12612 -0.10241,0.24247 -0.14142,0.34327c-0.57312,1.48062 -1.07997,2.99728 -1.40253,4.55184c-1.15283,5.55592 -2.64752,10.84775 -5.32162,15.68832zM181.91698,210.90002c0.08354,-0.32168 0.18959,-0.53004 0.18959,-0.53004l0.746,-1.37664c3.74234,-4.91566 4.91328,-9.85282 6.71655,-15.66444c0.96525,-3.11084 0.97796,-8.36362 3.48976,-10.78351c4.93392,-4.75339 7.33747,-0.94086 8.35304,3.86856c1.54288,3.89041 2.69722,8.35463 4.69666,12.02166c1.36163,2.49727 5.10063,4.99437 4.16718,8.43003c-0.57954,2.133 -4.38414,3.62229 -6.22499,4.17666c-5.82554,1.75434 -13.78799,-0.43738 -18.73782,3.4689c0,0 -2.01074,1.48557 -3.49631,-0.52517c-1.01873,-1.37888 -0.39331,-2.51078 0.10037,-3.08601z" fill="#000000" stroke-width="0.5"/><path d="M189.57375,207.79784c2.6741,-4.84057 4.17742,-10.21667 5.33025,-15.77258c0.32256,-1.55456 0.8452,-3.07599 1.41831,-4.5566c0.03901,-0.1008 0.08874,-0.21726 0.14231,-0.34338c0.05666,0.23251 0.10905,0.4496 0.13934,0.62915c1.64134,4.23519 2.98868,9.14773 5.16708,13.13091c0.04776,0.08733 2.65911,3.67895 2.96701,4.02599c0.21636,0.24387 0.79546,0.28042 0.76834,0.60531c-0.02267,0.27161 -0.55644,-0.07946 -0.81959,-0.00845c-1.42848,0.38546 -2.84006,0.92738 -4.29284,1.20764c-3.62453,0.69919 -7.32005,0.55468 -10.82021,1.08202z" data-paper-data="{&quot;noHover&quot;:false,&quot;origItem&quot;:[&quot;Path&quot;,{&quot;applyMatrix&quot;:true,&quot;segments&quot;:[[[379.48575,393.71872],[0,0],[6.99254,-1.10504]],[[401.01945,391.3828],[-7.2388,1.45052],[2.90146,-0.5814]],[[409.55039,388.92688],[-2.85134,0.79146],[0.52526,-0.1458]],[[411.18573,388.9357],[-0.04142,0.54354],[0.04956,-0.65016]],[[409.64121,387.73532],[0.43622,0.48462],[-0.62076,-0.68962]],[[403.64121,379.73532],[0.09678,0.17396],[-4.414,-7.93482]],[[393.20731,353.71044],[3.34354,8.44652],[-0.06314,-0.35864]],[[392.92031,352.4541],[0.11666,0.4642],[-0.10532,0.253]],[[392.64241,353.14266],[0.07658,-0.20216],[-1.1249,2.9694]],[[389.90293,362.2663],[0.62274,-3.11368],[-2.22562,11.12814]],[[379.48577,393.71872],[5.2784,-9.71938],[0,0]]],&quot;closed&quot;:true,&quot;fillColor&quot;:[0,0,0,1],&quot;strokeWidth&quot;:0.5}]}" fill="#ffb866" stroke-width="0.25"/><path d="M211.65507,177.52212c0.52371,0.63012 1.01468,1.28682 1.43714,2.00039c0.0654,0.11046 1.02785,3.19049 2.1391,3.45811c3.12606,0.75283 8.11654,0.04732 11.26267,-0.5063c6.90023,-1.21423 13.97386,-2.40948 20.96845,-2.39012c6.66601,0.04797 13.65853,0.72241 20.29321,0.15456c12.48498,-1.06856 24.9586,-2.82046 37.52062,-2.73005c6.78806,-1.0812 13.83165,-0.90901 20.71292,-0.85948c2.6588,0.01913 6.44275,-0.51994 8.82633,0.94854c0.51916,0.31984 2.82138,2.92357 4.14395,5.04871c0.02231,-0.38658 0.04308,-0.773 0.00739,-1.15737c-0.23022,-2.47963 -0.98586,-5.0633 -1.44598,-7.5106c0.08782,-0.54216 0.34713,-1.08365 0.26347,-1.62646c-0.11509,-0.74685 -1.50756,-0.15191 -2.26302,-0.13433c-2.38597,0.05554 -4.87888,-0.28482 -7.25338,-0.06436c-3.36668,0.31257 -6.64438,1.60778 -10.01413,1.92798c-3.31531,0.31501 -6.69042,0.11212 -10.00333,0.42803c-6.15196,0.58662 -12.0251,1.42565 -18.25675,1.38081c-10.1664,-0.07317 -20.33281,-0.14633 -30.49921,-0.21949c-4.70549,-0.03386 -9.60676,-0.47499 -14.29337,-0.11138c-3.59832,0.27919 -7.09353,0.94145 -10.71318,0.93143c-7.16468,-0.09024 -15.39624,1.81199 -22.83288,1.0314zM203.46138,174.73186c-0.45009,-0.37653 -1.68218,-1.63506 -0.51757,-3.35503c1.40169,-2.07009 3.47178,-0.66841 3.47178,-0.66841l1.03625,0.76641c4.28674,1.85307 9.78992,0.84601 14.32241,0.43644c4.1091,-0.37132 8.64349,-0.43179 12.7497,-0.42043c3.4646,0.04365 6.85118,-0.65972 10.30067,-0.91738c4.83131,-0.36088 9.85752,0.06242 14.70588,0.09731c10.1664,0.07317 20.33281,0.14633 30.49921,0.21949c9.23504,0.06646 18.59588,-0.96061 27.76723,-1.78805c4.3399,-0.39154 8.35273,-1.94189 12.7605,-1.92039c3.94381,0.01924 9.25588,-1.17485 11.71503,2.96635c0.57544,0.96905 0.15166,2.24894 0.22748,3.37341c0.67334,3.40054 1.60156,6.7683 1.4384,10.25696c-0.14101,3.01528 0.30458,6.55666 -4.90002,6.43978c-3.1657,-0.07109 -4.75283,-6.92888 -6.91904,-8.40987c-1.12081,-0.76628 -4.92035,-0.15043 -6.16608,-0.1594c-6.75142,-0.04859 -13.64022,-0.21541 -20.30041,0.84542c-12.57158,-0.09048 -25.02459,1.70703 -37.52062,2.73005c-6.78569,0.55553 -13.8922,-0.09147 -20.70573,-0.14051c-8.58754,-0.10818 -16.97251,2.85811 -25.52093,2.81641c-2.22137,-0.01083 -6.25492,0.58883 -8.28943,-0.18795c-3.4694,-1.32462 -3.13749,-2.77369 -4.79593,-5.59204c-1.27288,-2.16312 -3.33207,-3.82982 -4.83141,-5.84925c0,0 -0.50165,-0.679 -0.52736,-1.53937z" fill="#000000" stroke-width="0.5"/><path d="M234.43797,176.48933c3.61965,0.01002 7.11497,-0.6543 10.71328,-0.93347c4.68662,-0.36361 9.58814,0.07483 14.29363,0.10869c10.1664,0.07317 20.43209,0.14658 30.59848,0.21974c6.23165,0.04485 12.10493,-0.79304 18.25688,-1.37966c3.31292,-0.31591 6.58841,-0.10418 9.90372,-0.4192c3.36975,-0.3202 6.64755,-1.61438 10.01423,-1.92695c2.3745,-0.22046 4.96693,0.11029 7.35291,0.05475c0.75546,-0.01758 2.14794,-0.61225 2.26305,0.13459c0.08366,0.54281 -0.17557,1.08558 -0.26339,1.62774c0.46013,2.44731 1.21577,5.03692 1.44599,7.51656c0.03568,0.38438 -0.08483,0.76381 -0.10714,1.15041c-1.32257,-2.12514 -3.62496,-4.72491 -4.14411,-5.04475c-2.38358,-1.46847 -6.16752,-0.92845 -8.82632,-0.94758c-6.88127,-0.04952 -13.82488,-0.22288 -20.61293,0.85832c-12.56202,-0.09041 -25.13291,1.67799 -37.61789,2.74654c-6.63468,0.56785 -13.62973,-0.11849 -20.29574,-0.16646c-6.99458,-0.01936 -13.96866,1.16657 -20.86889,2.38079c-3.14613,0.55362 -8.23615,1.26851 -11.36222,0.51567c-1.11125,-0.26761 -2.07389,-3.35055 -2.13929,-3.46102c-0.42246,-0.71357 -0.91346,-1.37187 -1.43716,-2.00198c7.43664,0.7806 15.66821,-1.12294 22.8329,-1.0327z" data-paper-data="{&quot;noHover&quot;:false,&quot;origItem&quot;:[&quot;Path&quot;,{&quot;applyMatrix&quot;:true,&quot;segments&quot;:[[[423.15057,332.93033],[14.88415,1.45411],[1.05646,1.25266]],[[426.05358,336.91031],[-0.85516,-1.42101],[0.13238,0.21998]],[[430.38146,343.79555],[-2.22629,-0.51923],[6.2628,1.46065]],[[452.89892,342.62089],[-6.28412,1.15249],[13.78262,-2.52769]],[[494.80032,337.53896],[-13.98908,0.06197],[13.33237,0]],[[535.38792,337.556],[-13.26084,1.23115],[24.95393,-2.31675]],[[610.38792,331.556],[-25.1247,0],[13.56022,-2.26004]],[[651.80032,329.53896],[-13.7629,0],[5.31774,0]],[[669.46618,331.30893],[-4.78817,-2.90256],[1.04288,0.63219]],[[677.82653,341.34645],[-2.67566,-4.23114],[0.03906,-0.77349]],[[677.82466,339.03165],[0.0769,0.76822],[-0.49611,-4.95583]],[[674.82466,324.03165],[0.95547,4.88786],[0.16784,-1.08554]],[[675.32819,320.77503],[0.17512,1.08439],[-0.24095,-1.49201]],[[670.80032,320.53896],[1.51064,-0.04604],[-4.77103,0.14541]],[[656.29301,320.51463],[4.74571,-0.47508],[-6.72868,0.67358]],[[636.29301,324.51463],[6.73472,-0.68887],[-6.62592,0.67774]],[[616.29301,325.51463],[6.62111,-0.67948],[-12.29515,1.26176]],[[579.80032,328.53896],[12.46363,0],[-20.33333,0]],[[518.80032,328.53896],[20.33333,0],[-9.41122,0]],[[490.21272,328.52193],[9.36775,-0.79466],[-7.19242,0.61013]],[[468.80032,330.53896],[7.23927,-0.03207],[-14.33029,-0.07736]]],&quot;closed&quot;:true}]}" fill="#ff8800" stroke-width="0.5"/></g></g></svg>