<svg version="1.1" xmlns="http://www.w3.org/2000/svg" xmlns:xlink="http://www.w3.org/1999/xlink" width="78.5" height="44" viewBox="0,0,78.5,44"><g transform="translate(-280.75,-158)"><g data-paper-data="{&quot;isPaintingLayer&quot;:true}" fill-rule="nonzero" stroke-linecap="butt" stroke-linejoin="miter" stroke-miterlimit="10" stroke-dasharray="" stroke-dashoffset="0" style="mix-blend-mode: normal"><path d="M282,200.75v-41.5h76v41.5z" fill="#4aff4f" stroke="#000000" stroke-width="2.5"/><path d="M284.65918,193.11114c-0.87781,-2.34082 1.46301,-3.21863 1.46301,-3.21863l2.282,-0.85246c0.55682,-1.05693 1.85147,-1.2727 1.85147,-1.2727l1.18058,-0.19447c0.21367,-0.0771 0.56361,-0.17679 0.96615,-0.18751c4.0793,-1.89382 8.49463,-2.88234 12.72097,-4.4933c5.31321,-2.02524 10.69558,-3.93064 15.97263,-5.98957c7.6027,-2.96632 14.84504,-6.93276 22.11931,-10.5719c2.71193,-1.25924 4.61325,-2.90426 7.83812,-0.84406c3.38441,2.16212 3.57795,8.23214 1.17819,11.04028c-2.88272,3.3733 -8.56018,3.86482 -12.48833,5.09346c-4.85495,1.51852 -10.01649,3.44489 -15.10449,4.09432c-6.18781,0.7898 -12.67845,1.92564 -18.68501,3.94052c-4.03402,0.73975 -8.02506,1.63494 -12.02676,2.52564c-0.34417,0.17659 -0.68436,0.36171 -1.02001,0.55652c0,0 -0.61046,0.34883 -1.36889,0.35278c-0.29072,0.14496 -0.58144,0.28992 -0.87216,0.43488l-2.78815,1.04923c0,0 -2.34082,0.87781 -3.21863,-1.46301z" fill="#4a58ff" stroke="none" stroke-width="0.5"/><path d="M301.90181,178.81446c-0.58112,-2.43152 1.8504,-3.01264 1.8504,-3.01264l2.48422,-0.59227c8.9962,-2.80327 18.98604,-5.76622 27.18989,-10.48015c0,0 2.17061,-1.24035 3.41096,0.93026c1.24035,2.17061 -0.93026,3.41096 -0.93026,3.41096c-8.60562,4.89356 -18.93126,8.0323 -28.34564,10.96019l-2.64692,0.63405c0,0 -2.43152,0.58112 -3.01264,-1.8504z" fill="#4a58ff" stroke="none" stroke-width="0.5"/><path d="M310.26286,193.25347c-0.6868,-2.40381 1.71701,-3.09061 1.71701,-3.09061l2.36816,-0.67635c9.92591,-2.67103 20.83085,-2.04939 30.39017,-5.9077c0,0 2.32119,-0.92848 3.24967,1.39272c0.92848,2.32119 -1.39272,3.24967 -1.39272,3.24967c-9.8287,3.90025 -20.78934,3.33805 -30.94317,6.0923l-2.29851,0.65699c0,0 -2.40381,0.6868 -3.09061,-1.71701z" fill="#4a58ff" stroke="none" stroke-width="0.5"/></g></g></svg>