<svg version="1.1" xmlns="http://www.w3.org/2000/svg" xmlns:xlink="http://www.w3.org/1999/xlink" width="93.66666" height="93.66666" viewBox="0,0,93.66666,93.66666"><g transform="translate(-273.16667,-133.16667)"><g data-paper-data="{&quot;isPaintingLayer&quot;:true}" fill-rule="nonzero" stroke="none" stroke-linecap="butt" stroke-linejoin="miter" stroke-miterlimit="10" stroke-dasharray="" stroke-dashoffset="0" style="mix-blend-mode: normal"><path d="M273.16667,180.00001c0,-25.86534 20.968,-46.83333 46.83333,-46.83333c25.86534,0 46.83333,20.968 46.83333,46.83333c0,25.86534 -20.968,46.83333 -46.83333,46.83333c-25.86534,0 -46.83333,-20.968 -46.83333,-46.83333z" fill-opacity="0.48235" fill="#bfbfbf" stroke-width="0"/><path d="M312.31343,182.97116c0.26822,0.29934 1.54636,1.89238 -0.04668,3.48543c-1.76776,1.76776 -3.53554,0 -3.53554,0l-0.80467,-1.04033c-1.43933,-3.243 -2.49043,-6.47742 -3.32659,-9.77054c-1.90459,-0.03528 -3.81666,-0.10417 -5.73005,-0.1989c0.16713,1.91687 0.36465,3.84251 0.58203,5.79892l0.01529,1.1398c0,0 0,2.5 -2.5,2.5c-2.5,0 -2.5,-2.5 -2.5,-2.5l0.01529,-0.58765c-0.24939,-2.24451 -0.47295,-4.45348 -0.65604,-6.65549c-2.59209,-0.18203 -5.17664,-0.3991 -7.73826,-0.63188c0,0 -2.48973,-0.22634 -2.26339,-2.71607c0.22634,-2.48973 2.71607,-2.2634 2.71607,-2.2634c2.29926,0.20911 4.61794,0.40677 6.94404,0.577c-0.10856,-2.12339 -0.16935,-4.26048 -0.16935,-6.43665c0,0 0.00001,-0.65201 0.33298,-1.29008c-1.21911,0.10351 -2.43696,0.21437 -3.65274,0.32489c0,0 -2.48974,0.22634 -2.71608,-2.2634c-0.22634,-2.48973 2.2634,-2.71607 2.2634,-2.71607c4.86102,-0.44191 9.74459,-0.86716 14.62183,-0.874h0.57582c0,0 2.5,0 2.5,2.5c0,2.5 -2.5,2.5 -2.5,2.5h-0.57582c-2.12361,-0.00331 -4.25038,0.08238 -6.37606,0.2166c0.52667,0.71692 0.52667,1.60205 0.52667,1.60205c0,2.28875 0.06973,4.52905 0.19275,6.75529c1.65904,0.08722 3.31746,0.15472 4.97093,0.19672c-0.32999,-1.67486 -0.62841,-3.37259 -0.91656,-5.10146c0,0 -0.411,-2.46599 2.05498,-2.87698c2.46598,-0.411 2.87698,2.05499 2.87698,2.05499c0.3391,2.0346 0.68854,4.02149 1.09076,5.97696c0.46898,0.03244 2.39817,0.29939 2.39817,2.49551c0,1.27864 -0.65396,1.90331 -1.29295,2.20849c0.68646,2.54948 1.52736,5.06674 2.62277,7.59024z" fill="#9966ff" stroke-width="0.5"/><path d="M329.46071,171.77319l-1.72746,-1.72746c-3.53329,-3.54234 -6.39361,-6.78762 -7.05096,-11.85644c0,0 -0.27608,-2.48471 2.20863,-2.76079c2.48471,-0.27608 2.76079,2.20863 2.76079,2.20863c0.31432,3.78091 3.01408,6.2774 5.61707,8.87307l0.57883,0.57883c0.40033,-3.54675 0.775,-7.10521 1.54695,-10.58187c0,0 0.54233,-2.44046 2.9828,-1.89814c2.44047,0.54233 1.89814,2.98279 1.89814,2.98279c-0.92055,4.13896 -1.29173,8.37648 -1.79987,12.5795c1.29123,-0.46588 2.44521,0.54386 2.44521,0.54386c6.0365,5.28663 12.18436,9.50614 19.54194,12.84938l-0.45869,-0.22409c0,0 2.5,0 2.5,2.5c0,2.5 -2.5,2.5 -2.5,2.5l-1.61033,-0.22409c-7.71272,-3.50691 -14.20643,-7.93287 -20.54828,-13.44896c-0.27305,1.63655 -0.6053,3.26039 -1.0385,4.86344l-0.56223,2.53329c0,0 -0.54232,2.44046 -2.98279,1.89814c-2.44047,-0.54233 -1.89814,-2.98279 -1.89814,-2.98279l0.58941,-2.64909c0.52235,-1.89631 0.89705,-3.82714 1.19656,-5.77646c-0.97467,-0.06633 -1.68909,-0.78075 -1.68909,-0.78075z" fill="#9966ff" stroke-width="0.5"/><path d="M342.1043,167.43214c-2.32119,-0.92848 -1.39272,-3.24967 -1.39272,-3.24967l0.50245,-1.22944c0.57582,-1.9194 1.15164,-3.8388 1.72746,-5.7582c0,0 0.71837,-2.39457 3.11294,-1.6762c2.39457,0.71837 1.6762,3.11294 1.6762,3.11294c-0.57582,1.9194 -1.15164,3.8388 -1.72746,5.7582l-0.64919,1.64966c0,0 -0.92848,2.32119 -3.24967,1.39272z" fill="#9966ff" stroke-width="0.5"/></g></g></svg>