<svg version="1.1" xmlns="http://www.w3.org/2000/svg" xmlns:xlink="http://www.w3.org/1999/xlink" width="204.03381" height="58.50886" viewBox="0,0,204.03381,58.50886"><g transform="translate(-217.9831,-148.74114)"><g data-paper-data="{&quot;isPaintingLayer&quot;:true}" fill-rule="nonzero" stroke-linecap="butt" stroke-linejoin="miter" stroke-miterlimit="10" stroke-dasharray="" stroke-dashoffset="0" style="mix-blend-mode: normal"><path d="M219.23311,206v-52h201.53381v52z" fill="#d9b48a" stroke="#000000" stroke-width="2.5"/><text transform="translate(260.18805,191.96239) scale(0.99687,0.99687)" font-size="40" xml:space="preserve" fill="#000000" fill-rule="nonzero" stroke="none" stroke-width="1" stroke-linecap="butt" stroke-linejoin="miter" stroke-miterlimit="10" stroke-dasharray="" stroke-dashoffset="0" font-family="Sans Serif" font-weight="normal" text-anchor="start" style="mix-blend-mode: normal"><tspan x="0" dy="0">油饼王</tspan></text><path d="M390.46467,180.76567c0.45582,-0.91164 1.36746,-0.45582 1.36746,-0.45582l0.06512,0.03608c0.10949,-0.06363 0.19273,-0.09138 0.19273,-0.09138c2.06883,-0.68809 4.04646,-1.01799 6.16855,-1.4144c0.51826,-0.09681 1.01994,-0.27051 1.52523,-0.42587c0.03539,-2.17461 -0.26989,-4.41219 -0.27554,-6.51661v-1.03598c0,-0.56291 0.45633,-1.01924 1.01924,-1.01924c0.51159,0 0.93515,0.37692 1.00813,0.86821l0.16991,1.01945l-0.09905,0.01651c0.99495,1.83869 1.74391,3.79747 2.56338,5.72529c1.20095,-0.43333 2.38507,-0.94364 3.58248,-1.34368l1.15876,-0.49661c0.12864,-0.05863 0.27161,-0.09129 0.42221,-0.09129c0.56291,0 1.01924,0.45633 1.01924,1.01924c0,0.10538 -0.01599,0.20703 -0.04568,0.30264l-0.33886,1.18601l-0.03798,-0.01085c-0.01744,0.08325 -0.03842,0.16587 -0.06359,0.24773c-0.12867,0.41849 -0.658,0.58788 -0.91492,0.94239c-0.23409,0.32302 -0.28591,0.76096 -0.54147,1.06727c-0.36635,0.43909 -0.8878,0.72423 -1.2913,1.12944c-0.20944,0.21033 -0.41237,0.42871 -0.6115,0.65177c0.17248,0.2665 0.35242,0.52951 0.54087,0.78852c0.53576,0.73633 2.52097,2.9734 2.00951,3.9473c-0.36337,0.6919 -1.36977,0.83154 -2.1416,0.95416c-0.50057,0.07953 -0.98112,-0.25493 -1.47228,-0.38001c-1.20757,-0.30753 -2.37757,-0.71941 -3.54804,-1.13201c-0.82561,0.5587 -1.56264,1.3036 -2.37342,1.89696l-0.26504,0.79513c-0.12809,0.41649 -0.51588,0.71923 -0.97437,0.71923c-0.56291,0 -1.01924,-0.45633 -1.01924,-1.01924c0,-0.10538 0.01599,-0.20703 0.04568,-0.30264l0.33886,-1.18601c0.00202,-0.31413 0.42461,-1.44829 0.68842,-2.13989c-2.29662,-0.97039 -4.55556,-1.86249 -6.93724,-2.65638l-0.47883,-0.22796c0,0 -0.91164,-0.45582 -0.45582,-1.36746z" fill="#f8ff66" stroke="none" stroke-width="0.5"/><path d="M230.60138,180.76567c0.45582,-0.91164 1.36746,-0.45582 1.36746,-0.45582l0.06512,0.03608c0.10949,-0.06363 0.19273,-0.09138 0.19273,-0.09138c2.06883,-0.68809 4.04646,-1.01799 6.16855,-1.4144c0.51826,-0.09681 1.01994,-0.27051 1.52523,-0.42587c0.03539,-2.17461 -0.26989,-4.41219 -0.27554,-6.51661v-1.03598c0,-0.56291 0.45633,-1.01924 1.01924,-1.01924c0.51159,0 0.93515,0.37692 1.00813,0.86821l0.16991,1.01945l-0.09905,0.01651c0.99495,1.83869 1.74391,3.79747 2.56338,5.72529c1.20095,-0.43333 2.38507,-0.94364 3.58248,-1.34368l1.15876,-0.49661c0.12864,-0.05863 0.27161,-0.09129 0.42221,-0.09129c0.56291,0 1.01924,0.45633 1.01924,1.01924c0,0.10538 -0.01599,0.20703 -0.04568,0.30264l-0.33886,1.18601l-0.03798,-0.01085c-0.01744,0.08325 -0.03842,0.16587 -0.06359,0.24773c-0.12867,0.41849 -0.658,0.58788 -0.91492,0.94239c-0.23409,0.32302 -0.28591,0.76096 -0.54147,1.06727c-0.36635,0.43909 -0.8878,0.72423 -1.2913,1.12944c-0.20944,0.21033 -0.41237,0.42871 -0.6115,0.65177c0.17248,0.2665 0.35242,0.52951 0.54087,0.78852c0.53576,0.73633 2.52097,2.9734 2.00951,3.9473c-0.36337,0.6919 -1.36977,0.83154 -2.1416,0.95416c-0.50057,0.07953 -0.98112,-0.25493 -1.47228,-0.38001c-1.20757,-0.30753 -2.37757,-0.71941 -3.54804,-1.13201c-0.82561,0.5587 -1.56264,1.3036 -2.37342,1.89696l-0.26504,0.79513c-0.12809,0.41649 -0.51588,0.71923 -0.97437,0.71923c-0.56291,0 -1.01924,-0.45633 -1.01924,-1.01924c0,-0.10538 0.01599,-0.20703 0.04568,-0.30264l0.33886,-1.18601c0.00202,-0.31413 0.42461,-1.44829 0.68842,-2.13989c-2.29662,-0.97039 -4.55556,-1.86249 -6.93724,-2.65638l-0.47883,-0.22796c0,0 -0.91164,-0.45582 -0.45582,-1.36746z" fill="#f8ff66" stroke="none" stroke-width="0.5"/></g></g></svg>