<svg version="1.1" xmlns="http://www.w3.org/2000/svg" xmlns:xlink="http://www.w3.org/1999/xlink" width="66.74639" height="69.77903" viewBox="0,0,66.74639,69.77903"><g transform="translate(-287.69727,-144.00906)"><g data-paper-data="{&quot;isPaintingLayer&quot;:true}" fill="#000000" fill-rule="nonzero" stroke="none" stroke-width="0.5" stroke-linecap="butt" stroke-linejoin="miter" stroke-miterlimit="10" stroke-dasharray="" stroke-dashoffset="0" style="mix-blend-mode: normal"><path d="M317.80035,151.70072c-1.18585,-0.39528 -0.79057,-1.58114 -0.79057,-1.58114l0.18584,-0.35467c0,-1.61874 0.00447,-3.10423 0.26699,-4.70525c0,0 0.2055,-1.23299 1.43849,-1.02749c1.23299,0.2055 1.02749,1.43849 1.02749,1.43849c-0.2483,1.4627 -0.23298,2.81243 -0.23298,4.29425l-0.31413,1.14524c0,0 -0.39528,1.18585 -1.58114,0.79057z"/><path d="M342.88766,151.72466c1.04006,0.69338 0.34669,1.73344 0.34669,1.73344l-0.65615,0.94047c-1.49537,1.45022 -3.26698,1.79846 -4.85275,3.09203c0,0 -0.97609,0.78087 -1.75695,-0.19522c-0.78087,-0.97609 0.19522,-1.75695 0.19522,-1.75695c1.50698,-1.18699 3.35176,-1.55454 4.64672,-2.90763l0.34379,-0.55945c0,0 0.69338,-1.04006 1.73344,-0.34669z"/><path d="M354.44367,174.7635c0,1.25 -1.25,1.25 -1.25,1.25l-0.29447,-0.01701c-1.6975,0.28292 -3.22808,0.51301 -4.95523,0.51698c0,0 -1.25,0 -1.25,-1.25c0,-1.25 1.25,-1.25 1.25,-1.25c1.59015,0.00411 2.97999,-0.22226 4.54423,-0.48296l0.70547,-0.01701c0,0 1.25,0 1.25,1.25z"/><path d="M347.98408,202.20537c-0.69338,1.04006 -1.73344,0.34669 -1.73344,0.34669l-0.94047,-0.65615c-1.06455,-1.08048 -2.06318,-1.5858 -3.42492,-2.26571c0,0 -1.11803,-0.55902 -0.55902,-1.67705c0.55902,-1.11803 1.67705,-0.55902 1.67705,-0.55902c1.58978,0.79595 2.80782,1.48223 4.07466,2.73401l0.55945,0.34379c0,0 1.04006,0.69338 0.34669,1.73344z"/><path d="M318.06171,213.39526c-0.81411,-0.81411 -0.12853,-1.62823 -0.01522,-1.75168c0.35744,-1.72655 0.64905,-3.01878 0.64905,-4.88188c0,0 0,-1.25 1.25,-1.25c1.25,0 1.25,1.25 1.25,1.25c0,2.12726 -0.37619,3.70687 -0.77423,5.74484l-0.59183,0.88872c0,0 -0.88388,0.88388 -1.76777,0z"/><path d="M292.329,201.82102c-0.55902,-1.11803 0.55902,-1.67705 0.55902,-1.67705l0.27812,-0.10804c1.49548,-1.19333 2.7948,-2.55562 4.14675,-3.90757c0,0 0.88388,-0.88388 1.76777,0c0.88388,0.88388 0,1.76777 0,1.76777c-1.41819,1.41819 -2.78664,2.83613 -4.35278,4.09198l-0.72182,0.39193c0,0 -1.11803,0.55902 -1.67705,-0.55902z"/><path d="M287.69728,178.01332c0,-1.25 1.25,-1.25 1.25,-1.25l1.2142,0.0894c0.54467,0.25165 1.20969,0.33548 1.79048,0.18486c0,0 1.22573,-0.24515 1.47087,0.98058c0.24515,1.22573 -0.98058,1.47087 -0.98058,1.47087c-1.06018,0.17722 -2.19955,0.05354 -3.20924,-0.31512l-0.28572,0.0894c0,0 -1.25,0 -1.25,-1.25z"/><path d="M301.44664,159.5144c-0.75,1 -1.75,0.25 -1.75,0.25l-1.03081,-0.77387c-1.44532,-1.15626 -2.56197,-1.99396 -3.54081,-3.58278c0,0 -0.64312,-1.07187 0.42875,-1.71499c1.07187,-0.64312 1.71499,0.42875 1.71499,0.42875c0.77193,1.3343 1.75651,1.955 2.95882,2.91685l0.96907,0.72604c0,0 1,0.75 0.25,1.75z"/><path d="M309.9461,156.01462c-1.25,0 -1.25,-1.25 -1.25,-1.25l0.0894,0.21425c-0.87707,-2.19266 -2.32773,-4.17958 -2.81498,-6.46874c0,0 -0.24515,-1.22573 0.98058,-1.47087c1.22573,-0.24515 1.47087,0.98058 1.47087,0.98058c0.37728,2.07196 1.88635,4.03464 2.68472,6.03055l0.0894,0.71422c0,0 0,1.25 -1.25,1.25z"/><path d="M333.07873,149.88097c0.88388,0.88388 0,1.76777 0,1.76777l-0.353,0.34219c-0.83329,0.66663 -1.66657,1.33326 -2.49986,1.99989c0,0 -0.97609,0.78087 -1.75695,-0.19522c-0.78087,-0.97609 0.19522,-1.75695 0.19522,-1.75695c0.83329,-0.66663 1.66657,-1.33326 2.49986,-1.99989l0.14697,-0.15778c0,0 0.88388,-0.88388 1.76777,0z"/><path d="M349.44395,165.51402c0,1.25 -1.25,1.25 -1.25,1.25l0.21425,-0.0894c-1.28959,0.51105 -2.3822,1.19793 -3.57091,1.91116c0,0 -1.07187,0.64312 -1.71499,-0.42875c-0.64312,-1.07187 0.42875,-1.71499 0.42875,-1.71499c1.30341,-0.78205 2.51671,-1.5193 3.92867,-2.08862l0.71422,-0.0894c0,0 1.25,0 1.25,1.25z"/><path d="M351.44382,191.5126c-0.75,1 -1.75,0.25 -1.75,0.25l-0.89306,-0.67809c-0.89884,-0.54644 -1.74239,-1.19853 -2.49064,-1.93788c0,0 -0.88388,-0.88388 0,-1.76777c0.88388,-0.88388 1.76777,0 1.76777,0c0.59535,0.60426 1.27861,1.13072 2.00911,1.56192l1.10682,0.82182c0,0 1,0.75 0.25,1.75z"/><path d="M334.0038,209.12966c-1.11803,0.55902 -1.67705,-0.55902 -1.67705,-0.55902l-0.4538,-0.91584c-0.24999,-0.41664 -0.49997,-0.83329 -0.74996,-1.24993c0,0 -0.64312,-1.07187 0.42875,-1.71499c1.07187,-0.64312 1.71499,0.42875 1.71499,0.42875c0.24999,0.41664 0.49997,0.83329 0.74996,1.24993l0.54614,1.08405c0,0 0.55902,1.11803 -0.55902,1.67705z"/><path d="M304.80108,207.69756c-1.18585,-0.39528 -0.79057,-1.58114 -0.79057,-1.58114l0.45975,-1.13554c0.53705,-0.65836 1.00904,-1.39076 1.31541,-2.18323c0,0 0.46424,-1.1606 1.62483,-0.69636c1.1606,0.46424 0.69636,1.62483 0.69636,1.62483c-0.41522,1.01205 -1.00755,1.95714 -1.68443,2.81649l-0.04022,0.36437c0,0 -0.39528,1.18585 -1.58114,0.79057z"/><path d="M288.23458,190.06582c-0.30317,-1.21268 0.90951,-1.51585 0.90951,-1.51585l0.7441,-0.15534c1.63908,-0.81589 3.04864,-1.30971 4.85326,-1.61487c0,0 1.23299,-0.2055 1.43849,1.02749c0.2055,1.23299 -1.02749,1.43849 -1.02749,1.43849c-1.57278,0.25778 -2.71981,0.66821 -4.14623,1.38496l-1.25579,0.34463c0,0 -1.21268,0.30317 -1.51585,-0.90951z"/><path d="M295.83083,168.89776c-0.88388,0.88388 -1.76777,0 -1.76777,0l-0.25921,-0.31199c-1.39369,-0.83622 -2.57927,-1.54034 -3.74057,-2.68784c0,0 -0.88388,-0.88388 0,-1.76777c0.88388,-0.88388 1.76777,0 1.76777,0c0.99804,1.01297 2.04124,1.5812 3.25904,2.31188l0.74074,0.68795c0,0 0.88388,0.88388 0,1.76777z"/></g></g></svg>