<svg version="1.1" xmlns="http://www.w3.org/2000/svg" xmlns:xlink="http://www.w3.org/1999/xlink" width="78.5" height="44" viewBox="0,0,78.5,44"><g transform="translate(-280.75,-158)"><g data-paper-data="{&quot;isPaintingLayer&quot;:true}" fill-rule="nonzero" stroke-linecap="butt" stroke-linejoin="miter" stroke-miterlimit="10" stroke-dasharray="" stroke-dashoffset="0" style="mix-blend-mode: normal"><path d="M282,200.75v-41.5h76v41.5z" fill="#4ae5ff" stroke="#000000" stroke-width="2.5"/><path d="M343.77155,166.45412c1.50315,-0.50063 3.20844,-0.19415 4.99622,1.34478c3.17067,2.72935 1.12195,9.51754 -1.69411,11.50093c-7.66956,5.40178 -13.95624,-5.25102 -8.91336,-11.42593c0.75261,-0.92156 2.12549,-1.07006 3.18824,-1.60509c0,0 1.34922,-0.57824 2.42302,0.18531z" fill="#fd4aff" stroke="none" stroke-width="0.5"/><path d="M333.5,175.56667c0,2.5 -2.5,2.5 -2.5,2.5h-1.33333c-12.96866,0 -31.01785,0.34723 -36.32584,14.71114c0,0 -0.87781,2.34082 -3.21863,1.46301c-2.34082,-0.87781 -1.46301,-3.21863 -1.46301,-3.21863c6.33363,-16.68509 25.60274,-17.95552 41.00749,-17.95552h1.33333c0,0 2.5,0 2.5,2.5z" fill="#fd4aff" stroke="none" stroke-width="0.5"/><path d="M302.91987,190.28675c-1.38675,-2.08013 0.69338,-3.46688 0.69338,-3.46688l2.26872,-1.48928c8.22633,-4.10182 16.86125,-5.42616 25.89169,-6.25367c0,0 2.48973,-0.22634 2.71607,2.26339c0.22634,2.48973 -2.26339,2.71607 -2.26339,2.71607c-8.39985,0.75789 -16.45601,1.90865 -24.10831,5.74633l-1.73128,1.17739c0,0 -2.08013,1.38675 -3.46688,-0.69338z" fill="#fd4aff" stroke="none" stroke-width="0.5"/><path d="M336.16667,168.56667c0,2.5 -2.5,2.5 -2.5,2.5h-2.66667c-5.72962,0 -11.33145,-0.06424 -17.02325,0.64736c0,0 -2.48069,0.31009 -2.79078,-2.17061c-0.31009,-2.48069 2.17061,-2.79078 2.17061,-2.79078c5.8998,-0.73735 11.70622,-0.68597 17.64342,-0.68597h2.66667c0,0 2.5,0 2.5,2.5z" fill="#fd4aff" stroke="none" stroke-width="0.5"/></g></g></svg>