<svg version="1.1" xmlns="http://www.w3.org/2000/svg" xmlns:xlink="http://www.w3.org/1999/xlink" width="59.32625" height="43.5" viewBox="0,0,59.32625,43.5"><g transform="translate(-290.33687,-158.25004)"><g data-paper-data="{&quot;isPaintingLayer&quot;:true}" fill-rule="nonzero" stroke-linecap="butt" stroke-linejoin="miter" stroke-miterlimit="10" stroke-dasharray="" stroke-dashoffset="0" style="mix-blend-mode: normal"><path d="M291.58687,200.50004v-41h56.82625v41z" fill="#8cff95" stroke="#cccccc" stroke-width="2.5"/><path d="M308.16085,175.14723c-0.68592,-0.17275 -1.38329,-0.30583 -2.08506,-0.39486c-1.48271,0.18899 -2.90781,0.60051 -4.3577,0.96299l-0.50378,0.10157c-0.51525,1.04907 -1.15083,2.02049 -2.05526,2.808l-0.4327,0.26719c-0.5245,3.19489 -1.82813,6.2693 -2.02667,9.4909c-0.09917,1.60912 -0.51212,3.49998 0.17443,4.99816l0.44826,0.78154c0.23395,-0.09367 0.44459,-0.09367 0.44459,-0.09367l0.15194,0.00823c1.84911,-0.22795 3.79396,-0.27754 5.70614,-0.28852c-0.04728,-0.46976 0.03349,-1.02126 0.23394,-1.69312c0.1616,-0.54164 0.85607,-1.01533 0.68123,-1.55285c-0.10218,-0.31413 -0.56952,-0.4135 -0.67335,-0.72708c-0.29109,-0.87921 -0.19261,-3.34304 0.1665,-4.19552c0.18241,-0.43303 0.54771,-0.76704 0.86896,-1.10995c0.13093,-0.13977 0.46545,-0.13277 0.47442,-0.32408c0.01269,-0.27055 -0.39027,-0.42307 -0.42679,-0.69145c-0.37113,-2.72689 1.07293,-5.32479 3.15177,-6.88914c0.02492,-0.48556 0.0645,-0.97477 0.12579,-1.45663zM308.86041,172.55795c0,0 0.25072,-0.58501 0.81676,-0.65683c0.27451,-0.34842 0.74037,-0.40665 0.74037,-0.40665c4.07475,-0.50231 8.69648,-0.35925 12.7629,0.14203l0.62832,0.24626c0,0 0.42013,0.21007 0.56292,0.63019c0.63668,0.17129 0.72784,0.9006 0.72784,0.9006c0.02448,0.19585 0.05533,0.40685 0.08983,0.62982c3.05148,0.0192 6.08319,0.48043 9.15518,0.28553c2.98574,-0.18942 5.90745,-0.41561 8.90709,-0.42765c0.08979,-0.15283 0.21127,-0.26725 0.3099,-0.34327c0.20707,-1.07173 0.01632,-1.66251 -0.39802,-2.63986c-3.26118,0 -7.01384,0 -10.17308,0c-3.8086,0 -7.63369,0.09309 -11.4286,-0.14409c-2.97537,-0.18596 -5.94203,-0.70275 -8.92744,-0.7081c-1.13328,0.00187 -2.22722,0.15257 -3.36299,0.14204c-0.63162,-0.00586 -1.67066,-0.05138 -2.08041,0.63732c-0.1954,0.32842 -0.12306,1.45424 -0.12106,1.70618v0.19532c0.53751,0.08966 1.07169,0.20069 1.60022,0.33175c0.05789,-0.17774 0.12115,-0.35152 0.19027,-0.52059zM303.09308,171.13117c0,0 0,0.44589 -0.28848,0.7607c-0.20005,0.49196 -0.38817,0.9942 -0.57832,1.49674c0.901,-0.22897 1.799,-0.4513 2.71319,-0.6146v-0.22255c0.00601,-0.95408 -0.0986,-1.96391 0.44706,-2.83878c0.28344,-0.45445 0.66696,-0.7968 1.1166,-1.054c-0.30876,-0.03761 -0.6048,-0.05349 -0.90281,-0.04763c-0.00175,0.00543 -0.00353,0.01089 -0.00536,0.01637c-0.33685,1.01056 -1.34742,0.67371 -1.34742,0.67371l-0.13232,-0.04537c-0.32383,0.64562 -0.67667,1.26922 -1.0392,1.90406c-0.00009,0.00051 -0.00018,0.00102 -0.00027,0.00153zM297.79516,176.98826c1.43866,-1.11785 2.08446,-3.1697 2.71996,-4.997c-2.09935,-1.41935 -3.85546,-3.87027 -2.73109,-6.53937c0.18241,-0.43303 0.5793,-0.73997 0.86896,-1.10995c0,0 0.04214,-0.05057 0.11804,-0.11608c0.02703,-0.03237 0.05667,-0.0648 0.0891,-0.09723c0.75323,-0.75323 1.50646,0 1.50646,0c0.908,0.90972 1.91947,2.03566 3.09719,2.63699c1.71091,-0.39198 3.03359,-0.37016 4.78771,0.06545l0.84741,0.32844c0,0 0.5627,0.22508 0.66946,0.76013c1.04675,-0.04137 2.08457,0.01728 2.91177,0.01586c0,0 0.00764,0 0.02162,0.00064c3.75456,0.02318 7.52099,0.61607 11.26495,0.8536c2.97992,0.18905 6.03685,-0.00206 9.02374,-0.00206c3.45607,0 6.91213,0 10.3682,0h0.71015c0,0 1.06523,0 1.06523,1.06523c0,0.08111 -0.00617,0.15603 -0.01758,0.22526c0.63058,1.55134 0.85251,2.62639 0.41187,4.43603l-0.14454,0.14374c0.02199,0.09125 0.03431,0.19349 0.03431,0.30805c0,1.06523 -1.06523,1.06523 -1.06523,1.06523h-0.85218c-1.45811,0 -2.89532,0.0545 -4.32966,0.13178c-0.00155,0.78703 -0.02264,1.84716 -0.14616,2.03623c-0.88809,1.35941 -1.76665,1.01028 -2.98559,1.09662c-3.43002,0.24297 -6.84987,0.00206 -10.29236,0.00206h-0.20413c-0.10949,0.61295 -0.3176,1.16132 -0.67041,1.59111c-1.01178,1.23252 -2.52427,1.34538 -3.96438,1.52533c-2.55615,0.31939 -5.20778,0.25272 -7.79463,0.02773c-0.38594,0.55772 -1.11766,0.37478 -1.11766,0.37478l-0.72938,-0.19635c-0.78931,-0.34147 -1.80778,-0.29044 -2.42002,-0.89441c-0.64512,-0.6364 -0.76628,-1.35528 -0.78378,-2.10686c-0.74664,1.01561 -1.17336,2.27355 -1.00303,3.57761c0.05893,0.45115 0.51221,0.85035 0.42538,1.29698c-0.15764,0.81086 -1.163,1.21929 -1.49723,1.97469c-0.1875,0.42378 -0.27964,2.20665 -0.11756,2.62193c0.14907,0.38196 0.68168,0.57249 0.74695,0.97728c0.19632,1.2174 -1.50442,2.97009 -0.63952,3.71732c0.00908,-0.00001 0.01814,-0.00003 0.02721,-0.00004c0,0 0.65382,0 0.937,0.51224c0.24995,0.19397 0.64066,0.63178 0.29983,1.31343c-0.47639,0.95277 -1.42915,0.47639 -1.42915,0.47639l-0.22729,-0.1157c-0.03887,-0.01908 -0.07715,-0.03819 -0.11482,-0.0573c-2.39427,-0.00738 -4.93275,-0.02162 -7.28713,0.27724l-0.41618,0.00823c0,0 -0.53122,0 -0.84338,-0.37513c-0.86684,0.41697 -1.35977,-0.44565 -1.35977,-0.44565l-0.59679,-1.04788c-2.11612,-5.146 1.00034,-10.96185 1.71144,-16.13086c0.00075,-0.07392 0.01072,-0.14367 0.02747,-0.20907c0.00135,-0.01079 0.00269,-0.02158 0.00402,-0.03237c0,0 0.11825,-0.946 1.02596,-0.93623zM299.76263,166.52478c-0.48618,1.2674 0.42876,2.55017 1.55283,3.42241c0.28912,-0.50568 0.5715,-1.00461 0.83328,-1.51844c-0.86675,-0.51518 -1.64081,-1.18829 -2.38611,-1.90397zM322.85598,173.7883l0.0602,-0.0378c-3.85783,-0.48971 -8.31351,-0.63372 -12.18515,-0.14825c-0.57855,1.45606 -0.52485,3.5007 -0.53645,5.05651c-0.003,0.40216 -0.2228,0.94254 -0.08495,1.28206c0.35998,-0.1403 0.73266,-0.03382 0.73266,-0.03382l0.81921,0.24959c2.94441,0.32721 6.03166,0.51273 8.9822,0.14374c0.79285,-0.09915 1.98045,-0.0671 2.569,-0.74716c0.31163,-0.36008 0.22456,-1.00441 0.19274,-1.39635c-0.05405,-0.66569 -0.10596,-1.32773 -0.16335,-1.98913c-0.31488,0.28959 -0.76191,0.28959 -0.76191,0.28959h-0.14203c-3.01332,-0.00516 -6.42647,-0.17254 -9.34828,-0.88399c0,0 -1.03342,-0.25836 -0.77507,-1.29178c0.25836,-1.03342 1.29177,-0.77507 1.29177,-0.77507c2.71447,0.70077 6.01977,0.82579 8.83158,0.82038h0.14203c0,0 0.31385,0 0.60083,0.17035c-0.02357,-0.21684 -0.04841,-0.43388 -0.07478,-0.65124c-0.09318,-0.02914 -0.15025,-0.05767 -0.15025,-0.05767zM325.74689,177.16745c2.99501,0 6.03932,0.33342 9.02374,0.14409c0.04636,-0.00294 2.38939,-0.10773 2.41156,-0.18165c0.08236,-0.2746 0.04847,-0.55967 -0.00703,-0.84782c-0.89582,0.05715 -1.79377,0.11745 -2.69824,0.17318c-3.00795,0.18532 -5.97948,-0.23994 -8.96509,-0.27917c0.04113,0.328 0.07603,0.66046 0.09961,0.99138z" fill="#000000" stroke="none" stroke-width="0.5"/><path d="M302.1698,168.43197c-0.26178,0.51382 -0.56007,1.03021 -0.84919,1.53589c-1.12407,-0.87224 -2.05587,-2.19348 -1.56969,-3.46088c0.7453,0.71568 1.55213,1.40981 2.41888,1.92499z" data-paper-data="{&quot;noHover&quot;:false,&quot;origItem&quot;:[&quot;Path&quot;,{&quot;applyMatrix&quot;:true,&quot;segments&quot;:[[[257.68372,168.61774],[1.74917,1.67964],[-1.14103,2.97448]],[[261.32809,176.64986],[-2.6381,-2.04707],[0.67853,-1.18678]],[[263.28373,173.08621],[-0.61437,1.20589],[-2.0342,-1.20909]]],&quot;closed&quot;:true}]}" fill="#777777" stroke="none" stroke-width="0.5"/><path d="M303.09689,171.1587c0.00009,-0.00051 -0.0421,0.00427 -0.04201,0.00377c0.36253,-0.63484 0.73349,-1.28216 1.05732,-1.92779l0.13387,0.0452c0,0 1.02184,0.3392 1.35869,-0.67137c0.00182,-0.00548 0.00359,-0.01094 0.00533,-0.01637c0.29802,-0.00585 0.59864,0.01322 0.90739,0.05082c-0.44963,0.2572 -0.83428,0.59859 -1.11772,1.05304c-0.54566,0.87488 -0.4469,1.92137 -0.45291,2.87545l-0.00084,0.22284c-0.91419,0.1633 -1.83296,0.38123 -2.73396,0.6102c0.19014,-0.50254 0.37398,-1.01008 0.57403,-1.50204c0.28848,-0.31481 0.28578,-0.76908 0.28578,-0.76908z" data-paper-data="{&quot;noHover&quot;:false,&quot;origItem&quot;:[&quot;Path&quot;,{&quot;applyMatrix&quot;:true,&quot;segments&quot;:[[265.5,179.42857],[[264.82295,181.21388],[0.67705,-0.73884],[-0.46949,1.1546]],[[263.4657,184.72662],[0.44625,-1.17943],[2.11457,-0.53737]],[[269.83333,183.28421],[-2.14554,0.38325],[0,0]],[[269.83333,182.7619],[0,0],[0.01411,-2.23915]],[[270.88255,176.09951],[-1.28062,2.05327],[0.66521,-1.06656]],[[273.50311,173.62585],[-1.05525,0.60363],[-0.72463,-0.08826]],[[271.38428,173.51406],[0.69943,-0.01373],[-0.0041,0.01275]],[[271.37171,173.55247],[0.00428,-0.01285],[-0.79057,2.37171]],[268.20943,175.13361],[[267.89889,175.02714],[0,0],[-0.76,1.51523]],[[265.45997,179.49582],[0.85082,-1.48993],[-0.00021,0.00119]],[[265.45933,179.49941],[0.00021,-0.00119],[0,0]]],&quot;closed&quot;:true}]}" fill="#777777" stroke="none" stroke-width="0.5"/><path d="M323.02537,173.83661c0.02638,0.21735 0.05199,0.43618 0.07555,0.65302c-0.28698,-0.17035 -0.64017,-0.15404 -0.64017,-0.15404l-0.14195,0.00018c-2.81181,0.00541 -6.08303,-0.11313 -8.79751,-0.8139c0,0 -1.02969,-0.2631 -1.28805,0.77032c-0.25836,1.03342 0.73653,1.27402 0.73653,1.27402c2.92182,0.71144 6.37628,0.88423 9.38961,0.88939l0.09956,0.00335c0,0 0.48944,-0.00405 0.80432,-0.29364c0.05739,0.6614 0.10907,1.32979 0.16311,1.99547c0.03182,0.39193 0.11766,1.04041 -0.19396,1.40049c-0.58855,0.68006 -1.77982,0.65393 -2.57267,0.75308c-2.95054,0.36899 -6.07179,0.18093 -9.0162,-0.14628l-0.82025,-0.25141c0,0 -0.37306,-0.10727 -0.73305,0.03303c-0.13785,-0.33953 0.08074,-0.88326 0.08374,-1.28542c0.0116,-1.55581 -0.0402,-3.6162 0.53835,-5.07226c3.87164,-0.48548 8.36498,-0.34092 12.2228,0.14878l-0.06019,0.03782c0,0 0.05723,0.02886 0.15041,0.058z" data-paper-data="{&quot;noHover&quot;:false,&quot;origItem&quot;:[&quot;Path&quot;,{&quot;applyMatrix&quot;:true,&quot;segments&quot;:[[623.76393,371.32927],[[624.04649,371.15186],[0,0],[-18.10801,-2.2986]],[[566.85133,370.45603],[18.17287,-2.27877],[-2.71562,6.83453]],[[564.33333,394.19047],[0.05445,-7.30271],[-0.01408,1.88768]],[[563.9346,400.20828],[-0.64707,-1.59369],[1.6897,-0.65856]],[567.37361,400.04952],[[571.21882,401.22105],[0,0],[13.82059,1.53589]],[[613.37983,401.89575],[-13.84938,1.73196],[3.72149,-0.4654]],[[625.43831,398.38871],[-2.76255,3.1921],[1.46271,-1.69014]],[[626.343,391.83449],[0.14935,1.83965],[-0.25367,-3.12462]],[[625.57628,382.49784],[0.26937,3.1045],[-1.47799,1.35929]],[622,383.85714],[[621.33333,383.85714],[0,0],[-14.14407,-0.02421]],[[577.45399,379.70785],[13.71455,3.33941],[0,0]],[[573.81595,373.64446],[-1.21268,4.85071],[1.21268,-4.85071]],[[579.87934,370.00642],[0,0],[12.74131,3.28931]],[[621.33333,373.85714],[-13.19818,0.02539],[0,0]],[622,373.85714],[[624.82018,374.65675],[-1.34705,-0.79961],[-0.11062,-1.01782]],[[624.46916,371.59995],[0.12381,1.02021],[-0.43738,-0.13675]]],&quot;closed&quot;:true}]}" fill="#777777" stroke="none" stroke-width="0.5"/><path d="M325.59018,177.16891c-0.02358,-0.33092 -0.05843,-0.66698 -0.09956,-0.99499c2.98561,0.03922 5.99953,0.46448 9.00748,0.27916c0.90447,-0.05573 1.80246,-0.11565 2.69827,-0.1728c0.0555,0.28815 0.08942,0.57633 0.00706,0.85092c-0.02217,0.07392 -2.36542,0.18073 -2.41178,0.18367c-2.98441,0.18934 -6.07103,-0.14593 -9.06603,-0.14593z" data-paper-data="{&quot;noHover&quot;:false,&quot;origItem&quot;:[&quot;Path&quot;,{&quot;applyMatrix&quot;:true,&quot;segments&quot;:[[[637.33333,387.19047],[0,0],[14.05809,0]],[[679.68931,387.8668],[-14.00835,0.88872],[0.21761,-0.01381]],[[691.00878,387.01417],[-0.10407,0.34698],[0.38658,-1.28892]],[[690.97579,383.03463],[0.26051,1.35254],[-4.20482,0.26827]],[[678.31069,383.84748],[4.24544,-0.26157],[-14.11884,0.86988]],[[636.22999,382.53711],[14.01395,0.18411],[0.19304,1.53961]],[[636.69756,387.19047],[-0.11069,-1.55329],[0,0]]],&quot;closed&quot;:true}]}" fill="#a2a2a2" stroke="none" stroke-width="0.5"/><path d="M322.69324,178.37471c0,1.06523 -1.06523,1.06523 -1.06523,1.06523h-0.42609c-3.06137,0 -6.37153,0.1249 -9.34828,-0.59993c0,0 -1.03342,-0.25836 -0.77507,-1.29177c0.25836,-1.03342 1.29178,-0.77507 1.29178,-0.77507c2.77353,0.71602 5.96838,0.53632 8.83157,0.53632h0.42609c0,0 1.06523,0 1.06523,1.06523z" fill="#000000" stroke="none" stroke-width="0.5"/><path d="M308.69141,173.07745c-0.52853,-0.13105 -1.10528,-0.24038 -1.64279,-0.33004v-0.19555c-0.002,-0.25194 -0.07428,-1.37976 0.12112,-1.70818c0.40975,-0.68869 1.44889,-0.64421 2.08051,-0.63835c1.13577,0.01053 2.22985,-0.14107 3.36313,-0.14295c2.98541,0.00535 5.95317,0.5181 8.92854,0.70405c3.79491,0.23718 7.66091,0.14811 11.46951,0.14811c3.15925,0 6.91215,0.00203 10.17333,0.00203c0.41433,0.97736 0.60509,1.57125 0.39802,2.64298c-0.09863,0.07603 -0.22014,0.19088 -0.30993,0.3437c-2.99964,0.01204 -5.92182,0.24109 -8.90756,0.43052c-3.07199,0.19489 -6.12632,-0.24997 -9.1778,-0.26917c-0.0345,-0.22296 -0.06785,-0.43434 -0.09234,-0.63019c0,0 -0.1072,-0.74408 -0.74387,-0.91537c-0.1428,-0.42013 -0.56331,-0.64084 -0.56331,-0.64084l-0.58694,-0.23615c-4.06642,-0.50129 -8.68745,-0.64885 -12.76219,-0.14654c0,0 -0.46584,0.05763 -0.74034,0.40605c-0.56604,0.07181 -0.81676,0.65596 -0.81676,0.65596c-0.06912,0.16906 -0.13241,0.34219 -0.1903,0.51993z" data-paper-data="{&quot;noHover&quot;:false,&quot;origItem&quot;:[&quot;Path&quot;,{&quot;applyMatrix&quot;:true,&quot;segments&quot;:[[[558.07094,365.55421],[-0.32445,0.79357],[0,0]],[[561.90466,362.47117],[-2.65689,0.33709],[1.2885,-1.63542]],[[565.37983,360.56241],[0,0],[19.1262,-2.35777]],[[625.28684,361.22908],[-19.08713,-2.35296],[0,0]],[628.23607,362.385],[[630.87834,365.34302],[-0.67026,-1.97201],[2.98847,0.80401]],[[634.29472,369.5703],[0,0],[0.11491,0.91931]],[[634.71635,372.52656],[-0.16194,-1.04657],[14.32318,0.09014]],[[677.68931,373.8668],[-14.41942,0.9148],[14.01457,-0.88911]],[[719.49775,371.85949],[-14.07984,0.0565],[0.42149,-0.71733]],[[720.95236,370.24823],[-0.46296,0.35685],[0.97196,-5.03052]],[[719.08414,357.85714],[1.94482,4.58755],[-15.30744,0]],[[671.33333,357.85714],[14.829,0],[-17.87695,0]],[[617.68931,357.18081],[17.8127,1.11329],[-13.96592,-0.87287]],[[575.78535,353.85711],[14.01304,0.02512],[-5.31943,0.0088]],[[560,354.5238],[5.33114,0.04942],[-2.96473,-0.02749]],[[550.2349,357.51526],[1.9233,-3.23262],[-0.91716,1.54153]],[[549.66667,365.5238],[-0.00938,-1.18258],[0,0]],[[549.66667,366.44061],[0,0],[2.52298,0.42083]],[[557.17783,367.99778],[-2.48084,-0.61514],[0.27172,-0.8343]]],&quot;closed&quot;:true}]}" fill="#cacaca" stroke="none" stroke-width="0.5"/><path d="M308.23886,175.1309c-0.06129,0.48186 -0.09965,0.9719 -0.12458,1.45746c-2.07884,1.56435 -3.51551,4.17203 -3.14438,6.89892c0.03653,0.26838 0.44073,0.4264 0.42804,0.69696c-0.00897,0.1913 -0.34341,0.18666 -0.47434,0.32643c-0.32124,0.34292 -0.69033,0.68863 -0.87275,1.12165c-0.35911,0.85248 -0.46931,3.32467 -0.17823,4.20388c0.10383,0.31359 0.57258,0.4125 0.67476,0.72663c0.17484,0.53751 -0.52271,1.01206 -0.68431,1.5537c-0.20046,0.67186 -0.28247,1.22357 -0.23518,1.69333c-1.91218,0.01099 -3.86883,0.05881 -5.71794,0.28676l-0.15219,-0.00835c0,0 -0.21127,-0.00031 -0.44522,0.09336l-0.4496,-0.78231c-0.68656,-1.49818 -0.27995,-3.39504 -0.18079,-5.00416c0.19854,-3.2216 1.50804,-6.32601 2.03254,-9.52089l0.4341,-0.26802c0.90443,-0.78751 1.54746,-1.76137 2.06271,-2.81044l0.50502,-0.1017c1.4499,-0.36248 2.88416,-0.77264 4.36688,-0.96163c0.70178,0.08904 1.4028,0.22392 2.08871,0.39668z" data-paper-data="{&quot;noHover&quot;:false,&quot;origItem&quot;:[&quot;Path&quot;,{&quot;applyMatrix&quot;:true,&quot;segments&quot;:[[[554.78732,377.70785],[0,0],[-3.21958,-0.81088]],[[545.00036,375.85443],[3.29404,0.41793],[-6.95963,0.8871]],[[524.54601,380.37452],[6.80558,-1.7014],[0,0]],[[522.18134,380.85128],[0,0],[-2.4185,4.92416]],[[512.53426,394.03158],[4.24526,-3.69644],[0,0]],[[510.50323,395.28572],[0,0],[-2.46194,14.99628]],[[500.99034,439.83449],[0.93192,-15.12166],[-0.46548,7.55296]],[[501.80911,463.29502],[-3.22257,-7.0322],[0,0]],[[503.91317,466.96347],[0,0],[1.09811,-0.43967]],[506,466.5238],[[506.71316,466.56241],[0,0],[8.67943,-1.06995]],[[533.49689,465.20812],[-8.97547,0.05157],[-0.22193,-2.20496]],[[534.59498,457.2609],[-0.94091,3.1536],[0.75854,-2.54237]],[[537.79256,449.97208],[0.82066,2.52301],[-0.4796,-1.47447]],[[534.63198,446.55926],[0.48733,1.47193],[-1.36633,-4.12687]],[[535.41349,426.86617],[-1.68561,4.00141],[0.85622,-2.03256]],[[539.49223,421.65622],[-1.50785,1.6096],[0.61457,-0.65604]],[[541.71908,420.13505],[-0.04211,0.89795],[0.05956,-1.26995]],[[539.71577,416.88951],[0.17145,1.25973],[-1.74203,-12.79958]],[[554.50969,384.55299],[-9.75773,7.34281],[0.11699,-2.27912]],[[555.10014,377.71579],[-0.2877,2.26177],[0,0]]],&quot;closed&quot;:true}]}" fill="#9e493b" stroke="none" stroke-width="0.5"/><path d="M311.28335,180.90675c0.95277,0.47638 0.47638,1.42915 0.47638,1.42915l-0.54041,0.95859c-1.5267,1.51819 -2.65161,2.13723 -4.83524,1.83354c0,0 -1.05284,-0.16197 -0.89087,-1.21481c0.16197,-1.05284 1.21481,-0.89087 1.21481,-0.89087c1.48654,0.26042 1.96951,-0.19223 3.00483,-1.23432l0.14133,-0.4049c0,0 0.47638,-0.95277 1.42915,-0.47638z" fill="#000000" stroke="none" stroke-width="0.5"/></g></g></svg>