<svg version="1.1" xmlns="http://www.w3.org/2000/svg" xmlns:xlink="http://www.w3.org/1999/xlink" width="78.5" height="44" viewBox="0,0,78.5,44"><g transform="translate(-280.75,-158)"><g data-paper-data="{&quot;isPaintingLayer&quot;:true}" fill-rule="nonzero" stroke-linecap="butt" stroke-linejoin="miter" stroke-miterlimit="10" stroke-dasharray="" stroke-dashoffset="0" style="mix-blend-mode: normal"><path d="M282,200.75v-41.5h76v41.5z" fill="#ff4949" stroke="#000000" stroke-width="2.5"/><path d="M301.51734,172.66044c-0.74074,0.73955 -1.85067,0.73956 -1.85067,0.73956h-0.66667c-1.1084,-0.20377 -2.59399,0.14568 -3.62606,-0.17004c2.10097,0.95286 4.61172,1.32591 5.84654,0.24743c0.21927,-0.19151 0.26143,-0.51034 0.29685,-0.81695zM294.84692,172.97434c-0.14555,-0.10622 -0.27249,-0.23973 -0.3764,-0.40703c-2.70477,-4.35487 0.52289,-7.72447 4.29705,-8.15647c6.47884,-0.74159 10.91705,8.01379 6.01195,12.57844c-4.72971,4.40143 -15.58901,1.10488 -17.49358,-4.993c-1.14875,-3.67799 0.22074,-4.52409 2.01307,-7.21604c0,0 1.4531,-2.03433 3.48743,-0.58123c2.03433,1.45309 0.58123,3.48743 0.58123,3.48743c-0.64751,0.80588 -1.81325,1.55413 -1.32026,2.78396c0.35565,0.88721 1.45484,1.80771 2.79951,2.50394z" fill="#fff04a" stroke="none" stroke-width="0.5"/><path d="M348.13265,189.64433c-0.411,2.46598 -2.87698,2.05499 -2.87698,2.05499l-3.82507,-1.68128c-0.4039,-0.89643 -1.09893,-1.72662 -1.41628,-2.64274c-0.61475,0.7879 0.60206,3.79097 1.27642,4.29075c1.5167,1.12407 4.14651,1.87538 6.04711,1.27404c1.22857,-0.38871 1.08804,-1.58623 1.17708,-2.6462c0.10622,-1.26461 0.07762,-4.05336 -1.38061,-4.86684c-0.38348,-0.21392 -0.87818,-0.01442 -1.31696,-0.03159c-1.97744,-0.07738 -0.79377,0.90974 0.08538,2.38651l0.17493,-1.01462c0,0 2.46598,0.411 2.05498,2.87698zM341.3667,182.1162c1.8857,-2.0939 5.21268,-2.64888 8.16566,-1.07657c4.28594,2.28205 5.31597,9.99849 2.93573,13.82814c-4.69097,7.54745 -17.60093,1.69612 -17.30141,-6.3011c0.05223,-1.39445 -0.00979,-2.96885 0.79248,-4.11059c0.79946,-1.13772 2.39299,-1.41698 3.58948,-2.12547c0,0 0.88387,-0.44194 1.81806,-0.2144z" fill="#fff04a" stroke="none" stroke-width="0.5"/><path d="M291.50971,181.44855c2.45145,-0.49029 2.94174,1.96116 2.94174,1.96116l0.17974,1.17216c2.28153,5.52569 7.73531,7.59123 13.39205,6.83744c0,0 2.48069,-0.31009 2.79078,2.17061c0.31009,2.48069 -2.17061,2.79078 -2.17061,2.79078c-7.97136,0.94432 -15.26969,-2.24741 -18.60795,-9.82923l-0.48692,-2.16117c0,0 -0.49029,-2.45145 1.96116,-2.94174z" fill="#fff04a" stroke="none" stroke-width="0.5"/><path d="M299.8989,182.7989c1.76777,-1.76777 3.53553,0 3.53553,0l0.55036,0.80324c0.77778,0.33333 1.55556,0.66667 2.33333,1c0,0 2.29786,0.9848 1.31306,3.28266c-0.9848,2.29786 -3.28266,1.31306 -3.28266,1.31306c-0.77778,-0.33333 -1.55556,-0.66667 -2.33333,-1l-2.1163,-1.86343c0,0 -1.76777,-1.76777 0,-3.53553z" fill="#fff04a" stroke="none" stroke-width="0.5"/><path d="M341.58722,177.50046c-1.60046,1.92055 -3.52101,0.32009 -3.52101,0.32009l-2,-1.66667c-5.35556,-4.5287 -11.35887,-6.05525 -18.1732,-5.43082c0,0 -2.48973,0.22634 -2.71607,-2.26339c-0.22634,-2.48973 2.26339,-2.71607 2.26339,-2.71607c8.18966,-0.73893 15.38394,1.26277 21.8268,6.56918l2,1.66667c0,0 1.92055,1.60046 0.32009,3.52101z" fill="#fff04a" stroke="none" stroke-width="0.5"/><path d="M334.75869,179.83967c-0.60634,2.42536 -3.0317,1.81902 -3.0317,1.81902l-1.71179,-0.46083c-1.56636,-0.68002 -3.22252,-1.15999 -4.89086,-1.52406c0,0 -2.44047,-0.54233 -1.89814,-2.98279c0.54233,-2.44047 2.98279,-1.89814 2.98279,-1.89814c1.96803,0.44411 3.91832,1.02179 5.77581,1.80927l0.95487,0.20584c0,0 2.42536,0.60634 1.81902,3.0317z" fill="#fff04a" stroke="none" stroke-width="0.5"/><path d="M334.5694,187.35137c-1.11803,2.23607 -3.3541,1.11803 -3.3541,1.11803l-0.78898,-0.39879c-0.76373,-0.43642 -1.52746,-0.87284 -2.2912,-1.30926c-0.27934,-0.15283 -0.5263,-0.35744 -0.72798,-0.60091c-0.49556,-0.55451 -0.96881,-1.49439 -0.28741,-2.75672c0.02531,-0.04808 0.05215,-0.09524 0.08043,-0.1414c0.73949,-1.23557 1.78943,-1.3097 2.52088,-1.16576c0.32127,0.05002 0.62228,0.16121 0.89077,0.32129c0.76507,0.43718 1.53014,0.87437 2.29521,1.31155l0.54435,0.26787c0,0 2.23607,1.11803 1.11803,3.3541z" fill="#fff04a" stroke="none" stroke-width="0.5"/></g></g></svg>