<svg version="1.1" xmlns="http://www.w3.org/2000/svg" xmlns:xlink="http://www.w3.org/1999/xlink" width="63.47396" height="12.60512" viewBox="0,0,63.47396,12.60512"><defs><linearGradient x1="262.68667" y1="180.12036" x2="358.91164" y2="180.12036" gradientUnits="userSpaceOnUse" id="color-1"><stop offset="0" stop-color="#ffffff" stop-opacity="0"/><stop offset="1" stop-color="#ffffff"/></linearGradient></defs><g transform="translate(-262.68667,-173.81781)"><g data-paper-data="{&quot;isPaintingLayer&quot;:true}" fill-rule="nonzero" stroke-linecap="butt" stroke-linejoin="miter" stroke-miterlimit="10" stroke-dasharray="" stroke-dashoffset="0" style="mix-blend-mode: normal"><path d="M262.68667,186.42293v-12.60512h59.35127c0.64266,0.3509 1.26726,0.68667 1.86464,1.09854c0.84202,1.65682 2.25805,3.28513 2.25805,5.52901c0,3.04804 -2.15212,4.8085 -4.74579,5.80606c-0.1648,0.06338 -0.33083,0.12013 -0.49788,0.17151z" fill="url(#color-1)" stroke="none" stroke-width="0"/><path d="M313.75222,179.9923c0,-3.26712 2.64852,-5.91564 5.91564,-5.91564c3.26712,0 5.91564,2.64852 5.91564,5.91564c0,3.26712 -2.64852,5.91564 -5.91564,5.91564c-3.26712,0 -5.91564,-2.64852 -5.91564,-5.91564z" fill="#b6b6b6" stroke="#000000" stroke-width="0.5"/></g></g></svg>