<svg version="1.1" xmlns="http://www.w3.org/2000/svg" xmlns:xlink="http://www.w3.org/1999/xlink" width="223.97575" height="203.27642" viewBox="0,0,223.97575,203.27642"><g transform="translate(-206.01213,-100.36179)"><g data-paper-data="{&quot;isPaintingLayer&quot;:true}" fill-opacity="0.42745" fill="#47a943" fill-rule="nonzero" stroke="none" stroke-width="0.5" stroke-linecap="butt" stroke-linejoin="miter" stroke-miterlimit="10" stroke-dasharray="" stroke-dashoffset="0" style="mix-blend-mode: normal"><path d="M344.25457,101.35489c3.3718,-0.85633 7.33457,1.27411 10.49235,2.08837c4.99388,1.2877 10.48481,2.01601 15.11634,4.41163c4.7474,2.45555 8.27933,7.53353 12.69616,10.28742c4.9256,3.0711 12.93053,3.56858 18.49421,6.52359c13.69083,7.27155 28.93424,29.6465 28.93424,45.80702c0,13.74832 -2.38902,20.97617 -11.91466,30.95629c-0.46969,0.4921 2.48203,7.88893 2.79663,8.91625c1.67542,5.47115 1.11803,12.50716 1.11803,17.8914c0,6.28427 -2.67057,15.55748 -5.62461,21.11803c-1.29526,2.43814 -6.24661,6.22976 -6.5,8.93003c-0.4193,4.46825 0.40171,7.94479 -0.3125,12.19497c-1.03414,6.15404 -4.63091,11.69199 -8.47601,16.4746c-6.51245,8.10032 -20.28406,15.45421 -30.82474,16.50828c-4.10858,0.41086 -8.25869,-0.01655 -12.38675,-0.10788c-5.67067,-0.12546 -11.69669,-3.71074 -17.2355,-3.22355c-3.30905,0.29106 -6.28797,2.17852 -9.7645,2.22355c-12.5072,0.16201 -17.53136,-0.16798 -27.20793,-1c-11.94959,-1.02746 -21.95889,-2.15695 -32.73634,-8.11146c-4.3848,-2.42259 -8.66982,-5.88225 -11.82624,-9.7082c-0.41855,-0.50734 -1.45921,-4.092 -2.2665,-4.18034c-9.46585,-1.03582 -20.20406,0.03048 -28.96299,-4.5c-0.80757,-0.41771 -3.85051,-3.1816 -4.16965,-3.38538c-15.22579,-9.72219 -16.88451,-24.93298 -12.74198,-40.99828c0.64664,-2.50777 0.30441,-4.02573 1.52874,-6.4739c0.10197,-0.20389 -2.13481,-3.12956 -2.3061,-3.45207c-1.53716,-2.89416 -2.27104,-5.73879 -2.97642,-8.92927c-2.0935,-9.46907 -1.33765,-22.48542 1.65884,-32.27053c3.09976,-10.12237 11.7907,-18.72374 21.00658,-23.49057c3.10037,-1.60364 6.69064,-2.27661 9.99057,-3.50658c0.03536,-0.01318 0.10618,0.01976 0.11184,-0.01754c3.10192,-20.41166 13.38967,-36.70523 33.88816,-42.98246c6.50513,-1.99206 15.52871,-0.8989 21.59118,-0.99342c2.14828,-0.0335 6.81255,-3.33721 9.09369,-3.97367c10.50863,-2.93198 21.59516,-5.49605 32.53249,-3.02633z"/></g></g></svg>